<svg width="71" height="70" viewBox="0 0 71 70" fill="none" xmlns="http://www.w3.org/2000/svg">
<g clip-path="url(#clip0_303_501)">
<path d="M54.2894 33.1457L52.9386 28.0735C53.3042 27.9969 53.5784 27.6907 53.5784 27.327V26.5135C53.5784 24.7334 52.0448 23.2883 50.1558 23.2883H44.0214V21.6039C44.0214 20.733 43.2698 20.0153 42.3354 20.0153H11.0847C10.1604 20.0153 9.39873 20.7235 9.39873 21.6039V35.5C9.39873 35.9211 9.76436 36.2657 10.2112 36.2657C10.6581 36.2657 11.0237 35.9211 11.0237 35.5V21.5848C11.0237 21.5561 11.044 21.5369 11.0745 21.5369H42.3354C42.3659 21.5369 42.3862 21.5561 42.3862 21.5848V38.7348C42.3862 38.7444 42.3862 38.7635 42.3862 38.7731V44.5535H25.5065C24.8058 42.6491 22.8862 41.2805 20.6315 41.2805C18.3769 41.2805 16.4573 42.6491 15.7565 44.5535H11.0847C11.0542 44.5535 11.0339 44.5344 11.0339 44.5057V42.8213H14.5581C15.005 42.8213 15.3706 42.4768 15.3706 42.0557C15.3706 41.6346 15.005 41.2901 14.5581 41.2901H6.73779C6.29092 41.2901 5.92529 41.6346 5.92529 42.0557C5.92529 42.4768 6.29092 42.8213 6.73779 42.8213H9.39873V44.5057C9.39873 45.3766 10.1503 46.0944 11.0847 46.0944H15.4823C15.4823 46.1135 15.4823 46.1231 15.4823 46.1422C15.4823 48.8219 17.7979 51.0039 20.6417 51.0039C23.4854 51.0039 25.8011 48.8219 25.8011 46.1422C25.8011 46.1231 25.8011 46.1135 25.8011 46.0944H44.1534C44.1534 46.1135 44.1534 46.1231 44.1534 46.1422C44.1534 48.8219 46.469 51.0039 49.3128 51.0039C52.1565 51.0039 54.4722 48.8219 54.4722 46.1422C54.4722 46.1231 54.4722 46.1135 54.4722 46.0944H57.1128C57.5597 46.0944 57.9253 45.7498 57.9253 45.3287V37.1461C57.9253 35.1172 56.3409 33.4424 54.2894 33.1457ZM20.6315 49.4631C18.6815 49.4631 17.1073 47.9701 17.1073 46.1422C17.1073 44.3143 18.6917 42.8213 20.6315 42.8213C22.5714 42.8213 24.1558 44.3143 24.1558 46.1422C24.1659 47.9701 22.5815 49.4631 20.6315 49.4631ZM44.0315 24.81H50.1659C51.1511 24.81 51.9534 25.566 51.9534 26.4944V26.5422H44.0315V24.81ZM44.0315 28.083H51.2628L52.5933 33.0979H44.0315V28.083ZM49.2925 49.4631C47.3425 49.4631 45.7683 47.9701 45.7683 46.1422C45.7683 44.3143 47.3526 42.8213 49.2925 42.8213C51.2425 42.8213 52.8167 44.3143 52.8167 46.1422C52.8269 47.9701 51.2425 49.4631 49.2925 49.4631ZM56.3003 44.5535H54.1675C53.4667 42.6491 51.5472 41.2805 49.2925 41.2805C47.0378 41.2805 45.1183 42.6491 44.4175 44.5535H44.0214V34.6291H53.6292C54.8073 34.6291 55.8128 35.366 56.1581 36.3709H53.6292C53.1823 36.3709 52.8167 36.7155 52.8167 37.1366V38.7731C52.8167 40.1033 53.9644 41.1752 55.3659 41.1752H56.2901V44.5535H56.3003ZM56.3003 39.644H55.3761C54.8683 39.644 54.4519 39.2516 54.4519 38.7731V37.9022H56.3003V39.644Z" fill="#46AD91"/>
<path d="M20.6315 44.5535C19.7073 44.5535 18.9456 45.2617 18.9456 46.1421C18.9456 47.0226 19.6971 47.7308 20.6315 47.7308C21.5557 47.7308 22.3174 47.0226 22.3174 46.1421C22.3174 45.2617 21.5659 44.5535 20.6315 44.5535Z" fill="#46AD91"/>
<path d="M49.2925 44.5535C48.3683 44.5535 47.6066 45.2617 47.6066 46.1421C47.6066 47.0226 48.3581 47.7308 49.2925 47.7308C50.2269 47.7308 50.9784 47.0226 50.9784 46.1421C50.9784 45.2617 50.2269 44.5535 49.2925 44.5535Z" fill="#46AD91"/>
<path d="M39.7456 41.2805H27.5784C27.1315 41.2805 26.7659 41.625 26.7659 42.0461C26.7659 42.4672 27.1315 42.8118 27.5784 42.8118H39.7456C40.1924 42.8118 40.5581 42.4672 40.5581 42.0461C40.5581 41.625 40.1924 41.2805 39.7456 41.2805Z" fill="#46AD91"/>
<path d="M19.301 38.0074H8.88074C8.43386 38.0074 8.06824 38.352 8.06824 38.7731C8.06824 39.1942 8.43386 39.5387 8.88074 39.5387H19.301C19.7479 39.5387 20.1135 39.1942 20.1135 38.7731C20.1135 38.352 19.7581 38.0074 19.301 38.0074Z" fill="#46AD91"/>
<path d="M34.2409 27.5949C33.9261 27.2983 33.4081 27.2983 33.0933 27.5949L25.8518 34.4186L22.0839 30.868C21.769 30.5713 21.2511 30.5713 20.9362 30.868C20.6214 31.1647 20.6214 31.6528 20.9362 31.9494L25.2831 36.0455C25.4456 36.1987 25.6487 36.2657 25.862 36.2657C26.0753 36.2657 26.2784 36.1891 26.4409 36.0455L34.2612 28.6764C34.5558 28.3797 34.5558 27.8916 34.2409 27.5949Z" fill="#46AD91"/>
</g>
<defs>
<clipPath id="clip0_303_501">
<rect width="52" height="49" fill="white" transform="translate(5.92529 11)"/>
</clipPath>
</defs>
</svg>
