<svg width="71" height="70" viewBox="0 0 71 70" fill="none" xmlns="http://www.w3.org/2000/svg">
<path d="M35.9253 43.0469C28.144 43.0469 21.8159 36.7188 21.8159 28.9375C21.8159 21.1562 28.144 14.8281 35.9253 14.8281C43.7065 14.8281 50.0347 21.1562 50.0347 28.9375C50.0347 36.7188 43.7065 43.0469 35.9253 43.0469ZM35.9253 16.3281C28.969 16.3281 23.3159 21.9813 23.3159 28.9375C23.3159 35.8937 28.969 41.5469 35.9253 41.5469C42.8815 41.5469 48.5347 35.8937 48.5347 28.9375C48.5347 21.9813 42.8815 16.3281 35.9253 16.3281Z" fill="#46AD91"/>
<path d="M54.3379 29.7067C55.2847 28.2536 55.116 26.3505 53.9066 25.0942C53.3722 24.5411 53.1566 23.763 53.316 23.013C53.6722 21.3067 52.8285 19.6099 51.2535 18.8692C50.5597 18.5411 50.0722 17.8942 49.9504 17.1442C49.6691 15.4286 48.2629 14.1442 46.5285 14.0224C45.7597 13.9661 45.0754 13.5442 44.691 12.8786C43.8097 11.3786 42.0379 10.6942 40.3691 11.2099C39.6379 11.4349 38.841 11.2849 38.241 10.8161C36.8816 9.73798 34.9691 9.73798 33.6097 10.8161C33.0097 11.2942 32.2129 11.4442 31.4816 11.2099C29.8222 10.6942 28.041 11.3786 27.1597 12.8786C26.7754 13.5442 26.0816 13.9661 25.3222 14.0224C23.5879 14.1442 22.1816 15.4286 21.9004 17.1442C21.7785 17.9036 21.291 18.5505 20.5972 18.8692C19.0222 19.6099 18.1691 21.3161 18.5347 23.013C18.6941 23.763 18.4691 24.5411 17.9441 25.0942C16.7441 26.3505 16.566 28.2442 17.5129 29.7067C17.9347 30.3442 18.0097 31.1505 17.7097 31.863C17.0441 33.4661 17.5597 35.3036 18.9754 36.3161C19.5941 36.7661 19.9597 37.488 19.941 38.2567C19.9035 40.0005 21.0472 41.5192 22.7347 41.9505C23.2316 42.0817 23.6629 42.363 23.9722 42.7567L20.1004 52.113C19.5566 53.4255 20.7847 54.7755 22.1441 54.3536L26.3816 53.0505C26.5035 53.013 26.6347 53.0692 26.7004 53.1817L28.7816 57.1005C29.4472 58.3567 31.266 58.263 31.8097 56.9599L35.8504 47.2099C35.9066 47.2099 35.9535 47.2099 36.0097 47.2099L40.0504 56.9599C40.5941 58.2724 42.4129 58.3567 43.0785 57.1005L45.1597 53.1817C45.216 53.0692 45.3566 53.013 45.4785 53.0505L49.716 54.3536C51.0754 54.7661 52.3035 53.4161 51.7597 52.113L47.8879 42.7567C48.1972 42.363 48.6285 42.0723 49.1254 41.9505C50.8129 41.5099 51.9566 39.9911 51.9191 38.2567C51.9004 37.488 52.266 36.7661 52.8847 36.3161C54.3004 35.3036 54.816 33.4661 54.1504 31.863C53.8504 31.1599 53.9254 30.3536 54.3379 29.7067ZM30.5066 56.4255C30.4222 56.6411 30.1222 56.6505 30.0191 56.4442L27.9379 52.5255C27.5629 51.813 26.7285 51.4755 25.9691 51.7099L21.7316 53.013C21.516 53.0786 21.3097 52.863 21.4035 52.6474L24.8441 44.3505C25.6222 45.4099 26.916 46.0005 28.2847 45.8411C29.0441 45.7567 29.8035 46.0474 30.3004 46.6192C31.0316 47.463 32.0629 47.9036 33.1035 47.9036C33.4316 47.9036 33.7691 47.8567 34.0972 47.763L30.5066 56.4255ZM50.1285 53.013L45.891 51.7099C45.1222 51.4755 44.2972 51.8224 43.9222 52.5255L41.8316 56.4536C41.7285 56.6599 41.4285 56.6411 41.3441 56.4349L37.7629 47.7817C39.1222 48.1567 40.6035 47.7349 41.5597 46.6286C42.066 46.0474 42.816 45.7567 43.5754 45.8505C44.9441 46.0099 46.2379 45.4192 47.016 44.3599L50.4566 52.6567C50.541 52.863 50.3441 53.0786 50.1285 53.013ZM53.166 28.938C52.491 29.9692 52.3691 31.263 52.8472 32.4067C53.2597 33.4099 52.941 34.5442 52.0597 35.1817C51.0566 35.9036 50.4754 37.0661 50.5129 38.2942C50.541 39.3817 49.8285 40.3192 48.7785 40.5911C47.7941 40.8442 46.9785 41.4817 46.4816 42.3442V42.3536C46.3785 42.5411 46.2847 42.7286 46.2097 42.9349C45.8441 43.9567 44.8316 44.5755 43.7629 44.4536C42.5441 44.313 41.3254 44.7817 40.5191 45.7099C39.8066 46.5255 38.6441 46.7411 37.6879 46.2349C37.3597 46.0661 37.0129 45.9442 36.666 45.8786H36.6566C36.1879 45.7849 35.7097 45.7849 35.241 45.8786C35.241 45.8786 35.241 45.8786 35.2316 45.8786C34.8754 45.9442 34.5285 46.0661 34.2097 46.2442C33.2535 46.7505 32.091 46.5349 31.3785 45.7192C30.666 44.9036 29.6347 44.4349 28.566 44.4349C28.4254 44.4349 28.2754 44.4442 28.1347 44.463C27.0566 44.5849 26.0535 43.9661 25.6879 42.9442C25.6129 42.738 25.5285 42.5505 25.416 42.363C25.416 42.363 25.416 42.3536 25.4066 42.3536C24.9097 41.4911 24.0847 40.8536 23.1097 40.6005C22.0597 40.3286 21.3472 39.3817 21.3754 38.3036C21.4035 37.0755 20.8222 35.9036 19.8285 35.1911C18.9472 34.563 18.6285 33.4192 19.041 32.4161C19.5097 31.2817 19.3972 29.988 18.7222 28.9474C18.1316 28.038 18.2441 26.8567 18.9847 26.0786C19.8379 25.188 20.1941 23.9411 19.941 22.7317C19.716 21.6724 20.241 20.613 21.2254 20.1536C22.341 19.6286 23.1285 18.5974 23.3254 17.3786C23.5035 16.3099 24.3754 15.513 25.4535 15.438C26.6816 15.3536 27.7879 14.6692 28.416 13.6099C28.9597 12.6724 30.066 12.2505 31.1066 12.5692C32.2785 12.9349 33.5629 12.6911 34.5285 11.9317C35.3816 11.2567 36.5629 11.2567 37.4066 11.9317C38.3722 12.7005 39.6472 12.9349 40.8285 12.5692C41.8597 12.2505 42.966 12.6724 43.5191 13.6099C44.1379 14.6692 45.2441 15.3536 46.4816 15.438C47.5597 15.513 48.441 16.3099 48.6097 17.3786C48.8066 18.5974 49.5941 19.6286 50.7097 20.1536C51.6941 20.613 52.2191 21.6724 51.9941 22.7317C51.741 23.9411 52.0972 25.188 52.9504 26.0786C53.6441 26.8567 53.7566 28.038 53.166 28.938Z" fill="#46AD91"/>
<path d="M45.8535 26.0593C45.6753 25.5062 45.1878 25.1406 44.6066 25.1218L39.0941 24.9249L37.2003 19.7406C37.0035 19.1968 36.4972 18.8499 35.9253 18.8499C35.3535 18.8499 34.8472 19.1968 34.6503 19.7406L32.7566 24.9249L27.2441 25.1218C26.6628 25.1406 26.1753 25.5156 25.9972 26.0593C25.8191 26.6031 25.9972 27.1937 26.4566 27.5499L30.7972 30.9531L29.2785 36.25C29.1191 36.8031 29.316 37.3843 29.7847 37.7218C30.2535 38.0593 30.8628 38.0687 31.341 37.75L35.916 34.6656L40.491 37.75C40.9691 38.0687 41.5785 38.0593 42.0472 37.7218C42.516 37.3843 42.7128 36.8031 42.5535 36.25L41.0347 30.9437L45.3753 27.5406C45.8535 27.1937 46.0316 26.6031 45.8535 26.0593ZM40.1628 29.8656C39.7222 30.2124 39.5441 30.7749 39.6941 31.3093L41.1847 36.5218L36.6847 33.4937C36.4503 33.3343 36.1878 33.2593 35.9253 33.2593C35.6628 33.2593 35.4003 33.3343 35.166 33.4937L30.666 36.5218L32.1566 31.3093C32.3066 30.7749 32.1285 30.2031 31.6878 29.8656L27.4222 26.5187L32.841 26.3218C33.3941 26.3031 33.8816 25.9468 34.0691 25.4312L35.9253 20.3406L37.7816 25.4312C37.9691 25.9562 38.4566 26.3031 39.0097 26.3218L44.4285 26.5187L40.1628 29.8656Z" fill="#46AD91"/>
</svg>
