<svg width="71" height="70" viewBox="0 0 71 70" fill="none" xmlns="http://www.w3.org/2000/svg">
<g clip-path="url(#clip0_303_503)">
<path d="M59.3585 38.809C59.3585 36.2727 58.8462 33.8119 57.83 31.5024C56.8557 29.2768 55.4616 27.2947 53.6895 25.6066C53.4544 25.3799 53.1016 25.3127 52.7909 25.4387C52.4886 25.5647 52.2786 25.8586 52.2702 26.1861C52.1946 28.2018 50.5485 29.7807 48.5245 29.7807C46.4585 29.7807 44.7788 28.101 44.7788 26.035C44.7788 25.2455 45.0223 24.4813 45.4927 23.8346C45.4927 23.8346 45.5011 23.8262 45.5011 23.8178C46.2401 22.7512 46.6264 21.5082 46.6264 20.2232C46.6264 18.7115 46.0805 17.2502 45.0895 16.0996C44.1069 14.9658 42.7632 14.2184 41.2934 13.9916C40.8819 13.9244 40.4704 14.1764 40.3528 14.6131C40.294 14.8314 40.3444 15.0666 40.4536 15.2682C40.672 15.6377 40.7895 16.0744 40.7895 16.5279C40.7895 17.8549 39.7565 18.9467 38.438 19.0307C35.1458 19.1902 32.5675 21.8945 32.5675 25.1951C32.5675 26.3709 32.895 27.5131 33.5165 28.4873C33.8524 29.0248 34.0288 29.6547 34.0288 30.3098C34.0288 32.2078 32.4835 33.7531 30.5854 33.7531C28.6538 33.7531 27.1505 31.6199 27.1505 29.7891C27.1505 29.4111 26.8985 29.0836 26.5374 28.9828C26.1762 28.882 25.7899 29.0332 25.5968 29.3608C23.8835 32.191 22.9764 35.458 22.9764 38.809C22.9764 43.6717 24.8661 48.232 28.3011 51.667C31.7444 55.1104 36.3132 57 41.1675 57C43.6534 57 46.0721 56.3197 46.3661 56.2526C46.3829 56.2526 46.3913 56.2442 46.4081 56.2442C53.3452 54.1613 58.3843 48.1733 59.2493 40.9926C59.2493 40.9926 59.3585 39.5397 59.3585 38.809ZM49.8766 52.8428C47.2731 54.4721 44.2581 55.3203 41.1675 55.3203C32.0636 55.3203 24.6561 47.9129 24.6561 38.809C24.6561 36.5162 25.118 34.2738 26.0167 32.2078C26.2518 32.7201 26.5542 33.1988 26.9237 33.6356C27.9231 34.8029 29.2165 35.4496 30.5854 35.4496C33.4073 35.4496 35.7085 33.1484 35.7085 30.3266C35.7085 29.3608 35.4397 28.4285 34.9358 27.6139C34.4823 26.9 34.2471 26.0686 34.2471 25.2119C34.2471 22.81 36.1284 20.8363 38.522 20.7272H38.5303C40.7391 20.6012 42.4692 18.7619 42.4692 16.5531C42.4692 16.4188 42.4608 16.276 42.4524 16.1416C43.9473 16.9227 44.9552 18.4932 44.9552 20.24C44.9552 21.1807 44.6696 22.0961 44.1321 22.8688C43.4602 23.801 43.1075 24.9012 43.1075 26.0434C43.1075 29.0332 45.543 31.4688 48.5329 31.4688C50.8677 31.4688 52.8497 30.0158 53.6139 27.9582C56.2427 30.9649 57.6788 34.7609 57.6788 38.809C57.6788 42.0172 56.9817 44.9231 54.9409 47.9549C53.6559 49.8781 51.4975 51.8266 49.8766 52.8428Z" fill="#46AD91"/>
<path d="M38.8411 49.0971C38.7151 49.0971 38.5891 49.0719 38.4715 49.0131C38.0516 48.8115 37.8836 48.3076 38.0852 47.8877L42.7043 38.3723C42.9059 37.9524 43.4098 37.7844 43.8297 37.986C44.2497 38.1875 44.4176 38.6914 44.2161 39.1113L39.5969 48.6268C39.4541 48.9207 39.1518 49.0971 38.8411 49.0971Z" fill="#46AD91"/>
<path d="M37.069 42.1012C35.5909 42.1012 34.3815 40.8918 34.3815 39.4137C34.3815 37.9356 35.5909 36.7262 37.069 36.7262C38.5472 36.7262 39.7565 37.9356 39.7565 39.4137C39.7565 40.8918 38.5556 42.1012 37.069 42.1012ZM37.069 38.4059C36.5147 38.4059 36.0612 38.8594 36.0612 39.4137C36.0612 39.968 36.5147 40.4215 37.069 40.4215C37.6233 40.4215 38.0768 39.968 38.0768 39.4137C38.0768 38.8594 37.6233 38.4059 37.069 38.4059Z" fill="#46AD91"/>
<path d="M45.2659 50.2981C43.7878 50.2981 42.5784 49.0887 42.5784 47.6106C42.5784 46.1325 43.7878 44.9231 45.2659 44.9231C46.7441 44.9231 47.9534 46.1325 47.9534 47.6106C47.9534 49.0971 46.7441 50.2981 45.2659 50.2981ZM45.2659 46.6028C44.7116 46.6028 44.2581 47.0563 44.2581 47.6106C44.2581 48.1649 44.7116 48.6184 45.2659 48.6184C45.8202 48.6184 46.2737 48.1649 46.2737 47.6106C46.2737 47.0563 45.8202 46.6028 45.2659 46.6028Z" fill="#46AD91"/>
</g>
<defs>
<clipPath id="clip0_303_503">
<rect width="43" height="43" fill="white" transform="translate(19.6675 14)"/>
</clipPath>
</defs>
</svg>
