<svg width="70" height="70" viewBox="0 0 70 70" fill="none" xmlns="http://www.w3.org/2000/svg">
<path d="M35 48.1934C23.6523 48.1934 14.4238 38.9648 14.4238 27.6172C14.4238 16.2695 23.6523 7.04102 35 7.04102C46.3477 7.04102 55.5762 16.2695 55.5762 27.6172C55.5762 38.9648 46.3477 48.1934 35 48.1934ZM35 9.22852C24.8555 9.22852 16.6113 17.4727 16.6113 27.6172C16.6113 37.7617 24.8555 46.0059 35 46.0059C45.1445 46.0059 53.3887 37.7617 53.3887 27.6172C53.3887 17.4727 45.1445 9.22852 35 9.22852Z" fill="#46AD91"/>
<path d="M61.852 28.739C63.2328 26.6198 62.9867 23.8444 61.2231 22.0124C60.4438 21.2057 60.1293 20.071 60.3617 18.9772C60.8813 16.489 59.6508 14.0143 57.3539 12.9343C56.3422 12.4557 55.6313 11.5124 55.4535 10.4186C55.0434 7.91669 52.9926 6.04364 50.4633 5.86591C49.3422 5.78387 48.3442 5.16864 47.7836 4.19794C46.4985 2.01044 43.9145 1.01239 41.4809 1.76434C40.4145 2.09247 39.2524 1.87372 38.3774 1.19012C36.3949 -0.382141 33.6059 -0.382141 31.6235 1.19012C30.7485 1.88739 29.5863 2.10614 28.5199 1.76434C26.1 1.01239 23.5024 2.01044 22.2172 4.19794C21.6567 5.16864 20.6449 5.78387 19.5375 5.86591C17.0082 6.04364 14.9574 7.91669 14.5473 10.4186C14.3695 11.5261 13.6586 12.4694 12.6469 12.9343C10.35 14.0143 9.10587 16.5026 9.63907 18.9772C9.8715 20.071 9.54337 21.2057 8.77775 22.0124C7.02774 23.8444 6.76798 26.6061 8.14884 28.739C8.76407 29.6686 8.87345 30.8444 8.43595 31.8835C7.46525 34.2214 8.2172 36.9011 10.2817 38.3776C11.184 39.0339 11.7172 40.0866 11.6899 41.2077C11.6352 43.7507 13.3031 45.9655 15.7641 46.5944C16.4887 46.7858 17.1176 47.196 17.5688 47.7702L11.9223 61.4147C11.1293 63.3288 12.9203 65.2975 14.9027 64.6823L21.0824 62.7819C21.2602 62.7272 21.4516 62.8093 21.5473 62.9733L24.5824 68.6882C25.5531 70.5202 28.2055 70.3835 28.9985 68.4831L34.891 54.2643C34.9731 54.2643 35.0414 54.2643 35.1235 54.2643L41.016 68.4831C41.809 70.3972 44.4613 70.5202 45.4321 68.6882L48.4672 62.9733C48.5492 62.8093 48.7543 62.7272 48.9321 62.7819L55.1117 64.6823C57.0942 65.2839 58.8852 63.3151 58.0922 61.4147L52.4457 47.7702C52.8969 47.196 53.5258 46.7722 54.2504 46.5944C56.7114 45.9518 58.3793 43.737 58.3246 41.2077C58.2973 40.0866 58.8305 39.0339 59.7328 38.3776C61.7973 36.9011 62.5492 34.2214 61.5785 31.8835C61.141 30.8581 61.2504 29.6823 61.852 28.739ZM27.0981 67.7038C26.975 68.0182 26.5375 68.0319 26.3871 67.7311L23.352 62.0163C22.8051 60.9772 21.5883 60.485 20.4809 60.8268L14.3012 62.7272C13.9867 62.8229 13.6859 62.5085 13.8227 62.194L18.8402 50.0944C19.975 51.6393 21.8617 52.5007 23.8578 52.2682C24.9653 52.1452 26.0727 52.569 26.7973 53.403C27.8637 54.6335 29.3676 55.2761 30.8852 55.2761C31.3637 55.2761 31.8559 55.2077 32.3344 55.071L27.0981 67.7038ZM55.7133 62.7272L49.5336 60.8268C48.4125 60.485 47.2094 60.9909 46.6625 62.0163L43.6137 67.7448C43.4633 68.0456 43.0258 68.0182 42.9028 67.7175L37.6801 55.0983C39.6625 55.6452 41.8227 55.03 43.2172 53.4167C43.9555 52.569 45.0492 52.1452 46.1567 52.2819C48.1528 52.5143 50.0395 51.653 51.1742 50.1081L56.1918 62.2077C56.3149 62.5085 56.0278 62.8229 55.7133 62.7272ZM60.143 27.6179C59.1586 29.1218 58.9809 31.0085 59.6782 32.6765C60.2797 34.1393 59.8149 35.7936 58.5297 36.7233C57.0668 37.7761 56.2192 39.4714 56.2739 41.2624C56.3149 42.8483 55.2758 44.2155 53.7446 44.612C52.309 44.9811 51.1196 45.9108 50.3949 47.1686V47.1823C50.2446 47.4557 50.1078 47.7292 49.9985 48.03C49.4653 49.5202 47.9887 50.4225 46.4301 50.2448C44.6528 50.0397 42.8754 50.7233 41.6996 52.0768C40.6606 53.2663 38.9653 53.5807 37.5707 52.8425C37.0922 52.5964 36.5863 52.4186 36.0805 52.3229H36.0668C35.3832 52.1862 34.686 52.1862 34.0024 52.3229C34.0024 52.3229 34.0024 52.3229 33.9887 52.3229C33.4692 52.4186 32.9633 52.5964 32.4985 52.8561C31.1039 53.5944 29.4086 53.28 28.3695 52.0905C27.3305 50.9011 25.8266 50.2175 24.268 50.2175C24.0629 50.2175 23.8442 50.2311 23.6391 50.2585C22.0668 50.4362 20.6039 49.5339 20.0707 48.0436C19.9613 47.7429 19.8383 47.4694 19.6742 47.196C19.6742 47.196 19.6742 47.1823 19.6606 47.1823C18.936 45.9245 17.7328 44.9948 16.311 44.6257C14.7797 44.2292 13.7406 42.8483 13.7817 41.2761C13.8227 39.485 12.975 37.7761 11.5258 36.737C10.2406 35.821 9.77579 34.153 10.3774 32.6901C11.0609 31.0358 10.8969 29.1491 9.91251 27.6315C9.05118 26.3054 9.21525 24.5827 10.2953 23.4479C11.5395 22.1491 12.059 20.3307 11.6899 18.5671C11.3617 17.0222 12.1274 15.4772 13.5629 14.8073C15.1899 14.0417 16.3383 12.5378 16.6254 10.7604C16.8852 9.20184 18.1567 8.03973 19.7289 7.93036C21.5199 7.80731 23.1332 6.80927 24.0492 5.26434C24.8422 3.89716 26.4555 3.28192 27.9731 3.74677C29.6821 4.27997 31.5551 3.9245 32.9633 2.81708C34.2074 1.8327 35.9301 1.8327 37.1606 2.81708C38.5688 3.93817 40.4281 4.27997 42.1508 3.74677C43.6547 3.28192 45.268 3.89716 46.0746 5.26434C46.977 6.80927 48.5903 7.80731 50.3949 7.93036C51.9672 8.03973 53.2524 9.20184 53.4985 10.7604C53.7856 12.5378 54.934 14.0417 56.561 14.8073C57.9965 15.4772 58.7621 17.0222 58.434 18.5671C58.0649 20.3307 58.5844 22.1491 59.8285 23.4479C60.8403 24.5827 61.0043 26.3054 60.143 27.6179Z" fill="#46AD91"/>
<path d="M49.4781 23.4199C49.2183 22.6132 48.5074 22.08 47.6597 22.0527L39.6207 21.7656L36.859 14.205C36.5718 13.412 35.8336 12.9062 34.9996 12.9062C34.1656 12.9062 33.4273 13.412 33.1402 14.205L30.3785 21.7656L22.3394 22.0527C21.4918 22.08 20.7808 22.6269 20.5211 23.4199C20.2613 24.2128 20.5211 25.0742 21.191 25.5937L27.5211 30.5566L25.3062 38.2812C25.0738 39.0878 25.3609 39.9355 26.0445 40.4277C26.7281 40.9199 27.6168 40.9335 28.314 40.4687L34.9859 35.9707L41.6578 40.4687C42.355 40.9335 43.2437 40.9199 43.9273 40.4277C44.6109 39.9355 44.898 39.0878 44.6656 38.2812L42.4507 30.5429L48.7808 25.58C49.4781 25.0742 49.7379 24.2128 49.4781 23.4199ZM41.1793 28.9706C40.5367 29.4765 40.2769 30.2968 40.4957 31.0761L42.6695 38.6777L36.107 34.2617C35.7652 34.0292 35.3824 33.9199 34.9996 33.9199C34.6168 33.9199 34.234 34.0292 33.8922 34.2617L27.3297 38.6777L29.5035 31.0761C29.7222 30.2968 29.4625 29.4628 28.8199 28.9706L22.5992 24.0898L30.5015 23.8027C31.3082 23.7753 32.0191 23.2558 32.2925 22.5038L34.9996 15.08L37.7066 22.5038C37.98 23.2695 38.691 23.7753 39.4976 23.8027L47.4 24.0898L41.1793 28.9706Z" fill="#46AD91"/>
</svg>
