<svg width="70" height="70" viewBox="0 0 70 70" fill="none" xmlns="http://www.w3.org/2000/svg">
<g clip-path="url(#clip0_615_5100)">
<path d="M0.451172 16.3789C0.724609 16.5566 1.01172 16.5566 1.32617 16.5566C1.66797 16.5566 15.4902 16.5703 15.6816 16.5293C16.1465 16.4063 16.4473 15.9961 16.4609 15.5313C16.4609 15.4766 16.4746 1.73633 16.4609 1.14844C16.4473 0.533203 15.9687 0.109375 15.3809 0.109375C15.1484 0.109375 1.81836 0.109375 1.10742 0.109375C0.505859 0.109375 0.0136719 0.519531 0 1.13477C0 1.29883 0 15.4629 0 15.5176C0 15.8594 0.164062 16.1875 0.451172 16.3789ZM9.67969 8.32617L14.4102 3.5957V13.043L9.67969 8.32617ZM12.9609 14.5059H3.5L8.23047 9.77539L12.9609 14.5059ZM8.23047 6.87695L3.5 2.14648H12.9473L8.23047 6.87695ZM6.78125 8.32617L2.05078 13.0566V3.60938L6.78125 8.32617Z" fill="#46AD91"/>
<path d="M54.0047 16.3789C54.2781 16.5566 54.5652 16.5566 54.8797 16.5566C55.2215 16.5566 69.0437 16.5703 69.2352 16.5293C69.7 16.4063 70.0008 15.9961 70.0145 15.5313C70.0145 15.4766 70.0281 1.73633 70.0145 1.14844C70.0008 0.533203 69.5223 0.109375 68.9344 0.109375C68.702 0.109375 55.3719 0.109375 54.6609 0.109375C54.0594 0.109375 53.5672 0.519531 53.5535 1.13477C53.5535 1.29883 53.5535 15.4629 53.5535 15.5176C53.5399 15.8594 53.7039 16.1875 54.0047 16.3789ZM63.2195 8.32617L67.95 3.60938V13.0566L63.2195 8.32617ZM66.5008 14.5059H57.0535L61.784 9.77539L66.5008 14.5059ZM61.7703 6.87695L57.0399 2.14648H66.4871L61.7703 6.87695ZM60.3211 8.32617L55.5906 13.0566V3.60938L60.3211 8.32617Z" fill="#46AD91"/>
<path d="M33.4551 12.1953C33.7012 12.1953 33.9473 12.0996 34.1387 11.8945L40.1406 5.55078C40.5234 5.1543 40.5234 4.49805 40.1406 4.10156C39.7578 3.70508 39.1426 3.70508 38.7734 4.10156L33.4551 9.7207L31.2266 7.36914C30.8437 6.97266 30.2285 6.97266 29.8594 7.36914C29.4766 7.76562 29.4766 8.42187 29.8594 8.81836L32.7715 11.8945C32.9629 12.0859 33.209 12.1953 33.4551 12.1953Z" fill="#46AD91"/>
<path d="M61.9883 19.8379C61.4414 19.7148 60.8809 20.0566 60.7578 20.6035C60.7442 20.6719 59.2129 27.0156 52.1446 30.1191C51.625 30.3515 51.3926 30.9531 51.6113 31.4726C51.7754 31.8554 52.1582 32.0879 52.5547 32.0879C52.6914 32.0879 52.8281 32.0605 52.9649 32.0058C60.9629 28.4922 62.6856 21.3828 62.7539 21.082C62.877 20.5215 62.5352 19.9609 61.9883 19.8379Z" fill="#46AD91"/>
<path d="M17.8555 30.1191C10.8418 27.043 9.3106 20.8769 9.24224 20.6035C9.11919 20.0566 8.55864 19.7148 8.01177 19.8379C7.46489 19.9609 7.10942 20.5215 7.24614 21.0683C7.3145 21.3691 9.03716 28.4922 17.0352 31.9922C17.1719 32.0469 17.3086 32.0742 17.4454 32.0742C17.8418 32.0742 18.211 31.8418 18.3887 31.459C18.6075 30.9531 18.3751 30.3515 17.8555 30.1191Z" fill="#46AD91"/>
<path d="M51.9258 61.0313H50.9961V35.1504C50.9961 33.127 49.3555 31.4863 47.332 31.4863H47.3047C46.7305 31.4863 46.1836 31.6231 45.6914 31.8555V31.6504C45.6914 29.3262 43.8047 27.4395 41.4805 27.4395C40.7012 27.4395 39.9629 27.6445 39.3066 28.041C39.1289 25.8809 37.3106 24.1719 35.0957 24.1719H34.8359C34.043 24.1719 33.3047 24.3906 32.6621 24.7734V16.5566H46.293C47.6875 16.5566 48.8086 15.4219 48.8086 14.041V2.625C48.8086 1.23047 47.6738 0.109375 46.293 0.109375H23.6934C22.2988 0.109375 21.1777 1.24414 21.1777 2.625V14.041C21.1777 15.1758 21.9434 16.1465 22.9824 16.4609V21.1367C22.9824 21.6973 23.4473 22.1621 24.0078 22.1621C24.5684 22.1621 25.0332 21.6973 25.0332 21.1367V14.9297C25.0332 14.1777 25.3203 13.4805 25.8535 12.9473C26.3867 12.4141 27.084 12.127 27.8359 12.127C29.3809 12.127 30.6387 13.3848 30.6387 14.9297V28.4102C30.6387 28.9707 31.1035 29.4356 31.6641 29.4356C32.2246 29.4356 32.6895 28.9707 32.6895 28.4102C32.6895 27.207 33.6602 26.2363 34.8633 26.2363H35.123C36.3262 26.2363 37.2969 27.207 37.2969 28.4102V31.6641C37.2969 32.2246 37.7617 32.6895 38.3223 32.6895C38.8828 32.6895 39.3477 32.2246 39.3477 31.6641C39.3477 31.0898 39.5664 30.543 39.9766 30.1328C40.3867 29.7227 40.9199 29.5039 41.4941 29.5039C42.6836 29.5039 43.6543 30.4746 43.6543 31.6641V33.8516C43.6543 34.3027 43.9551 34.6992 44.3926 34.8359L44.6934 34.918C45.1582 35.0547 45.6641 34.8496 45.8965 34.4121C46.1699 33.8789 46.7305 33.5371 47.332 33.5371H47.3457C48.2344 33.5371 48.959 34.2617 48.959 35.1504V61.0313H31.1172V60.6074C31.1172 60.5801 31.1172 60.5664 31.1172 60.5391C30.9805 58.3242 29.2715 55.9727 26.0586 53.5664C22.6953 51.0371 20.6855 46.9902 20.6855 42.7246V40.3047C20.6855 39.1426 21.6289 38.2129 22.7773 38.2129H22.9824V43.5449C22.9824 44.1055 23.4473 44.5703 24.0078 44.5703C24.5684 44.5703 25.0332 44.1055 25.0332 43.5449V37.1875V37.1738V25.7168C25.0332 25.1563 24.5684 24.6914 24.0078 24.6914C23.4473 24.6914 22.9824 25.1563 22.9824 25.7168V36.1621H22.7773C20.4941 36.1621 18.6348 38.0215 18.6348 40.3047V42.7246C18.6348 47.6328 20.9453 52.2949 24.8281 55.207C27.4941 57.2031 28.957 59.0762 29.0664 60.6348V61.0313H28.3418C27.7813 61.0313 27.3164 61.4961 27.3164 62.0566V68.8789C27.3164 69.4395 27.7813 69.9043 28.3418 69.9043H42.3281C42.6152 69.9043 42.875 69.7949 43.0664 69.5899C43.2578 69.3848 43.3672 69.1113 43.3535 68.8379C43.3535 68.8242 43.3535 68.7969 43.3535 68.7832C43.3125 68.2363 42.8477 67.8262 42.2871 67.8399C42.2461 67.8399 42.1914 67.8399 42.1504 67.8535H29.3672V63.082H50.9004V67.8535H47.0859C47.0176 67.8399 46.9355 67.8399 46.8672 67.8399C46.3203 67.8672 45.8828 68.3047 45.8828 68.8516C45.8828 68.8652 45.8828 68.8926 45.8828 68.9063C45.8965 69.4668 46.3477 69.9043 46.9082 69.9043H51.9258C52.4863 69.9043 52.9512 69.4395 52.9512 68.8789V62.0566C52.9512 61.4961 52.4863 61.0313 51.9258 61.0313ZM27.8223 10.0625C26.5234 10.0625 25.3066 10.5684 24.3906 11.4844C23.8437 12.0313 23.4609 12.6738 23.2148 13.3711V2.625C23.2148 2.36523 23.4199 2.16016 23.6797 2.16016H46.293C46.5527 2.16016 46.7578 2.36523 46.7578 2.625V14.041C46.7578 14.3008 46.5527 14.5059 46.293 14.5059H32.6484C32.4434 12.0176 30.3652 10.0625 27.8223 10.0625Z" fill="#46AD91"/>
<path d="M30.1328 64.9414V65.5566C30.1328 66.1172 30.5977 66.582 31.1582 66.582C31.7188 66.582 32.1836 66.1172 32.1836 65.5566V64.9414C32.1836 64.3809 31.7188 63.916 31.1582 63.916C30.5977 63.916 30.1328 64.3672 30.1328 64.9414Z" fill="#46AD91"/>
</g>
<defs>
<clipPath id="clip0_615_5100">
<rect width="70" height="70" fill="white"/>
</clipPath>
</defs>
</svg>
