<svg width="70" height="70" viewBox="0 0 70 70" fill="none" xmlns="http://www.w3.org/2000/svg">
<path d="M46.8466 20.1026C46.7017 20.1025 46.5571 20.0888 46.4146 20.0617L43.5139 19.5024C43.0864 19.4194 42.6905 19.2133 42.3721 18.9082C42.0536 18.603 41.8257 18.2112 41.7148 17.7781C41.6038 17.345 41.6144 16.8885 41.7452 16.4613C41.8759 16.0342 42.1216 15.6539 42.4538 15.3647L44.2321 13.8067C44.2732 13.7699 44.3222 13.7317 44.3646 13.6962C44.6222 13.5029 44.916 13.3667 45.2274 13.2963C45.5387 13.2258 45.8609 13.2226 46.1735 13.2869L46.2397 13.3019C46.3096 13.3183 46.3786 13.3383 46.4464 13.362C46.5842 13.409 46.7173 13.4693 46.844 13.542L46.8983 13.5339L47.2959 13.8981C47.4017 14.0015 47.4976 14.1153 47.5821 14.2378C47.638 14.3169 47.6884 14.3998 47.7332 14.4861L48.8516 16.6061C49.0416 16.9665 49.1375 17.3714 49.1301 17.7814C49.1226 18.1913 49.0121 18.5923 48.8091 18.9451C48.6062 19.2979 48.3179 19.5906 47.9723 19.7944C47.6267 19.9982 47.2357 20.1063 46.8374 20.1081L46.8466 20.1026ZM45.7176 14.8804C45.5697 14.8796 45.4253 14.9274 45.3055 15.0168L45.2644 15.0495L43.4755 16.6102C43.3727 16.6999 43.2968 16.8178 43.2565 16.9501C43.2162 17.0825 43.2131 17.2239 43.2476 17.3579C43.2822 17.492 43.3529 17.6132 43.4516 17.7076C43.5503 17.802 43.673 17.8657 43.8054 17.8912L46.7062 18.4492C46.8386 18.4747 46.9753 18.461 47.1004 18.4098C47.2256 18.3587 47.3341 18.272 47.4134 18.16C47.4927 18.0479 47.5396 17.915 47.5486 17.7767C47.5576 17.6383 47.5283 17.5002 47.4642 17.3783L46.4173 15.396H46.4014L46.1297 15.0045C46.0736 14.9648 46.0126 14.9331 45.9482 14.9104L45.9018 14.8967L45.87 14.8885H45.8793H45.8634C45.8152 14.881 45.7663 14.8783 45.7176 14.8804Z" fill="#46AD91"/>
<path d="M51.8305 42.0169H27.3391L40.8715 34.2531C41.5514 33.8604 42.0526 33.2067 42.2659 32.4348C42.4792 31.6629 42.3871 30.8354 42.0098 30.1331L39.993 26.4102C39.6116 25.7098 38.9761 25.1936 38.2257 24.9747C37.4753 24.7559 36.6712 24.8521 35.9897 25.2424L35.3019 25.6366L30.3604 28.4715C30.8045 27.5699 31.1464 26.6187 31.3795 25.6366C31.4702 25.2491 31.5392 24.8564 31.5862 24.4607C31.8406 22.2929 31.3622 20.3353 30.2041 18.8005C29.2859 17.5881 27.9976 16.7298 26.5472 16.3642C25.0969 15.9986 23.5691 16.147 22.2108 16.7855C21.9862 16.89 21.8074 17.0769 21.7094 17.3097C21.6114 17.5425 21.6012 17.8046 21.6807 18.0447C21.6902 18.0764 21.7017 18.1074 21.7152 18.1375C21.7685 18.2601 21.8448 18.3707 21.9397 18.463C22.0345 18.5552 22.1462 18.6273 22.2682 18.675C22.3901 18.7228 22.5201 18.7453 22.6505 18.7414C22.781 18.7374 22.9094 18.7069 23.0284 18.6518C23.9807 18.2026 25.0522 18.0969 26.07 18.3519C27.0878 18.6068 27.9924 19.2075 28.6377 20.057C29.7416 21.518 29.9536 23.4607 29.3255 25.6366C28.8763 27.1919 28.0003 28.8671 26.703 30.5711L25.5038 31.26L24.6358 29.657C24.4162 29.2505 24.1271 28.8882 23.7824 28.5875C23.9639 27.5715 24.2611 26.5811 24.6676 25.6366C24.832 25.246 25.021 24.8668 25.2334 24.5016C25.3652 24.2701 25.4034 23.9945 25.3397 23.7342C25.276 23.474 25.1155 23.2499 24.8928 23.1104C24.6702 22.9708 24.4032 22.9269 24.1493 22.9881C23.8955 23.0493 23.6752 23.2107 23.5359 23.4375C23.1307 24.1366 22.7891 24.8728 22.5155 25.6366C22.269 26.3134 22.0693 27.0072 21.9179 27.713C21.0857 27.5753 20.2327 27.7306 19.4969 28.1536L19.1536 28.3515C19.1084 27.4464 19.1252 26.5392 19.204 25.6366C19.3643 23.8631 19.7857 22.3502 20.4629 21.147C20.5895 20.9216 20.6279 20.6551 20.5702 20.4016C20.5126 20.1482 20.3634 19.9269 20.1528 19.7827L20.1024 19.75C19.9895 19.6826 19.8648 19.6388 19.7354 19.6211C19.606 19.6033 19.4745 19.612 19.3484 19.6466C19.2222 19.6812 19.104 19.741 19.0003 19.8226C18.8966 19.9043 18.8096 20.0062 18.7442 20.1224C17.8868 21.6463 17.3726 23.4934 17.2017 25.638C17.1081 26.9099 17.1187 28.1877 17.2335 29.4578L16.0329 30.1468C10.9616 26.2656 6.0002 25.4729 2.67142 28.0431C1.50233 28.9432 0.652878 30.2138 0.253751 31.6595C-0.145375 33.1051 -0.0720663 34.6458 0.462399 36.0443C1.5954 38.9556 4.42857 40.7291 8.32981 41.1043L2.56806 44.4152C1.88811 44.8071 1.3867 45.4604 1.1736 46.2321C0.960503 47.0038 1.05309 47.8309 1.43108 48.5325L3.44796 52.2582C3.82938 52.9585 4.46478 53.4747 5.21508 53.6938C5.96537 53.913 6.76943 53.8171 7.45124 53.4273L13.9445 49.7016V66.367C13.9459 67.3313 14.319 68.2555 14.982 68.9367C15.6449 69.6179 16.5433 70.0003 17.48 70H50.7134C51.6491 69.9989 52.5462 69.6158 53.208 68.9348C53.8698 68.2538 54.2422 67.3303 54.2436 66.367V44.5025C54.2433 43.8437 53.989 43.2119 53.5365 42.7458C53.0841 42.2798 52.4705 42.0176 51.8305 42.0169ZM36.9597 27.0295C37.101 26.948 37.2602 26.9053 37.4222 26.9054C37.5924 26.9051 37.7597 26.9516 37.9067 27.0401C38.0537 27.1286 38.1751 27.2559 38.2583 27.4088L40.2726 31.1331C40.3952 31.3614 40.4249 31.6303 40.3554 31.8811C40.2859 32.1319 40.1227 32.3442 39.9015 32.4714L29.4143 38.489L26.4698 33.043L36.9597 27.0295ZM24.7338 34.043L27.6836 39.4795L23.1927 42.0469C23.0353 42.0909 22.891 42.1743 22.7726 42.2898L18.7097 44.6253L15.7639 39.1821L24.7338 34.043ZM14.619 33.2981L20.4669 29.9421C20.7302 29.791 21.0267 29.7116 21.3282 29.7116C21.4958 29.7116 21.6626 29.7355 21.8238 29.7825C22.05 29.8473 22.2613 29.9577 22.4456 30.1073C22.6299 30.257 22.7834 30.4429 22.8972 30.6543L23.7652 32.2545L14.7979 37.4004L13.9272 35.7933C13.7575 35.4816 13.6819 35.1249 13.7099 34.7688C13.7093 34.7588 13.7093 34.7488 13.7099 34.7388C13.7192 34.6265 13.7392 34.5155 13.7696 34.4073C13.8319 34.1735 13.9391 33.9549 14.0847 33.7645C14.2304 33.574 14.4116 33.4154 14.6177 33.2981H14.619ZM2.30833 35.2886C1.93316 34.3072 1.88223 33.226 2.16341 32.2119C2.44459 31.1977 3.04223 30.3071 3.86406 29.6775C6.30101 27.7949 10.0671 28.3937 14.1128 31.245L13.6516 31.5096C12.9282 31.9219 12.3582 32.5697 12.031 33.3514C10.7177 32.9257 9.53968 32.6924 7.85143 32.5014C7.58837 32.4718 7.32464 32.5509 7.11825 32.7214C6.91186 32.8919 6.77972 33.1399 6.7509 33.4107C6.72208 33.6815 6.79894 33.953 6.96458 34.1655C7.13021 34.378 7.37105 34.514 7.63411 34.5437C9.48932 34.7524 10.5839 35.013 11.7421 35.4141C11.8033 35.9 11.954 36.3695 12.186 36.7974L13.0566 38.4031L11.9713 39.0252C7.04309 39.5736 3.43339 38.1875 2.30833 35.2886ZM14.4719 47.0564L14.4573 47.0659L6.48123 51.6402C6.25927 51.7632 5.99957 51.7925 5.75699 51.722C5.51442 51.6514 5.30797 51.4866 5.18126 51.2623L3.16836 47.538C3.04562 47.3108 3.01533 47.0429 3.08414 46.7928C3.15294 46.5427 3.31522 46.3309 3.53542 46.2037L12.728 40.9296C12.7571 40.9146 12.785 40.8983 12.8128 40.8805L13.433 40.5245L14.028 40.1834L15.1106 42.1834L16.9738 45.6226L14.4719 47.0564ZM28.3555 67.9536H17.48C17.0712 67.9533 16.6793 67.786 16.3901 67.4886C16.101 67.1912 15.9382 66.7878 15.9375 66.367V48.5611L23.7771 44.0592H28.3595L28.3555 67.9536ZM37.8462 67.9536H30.3432V44.0633H37.8462V67.9536ZM52.2559 66.367C52.2552 66.7878 52.0924 67.1912 51.8033 67.4886C51.5141 67.786 51.1222 67.9533 50.7134 67.9536H39.8339V44.0633H51.8305C51.9427 44.0647 52.0499 44.1111 52.1293 44.1926C52.2088 44.2741 52.2542 44.3844 52.2559 44.4998V66.367Z" fill="#46AD91"/>
<path d="M69.5295 11.2782C69.7217 11.0558 70.1391 10.5579 69.9509 9.93033C69.7628 9.30279 69.1294 9.13226 68.8617 9.06405L66.1796 8.38194L64.763 5.94952C64.6305 5.72442 64.2846 5.13098 63.6114 5.13098C62.9396 5.13098 62.5937 5.72851 62.4639 5.95634L61.2089 8.08999L61.0539 8.36284L61.0406 8.38603L58.3585 9.06814C58.0935 9.13635 57.4601 9.29733 57.2693 9.93443C57.0785 10.5715 57.4985 11.0599 57.6893 11.2809L59.4558 13.4719C59.4603 13.5336 59.4603 13.5956 59.4558 13.6574L59.2411 16.3859C59.2133 16.6751 59.155 17.3272 59.6691 17.7255C60.1833 18.1239 60.7995 17.8742 61.0685 17.761L61.2116 17.701L63.5014 16.7187C63.5718 16.7038 63.6444 16.7038 63.7148 16.7187L66.1637 17.7637C66.3958 17.8717 66.646 17.9323 66.9005 17.9424C67.1357 17.9463 67.3655 17.8695 67.5538 17.7242C68.0679 17.3258 68.0096 16.6737 67.9818 16.3845L67.7671 13.6642C67.7633 13.6011 67.7633 13.5377 67.7671 13.4746L69.5295 11.2782ZM66.3598 12.2782C65.9384 12.7911 65.9212 13.36 65.953 13.8047L66.1027 15.7024L64.4158 14.978C63.8982 14.7719 63.3246 14.7719 62.8071 14.978L61.2169 15.6601L61.1255 15.6996L61.2169 14.5346L61.2752 13.7979C61.3031 13.516 61.2834 13.2312 61.2169 12.9562C61.1536 12.7073 61.0362 12.4764 60.8737 12.2809L59.579 10.6834L61.2116 10.2741L61.5747 10.1814C61.7904 10.1372 61.9934 10.0427 62.168 9.90501C62.3426 9.76735 62.4842 9.59025 62.5818 9.38737L63.6128 7.61387L64.604 9.31779L64.6411 9.38055C64.7388 9.58359 64.8806 9.76079 65.0555 9.89845C65.2303 10.0361 65.4336 10.1306 65.6495 10.1745L67.6452 10.6834L66.3598 12.2782Z" fill="#46AD91"/>
<path d="M51.2034 34.0127C50.4663 34.0104 49.7449 33.7935 49.1226 33.387C48.5002 32.9805 48.0023 32.4009 47.6864 31.7153C47.328 30.9313 47.2265 30.0488 47.3971 29.2003C47.5677 28.3518 48.0013 27.5833 48.6326 27.0102C49.2639 26.4371 50.0588 26.0905 50.8978 26.0225C51.7369 25.9544 52.5747 26.1686 53.2854 26.6329C53.9961 27.0971 54.5412 27.7863 54.8387 28.5968C55.1363 29.4073 55.1703 30.2953 54.9355 31.1274C54.7008 31.9595 54.21 32.6907 53.537 33.211C52.8639 33.7313 52.045 34.0126 51.2034 34.0127ZM51.2034 27.6499C50.9019 27.6498 50.6034 27.7107 50.3249 27.8294C50.0463 27.9481 49.7932 28.1221 49.5801 28.3416C49.3669 28.561 49.1979 28.8216 49.0826 29.1083C48.9673 29.3951 48.908 29.7024 48.9082 30.0128C48.907 30.36 48.9813 30.703 49.1255 31.0168C49.3112 31.4232 49.6049 31.767 49.9727 32.0085C50.3405 32.25 50.7672 32.3791 51.2034 32.3811C51.4649 32.3814 51.7244 32.3352 51.9706 32.2446C52.4813 32.0588 52.9117 31.693 53.1857 31.212C53.4597 30.731 53.5596 30.1657 53.4677 29.6162C53.3759 29.0666 53.0982 28.5683 52.6838 28.2092C52.2694 27.8501 51.745 27.6534 51.2034 27.654V27.6499Z" fill="#46AD91"/>
<path d="M54.1144 27.6499C53.6685 27.6501 53.232 27.5169 52.8582 27.2665C52.8383 27.2543 52.8198 27.2406 52.8012 27.227C52.7422 27.1849 52.6855 27.1393 52.6316 27.0905C52.522 26.9974 52.4213 26.8937 52.3308 26.7809H52.2725L52.0313 26.2952C51.9669 26.1548 51.9163 26.0081 51.8802 25.8573C51.8573 25.7625 51.84 25.6664 51.8285 25.5694L51.5476 23.1752C51.4959 22.7306 51.5675 22.2799 51.7542 21.8754C51.9409 21.4709 52.235 21.1292 52.6026 20.8896C52.9701 20.6501 53.3961 20.5227 53.8311 20.522C54.2661 20.5214 54.6924 20.6476 55.0606 20.886L57.5572 22.5054C57.9256 22.7442 58.2207 23.0856 58.4083 23.4901C58.5959 23.8945 58.6683 24.3454 58.6171 24.7905C58.5659 25.2356 58.3932 25.6566 58.1191 26.0048C57.845 26.353 57.4806 26.614 57.0682 26.7577L54.8486 27.5257C54.7956 27.5435 54.7373 27.5612 54.6816 27.5762C54.4962 27.6248 54.3057 27.6495 54.1144 27.6499ZM53.7169 25.8846L53.7301 25.8941C53.8123 25.9497 53.9048 25.9871 54.0018 26.0037C54.0988 26.0204 54.1981 26.0161 54.2933 25.991L54.345 25.976L56.5646 25.2038C56.6924 25.1595 56.8053 25.0788 56.8903 24.971C56.9753 24.8633 57.0289 24.733 57.0449 24.5951C57.0608 24.4573 57.0385 24.3177 56.9805 24.1924C56.9224 24.0671 56.8311 23.9613 56.717 23.8873L54.2125 22.2653C54.0986 22.1918 53.9668 22.1529 53.8323 22.1532C53.6978 22.1535 53.5662 22.193 53.4526 22.267C53.339 22.341 53.248 22.4466 53.1902 22.5716C53.1324 22.6966 53.1101 22.8358 53.1259 22.9733L53.3909 25.2229L53.5141 25.6731C53.5525 25.7352 53.5999 25.7909 53.6546 25.8382C53.6665 25.8477 53.6785 25.8586 53.693 25.8682L53.7195 25.8873L53.7169 25.8846Z" fill="#46AD91"/>
<path d="M48.5304 32.1944C48.9766 32.2037 49.4106 32.3458 49.78 32.6037L49.8357 32.6446C49.89 32.6842 49.9443 32.7278 50.0027 32.781C50.1097 32.8777 50.2082 32.9841 50.2968 33.0989H50.3565L50.5884 33.5886C50.6508 33.73 50.6988 33.8777 50.7315 34.0293C50.7532 34.1245 50.7687 34.2211 50.7779 34.3185L51.0164 36.7168C51.0607 37.1625 50.9814 37.6119 50.7876 38.013C50.5939 38.4141 50.2937 38.7505 49.9218 38.9831C49.5499 39.2158 49.1216 39.3351 48.6866 39.3273C48.2515 39.3195 47.8275 39.1849 47.4637 38.9391L44.9962 37.2721C44.632 37.0266 44.3428 36.6798 44.1622 36.2719C43.9817 35.864 43.9173 35.4118 43.9764 34.9677C44.0355 34.5236 44.2157 34.1059 44.4962 33.763C44.7766 33.4202 45.1458 33.1662 45.5608 33.0307L47.791 32.3008C47.844 32.2831 47.9023 32.2681 47.9593 32.2531C48.1467 32.2099 48.3384 32.1902 48.5304 32.1944ZM48.9028 33.9679L48.8895 33.9583C48.8085 33.9007 48.7166 33.8613 48.6198 33.8427C48.523 33.8241 48.4234 33.8268 48.3277 33.8506L48.276 33.8642L46.0431 34.5941C45.9145 34.636 45.8002 34.7147 45.7133 34.8209C45.6264 34.9271 45.5706 35.0565 45.5523 35.194C45.534 35.3316 45.5539 35.4717 45.6098 35.598C45.6658 35.7244 45.7553 35.8318 45.8682 35.9078L48.3356 37.5735C48.4477 37.6492 48.5784 37.6908 48.7124 37.6933C48.8464 37.6959 48.9785 37.6595 49.0933 37.5882C49.2081 37.5169 49.301 37.4137 49.3613 37.2904C49.4216 37.1671 49.4469 37.0288 49.4342 36.8914L49.2102 34.6377L49.0949 34.1848C49.0593 34.1227 49.0146 34.0666 48.9624 34.0184L48.924 33.9856L48.8975 33.9665L48.9028 33.9679Z" fill="#46AD91"/>
<path d="M46.7666 14.0483C46.0733 14.0489 45.3924 13.8585 44.7946 13.4968C44.1969 13.135 43.7041 12.6152 43.3674 11.9911C43.0308 11.3671 42.8625 10.6617 42.8802 9.94807C42.8978 9.23449 43.1006 8.53876 43.4677 7.93315C43.8347 7.32753 44.3525 6.83411 44.9673 6.5041C45.5821 6.1741 46.2716 6.01955 46.964 6.05651C47.6565 6.09347 48.3267 6.32058 48.905 6.71427C49.4834 7.10795 49.9489 7.65386 50.2531 8.2953C50.5436 8.90446 50.6786 9.57979 50.6452 10.2575C50.6117 10.9353 50.4111 11.5931 50.0622 12.1688C49.7133 12.7446 49.2276 13.2193 48.651 13.5481C48.0743 13.877 47.4258 14.0491 46.7666 14.0483ZM46.7587 7.68959C46.3694 7.68962 45.9865 7.79171 45.6462 7.98623C45.3058 8.18076 45.0192 8.46131 44.8133 8.80144C44.6074 9.14157 44.489 9.53008 44.4693 9.93035C44.4496 10.3306 44.5293 10.7294 44.7007 11.0892C44.8473 11.4017 45.0602 11.6763 45.3236 11.8928C45.6637 12.171 46.0734 12.3446 46.5052 12.3936C46.9371 12.4426 47.3736 12.365 47.7645 12.1697C48.312 11.8951 48.7313 11.4079 48.9301 10.8152C49.1289 10.2224 49.0909 9.57273 48.8246 9.00879C48.6341 8.61119 48.339 8.27669 47.9727 8.04344C47.6065 7.81019 47.184 7.68758 46.7534 7.68959H46.7587Z" fill="#46AD91"/>
<path d="M47.6383 6.81667C47.5123 6.81702 47.3864 6.80652 47.262 6.78529L47.1957 6.77301C47.1295 6.75937 47.0632 6.743 46.9877 6.71981C46.8505 6.68001 46.7173 6.62655 46.5902 6.56019L46.5332 6.58202L46.1356 6.25324L46.1144 6.22596C46.0038 6.12596 45.903 6.01492 45.8136 5.89445C45.7557 5.817 45.7026 5.7359 45.6546 5.65162L44.462 3.5739C44.2407 3.18788 44.1303 2.74517 44.1437 2.29717C44.157 1.84916 44.2934 1.41423 44.5372 1.04286C44.781 0.671495 45.1221 0.378917 45.5209 0.199088C45.9197 0.0192591 46.3598 -0.0404442 46.7902 0.0269081L49.7056 0.481196C50.1348 0.54918 50.5366 0.74072 50.8647 1.03371C51.1927 1.32671 51.4336 1.70922 51.5595 2.1371C51.6855 2.56498 51.6913 3.0208 51.5764 3.45196C51.4615 3.88313 51.2305 4.27206 50.9101 4.57388L49.1795 6.19322C49.1397 6.23141 49.092 6.27234 49.047 6.30918C48.6452 6.6347 48.1496 6.81325 47.6383 6.81667ZM47.5058 5.16732H47.5244C47.6208 5.18558 47.72 5.18287 47.8153 5.15938C47.9107 5.13589 48.0003 5.09212 48.0783 5.03089C48.0923 5.02043 48.1055 5.00903 48.1181 4.99679L49.8527 3.37336C49.9524 3.27997 50.0244 3.15938 50.0602 3.02558C50.0961 2.89178 50.0943 2.75026 50.0552 2.61744C50.0161 2.48462 49.9412 2.36594 49.8392 2.27517C49.7372 2.1844 49.6123 2.12527 49.479 2.10463L46.5636 1.65034C46.4313 1.63032 46.2962 1.64911 46.1738 1.70453C46.0513 1.75996 45.9465 1.84979 45.8714 1.96372C45.7963 2.07765 45.7539 2.21107 45.7491 2.34868C45.7442 2.48628 45.7772 2.6225 45.8441 2.74172L46.9506 4.67483H46.9599L47.2554 5.06364C47.3132 5.10198 47.3761 5.1314 47.4422 5.15095L47.4899 5.16459H47.5191L47.5058 5.16732Z" fill="#46AD91"/>
</svg>
