<svg width="46" height="43" viewBox="0 0 46 43" fill="none" xmlns="http://www.w3.org/2000/svg">
<path d="M42.152 10.2592H30.2785C32.1246 8.95059 33.2668 7.15781 33.4129 5.43047C33.5723 3.61152 32.5363 1.46543 29.2027 0.91582C28.8309 0.85039 28.459 0.824219 28.1004 0.824219C26.6527 0.824219 25.4574 1.34766 24.5543 2.36836C23.7043 3.32363 23.2395 4.61914 22.9871 5.92773C22.7348 4.61914 22.2566 3.31055 21.4199 2.36836C20.5301 1.34766 19.3348 0.824219 17.8871 0.824219C17.5418 0.824219 17.1699 0.85039 16.7848 0.91582C13.4512 1.46543 12.4285 3.61152 12.5746 5.43047C12.7207 7.15781 13.8762 8.95059 15.709 10.2592H3.83555C2.17539 10.2592 0.833984 11.5809 0.833984 13.2166V15.0879C0.833984 16.7236 2.17539 18.0453 3.83555 18.0453H4.71211V38.5117C4.71211 40.54 6.38555 42.1889 8.44414 42.1889H37.5434C39.602 42.1889 41.2754 40.54 41.2754 38.5117V18.0453H42.152C43.8121 18.0453 45.1535 16.7236 45.1535 15.0879V13.2166C45.1535 11.5809 43.8121 10.2592 42.152 10.2592ZM26.0684 3.65078C26.5863 3.06191 27.2504 2.78711 28.1137 2.78711C28.3527 2.78711 28.6184 2.81328 28.884 2.85254C29.8934 3.02266 31.5801 3.55918 31.434 5.27344C31.2746 7.1709 28.8309 9.8666 24.7668 10.2199C24.634 8.3748 24.727 5.18184 26.0684 3.65078ZM14.5668 5.27344C14.4207 3.55918 16.1074 3.02266 17.1168 2.85254C17.3824 2.81328 17.648 2.78711 17.8871 2.78711C18.7504 2.78711 19.4145 3.075 19.9324 3.65078C21.2738 5.16875 21.3668 8.36172 21.234 10.2199C17.1699 9.8666 14.7262 7.1709 14.5668 5.27344ZM39.2832 38.4986C39.2832 39.4408 38.4996 40.2129 37.5434 40.2129H8.44414C7.48789 40.2129 6.7043 39.4408 6.7043 38.4986V18.0453H39.2699V38.4986H39.2832ZM43.1613 15.0879C43.1613 15.6375 42.7098 16.0824 42.152 16.0824H40.2793H5.72148H3.84883C3.29102 16.0824 2.83945 15.6375 2.83945 15.0879V13.2166C2.83945 12.667 3.29102 12.2221 3.84883 12.2221H42.152C42.7098 12.2221 43.1613 12.667 43.1613 13.2166V15.0879Z" fill="white"/>
</svg>
