<svg width="31" height="27" viewBox="0 0 31 27" fill="none" xmlns="http://www.w3.org/2000/svg">
<path d="M6.033 14.3626C6.03145 14.3542 6.03004 14.3457 6.02877 14.3372L4.24944 3.66121C4.07364 2.60642 3.16104 1.83333 2.0917 1.83333H1.64582C1.24312 1.83333 0.916656 1.50687 0.916656 1.10417C0.916656 0.701459 1.24312 0.375 1.64582 0.375H2.0917C3.82977 0.375 5.3194 1.60043 5.6639 3.29167H29.3542C29.8386 3.29167 30.1884 3.75535 30.0553 4.22115L27.1386 14.4295C27.0492 14.7425 26.7631 14.9583 26.4375 14.9583H7.61074L7.79221 16.0471C7.96801 17.1019 8.88061 17.875 9.94994 17.875H26.4375C26.8402 17.875 27.1667 18.2015 27.1667 18.6042C27.1667 19.0069 26.8402 19.3333 26.4375 19.3333H9.94994C8.16772 19.3333 6.64671 18.0448 6.35372 16.2869L6.033 14.3626V14.3626ZM5.90935 4.75L7.36769 13.5H25.8875L28.3875 4.75H5.90935ZM9.66666 26.625C8.05583 26.625 6.74999 25.3192 6.74999 23.7083C6.74999 22.0975 8.05583 20.7917 9.66666 20.7917C11.2775 20.7917 12.5833 22.0975 12.5833 23.7083C12.5833 25.3192 11.2775 26.625 9.66666 26.625ZM9.66666 25.1667C10.4721 25.1667 11.125 24.5138 11.125 23.7083C11.125 22.9029 10.4721 22.25 9.66666 22.25C8.86124 22.25 8.20832 22.9029 8.20832 23.7083C8.20832 24.5138 8.86124 25.1667 9.66666 25.1667ZM22.7917 26.625C21.1808 26.625 19.875 25.3192 19.875 23.7083C19.875 22.0975 21.1808 20.7917 22.7917 20.7917C24.4025 20.7917 25.7083 22.0975 25.7083 23.7083C25.7083 25.3192 24.4025 26.625 22.7917 26.625ZM22.7917 25.1667C23.5971 25.1667 24.25 24.5138 24.25 23.7083C24.25 22.9029 23.5971 22.25 22.7917 22.25C21.9862 22.25 21.3333 22.9029 21.3333 23.7083C21.3333 24.5138 21.9862 25.1667 22.7917 25.1667Z" fill="#282828"/>
</svg>
