<svg width="21" height="20" viewBox="0 0 21 20" fill="none" xmlns="http://www.w3.org/2000/svg">
<path d="M9.07344 1.39058C9.52247 0.00861156 11.4776 0.00860989 11.9266 1.39058L13.1942 5.29179C13.395 5.90983 13.9709 6.32827 14.6208 6.32827H18.7228C20.1758 6.32827 20.78 8.18769 19.6044 9.04179L16.2859 11.4529C15.7601 11.8348 15.5401 12.5119 15.741 13.1299L17.0085 17.0312C17.4576 18.4131 15.8759 19.5623 14.7003 18.7082L11.3817 16.2971C10.856 15.9152 10.1441 15.9152 9.61835 16.2971L6.29977 18.7082C5.1242 19.5623 3.54248 18.4131 3.99151 17.0312L5.25909 13.1299C5.4599 12.5119 5.23992 11.8348 4.71419 11.4529L1.39561 9.0418C0.220042 8.18769 0.824203 6.32827 2.27729 6.32827H6.37927C7.02911 6.32827 7.60505 5.90983 7.80586 5.2918L9.07344 1.39058Z" fill="#FFF388"/>
</svg>
