<svg width="21" height="20" viewBox="0 0 21 20" fill="none" xmlns="http://www.w3.org/2000/svg">
<path fill-rule="evenodd" clip-rule="evenodd" d="M12.2431 5.60081L10.9756 1.69959C10.8259 1.23894 10.1742 1.23894 10.0245 1.69959L8.75691 5.60081C8.42223 6.63087 7.46234 7.32827 6.37927 7.32827H2.27729C1.79293 7.32827 1.59154 7.94808 1.9834 8.23278L5.30197 10.6439C6.17819 11.2805 6.54483 12.4089 6.21015 13.439L4.94257 17.3402C4.79289 17.8008 5.32013 18.1839 5.71199 17.8992L9.03056 15.4881C9.90678 14.8515 11.0933 14.8515 11.9695 15.4881L15.2881 17.8992C15.6799 18.1839 16.2072 17.8008 16.0575 17.3402L14.7899 13.4389C14.4552 12.4089 14.8219 11.2805 15.6981 10.6439L19.0167 8.23278C19.4085 7.94808 19.2071 7.32827 18.7228 7.32827H14.6208C13.5377 7.32827 12.5778 6.63087 12.2431 5.60081ZM11.9266 1.39058C11.4776 0.00860989 9.52247 0.00861156 9.07344 1.39058L7.80586 5.2918C7.60505 5.90983 7.02911 6.32827 6.37927 6.32827H2.27729C0.824203 6.32827 0.220042 8.18769 1.39561 9.0418L4.71419 11.4529C5.23992 11.8348 5.4599 12.5119 5.25909 13.1299L3.99151 17.0312C3.54248 18.4131 5.1242 19.5623 6.29977 18.7082L9.61835 16.2971C10.1441 15.9152 10.856 15.9152 11.3817 16.2971L14.7003 18.7082C15.8759 19.5623 17.4576 18.4131 17.0085 17.0312L15.741 13.1299C15.5401 12.5119 15.7601 11.8348 16.2859 11.4529L19.6044 9.04179C20.78 8.18769 20.1758 6.32827 18.7228 6.32827H14.6208C13.9709 6.32827 13.395 5.90983 13.1942 5.29179L11.9266 1.39058Z" fill="#FFF388"/>
</svg>
