<svg width="652" height="169" viewBox="0 0 652 169" fill="none" xmlns="http://www.w3.org/2000/svg">
<rect width="652" height="169" rx="10" fill="#A8E094"/>
<mask id="mask0_1537_8888" style="mask-type:alpha" maskUnits="userSpaceOnUse" x="0" y="0" width="652" height="169">
<rect x="0.5" y="0.5" width="651" height="168" rx="9.5" fill="#46AD91" stroke="#7CBD65"/>
</mask>
<g mask="url(#mask0_1537_8888)">
<path d="M585.584 67.5229C592.221 -0.286437 680.816 -5.69663 685.727 -3.03009L716.479 23.4525L655.464 166L671.964 258.394L313.176 258.394C313.176 258.394 338.389 157.526 420.789 151.422C503.189 145.317 579.53 129.381 585.584 67.5229Z" stroke="#7CBD65" stroke-width="3"/>
<path d="M609.584 98.5229C616.221 30.7136 704.816 25.3034 709.727 27.9699L740.479 54.4525L679.464 197L695.964 289.394L337.176 289.394C337.176 289.394 362.389 188.526 444.789 182.422C527.189 176.317 603.53 160.381 609.584 98.5229Z" stroke="#7CBD65" stroke-width="3"/>
</g>
</svg>
