<svg width="53" height="52" viewBox="0 0 53 52" fill="none" xmlns="http://www.w3.org/2000/svg">
<path d="M35.561 15.0612C35.4518 15.0611 35.3429 15.0511 35.2356 15.0313L33.0507 14.6221C32.7287 14.5613 32.4305 14.4106 32.1907 14.1873C31.9508 13.9641 31.7792 13.6774 31.6956 13.3605C31.6121 13.0437 31.62 12.7097 31.7185 12.3971C31.817 12.0846 32.0021 11.8064 32.2522 11.5948L33.5917 10.4549C33.6226 10.428 33.6596 10.4 33.6915 10.3741C33.8855 10.2327 34.1068 10.133 34.3413 10.0815C34.5758 10.0299 34.8185 10.0276 35.0539 10.0746L35.1038 10.0856C35.1565 10.0976 35.2084 10.1123 35.2596 10.1295C35.3633 10.1639 35.4635 10.2081 35.559 10.2613L35.5999 10.2553L35.8993 10.5218C35.9791 10.5975 36.0513 10.6807 36.1149 10.7703C36.157 10.8282 36.195 10.8889 36.2287 10.952L37.0711 12.5031C37.2142 12.7667 37.2865 13.063 37.2809 13.3629C37.2753 13.6629 37.192 13.9562 37.0391 14.2144C36.8863 14.4725 36.6691 14.6866 36.4088 14.8357C36.1485 14.9849 35.854 15.0639 35.554 15.0652L35.561 15.0612ZM34.7106 11.2404C34.5991 11.2399 34.4904 11.2749 34.4002 11.3403L34.3692 11.3642L33.0218 12.5061C32.9444 12.5717 32.8872 12.658 32.8569 12.7548C32.8265 12.8516 32.8242 12.955 32.8502 13.0531C32.8762 13.1512 32.9295 13.2399 33.0038 13.309C33.0782 13.378 33.1706 13.4246 33.2703 13.4433L35.4552 13.8515C35.5549 13.8702 35.6579 13.8602 35.7521 13.8227C35.8464 13.7853 35.9282 13.7219 35.9879 13.6399C36.0476 13.5579 36.0829 13.4607 36.0897 13.3595C36.0965 13.2583 36.0744 13.1572 36.0261 13.068L35.2376 11.6177H35.2256L35.021 11.3313C34.9787 11.3022 34.9327 11.2791 34.8843 11.2624L34.8493 11.2524L34.8254 11.2464H34.8324H34.8204C34.7841 11.2409 34.7473 11.2389 34.7106 11.2404Z" fill="white"/>
<path d="M39.3149 31.0945H20.8677L31.0605 25.4142C31.5725 25.1269 31.9501 24.6487 32.1108 24.0839C32.2714 23.5191 32.202 22.9137 31.9179 22.3999L30.3987 19.6761C30.1115 19.1637 29.6328 18.786 29.0676 18.6259C28.5024 18.4657 27.8968 18.5361 27.3834 18.8217L26.8654 19.1101L23.1434 21.1842C23.4779 20.5246 23.7354 19.8286 23.911 19.1101C23.9793 18.8266 24.0313 18.5393 24.0667 18.2498C24.2583 16.6638 23.898 15.2315 23.0256 14.1086C22.3341 13.2216 21.3637 12.5936 20.2713 12.3261C19.1788 12.0586 18.0281 12.1672 17.005 12.6344C16.8358 12.7108 16.7012 12.8475 16.6274 13.0179C16.5536 13.1882 16.5459 13.3799 16.6058 13.5556C16.6129 13.5788 16.6216 13.6015 16.6317 13.6235C16.6719 13.7132 16.7293 13.7941 16.8008 13.8616C16.8723 13.9291 16.9564 13.9818 17.0482 14.0168C17.1401 14.0517 17.238 14.0682 17.3362 14.0653C17.4345 14.0624 17.5312 14.0401 17.6208 13.9998C18.3381 13.6711 19.1452 13.5938 19.9118 13.7803C20.6784 13.9669 21.3598 14.4064 21.8459 15.0278C22.6773 16.0968 22.837 17.5181 22.3639 19.1101C22.0255 20.248 21.3658 21.4737 20.3886 22.7203L19.4853 23.2244L18.8316 22.0516C18.6661 21.7542 18.4484 21.4891 18.1888 21.2691C18.3255 20.5258 18.5493 19.8011 18.8555 19.1101C18.9793 18.8243 19.1217 18.5469 19.2817 18.2797C19.381 18.1103 19.4097 17.9087 19.3617 17.7183C19.3138 17.5279 19.1929 17.364 19.0252 17.2618C18.8575 17.1597 18.6563 17.1276 18.4652 17.1724C18.274 17.2171 18.108 17.3352 18.0031 17.5012C17.6979 18.0127 17.4406 18.5513 17.2346 19.1101C17.0488 19.6053 16.8984 20.1129 16.7844 20.6293C16.1576 20.5285 15.5151 20.6421 14.9609 20.9517L14.7023 21.0964C14.6683 20.4342 14.681 19.7705 14.7403 19.1101C14.861 17.8126 15.1784 16.7057 15.6885 15.8253C15.7838 15.6605 15.8127 15.4655 15.7693 15.28C15.726 15.0946 15.6135 14.9327 15.4549 14.8272L15.417 14.8033C15.3319 14.754 15.238 14.7219 15.1405 14.7089C15.0431 14.696 14.944 14.7023 14.849 14.7276C14.754 14.7529 14.6649 14.7967 14.5869 14.8564C14.5088 14.9161 14.4432 14.9907 14.3939 15.0758C13.7481 16.1907 13.3609 17.5421 13.2321 19.1111C13.1616 20.0417 13.1696 20.9766 13.2561 21.9059L12.3518 22.4099C8.53199 19.5703 4.79505 18.9904 2.28778 20.8708C1.4072 21.5294 0.767389 22.459 0.466763 23.5167C0.166137 24.5744 0.221354 25.7015 0.623919 26.7248C1.47731 28.8548 3.61128 30.1523 6.54973 30.4268L2.20993 32.8492C1.69778 33.1359 1.32011 33.6139 1.1596 34.1785C0.999095 34.7431 1.06883 35.3483 1.35354 35.8615L2.87267 38.5874C3.15996 39.0998 3.63856 39.4775 4.20368 39.6378C4.76881 39.7981 5.37444 39.728 5.88798 39.4428L10.7788 36.7169V48.9099C10.7798 49.6154 11.0609 50.2916 11.5602 50.79C12.0595 51.2884 12.7362 51.5682 13.4417 51.5679H38.4735C39.1783 51.5671 39.854 51.2868 40.3524 50.7886C40.8509 50.2903 41.1314 49.6147 41.1325 48.9099V32.9131C41.1322 32.431 40.9407 31.9688 40.5999 31.6278C40.2591 31.2869 39.797 31.0951 39.3149 31.0945ZM28.114 20.1292C28.2204 20.0696 28.3404 20.0383 28.4624 20.0384C28.5906 20.0382 28.7166 20.0722 28.8273 20.1369C28.9381 20.2017 29.0295 20.2948 29.0922 20.4067L30.6093 23.1316C30.7017 23.2986 30.7241 23.4953 30.6717 23.6788C30.6194 23.8623 30.4964 24.0176 30.3299 24.1107L22.4308 28.5134L20.2129 24.5289L28.114 20.1292ZM18.9054 25.2605L21.1272 29.238L17.7446 31.1165C17.6261 31.1486 17.5174 31.2097 17.4282 31.2942L14.368 33.0029L12.1492 29.0204L18.9054 25.2605ZM11.2868 24.7156L15.6915 22.2602C15.8898 22.1496 16.1132 22.0915 16.3403 22.0915C16.4665 22.0915 16.5921 22.109 16.7136 22.1434C16.8839 22.1908 17.0431 22.2716 17.1819 22.3811C17.3207 22.4906 17.4363 22.6266 17.522 22.7812L18.1758 23.952L11.4215 27.7169L10.7658 26.5411C10.6379 26.3131 10.581 26.0521 10.6021 25.7915C10.6016 25.7842 10.6016 25.7769 10.6021 25.7696C10.6091 25.6875 10.6241 25.6062 10.647 25.527C10.694 25.356 10.7747 25.1961 10.8844 25.0567C10.9941 24.9174 11.1306 24.8014 11.2858 24.7156H11.2868ZM2.01429 26.1718C1.73171 25.4538 1.69335 24.6628 1.90514 23.9208C2.11692 23.1788 2.56707 22.5272 3.18608 22.0666C5.02162 20.6892 7.85826 21.1273 10.9055 23.2134L10.5582 23.407C10.0133 23.7087 9.58398 24.1826 9.33747 24.7545C8.34834 24.4431 7.46101 24.2724 6.18941 24.1327C5.99127 24.111 5.79263 24.1689 5.63717 24.2936C5.48172 24.4184 5.38219 24.5998 5.36048 24.7979C5.33877 24.9961 5.39667 25.1947 5.52142 25.3502C5.64618 25.5056 5.82758 25.6051 6.02572 25.6268C7.42309 25.7796 8.24753 25.9702 9.11988 26.2636C9.16603 26.6192 9.27951 26.9627 9.45425 27.2757L10.11 28.4505L9.29256 28.9057C5.58056 29.3069 2.8617 28.2928 2.01429 26.1718ZM11.176 34.7816L11.165 34.7886L5.15736 38.1352C4.99018 38.2252 4.79457 38.2467 4.61186 38.1951C4.42915 38.1435 4.27365 38.0229 4.17821 37.8588L2.66207 35.1339C2.56963 34.9677 2.54681 34.7717 2.59864 34.5887C2.65046 34.4057 2.77269 34.2508 2.93855 34.1577L9.86248 30.299C9.88444 30.2881 9.9054 30.2761 9.92636 30.2631L10.3935 30.0026L10.8416 29.7531L11.6571 31.2163L13.0604 33.7326L11.176 34.7816ZM21.6333 50.0707H13.4417C13.1339 50.0705 12.8386 49.9481 12.6208 49.7305C12.4031 49.5129 12.2804 49.2178 12.2799 48.9099V35.8825L18.1848 32.5887H21.6363L21.6333 50.0707ZM28.7818 50.0707H23.1304V32.5917H28.7818V50.0707ZM39.6353 48.9099C39.6348 49.2178 39.5122 49.5129 39.2944 49.7305C39.0766 49.9481 38.7814 50.0705 38.4735 50.0707H30.279V32.5917H39.3149C39.3994 32.5927 39.4801 32.6267 39.54 32.6863C39.5998 32.746 39.634 32.8266 39.6353 32.9111V48.9099Z" fill="white"/>
<path d="M52.6467 8.60494C52.7914 8.44224 53.1059 8.07793 52.9641 7.6188C52.8224 7.15966 52.3453 7.0349 52.1437 6.98499L50.1235 6.48593L49.0565 4.70629C48.9567 4.5416 48.6962 4.10742 48.1891 4.10742C47.6831 4.10742 47.4226 4.5446 47.3248 4.71128L46.3796 6.27234L46.2628 6.47196L46.2528 6.48893L44.2326 6.98799C44.033 7.03789 43.5559 7.15567 43.4122 7.62179C43.2684 8.08791 43.5848 8.44524 43.7286 8.60693L45.0591 10.2099C45.0625 10.2551 45.0625 10.3005 45.0591 10.3456L44.8974 12.3419C44.8764 12.5535 44.8325 13.0306 45.2198 13.322C45.607 13.6135 46.0711 13.4308 46.2738 13.348L46.3816 13.3041L48.1063 12.5854C48.1593 12.5745 48.214 12.5745 48.267 12.5854L50.1115 13.35C50.2863 13.4289 50.4748 13.4733 50.6665 13.4807C50.8437 13.4836 51.0168 13.4274 51.1585 13.321C51.5458 13.0296 51.5019 12.5525 51.4809 12.3409L51.3192 10.3506C51.3164 10.3044 51.3164 10.2581 51.3192 10.2119L52.6467 8.60494ZM50.2592 9.33655C49.9418 9.71184 49.9289 10.1281 49.9528 10.4534L50.0656 11.8418L48.795 11.3118C48.4052 11.1611 47.9731 11.1611 47.5833 11.3118L46.3855 11.8109L46.3167 11.8398L46.3855 10.9874L46.4295 10.4485C46.4505 10.2422 46.4356 10.0338 46.3855 9.83262C46.3379 9.6505 46.2495 9.48157 46.127 9.33855L45.1519 8.16976L46.3816 7.87032L46.655 7.80245C46.8175 7.77015 46.9704 7.70098 47.1019 7.60027C47.2334 7.49955 47.3401 7.36998 47.4136 7.22155L48.1901 5.92399L48.9367 7.17064L48.9647 7.21655C49.0383 7.36511 49.1451 7.49475 49.2768 7.59547C49.4085 7.69619 49.5616 7.7653 49.7242 7.79746L51.2274 8.16976L50.2592 9.33655Z" fill="white"/>
<path d="M38.8416 25.2382C38.2865 25.2366 37.7431 25.0779 37.2743 24.7805C36.8056 24.483 36.4305 24.059 36.1926 23.5574C35.9227 22.9838 35.8462 22.3381 35.9747 21.7173C36.1032 21.0965 36.4298 20.5343 36.9053 20.115C37.3808 19.6957 37.9795 19.4421 38.6115 19.3923C39.2435 19.3426 39.8745 19.4993 40.4098 19.8389C40.9451 20.1786 41.3557 20.6828 41.5798 21.2758C41.8039 21.8688 41.8295 22.5185 41.6527 23.1273C41.4759 23.7361 41.1062 24.271 40.5993 24.6517C40.0924 25.0324 39.4756 25.2382 38.8416 25.2382ZM38.8416 20.583C38.6146 20.5829 38.3897 20.6275 38.1799 20.7144C37.9701 20.8012 37.7795 20.9285 37.6189 21.0891C37.4584 21.2496 37.331 21.4403 37.2442 21.6501C37.1574 21.8599 37.1128 22.0847 37.1129 22.3118C37.112 22.5658 37.1679 22.8168 37.2766 23.0464C37.4164 23.3437 37.6377 23.5953 37.9147 23.7719C38.1917 23.9486 38.5131 24.0431 38.8416 24.0445C39.0386 24.0447 39.2341 24.011 39.4195 23.9447C39.8042 23.8087 40.1284 23.5411 40.3347 23.1892C40.5411 22.8373 40.6163 22.4237 40.5471 22.0216C40.478 21.6196 40.2688 21.2549 39.9567 20.9922C39.6446 20.7295 39.2496 20.5856 38.8416 20.586V20.583Z" fill="white"/>
<path d="M41.0356 20.5831C40.6997 20.5833 40.371 20.4859 40.0894 20.3027C40.0744 20.2937 40.0605 20.2837 40.0465 20.2737C40.002 20.2429 39.9594 20.2096 39.9187 20.1739C39.8362 20.1057 39.7603 20.0299 39.6921 19.9473H39.6482L39.4666 19.592C39.418 19.4893 39.3799 19.3819 39.3528 19.2716C39.3355 19.2023 39.3225 19.132 39.3139 19.061L39.1023 17.3093C39.0633 16.984 39.1172 16.6543 39.2578 16.3584C39.3985 16.0624 39.62 15.8124 39.8969 15.6371C40.1737 15.4619 40.4945 15.3686 40.8222 15.3682C41.1498 15.3677 41.4709 15.46 41.7483 15.6345L43.6287 16.8192C43.9062 16.994 44.1285 17.2438 44.2698 17.5397C44.4111 17.8356 44.4656 18.1655 44.4271 18.4911C44.3885 18.8168 44.2585 19.1248 44.052 19.3795C43.8455 19.6343 43.571 19.8253 43.2604 19.9304L41.5886 20.4923C41.5486 20.5053 41.5047 20.5183 41.4628 20.5292C41.3232 20.5648 41.1797 20.5829 41.0356 20.5831ZM40.7362 19.2916L40.7462 19.2986C40.808 19.3393 40.8777 19.3666 40.9508 19.3788C41.0238 19.391 41.0986 19.3878 41.1704 19.3694L41.2093 19.3585L42.8811 18.7935C42.9774 18.7611 43.0624 18.702 43.1265 18.6232C43.1905 18.5444 43.2308 18.449 43.2429 18.3482C43.2549 18.2474 43.238 18.1452 43.1943 18.0535C43.1506 17.9619 43.0818 17.8845 42.9959 17.8303L41.1095 16.6436C41.0237 16.5898 40.9244 16.5614 40.8231 16.5616C40.7218 16.5618 40.6227 16.5907 40.5371 16.6448C40.4515 16.699 40.383 16.7763 40.3395 16.8677C40.2959 16.9591 40.2791 17.061 40.291 17.1616L40.4906 18.8075L40.5835 19.1369C40.6123 19.1823 40.648 19.223 40.6893 19.2576C40.6982 19.2646 40.7072 19.2726 40.7182 19.2796L40.7382 19.2936L40.7362 19.2916Z" fill="white"/>
<path d="M36.8295 23.9081C37.1656 23.9149 37.4925 24.0189 37.7707 24.2076L37.8126 24.2375C37.8536 24.2664 37.8945 24.2984 37.9384 24.3373C38.0191 24.4081 38.0932 24.4859 38.16 24.5699H38.2049L38.3796 24.9282C38.4266 25.0316 38.4628 25.1397 38.4874 25.2506C38.5037 25.3203 38.5154 25.391 38.5223 25.4622L38.702 27.2169C38.7353 27.5429 38.6756 27.8718 38.5297 28.1652C38.3837 28.4587 38.1576 28.7048 37.8775 28.875C37.5974 29.0452 37.2748 29.1325 36.9471 29.1268C36.6194 29.1211 36.3 29.0226 36.026 28.8428L34.1675 27.6231C33.8931 27.4435 33.6753 27.1898 33.5394 26.8913C33.4034 26.5929 33.3548 26.2621 33.3994 25.9372C33.4439 25.6122 33.5796 25.3066 33.7909 25.0558C34.0021 24.8049 34.2801 24.6191 34.5927 24.52L36.2726 23.986C36.3125 23.973 36.3564 23.962 36.3993 23.951C36.5405 23.9195 36.6849 23.9051 36.8295 23.9081ZM37.11 25.2057L37.1 25.1987C37.039 25.1565 36.9697 25.1277 36.8968 25.1141C36.8239 25.1005 36.7489 25.1025 36.6768 25.1198L36.6379 25.1298L34.956 25.6638C34.8592 25.6945 34.7731 25.7521 34.7076 25.8297C34.6422 25.9074 34.6001 26.0021 34.5863 26.1028C34.5725 26.2034 34.5876 26.3059 34.6297 26.3983C34.6718 26.4908 34.7393 26.5694 34.8243 26.625L36.6828 27.8437C36.7672 27.8991 36.8656 27.9294 36.9666 27.9313C37.0675 27.9332 37.167 27.9066 37.2535 27.8544C37.3399 27.8023 37.4099 27.7267 37.4553 27.6365C37.5008 27.5464 37.5198 27.4452 37.5102 27.3446L37.3415 25.6957L37.2547 25.3644C37.2278 25.3189 37.1942 25.2779 37.1549 25.2426L37.1259 25.2186L37.106 25.2047L37.11 25.2057Z" fill="white"/>
<path d="M35.5001 10.6317C34.9779 10.6322 34.465 10.4929 34.0148 10.2283C33.5645 9.96359 33.1934 9.58323 32.9398 9.12666C32.6862 8.6701 32.5595 8.15398 32.5728 7.63189C32.586 7.1098 32.7388 6.60079 33.0153 6.1577C33.2917 5.71461 33.6817 5.3536 34.1448 5.11216C34.6079 4.87072 35.1272 4.75765 35.6488 4.78469C36.1703 4.81172 36.6751 4.97789 37.1108 5.26592C37.5464 5.55396 37.897 5.95336 38.1262 6.42266C38.345 6.86834 38.4466 7.36244 38.4214 7.8583C38.3963 8.35416 38.2452 8.83543 37.9823 9.25667C37.7195 9.67791 37.3537 10.0252 36.9194 10.2658C36.4851 10.5064 35.9966 10.6323 35.5001 10.6317ZM35.4941 5.9795C35.2009 5.97952 34.9125 6.05422 34.6562 6.19654C34.3998 6.33886 34.1839 6.54412 34.0288 6.79297C33.8737 7.04183 33.7846 7.32607 33.7697 7.61892C33.7549 7.91176 33.8149 8.20356 33.944 8.46681C34.0545 8.6954 34.2148 8.8963 34.4132 9.0547C34.6694 9.25826 34.9779 9.38528 35.3032 9.42113C35.6285 9.45698 35.9573 9.40019 36.2517 9.25732C36.6641 9.05638 36.9799 8.69992 37.1296 8.26627C37.2793 7.83263 37.2508 7.35727 37.0502 6.94468C36.9067 6.65378 36.6844 6.40905 36.4086 6.23839C36.1327 6.06774 35.8145 5.97803 35.4901 5.9795H35.4941Z" fill="white"/>
<path d="M36.1568 5.34083C36.0619 5.34109 35.967 5.33341 35.8734 5.31787L35.8234 5.30889C35.7735 5.29891 35.7236 5.28693 35.6667 5.26996C35.5634 5.24084 35.4631 5.20173 35.3673 5.15318L35.3244 5.16915L35.025 4.92861L35.009 4.90864C34.9256 4.83548 34.8497 4.75424 34.7824 4.6661C34.7388 4.60944 34.6988 4.5501 34.6626 4.48844L33.7643 2.96831C33.5977 2.68588 33.5146 2.36198 33.5246 2.0342C33.5346 1.70643 33.6374 1.38822 33.821 1.11651C34.0046 0.844805 34.2615 0.630744 34.5619 0.499175C34.8623 0.367606 35.1938 0.323925 35.518 0.373203L37.7139 0.705575C38.0372 0.755315 38.3398 0.895452 38.5869 1.10982C38.834 1.32418 39.0154 1.60404 39.1103 1.91709C39.2051 2.23015 39.2096 2.56364 39.123 2.87909C39.0365 3.19455 38.8625 3.4791 38.6212 3.69993L37.3176 4.88469C37.2877 4.91264 37.2518 4.94258 37.2178 4.96953C36.9152 5.2077 36.5419 5.33833 36.1568 5.34083ZM36.057 4.13411H36.071C36.1436 4.14747 36.2183 4.14549 36.2901 4.1283C36.362 4.11111 36.4295 4.07909 36.4882 4.03429C36.4987 4.02664 36.5087 4.0183 36.5181 4.00934L37.8247 2.82158C37.8998 2.75325 37.954 2.66503 37.981 2.56713C38.008 2.46924 38.0067 2.3657 37.9772 2.26853C37.9478 2.17135 37.8913 2.08452 37.8145 2.01811C37.7377 1.9517 37.6436 1.90844 37.5432 1.89333L35.3473 1.56096C35.2477 1.54632 35.1459 1.56006 35.0537 1.60061C34.9615 1.64117 34.8825 1.70689 34.826 1.79024C34.7694 1.8736 34.7374 1.97121 34.7338 2.07189C34.7302 2.17257 34.755 2.27223 34.8054 2.35945L35.6388 3.77379H35.6458L35.8684 4.05825C35.9119 4.0863 35.9593 4.10783 36.0091 4.12213L36.045 4.13211H36.067L36.057 4.13411Z" fill="white"/>
</svg>
