<svg width="40" height="40" viewBox="0 0 40 40" fill="none" xmlns="http://www.w3.org/2000/svg">
<path d="M38.125 27.7578V5.50781C38.125 4.19531 37.0547 3.125 35.7422 3.125H30.0781V2.34375C30.0781 1.05469 29.0234 0 27.7344 0C26.4453 0 25.3906 1.05469 25.3906 2.34375V3.125H12.7344V2.34375C12.7344 1.05469 11.6797 0 10.3906 0C9.10156 0 8.04688 1.05469 8.04688 2.34375V3.125H2.38281C1.07031 3.125 0 4.19531 0 5.50781V34.4922C0 35.8047 1.07031 36.875 2.38281 36.875H26.6484C27.9766 38.7656 30.1797 40 32.6562 40C36.7031 40 40 36.7031 40 32.6562C40 30.7812 39.2891 29.0625 38.125 27.7578ZM26.9531 2.34375C26.9531 1.91406 27.3047 1.5625 27.7344 1.5625C28.1641 1.5625 28.5156 1.91406 28.5156 2.34375V5.46875C28.5156 5.89844 28.1641 6.25 27.7344 6.25C27.3047 6.25 26.9531 5.89844 26.9531 5.46875V2.34375ZM9.60938 2.34375C9.60938 1.91406 9.96094 1.5625 10.3906 1.5625C10.8203 1.5625 11.1719 1.91406 11.1719 2.34375V5.46875C11.1719 5.89844 10.8203 6.25 10.3906 6.25C9.96094 6.25 9.60938 5.89844 9.60938 5.46875V2.34375ZM2.38281 35.3125C1.92969 35.3125 1.5625 34.9453 1.5625 34.4922V5.50781C1.5625 5.05469 1.92969 4.6875 2.38281 4.6875H8.04688V5.46875C8.04688 6.75781 9.10156 7.8125 10.3906 7.8125C11.6797 7.8125 12.7344 6.75781 12.7344 5.46875V4.6875H25.3906V5.46875C25.3906 6.75781 26.4453 7.8125 27.7344 7.8125C29.0234 7.8125 30.0781 6.75781 30.0781 5.46875V4.6875H35.7422C36.1953 4.6875 36.5625 5.05469 36.5625 5.50781V9.375H21.7422C21.3125 9.375 20.9609 9.72656 20.9609 10.1562C20.9609 10.5859 21.3125 10.9375 21.7422 10.9375H36.5625V26.4375C35.8984 26.0156 35.1641 25.7031 34.375 25.5156V13.9062C34.375 13.4766 34.0234 13.125 33.5938 13.125H4.53125C4.10156 13.125 3.75 13.4766 3.75 13.9062V32.3438C3.75 32.7734 4.10156 33.125 4.53125 33.125H25.3281C25.375 33.8906 25.5469 34.625 25.8125 35.3125H2.38281ZM28.5625 19.2969V14.6875H32.8125V19.2969H28.5625ZM32.8125 20.8594V25.3125C32.7578 25.3125 32.7109 25.3125 32.6562 25.3125C32.2891 25.3125 31.9375 25.3359 31.5859 25.3906H28.5625V20.8594H32.8125ZM22.75 19.2969V14.6875H27V19.2969H22.75ZM27 20.8594V25.3906H22.75V20.8594H27ZM16.9375 25.3906V20.8594H21.1875V25.3906H16.9375ZM21.1875 26.9531V31.5625H16.9375V26.9531H21.1875ZM16.9375 19.2969V14.6875H21.1875V19.2969H16.9375ZM11.125 25.3906V20.8594H15.375V25.3906H11.125ZM15.375 26.9531V31.5625H11.125V26.9531H15.375ZM11.125 19.2969V14.6875H15.375V19.2969H11.125ZM5.3125 25.3906V20.8594H9.5625V25.3906H5.3125ZM9.5625 26.9531V31.5625H5.3125V26.9531H9.5625ZM5.3125 19.2969V14.6875H9.5625V19.2969H5.3125ZM25.3906 31.5625H22.75V26.9531H27V27.9766C26.1641 28.9844 25.5938 30.2109 25.3906 31.5625ZM32.6562 38.4375C29.4688 38.4375 26.875 35.8438 26.875 32.6562C26.875 29.4688 29.4688 26.875 32.6562 26.875C35.8438 26.875 38.4375 29.4688 38.4375 32.6562C38.4375 35.8438 35.8438 38.4375 32.6562 38.4375Z" fill="white"/>
<path d="M35.0703 30.5859L32.4453 33.2109L31.2734 32.0391C30.9453 31.7109 30.4062 31.7109 30.0703 32.0391C29.7422 32.3672 29.7422 32.9063 30.0703 33.2422L31.8438 35.0156C32 35.1719 32.2187 35.2656 32.4453 35.2656C32.6719 35.2656 32.8906 35.1797 33.0469 35.0156L36.2734 31.7891C36.6016 31.4609 36.6016 30.9219 36.2734 30.5859C35.9375 30.25 35.3984 30.25 35.0703 30.5859Z" fill="white"/>
</svg>
