<svg width="1006" height="503" viewBox="0 0 1006 503" fill="none" xmlns="http://www.w3.org/2000/svg">
<g filter="url(#filter0_f_260_94)">
<circle cx="172" cy="163" r="52" fill="#FEFFD4"/>
</g>
<circle cx="171.5" cy="163.5" r="42.5" fill="#46AD91"/>
<g clip-path="url(#clip0_260_94)">
<path d="M195.919 152.195C195.767 151.648 195.409 151.174 194.916 150.887C194.423 150.6 193.832 150.52 193.286 150.672C192.739 150.824 192.264 151.182 191.978 151.675L191.619 152.302C191.279 152.105 190.84 152.222 190.643 152.562L188.824 155.662L188.197 155.303C188.036 155.205 187.839 155.178 187.651 155.232C187.463 155.285 187.31 155.402 187.212 155.572C187.015 155.912 187.14 156.351 187.481 156.549L188.108 156.907L182.016 167.46L180.511 171.482L179.794 172.826C179.373 173.551 179.418 174.465 179.911 175.146L178.298 177.126L177.85 175.997C177.644 175.495 177.178 175.146 176.632 175.101C176.086 175.056 175.566 175.325 175.288 175.791L175.037 176.221L174.796 173.354C174.742 172.674 174.213 172.127 173.541 172.046C172.87 171.966 172.225 172.369 172.01 173.014L170.245 178.299C170.119 178.676 170.325 179.079 170.693 179.204C170.764 179.24 170.836 179.258 170.917 179.258C171.221 179.258 171.499 179.061 171.597 178.774L173.353 173.489L173.604 176.4C173.658 177.018 174.106 177.538 174.706 177.681C175.315 177.825 175.942 177.556 176.256 177.018L176.525 176.579L176.972 177.708C177.161 178.183 177.591 178.523 178.092 178.595C178.594 178.667 179.105 178.47 179.427 178.075L181.093 175.961C181.281 176.006 181.47 176.033 181.658 176.033C182.428 176.042 183.136 175.639 183.53 174.976L184.247 173.775L186.979 170.461L193.133 159.774L193.76 160.132C193.931 160.23 194.047 160.383 194.101 160.571C194.155 160.759 194.128 160.947 194.029 161.117L191.162 166.08C191.055 166.241 191.019 166.447 191.064 166.636C191.109 166.824 191.225 166.994 191.395 167.092C191.557 167.191 191.754 167.218 191.942 167.164C192.13 167.11 192.282 166.994 192.381 166.824L195.247 161.861C195.534 161.368 195.615 160.777 195.462 160.23C195.31 159.684 194.952 159.209 194.459 158.922L193.832 158.564L195.624 155.465C195.821 155.124 195.704 154.685 195.364 154.488L195.722 153.861C196 153.359 196.081 152.759 195.919 152.195ZM193.223 152.401C193.321 152.231 193.474 152.114 193.662 152.06C193.85 152.016 194.038 152.042 194.208 152.132C194.378 152.231 194.495 152.383 194.549 152.571C194.593 152.759 194.567 152.947 194.477 153.117L194.119 153.745L192.873 153.028L193.223 152.401ZM183.449 172.405L183.091 172.199L182.034 171.581L183.055 168.857L185.313 170.165L183.449 172.405ZM181.299 174.474C180.995 174.259 180.905 173.856 181.084 173.534L181.443 172.906L182.688 173.623L182.33 174.241C182.231 174.411 182.061 174.537 181.864 174.582C181.676 174.626 181.47 174.591 181.299 174.474ZM186.128 168.983L183.646 167.549L189.38 157.615L191.861 159.048L186.128 168.983ZM192.578 157.812L190.096 156.378L191.53 153.897L194.011 155.33L192.578 157.812Z" fill="white"/>
<path d="M164.305 174.116L161.77 176.642L160.247 175.119C159.969 174.841 159.513 174.841 159.235 175.119C159.101 175.253 159.02 175.432 159.02 175.63C159.02 175.827 159.101 176.006 159.235 176.14L160.758 177.663C161.027 177.932 161.394 178.075 161.77 178.075C162.146 178.075 162.514 177.932 162.791 177.663L165.318 175.128C165.559 174.841 165.542 174.42 165.282 174.151C165.013 173.892 164.592 173.874 164.305 174.116Z" fill="white"/>
<path d="M155.93 175.146C155.912 175.236 155.903 175.325 155.894 175.424C155.912 175.325 155.921 175.236 155.93 175.146Z" fill="white"/>
<path d="M155.867 176.042C155.867 177.726 156.547 179.249 157.649 180.351C156.547 179.249 155.867 177.726 155.867 176.042C155.867 175.836 155.876 175.621 155.894 175.415C155.876 175.621 155.867 175.836 155.867 176.042Z" fill="white"/>
<path d="M164.753 172.315C164.682 172.261 164.601 172.208 164.52 172.154C164.61 172.208 164.691 172.27 164.771 172.333C164.762 172.324 164.762 172.324 164.753 172.315Z" fill="white"/>
<path d="M166.617 176.042C166.617 178.613 164.529 180.7 161.958 180.7C159.387 180.7 157.3 178.613 157.3 176.042C157.3 173.471 159.387 171.383 161.958 171.383C161.994 171.383 162.03 171.383 162.066 171.383C162.03 171.383 161.994 171.383 161.958 171.383C159.387 171.383 157.3 173.471 157.3 176.042C157.3 178.613 159.387 180.7 161.958 180.7C164.529 180.7 166.617 178.613 166.617 176.042C166.617 176.033 166.617 176.015 166.617 176.006C166.617 176.024 166.617 176.033 166.617 176.042Z" fill="white"/>
<path d="M168.05 176.042C168.05 177.726 167.369 179.249 166.267 180.351C167.36 179.249 168.05 177.726 168.05 176.042V176.006C168.05 176.015 168.05 176.033 168.05 176.042Z" fill="white"/>
<path d="M162.317 152.042C161.922 152.042 161.6 152.364 161.6 152.759C161.6 153.153 161.922 153.475 162.317 153.475H176.65C177.044 153.475 177.367 153.153 177.367 152.759C177.367 152.364 177.044 152.042 176.65 152.042H162.317Z" fill="white"/>
<path d="M159.62 147.733C159.074 147.733 158.635 148.056 158.635 148.45C158.635 148.844 159.074 149.167 159.62 149.167H179.338C179.884 149.167 180.323 148.844 180.323 148.45C180.323 148.056 179.884 147.733 179.338 147.733H159.62Z" fill="white"/>
<path d="M180.672 157.059H159.002C158.456 157.059 158.017 157.382 158.017 157.776C158.017 158.17 158.456 158.492 159.002 158.492H180.681C181.228 158.492 181.667 158.17 181.667 157.776C181.658 157.373 181.219 157.059 180.672 157.059Z" fill="white"/>
<path d="M173.783 162.067C173.783 161.673 173.461 161.35 173.067 161.35H158.733C158.339 161.35 158.017 161.673 158.017 162.067C158.017 162.461 158.339 162.783 158.733 162.783H173.067C173.461 162.783 173.783 162.47 173.783 162.067Z" fill="white"/>
<path d="M168.05 175.997C168.032 174.035 167.101 172.297 165.649 171.195C165.605 171.159 165.56 171.123 165.515 171.097C165.479 171.07 165.452 171.052 165.416 171.025C165.372 170.998 165.327 170.971 165.291 170.935C165.264 170.917 165.228 170.899 165.201 170.882C165.166 170.855 165.13 170.837 165.094 170.819C165.058 170.801 165.022 170.774 164.986 170.756C164.879 170.693 164.771 170.64 164.664 170.577C164.512 170.505 164.368 170.443 164.216 170.38C163.759 170.201 163.284 170.075 162.81 170.004C162.774 169.995 162.738 169.995 162.711 169.986C162.693 169.986 162.684 169.986 162.666 169.977C162.595 169.968 162.523 169.959 162.451 169.959C162.424 169.959 162.397 169.959 162.371 169.95C162.335 169.95 162.299 169.941 162.263 169.941C162.218 169.941 162.182 169.941 162.138 169.941C162.129 169.941 162.12 169.941 162.102 169.941C162.057 169.941 162.003 169.941 161.958 169.941C161.905 169.941 161.842 169.941 161.788 169.941C161.735 169.941 161.69 169.941 161.636 169.95C161.609 169.95 161.582 169.95 161.555 169.959C161.52 169.959 161.493 169.959 161.457 169.968C161.448 169.968 161.43 169.968 161.421 169.968C161.367 169.968 161.313 169.977 161.269 169.986C160.57 170.066 159.889 170.263 159.244 170.586C159.047 170.684 158.868 170.792 158.689 170.899C158.626 170.935 158.572 170.98 158.51 171.016C158.456 171.052 158.402 171.097 158.348 171.132C158.295 171.168 158.25 171.204 158.196 171.249C158.178 171.267 158.16 171.276 158.133 171.294C158.106 171.321 158.071 171.338 158.044 171.365C157.99 171.41 157.927 171.464 157.873 171.509C157.838 171.536 157.811 171.571 157.775 171.598C157.658 171.706 157.551 171.822 157.443 171.939C157.417 171.966 157.399 171.992 157.372 172.019C157.3 172.1 157.228 172.189 157.157 172.279C157.139 172.306 157.121 172.324 157.103 172.351C157.067 172.396 157.031 172.449 156.996 172.494C156.96 172.548 156.924 172.593 156.897 172.646C156.861 172.7 156.825 172.763 156.79 172.817C156.772 172.843 156.754 172.87 156.745 172.897C156.7 172.978 156.655 173.049 156.61 173.13C156.592 173.166 156.575 173.193 156.557 173.229C156.548 173.238 156.539 173.256 156.539 173.264C156.512 173.327 156.476 173.39 156.449 173.453C156.431 173.479 156.422 173.515 156.404 173.551C156.377 173.614 156.351 173.677 156.324 173.748C156.315 173.784 156.297 173.811 156.288 173.847C156.279 173.883 156.261 173.909 156.252 173.945C156.225 174.008 156.207 174.08 156.18 174.142C156.171 174.178 156.162 174.214 156.153 174.241C156.136 174.313 156.109 174.375 156.091 174.447C156.082 174.483 156.073 174.51 156.064 174.546C156.046 174.617 156.028 174.68 156.019 174.752C156.01 174.787 156.001 174.814 156.001 174.85C155.983 174.922 155.974 174.993 155.965 175.065C155.965 175.083 155.956 175.11 155.956 175.128C155.938 175.217 155.93 175.307 155.921 175.406C155.903 175.612 155.894 175.818 155.894 176.033C155.894 177.717 156.575 179.24 157.676 180.342C158.751 181.452 160.274 182.133 161.958 182.133C163.643 182.133 165.166 181.452 166.267 180.351C167.369 179.249 168.05 177.726 168.05 176.042V175.997C168.05 176.006 168.05 176.006 168.05 175.997ZM161.958 180.7C159.387 180.7 157.3 178.613 157.3 176.042C157.3 173.471 159.387 171.383 161.958 171.383C161.994 171.383 162.03 171.383 162.066 171.383C162.102 171.383 162.138 171.383 162.173 171.383C162.2 171.383 162.227 171.383 162.254 171.383C162.281 171.383 162.317 171.383 162.344 171.392C162.442 171.401 162.541 171.41 162.63 171.428C162.657 171.428 162.684 171.437 162.711 171.437C162.774 171.446 162.827 171.455 162.89 171.473C162.917 171.482 162.953 171.482 162.98 171.491C163.248 171.553 163.508 171.634 163.759 171.742C163.786 171.751 163.813 171.768 163.849 171.777C163.992 171.84 164.135 171.912 164.279 171.992C164.332 172.019 164.386 172.055 164.44 172.091C164.467 172.109 164.494 172.127 164.521 172.145C164.61 172.198 164.691 172.261 164.771 172.324C165.882 173.166 166.599 174.501 166.617 175.997C166.617 176.006 166.617 176.024 166.617 176.033C166.617 178.613 164.53 180.7 161.958 180.7Z" fill="white"/>
<path d="M180.941 161.35H175.924C175.53 161.35 175.208 161.673 175.208 162.067C175.208 162.461 175.53 162.783 175.924 162.783H180.941C181.335 162.783 181.658 162.461 181.658 162.067C181.658 161.673 181.344 161.35 180.941 161.35Z" fill="white"/>
<path d="M165.9 166.367C166.294 166.367 166.617 166.044 166.617 165.65C166.617 165.256 166.294 164.934 165.9 164.934H158.733C158.339 164.934 158.017 165.256 158.017 165.65C158.017 166.044 158.339 166.367 158.733 166.367H165.9Z" fill="white"/>
<path d="M168.767 166.367H173.783C174.177 166.367 174.5 166.044 174.5 165.65C174.5 165.256 174.177 164.934 173.783 164.934H168.767C168.372 164.934 168.05 165.256 168.05 165.65C168.05 166.053 168.372 166.367 168.767 166.367Z" fill="white"/>
<path d="M185.241 174.966C184.847 174.966 184.524 175.288 184.524 175.683V182.849C184.524 183.243 184.202 183.566 183.808 183.566H155.15C154.756 183.566 154.433 183.243 154.433 182.849V144.158C154.433 143.764 154.756 143.442 155.15 143.442H183.808C184.202 143.442 184.524 143.764 184.524 144.158V157.614C184.524 158.008 184.847 158.33 185.241 158.33C185.635 158.33 185.958 158.008 185.958 157.614V144.158C185.958 142.967 184.999 142.008 183.808 142.008H155.15C153.959 142.008 153 142.967 153 144.158V182.849C153 184.041 153.959 184.999 155.15 184.999H183.808C184.999 184.999 185.958 184.041 185.958 182.849V175.683C185.958 175.288 185.644 174.966 185.241 174.966Z" fill="white"/>
<path d="M160.677 170.093C160.722 170.084 160.776 170.075 160.821 170.066C160.767 170.075 160.722 170.084 160.677 170.093Z" fill="white"/>
<path d="M160.435 170.147C160.453 170.138 160.48 170.138 160.498 170.129C160.471 170.138 160.453 170.138 160.435 170.147Z" fill="white"/>
<path d="M160.498 170.129C160.561 170.111 160.614 170.102 160.677 170.093C160.614 170.102 160.552 170.12 160.498 170.129Z" fill="white"/>
<path d="M160.812 170.066C160.856 170.057 160.91 170.049 160.955 170.04C160.91 170.04 160.865 170.049 160.812 170.066Z" fill="white"/>
<path d="M161.26 169.995C161.161 170.004 161.063 170.022 160.964 170.039C161.063 170.022 161.161 170.004 161.26 169.995Z" fill="white"/>
<path d="M159.746 170.371C159.97 170.281 160.194 170.21 160.427 170.147C160.203 170.21 159.97 170.281 159.746 170.371Z" fill="white"/>
<path d="M158.671 170.909C158.922 170.747 159.19 170.604 159.459 170.479C159.378 170.514 159.307 170.55 159.226 170.586C159.038 170.694 158.85 170.801 158.671 170.909Z" fill="white"/>
<path d="M159.468 170.487C159.476 170.487 159.476 170.479 159.485 170.479C159.476 170.479 159.468 170.487 159.468 170.487Z" fill="white"/>
<path d="M159.71 170.38C159.719 170.371 159.737 170.371 159.746 170.362C159.737 170.371 159.719 170.38 159.71 170.38Z" fill="white"/>
<path d="M159.486 170.479C159.558 170.443 159.638 170.416 159.71 170.38C159.629 170.416 159.558 170.443 159.486 170.479Z" fill="white"/>
<path d="M164.207 170.38C163.75 170.201 163.275 170.075 162.8 170.003C163.293 170.075 163.768 170.201 164.207 170.38Z" fill="white"/>
<path d="M164.664 170.586C164.511 170.515 164.368 170.452 164.216 170.389C164.359 170.443 164.511 170.515 164.664 170.586Z" fill="white"/>
<path d="M164.986 170.756C164.879 170.694 164.771 170.64 164.664 170.577C164.771 170.64 164.879 170.694 164.986 170.756Z" fill="white"/>
</g>
<g filter="url(#filter1_f_260_94)">
<circle cx="62" cy="438" r="52" fill="#FEFFD4"/>
</g>
<circle cx="60.5" cy="438.5" r="42.5" fill="#46AD91"/>
<path d="M51.98 433.874C52.2667 434.161 52.7755 434.14 53.0372 433.83L56.5583 429.833C56.8257 429.529 56.7964 429.066 56.4929 428.799C56.1893 428.532 55.7264 428.561 55.4591 428.865L52.4438 432.287L50.521 430.439C50.2296 430.158 49.7659 430.167 49.4855 430.459C49.2051 430.75 49.2142 431.214 49.5058 431.494L51.98 433.874Z" fill="white"/>
<path d="M58.9433 432.079H69.2948C69.6994 432.079 70.0272 431.751 70.0272 431.347C70.0272 430.942 69.6994 430.614 69.2948 430.614H58.9433C58.5387 430.614 58.2109 430.942 58.2109 431.347C58.2109 431.751 58.5387 432.079 58.9433 432.079Z" fill="white"/>
<path d="M49.5057 440.111L51.98 442.49C52.2664 442.776 52.7744 442.756 53.0363 442.447L56.5625 438.46C56.8305 438.157 56.8021 437.694 56.4992 437.426C56.196 437.158 55.7332 437.186 55.4653 437.489L52.4449 440.904L50.521 439.055C50.2296 438.774 49.7658 438.783 49.4854 439.075C49.205 439.366 49.2141 439.83 49.5057 440.111Z" fill="white"/>
<path d="M49.6465 448.509L52.1208 450.888C52.4071 451.175 52.9151 451.154 53.177 450.845L56.7033 446.858C56.9713 446.555 56.9428 446.092 56.6399 445.824C56.3368 445.556 55.8739 445.585 55.606 445.888L52.5856 449.303L50.6617 447.453C50.3703 447.173 49.9065 447.182 49.6262 447.473C49.3458 447.765 49.3549 448.229 49.6465 448.509Z" fill="white"/>
<path d="M58.9433 440.66H69.2948C69.6994 440.66 70.0272 440.332 70.0272 439.928C70.0272 439.523 69.6994 439.195 69.2948 439.195H58.9433C58.5387 439.195 58.2109 439.523 58.2109 439.928C58.2109 440.332 58.5387 440.66 58.9433 440.66Z" fill="white"/>
<path d="M69.2948 448.095H67.5858C67.1812 448.095 66.8534 448.423 66.8534 448.827C66.8534 449.232 67.1812 449.56 67.5858 449.56H69.2948C69.6994 449.56 70.0272 449.232 70.0272 448.827C70.0272 448.423 69.6993 448.095 69.2948 448.095Z" fill="white"/>
<path d="M58.9433 449.56H64.1679C64.5725 449.56 64.9003 449.232 64.9003 448.827C64.9003 448.423 64.5725 448.095 64.1679 448.095H58.9433C58.5387 448.095 58.2109 448.423 58.2109 448.827C58.2109 449.232 58.5387 449.56 58.9433 449.56Z" fill="white"/>
<path d="M77.2049 437.682C77.6095 437.682 77.9373 437.354 77.9373 436.949V419.42C77.9373 418.478 77.1706 417.711 76.2283 417.711L63.722 417.709C63.7097 416.688 63.2765 415.707 62.5294 415.009C61.7608 414.292 60.758 413.937 59.704 414.009C57.7844 414.135 56.2234 415.786 56.2154 417.709L43.709 417.711C42.7667 417.711 42 418.478 42 419.42V462.291C42 463.233 42.7667 464 43.709 464H76.2283C77.1706 464 77.9373 463.233 77.9373 462.291V440.367C77.9373 439.963 77.6095 439.635 77.2049 439.635C76.8003 439.635 76.4725 439.963 76.4725 440.367V462.291C76.4725 462.426 76.363 462.535 76.2283 462.535H43.709C43.5743 462.535 43.4648 462.426 43.4648 462.291V419.42C43.4648 419.285 43.5743 419.176 43.709 419.176H50.8731V420.641H45.6621C45.2575 420.641 44.9297 420.969 44.9297 421.373V460.338C44.9297 460.742 45.2575 461.07 45.6621 461.07H48.9336C49.3381 461.07 49.666 460.742 49.666 460.338C49.666 459.933 49.3381 459.605 48.9336 459.605H46.3945V422.106H50.8731V423.758C50.8731 424.432 51.4207 424.979 52.0938 424.979H61.9834C62.388 424.979 62.7158 424.651 62.7158 424.247C62.7158 423.842 62.388 423.514 61.9834 423.514H52.3379V419.176H57.0262C57.4933 419.182 57.8491 418.727 57.7396 418.275C57.4027 416.945 58.4314 415.546 59.8048 415.471C61.2984 415.323 62.5767 416.828 62.1977 418.276C62.0828 418.718 62.4537 419.186 62.9111 419.174L67.5994 419.176V423.514H65.4013C64.9967 423.514 64.6689 423.842 64.6689 424.247C64.6689 424.651 64.9967 424.979 65.4013 424.979H67.8435C68.5167 424.979 69.0642 424.432 69.0642 423.758V422.106H73.5428V451.793H66.4628C66.0582 451.793 65.7303 452.121 65.7303 452.525V459.605H52.3515C51.9469 459.605 51.6191 459.933 51.6191 460.338C51.6191 460.742 51.9469 461.07 52.3515 461.07H66.4628C66.6552 461.07 66.8445 460.991 66.9807 460.856L74.7932 453.043C74.9291 452.907 75.0071 452.718 75.0076 452.525V421.373C75.0076 420.969 74.6798 420.641 74.2752 420.641H69.0642V419.176H76.2283C76.363 419.176 76.4725 419.285 76.4725 419.42V436.949C76.4725 437.354 76.8003 437.682 77.2049 437.682ZM67.1952 458.57V453.258H72.5071L67.1952 458.57Z" fill="white"/>
<g filter="url(#filter2_f_260_94)">
<circle cx="832" cy="163" r="52" fill="#FEFFD4"/>
</g>
<circle cx="832.5" cy="163.5" r="42.5" fill="#46AD91"/>
<path d="M854.658 145.582L846.308 142.103C845.385 141.722 844.348 141.722 843.425 142.103L839.416 143.774C839.244 143.845 839.107 143.983 839.036 144.155C838.966 144.328 838.966 144.521 839.038 144.693C839.11 144.865 839.247 145.002 839.419 145.073C839.592 145.144 839.786 145.143 839.958 145.072L843.967 143.401C844.544 143.163 845.191 143.163 845.768 143.401L854.118 146.88C854.508 147.035 854.843 147.302 855.081 147.648C855.319 147.993 855.449 148.401 855.455 148.82V178.88C855.455 180.05 854.451 181 853.217 181H852.076C851.89 181 851.711 181.074 851.579 181.206C851.448 181.338 851.373 181.517 851.373 181.703C851.373 181.889 851.448 182.068 851.579 182.2C851.711 182.332 851.89 182.406 852.076 182.406H853.216C855.225 182.406 856.86 180.825 856.86 178.88V148.82C856.854 148.123 856.642 147.444 856.25 146.867C855.858 146.291 855.304 145.844 854.658 145.582Z" fill="white"/>
<path d="M849.537 181.234C849.471 181.159 849.39 181.1 849.3 181.059C849.21 181.019 849.112 180.998 849.013 180.998H837.204C837.682 180.455 837.949 179.758 837.957 179.035C837.964 178.311 837.712 177.609 837.246 177.056C837.529 176.911 837.788 176.723 838.013 176.498C838.558 175.953 838.874 175.22 838.897 174.449C838.919 173.678 838.646 172.928 838.133 172.352C838.526 172.13 838.863 171.824 839.122 171.455C839.381 171.086 839.554 170.664 839.628 170.219C839.702 169.774 839.676 169.319 839.552 168.886C839.427 168.453 839.207 168.053 838.908 167.716C839.151 167.58 839.374 167.411 839.571 167.214C840.032 166.753 840.332 166.154 840.425 165.507C840.518 164.861 840.398 164.202 840.085 163.629C839.824 163.152 839.44 162.754 838.972 162.478C838.504 162.201 837.971 162.055 837.427 162.056H834.278V148.821C834.284 148.402 834.414 147.994 834.652 147.648C834.89 147.303 835.225 147.035 835.615 146.88L836.893 146.348C837.061 146.279 837.195 146.147 837.268 145.981C837.34 145.815 837.346 145.627 837.283 145.457C837.283 145.448 837.276 145.438 837.273 145.429C837.2 145.257 837.063 145.122 836.89 145.052C836.718 144.981 836.525 144.982 836.353 145.054L835.074 145.586C834.428 145.848 833.874 146.295 833.482 146.872C833.09 147.448 832.878 148.128 832.873 148.825V162.056H829.936C830.914 158.963 830.831 155.741 829.689 151.997C829.518 151.432 829.168 150.939 828.692 150.591C828.272 150.281 827.772 150.097 827.251 150.06C826.731 150.023 826.21 150.135 825.75 150.383C825.291 150.631 824.911 151.004 824.656 151.459C824.4 151.914 824.279 152.433 824.307 152.954C824.526 157.18 822.577 158.635 819.879 160.649C818.99 161.311 818.019 162.036 817.067 162.926V162.005C817.067 161.818 816.993 161.639 816.861 161.508C816.73 161.376 816.551 161.302 816.364 161.302H809.579C809.393 161.302 809.214 161.376 809.082 161.508C808.95 161.639 808.876 161.818 808.876 162.005V181.939C808.876 182.126 808.95 182.305 809.082 182.436C809.214 182.568 809.393 182.642 809.579 182.642H816.364C816.551 182.642 816.73 182.568 816.861 182.436C816.993 182.305 817.067 182.126 817.067 181.939V180.171C818.403 180.296 819.377 180.564 820.325 181.29C820.944 181.765 821.7 182.024 822.48 182.029H834.879C835.39 182.276 835.949 182.405 836.516 182.404H849.013C849.148 182.404 849.281 182.365 849.395 182.292C849.509 182.218 849.599 182.113 849.655 181.989C849.71 181.865 849.728 181.728 849.708 181.594C849.687 181.46 849.627 181.335 849.537 181.234ZM815.661 181.234H810.282V162.708H815.661V181.234ZM833.772 177.391H834.933C835.109 177.391 835.283 177.42 835.45 177.476C835.71 177.565 835.944 177.718 836.129 177.922C836.314 178.125 836.444 178.373 836.507 178.64C836.57 178.908 836.563 179.188 836.488 179.452C836.413 179.717 836.272 179.958 836.078 180.153C836.022 180.208 835.962 180.258 835.899 180.304C835.637 180.494 835.327 180.606 835.004 180.625H822.484C822.012 180.622 821.554 180.464 821.18 180.176C819.855 179.161 818.439 178.878 817.068 178.759V164.927C818.244 163.63 819.505 162.69 820.723 161.78C823.423 159.766 825.971 157.862 825.715 152.886C825.697 152.558 825.799 152.234 826.003 151.977C826.207 151.719 826.498 151.545 826.822 151.486C827.145 151.428 827.479 151.49 827.76 151.661C828.041 151.831 828.249 152.099 828.347 152.413C829.509 156.225 829.491 159.433 828.29 162.508C828.248 162.615 828.233 162.73 828.246 162.844C828.259 162.957 828.3 163.066 828.364 163.161C828.429 163.255 828.516 163.332 828.617 163.386C828.719 163.439 828.831 163.467 828.946 163.467H837.427C837.643 163.461 837.858 163.499 838.059 163.578C838.259 163.657 838.442 163.776 838.597 163.927C838.751 164.077 838.874 164.257 838.958 164.456C839.042 164.655 839.085 164.869 839.085 165.085C839.085 165.3 839.042 165.514 838.958 165.713C838.874 165.912 838.751 166.092 838.597 166.243C838.442 166.394 838.259 166.512 838.059 166.591C837.858 166.67 837.643 166.708 837.427 166.703H834.543C834.364 166.703 834.191 166.771 834.061 166.894C833.93 167.017 833.852 167.185 833.842 167.364C833.841 167.378 833.841 167.392 833.842 167.406C833.841 167.494 833.858 167.581 833.891 167.663C833.943 167.795 834.033 167.908 834.151 167.987C834.268 168.067 834.406 168.109 834.547 168.108H836.649C836.864 168.103 837.079 168.141 837.28 168.22C837.481 168.299 837.664 168.418 837.818 168.568C837.973 168.719 838.095 168.899 838.179 169.098C838.263 169.297 838.306 169.511 838.306 169.726C838.306 169.942 838.263 170.156 838.179 170.355C838.095 170.554 837.973 170.734 837.818 170.885C837.664 171.035 837.481 171.154 837.28 171.233C837.079 171.312 836.864 171.35 836.649 171.345H834.543C834.52 171.343 834.498 171.343 834.475 171.345C834.289 171.353 834.114 171.436 833.988 171.574C833.863 171.712 833.797 171.895 833.806 172.081C833.815 172.268 833.898 172.443 834.036 172.568C834.174 172.694 834.356 172.759 834.543 172.75H835.873C836.295 172.76 836.697 172.935 836.992 173.238C837.287 173.54 837.452 173.946 837.452 174.368C837.452 174.791 837.287 175.197 836.992 175.499C836.697 175.801 836.295 175.976 835.873 175.986H833.772C833.586 175.986 833.407 176.06 833.275 176.192C833.144 176.324 833.069 176.503 833.069 176.689C833.069 176.876 833.144 177.054 833.275 177.186C833.407 177.318 833.586 177.392 833.772 177.392V177.391Z" fill="white"/>
<path d="M844.724 146.455C844.194 146.455 843.677 146.612 843.236 146.906C842.796 147.201 842.452 147.619 842.25 148.109C842.047 148.598 841.994 149.136 842.097 149.656C842.201 150.176 842.456 150.653 842.83 151.027C843.205 151.402 843.682 151.657 844.202 151.761C844.721 151.864 845.26 151.811 845.749 151.608C846.239 151.405 846.657 151.062 846.951 150.622C847.246 150.181 847.403 149.663 847.403 149.134C847.402 148.423 847.12 147.743 846.617 147.24C846.115 146.738 845.434 146.456 844.724 146.455ZM844.724 150.406C844.473 150.406 844.226 150.332 844.017 150.192C843.808 150.052 843.645 149.853 843.548 149.621C843.452 149.388 843.427 149.132 843.476 148.885C843.525 148.638 843.646 148.412 843.824 148.234C844.002 148.056 844.229 147.934 844.476 147.885C844.723 147.836 844.979 147.861 845.211 147.958C845.444 148.054 845.643 148.217 845.782 148.426C845.922 148.636 845.997 148.882 845.997 149.134C845.997 149.471 845.863 149.795 845.624 150.033C845.385 150.272 845.062 150.406 844.724 150.406Z" fill="white"/>
<path d="M845.393 171.786H844.063C843.726 171.785 843.403 171.651 843.165 171.413C842.927 171.174 842.793 170.852 842.793 170.515C842.796 170.415 842.78 170.316 842.744 170.223C842.708 170.13 842.654 170.045 842.585 169.973C842.516 169.901 842.433 169.844 842.341 169.805C842.249 169.766 842.151 169.746 842.051 169.746C841.951 169.746 841.853 169.766 841.761 169.805C841.669 169.844 841.586 169.901 841.517 169.973C841.448 170.045 841.394 170.13 841.358 170.223C841.322 170.316 841.306 170.415 841.309 170.515C841.31 171.232 841.59 171.921 842.09 172.435C842.59 172.949 843.271 173.247 843.988 173.267V174.909C843.988 175.007 844.007 175.103 844.044 175.193C844.081 175.283 844.136 175.365 844.205 175.434C844.274 175.502 844.355 175.557 844.445 175.594C844.535 175.632 844.632 175.651 844.729 175.651C844.826 175.651 844.923 175.632 845.013 175.594C845.103 175.557 845.184 175.502 845.253 175.434C845.322 175.365 845.377 175.283 845.414 175.193C845.451 175.103 845.47 175.007 845.47 174.909V173.267C846.187 173.247 846.867 172.949 847.367 172.435C847.867 171.921 848.147 171.233 848.148 170.516V169.485C848.149 169.022 848.002 168.571 847.73 168.196C847.458 167.821 847.074 167.543 846.633 167.401L843.283 166.313C843.14 166.266 843.016 166.176 842.929 166.055C842.841 165.934 842.793 165.788 842.794 165.638V164.171C842.794 163.898 842.902 163.636 843.096 163.442C843.289 163.249 843.551 163.14 843.825 163.14H845.632C845.906 163.14 846.168 163.249 846.361 163.442C846.555 163.636 846.663 163.898 846.663 164.171C846.663 164.368 846.741 164.556 846.88 164.695C847.019 164.834 847.208 164.913 847.405 164.913C847.601 164.913 847.79 164.834 847.929 164.695C848.068 164.556 848.146 164.368 848.146 164.171C848.145 163.504 847.88 162.865 847.409 162.394C846.937 161.922 846.298 161.657 845.631 161.656H845.468V160.017C845.468 159.919 845.449 159.823 845.412 159.733C845.375 159.643 845.32 159.561 845.251 159.493C845.182 159.424 845.101 159.369 845.011 159.332C844.921 159.295 844.824 159.275 844.727 159.275C844.63 159.275 844.533 159.295 844.443 159.332C844.353 159.369 844.272 159.424 844.203 159.493C844.134 159.561 844.079 159.643 844.042 159.733C844.005 159.823 843.986 159.919 843.986 160.017V161.656H843.824C843.157 161.657 842.517 161.922 842.046 162.393C841.574 162.865 841.309 163.504 841.308 164.171V165.641C841.307 166.104 841.453 166.555 841.726 166.93C841.998 167.305 842.382 167.584 842.823 167.726L846.173 168.814C846.315 168.86 846.439 168.95 846.527 169.071C846.615 169.192 846.662 169.338 846.662 169.488V170.519C846.661 170.855 846.527 171.177 846.289 171.414C846.051 171.651 845.729 171.785 845.393 171.786Z" fill="white"/>
<g filter="url(#filter3_f_260_94)">
<circle cx="500" cy="62" r="52" fill="#FEFFD4"/>
</g>
<circle cx="499.5" cy="62.5" r="42.5" fill="#46AD91"/>
<path d="M518.125 71.7578V49.5078C518.125 48.1953 517.055 47.125 515.742 47.125H510.078V46.3438C510.078 45.0547 509.023 44 507.734 44C506.445 44 505.391 45.0547 505.391 46.3438V47.125H492.734V46.3438C492.734 45.0547 491.68 44 490.391 44C489.102 44 488.047 45.0547 488.047 46.3438V47.125H482.383C481.07 47.125 480 48.1953 480 49.5078V78.4922C480 79.8047 481.07 80.875 482.383 80.875H506.648C507.977 82.7656 510.18 84 512.656 84C516.703 84 520 80.7031 520 76.6562C520 74.7812 519.289 73.0625 518.125 71.7578ZM506.953 46.3438C506.953 45.9141 507.305 45.5625 507.734 45.5625C508.164 45.5625 508.516 45.9141 508.516 46.3438V49.4688C508.516 49.8984 508.164 50.25 507.734 50.25C507.305 50.25 506.953 49.8984 506.953 49.4688V46.3438ZM489.609 46.3438C489.609 45.9141 489.961 45.5625 490.391 45.5625C490.82 45.5625 491.172 45.9141 491.172 46.3438V49.4688C491.172 49.8984 490.82 50.25 490.391 50.25C489.961 50.25 489.609 49.8984 489.609 49.4688V46.3438ZM482.383 79.3125C481.93 79.3125 481.562 78.9453 481.562 78.4922V49.5078C481.562 49.0547 481.93 48.6875 482.383 48.6875H488.047V49.4688C488.047 50.7578 489.102 51.8125 490.391 51.8125C491.68 51.8125 492.734 50.7578 492.734 49.4688V48.6875H505.391V49.4688C505.391 50.7578 506.445 51.8125 507.734 51.8125C509.023 51.8125 510.078 50.7578 510.078 49.4688V48.6875H515.742C516.195 48.6875 516.562 49.0547 516.562 49.5078V53.375H501.742C501.312 53.375 500.961 53.7266 500.961 54.1562C500.961 54.5859 501.312 54.9375 501.742 54.9375H516.562V70.4375C515.898 70.0156 515.164 69.7031 514.375 69.5156V57.9062C514.375 57.4766 514.023 57.125 513.594 57.125H484.531C484.102 57.125 483.75 57.4766 483.75 57.9062V76.3438C483.75 76.7734 484.102 77.125 484.531 77.125H505.328C505.375 77.8906 505.547 78.625 505.812 79.3125H482.383ZM508.562 63.2969V58.6875H512.812V63.2969H508.562ZM512.812 64.8594V69.3125C512.758 69.3125 512.711 69.3125 512.656 69.3125C512.289 69.3125 511.938 69.3359 511.586 69.3906H508.562V64.8594H512.812ZM502.75 63.2969V58.6875H507V63.2969H502.75ZM507 64.8594V69.3906H502.75V64.8594H507ZM496.938 69.3906V64.8594H501.188V69.3906H496.938ZM501.188 70.9531V75.5625H496.938V70.9531H501.188ZM496.938 63.2969V58.6875H501.188V63.2969H496.938ZM491.125 69.3906V64.8594H495.375V69.3906H491.125ZM495.375 70.9531V75.5625H491.125V70.9531H495.375ZM491.125 63.2969V58.6875H495.375V63.2969H491.125ZM485.312 69.3906V64.8594H489.562V69.3906H485.312ZM489.562 70.9531V75.5625H485.312V70.9531H489.562ZM485.312 63.2969V58.6875H489.562V63.2969H485.312ZM505.391 75.5625H502.75V70.9531H507V71.9766C506.164 72.9844 505.594 74.2109 505.391 75.5625ZM512.656 82.4375C509.469 82.4375 506.875 79.8438 506.875 76.6562C506.875 73.4688 509.469 70.875 512.656 70.875C515.844 70.875 518.438 73.4688 518.438 76.6562C518.438 79.8438 515.844 82.4375 512.656 82.4375Z" fill="white"/>
<path d="M515.07 74.5859L512.445 77.2109L511.273 76.0391C510.945 75.7109 510.406 75.7109 510.07 76.0391C509.742 76.3672 509.742 76.9063 510.07 77.2422L511.844 79.0156C512 79.1719 512.219 79.2656 512.445 79.2656C512.672 79.2656 512.891 79.1797 513.047 79.0156L516.273 75.7891C516.602 75.4609 516.602 74.9219 516.273 74.5859C515.937 74.25 515.398 74.25 515.07 74.5859Z" fill="white"/>
<g filter="url(#filter4_f_260_94)">
<circle cx="944" cy="441" r="52" fill="#FEFFD4"/>
</g>
<circle cx="944.5" cy="441.5" r="42.5" fill="#F04C41"/>
<path d="M953.561 428.061C953.452 428.061 953.343 428.051 953.236 428.031L951.051 427.622C950.729 427.561 950.431 427.411 950.191 427.187C949.951 426.964 949.779 426.677 949.696 426.361C949.612 426.044 949.62 425.71 949.718 425.397C949.817 425.085 950.002 424.806 950.252 424.595L951.592 423.455C951.623 423.428 951.66 423.4 951.692 423.374C951.886 423.233 952.107 423.133 952.341 423.081C952.576 423.03 952.818 423.028 953.054 423.075L953.104 423.086C953.156 423.098 953.208 423.112 953.26 423.13C953.363 423.164 953.464 423.208 953.559 423.261L953.6 423.255L953.899 423.522C953.979 423.597 954.051 423.681 954.115 423.77C954.157 423.828 954.195 423.889 954.229 423.952L955.071 425.503C955.214 425.767 955.287 426.063 955.281 426.363C955.275 426.663 955.192 426.956 955.039 427.214C954.886 427.473 954.669 427.687 954.409 427.836C954.149 427.985 953.854 428.064 953.554 428.065L953.561 428.061ZM952.711 424.24C952.599 424.24 952.49 424.275 952.4 424.34L952.369 424.364L951.022 425.506C950.944 425.572 950.887 425.658 950.857 425.755C950.826 425.852 950.824 425.955 950.85 426.053C950.876 426.151 950.929 426.24 951.004 426.309C951.078 426.378 951.171 426.425 951.27 426.443L953.455 426.852C953.555 426.87 953.658 426.86 953.752 426.823C953.846 426.785 953.928 426.722 953.988 426.64C954.048 426.558 954.083 426.461 954.09 426.359C954.096 426.258 954.074 426.157 954.026 426.068L953.238 424.618H953.226L953.021 424.331C952.979 424.302 952.933 424.279 952.884 424.262L952.849 424.252L952.825 424.246H952.832H952.82C952.784 424.241 952.747 424.239 952.711 424.24Z" fill="white"/>
<path d="M957.315 444.095H938.868L949.06 438.414C949.573 438.127 949.95 437.649 950.111 437.084C950.271 436.519 950.202 435.914 949.918 435.4L948.399 432.676C948.111 432.164 947.633 431.786 947.068 431.626C946.502 431.466 945.897 431.536 945.383 431.822L944.865 432.11L941.143 434.184C941.478 433.525 941.735 432.829 941.911 432.11C941.979 431.827 942.031 431.539 942.067 431.25C942.258 429.664 941.898 428.231 941.026 427.109C940.334 426.222 939.364 425.594 938.271 425.326C937.179 425.059 936.028 425.167 935.005 425.634C934.836 425.711 934.701 425.848 934.627 426.018C934.554 426.188 934.546 426.38 934.606 426.556C934.613 426.579 934.622 426.601 934.632 426.623C934.672 426.713 934.729 426.794 934.801 426.862C934.872 426.929 934.956 426.982 935.048 427.017C935.14 427.052 935.238 427.068 935.336 427.065C935.434 427.062 935.531 427.04 935.621 427C936.338 426.671 937.145 426.594 937.912 426.78C938.678 426.967 939.36 427.406 939.846 428.028C940.677 429.097 940.837 430.518 940.364 432.11C940.026 433.248 939.366 434.474 938.389 435.72L937.485 436.224L936.832 435.052C936.666 434.754 936.448 434.489 936.189 434.269C936.326 433.526 936.549 432.801 936.856 432.11C936.979 431.824 937.122 431.547 937.282 431.28C937.381 431.11 937.41 430.909 937.362 430.718C937.314 430.528 937.193 430.364 937.025 430.262C936.857 430.16 936.656 430.128 936.465 430.172C936.274 430.217 936.108 430.335 936.003 430.501C935.698 431.013 935.441 431.551 935.235 432.11C935.049 432.605 934.898 433.113 934.784 433.629C934.158 433.529 933.515 433.642 932.961 433.952L932.702 434.096C932.668 433.434 932.681 432.771 932.74 432.11C932.861 430.813 933.178 429.706 933.688 428.825C933.784 428.66 933.813 428.465 933.769 428.28C933.726 428.095 933.614 427.933 933.455 427.827L933.417 427.803C933.332 427.754 933.238 427.722 933.141 427.709C933.043 427.696 932.944 427.702 932.849 427.728C932.754 427.753 932.665 427.797 932.587 427.856C932.509 427.916 932.443 427.991 932.394 428.076C931.748 429.191 931.361 430.542 931.232 432.111C931.162 433.042 931.17 433.977 931.256 434.906L930.352 435.41C926.532 432.57 922.795 431.99 920.288 433.871C919.407 434.529 918.767 435.459 918.467 436.517C918.166 437.574 918.221 438.702 918.624 439.725C919.477 441.855 921.611 443.152 924.55 443.427L920.21 445.849C919.698 446.136 919.32 446.614 919.16 447.179C918.999 447.743 919.069 448.348 919.354 448.862L920.873 451.587C921.16 452.1 921.639 452.477 922.204 452.638C922.769 452.798 923.374 452.728 923.888 452.443L928.779 449.717V461.91C928.78 462.615 929.061 463.292 929.56 463.79C930.06 464.288 930.736 464.568 931.442 464.568H956.473C957.178 464.567 957.854 464.287 958.352 463.789C958.851 463.29 959.131 462.615 959.132 461.91V445.913C959.132 445.431 958.941 444.969 958.6 444.628C958.259 444.287 957.797 444.095 957.315 444.095ZM946.114 433.129C946.22 433.07 946.34 433.038 946.462 433.038C946.591 433.038 946.717 433.072 946.827 433.137C946.938 433.202 947.029 433.295 947.092 433.407L948.609 436.132C948.702 436.299 948.724 436.495 948.672 436.679C948.619 436.862 948.496 437.018 948.33 437.111L940.431 441.513L938.213 437.529L946.114 433.129ZM936.905 438.261L939.127 442.238L935.745 444.116C935.626 444.149 935.517 444.21 935.428 444.294L932.368 446.003L930.149 442.02L936.905 438.261ZM929.287 437.716L933.691 435.26C933.89 435.15 934.113 435.092 934.34 435.092C934.466 435.092 934.592 435.109 934.714 435.143C934.884 435.191 935.043 435.272 935.182 435.381C935.321 435.491 935.436 435.627 935.522 435.781L936.176 436.952L929.422 440.717L928.766 439.541C928.638 439.313 928.581 439.052 928.602 438.792C928.602 438.784 928.602 438.777 928.602 438.77C928.609 438.687 928.624 438.606 928.647 438.527C928.694 438.356 928.775 438.196 928.884 438.057C928.994 437.917 929.131 437.801 929.286 437.716H929.287ZM920.014 439.172C919.732 438.454 919.693 437.663 919.905 436.921C920.117 436.179 920.567 435.527 921.186 435.067C923.022 433.689 925.858 434.127 928.906 436.213L928.558 436.407C928.013 436.709 927.584 437.183 927.337 437.754C926.348 437.443 925.461 437.272 924.189 437.133C923.991 437.111 923.793 437.169 923.637 437.294C923.482 437.418 923.382 437.6 923.36 437.798C923.339 437.996 923.397 438.195 923.521 438.35C923.646 438.506 923.828 438.605 924.026 438.627C925.423 438.78 926.248 438.97 927.12 439.264C927.166 439.619 927.28 439.963 927.454 440.276L928.11 441.451L927.293 441.906C923.581 442.307 920.862 441.293 920.014 439.172ZM929.176 447.782L929.165 447.789L923.157 451.135C922.99 451.225 922.795 451.247 922.612 451.195C922.429 451.143 922.274 451.023 922.178 450.859L920.662 448.134C920.57 447.968 920.547 447.772 920.599 447.589C920.65 447.406 920.773 447.251 920.939 447.158L927.862 443.299C927.884 443.288 927.905 443.276 927.926 443.263L928.393 443.003L928.842 442.753L929.657 444.216L931.06 446.733L929.176 447.782ZM939.633 463.071H931.442C931.134 463.07 930.839 462.948 930.621 462.73C930.403 462.513 930.28 462.218 930.28 461.91V448.882L936.185 445.589H939.636L939.633 463.071ZM946.782 463.071H941.13V445.592H946.782V463.071ZM957.635 461.91C957.635 462.218 957.512 462.513 957.294 462.73C957.077 462.948 956.781 463.07 956.473 463.071H948.279V445.592H957.315C957.399 445.593 957.48 445.627 957.54 445.686C957.6 445.746 957.634 445.827 957.635 445.911V461.91Z" fill="white"/>
<path d="M970.647 421.605C970.791 421.442 971.106 421.078 970.964 420.619C970.822 420.16 970.345 420.035 970.144 419.985L968.123 419.486L967.057 417.706C966.957 417.542 966.696 417.107 966.189 417.107C965.683 417.107 965.423 417.545 965.325 417.711L964.38 419.272L964.263 419.472L964.253 419.489L962.233 419.988C962.033 420.038 961.556 420.156 961.412 420.622C961.268 421.088 961.585 421.445 961.729 421.607L963.059 423.21C963.062 423.255 963.062 423.3 963.059 423.346L962.897 425.342C962.876 425.553 962.832 426.031 963.22 426.322C963.607 426.613 964.071 426.431 964.274 426.348L964.382 426.304L966.106 425.585C966.159 425.575 966.214 425.575 966.267 425.585L968.112 426.35C968.286 426.429 968.475 426.473 968.666 426.481C968.844 426.484 969.017 426.427 969.159 426.321C969.546 426.03 969.502 425.552 969.481 425.341L969.319 423.351C969.316 423.304 969.316 423.258 969.319 423.212L970.647 421.605ZM968.259 422.337C967.942 422.712 967.929 423.128 967.953 423.453L968.066 424.842L966.795 424.312C966.405 424.161 965.973 424.161 965.583 424.312L964.386 424.811L964.317 424.84L964.386 423.987L964.429 423.448C964.45 423.242 964.436 423.034 964.386 422.833C964.338 422.65 964.249 422.482 964.127 422.339L963.152 421.17L964.382 420.87L964.655 420.802C964.818 420.77 964.97 420.701 965.102 420.6C965.233 420.5 965.34 420.37 965.414 420.222L966.19 418.924L966.937 420.171L966.965 420.217C967.038 420.365 967.145 420.495 967.277 420.595C967.409 420.696 967.562 420.765 967.724 420.797L969.227 421.17L968.259 422.337Z" fill="white"/>
<path d="M956.842 438.238C956.286 438.237 955.743 438.078 955.274 437.78C954.806 437.483 954.431 437.059 954.193 436.557C953.923 435.984 953.846 435.338 953.975 434.717C954.103 434.097 954.43 433.534 954.905 433.115C955.381 432.696 955.98 432.442 956.611 432.392C957.243 432.343 957.875 432.499 958.41 432.839C958.945 433.179 959.356 433.683 959.58 434.276C959.804 434.869 959.83 435.519 959.653 436.127C959.476 436.736 959.106 437.271 958.599 437.652C958.092 438.032 957.476 438.238 956.842 438.238ZM956.842 433.583C956.615 433.583 956.39 433.628 956.18 433.714C955.97 433.801 955.779 433.929 955.619 434.089C955.458 434.25 955.331 434.44 955.244 434.65C955.157 434.86 955.113 435.085 955.113 435.312C955.112 435.566 955.168 435.817 955.277 436.046C955.416 436.344 955.638 436.595 955.915 436.772C956.192 436.949 956.513 437.043 956.842 437.044C957.039 437.045 957.234 437.011 957.42 436.945C957.804 436.809 958.128 436.541 958.335 436.189C958.541 435.837 958.616 435.424 958.547 435.022C958.478 434.62 958.269 434.255 957.957 433.992C957.645 433.729 957.25 433.586 956.842 433.586V433.583Z" fill="white"/>
<path d="M959.036 433.583C958.7 433.583 958.371 433.486 958.089 433.303C958.074 433.294 958.06 433.284 958.046 433.274C958.002 433.243 957.959 433.21 957.919 433.174C957.836 433.106 957.76 433.03 957.692 432.947H957.648L957.467 432.592C957.418 432.489 957.38 432.382 957.353 432.272C957.335 432.202 957.322 432.132 957.314 432.061L957.102 430.309C957.063 429.984 957.117 429.654 957.258 429.358C957.398 429.062 957.62 428.812 957.897 428.637C958.174 428.462 958.495 428.369 958.822 428.368C959.15 428.368 959.471 428.46 959.748 428.634L961.629 429.819C961.906 429.994 962.128 430.244 962.27 430.54C962.411 430.836 962.466 431.165 962.427 431.491C962.389 431.817 962.258 432.125 962.052 432.38C961.845 432.634 961.571 432.825 961.26 432.93L959.589 433.492C959.549 433.505 959.505 433.518 959.463 433.529C959.323 433.565 959.18 433.583 959.036 433.583ZM958.736 432.292L958.746 432.299C958.808 432.339 958.878 432.367 958.951 432.379C959.024 432.391 959.099 432.388 959.17 432.369L959.209 432.358L960.881 431.794C960.977 431.761 961.062 431.702 961.126 431.623C961.19 431.544 961.231 431.449 961.243 431.348C961.255 431.247 961.238 431.145 961.194 431.054C961.151 430.962 961.082 430.884 960.996 430.83L959.109 429.644C959.024 429.59 958.924 429.561 958.823 429.562C958.722 429.562 958.623 429.591 958.537 429.645C958.452 429.699 958.383 429.776 958.339 429.868C958.296 429.959 958.279 430.061 958.291 430.162L958.491 431.807L958.583 432.137C958.612 432.182 958.648 432.223 958.689 432.258C958.698 432.265 958.707 432.273 958.718 432.28L958.738 432.294L958.736 432.292Z" fill="white"/>
<path d="M954.83 436.908C955.166 436.915 955.493 437.019 955.771 437.208L955.813 437.237C955.854 437.266 955.894 437.298 955.938 437.337C956.019 437.408 956.093 437.486 956.16 437.57H956.205L956.38 437.928C956.427 438.032 956.463 438.14 956.487 438.251C956.504 438.32 956.515 438.391 956.522 438.462L956.702 440.217C956.735 440.543 956.676 440.872 956.53 441.165C956.384 441.459 956.158 441.705 955.878 441.875C955.597 442.045 955.275 442.132 954.947 442.127C954.619 442.121 954.3 442.023 954.026 441.843L952.168 440.623C951.893 440.444 951.675 440.19 951.539 439.891C951.403 439.593 951.355 439.262 951.399 438.937C951.444 438.612 951.58 438.307 951.791 438.056C952.002 437.805 952.28 437.619 952.593 437.52L954.273 436.986C954.312 436.973 954.356 436.962 954.399 436.951C954.54 436.919 954.685 436.905 954.83 436.908ZM955.11 438.206L955.1 438.199C955.039 438.156 954.97 438.128 954.897 438.114C954.824 438.1 954.749 438.102 954.677 438.12L954.638 438.13L952.956 438.664C952.859 438.695 952.773 438.752 952.708 438.83C952.642 438.907 952.6 439.002 952.586 439.103C952.573 439.203 952.588 439.306 952.63 439.398C952.672 439.491 952.739 439.569 952.824 439.625L954.683 440.844C954.767 440.899 954.866 440.929 954.967 440.931C955.068 440.933 955.167 440.907 955.253 440.854C955.34 440.802 955.41 440.727 955.455 440.637C955.501 440.546 955.52 440.445 955.51 440.345L955.342 438.696L955.255 438.364C955.228 438.319 955.194 438.278 955.155 438.243L955.126 438.219L955.106 438.205L955.11 438.206Z" fill="white"/>
<path d="M953.5 423.632C952.978 423.632 952.465 423.493 952.015 423.228C951.565 422.964 951.193 422.583 950.94 422.127C950.686 421.67 950.559 421.154 950.573 420.632C950.586 420.11 950.739 419.601 951.015 419.158C951.292 418.715 951.682 418.354 952.145 418.112C952.608 417.871 953.127 417.758 953.649 417.785C954.17 417.812 954.675 417.978 955.111 418.266C955.546 418.554 955.897 418.953 956.126 419.423C956.345 419.868 956.447 420.362 956.421 420.858C956.396 421.354 956.245 421.835 955.982 422.257C955.72 422.678 955.354 423.025 954.919 423.266C954.485 423.506 953.997 423.632 953.5 423.632ZM953.494 418.98C953.201 418.98 952.913 419.054 952.656 419.197C952.4 419.339 952.184 419.544 952.029 419.793C951.874 420.042 951.785 420.326 951.77 420.619C951.755 420.912 951.815 421.204 951.944 421.467C952.054 421.695 952.215 421.896 952.413 422.055C952.669 422.258 952.978 422.385 953.303 422.421C953.628 422.457 953.957 422.4 954.252 422.257C954.664 422.056 954.98 421.7 955.13 421.266C955.279 420.833 955.251 420.357 955.05 419.945C954.907 419.654 954.684 419.409 954.409 419.238C954.133 419.068 953.814 418.978 953.49 418.98H953.494Z" fill="white"/>
<path d="M954.157 418.341C954.062 418.341 953.967 418.333 953.873 418.318L953.823 418.309C953.774 418.299 953.724 418.287 953.667 418.27C953.563 418.241 953.463 418.202 953.367 418.153L953.324 418.169L953.025 417.929L953.009 417.909C952.926 417.835 952.85 417.754 952.782 417.666C952.739 417.609 952.699 417.55 952.663 417.488L951.764 415.968C951.598 415.686 951.515 415.362 951.525 415.034C951.535 414.706 951.637 414.388 951.821 414.117C952.005 413.845 952.262 413.631 952.562 413.499C952.862 413.368 953.194 413.324 953.518 413.373L955.714 413.706C956.037 413.755 956.34 413.895 956.587 414.11C956.834 414.324 957.015 414.604 957.11 414.917C957.205 415.23 957.21 415.564 957.123 415.879C957.036 416.195 956.862 416.479 956.621 416.7L955.318 417.885C955.288 417.913 955.252 417.943 955.218 417.97C954.915 418.208 954.542 418.338 954.157 418.341ZM954.057 417.134H954.071C954.144 417.147 954.218 417.145 954.29 417.128C954.362 417.111 954.429 417.079 954.488 417.034C954.499 417.027 954.509 417.018 954.518 417.009L955.825 415.822C955.9 415.753 955.954 415.665 955.981 415.567C956.008 415.469 956.007 415.366 955.977 415.269C955.948 415.171 955.891 415.085 955.815 415.018C955.738 414.952 955.644 414.908 955.543 414.893L953.347 414.561C953.248 414.546 953.146 414.56 953.054 414.601C952.961 414.641 952.883 414.707 952.826 414.79C952.769 414.874 952.737 414.971 952.734 415.072C952.73 415.173 952.755 415.272 952.805 415.359L953.639 416.774H953.646L953.868 417.058C953.912 417.086 953.959 417.108 954.009 417.122L954.045 417.132H954.067L954.057 417.134Z" fill="white"/>
<path d="M96.9408 182.339C97.128 181.819 96.8585 181.246 96.3389 181.059L87.8715 178.009C87.3519 177.822 86.779 178.091 86.5918 178.611C86.4046 179.131 86.6741 179.703 87.1937 179.891L94.7203 182.602L92.009 190.128C91.8218 190.648 92.0913 191.221 92.6109 191.408C93.1305 191.595 93.7035 191.326 93.8906 190.806L96.9408 182.339ZM32.5696 367.686C31.7834 365.309 31.0605 362.904 30.4001 360.476L28.4702 361.001C29.1399 363.463 29.873 365.902 30.6708 368.314L32.5696 367.686ZM27.1963 345.758C26.3767 340.823 25.7911 335.824 25.4318 330.789L23.4369 330.932C23.8005 336.026 24.3932 341.087 25.2233 346.086L27.1963 345.758ZM25.0233 315.714C25.1048 310.693 25.4001 305.665 25.9016 300.656L23.9115 300.457C23.4046 305.52 23.106 310.604 23.0235 315.682L25.0233 315.714ZM28.0165 285.719C28.9264 280.756 30.0365 275.841 31.3389 271.002L29.4077 270.482C28.091 275.374 26.969 280.342 26.0493 285.358L28.0165 285.719ZM35.8608 256.61C37.5818 251.844 39.4957 247.185 41.5938 242.665L39.7796 241.823C37.6562 246.398 35.7201 251.111 33.9796 255.931L35.8608 256.61ZM48.5686 229.311C51.1387 224.92 53.8995 220.711 56.8411 216.718L55.2309 215.532C52.2458 219.584 49.4466 223.851 46.8425 228.3L48.5686 229.311ZM66.4524 205.147C69.9303 201.444 73.5971 198.017 77.4415 194.905L76.1831 193.351C72.2642 196.523 68.5311 200.012 64.9945 203.778L66.4524 205.147ZM89.7855 186.383C91.955 185.127 94.1689 183.966 96.4256 182.905L95.5744 181.095C93.2651 182.181 91.0011 183.369 88.7837 184.652L89.7855 186.383Z" fill="#5ECBAD"/>
<path d="M783.258 106.47C783.794 106.604 784.337 106.278 784.47 105.742L786.645 97.0083C786.778 96.4723 786.452 95.9297 785.916 95.7963C785.38 95.6628 784.838 95.9891 784.704 96.525L782.771 104.288L775.008 102.355C774.472 102.222 773.93 102.548 773.796 103.084C773.663 103.62 773.989 104.162 774.525 104.296L783.258 106.47ZM563.588 23.9994C566.22 23.7679 568.826 23.5513 571.408 23.3501L571.253 21.3561C568.664 21.5579 566.051 21.7751 563.413 22.0071L563.588 23.9994ZM587.028 22.3081C592.34 22.0176 597.541 21.8025 602.634 21.6679L602.582 19.6686C597.468 19.8037 592.248 20.0196 586.919 20.3111L587.028 22.3081ZM618.28 21.5157C623.614 21.559 628.821 21.7052 633.908 21.9609L634.009 19.9634C628.892 19.7062 623.656 19.5593 618.296 19.5158L618.28 21.5157ZM649.482 23.1306C654.777 23.6692 659.932 24.3471 664.952 25.173L665.276 23.1996C660.213 22.3665 655.017 21.6833 649.684 21.1409L649.482 23.1306ZM680.234 28.2521C685.374 29.4915 690.363 30.9152 695.207 32.5338L695.841 30.6369C690.939 28.9991 685.896 27.56 680.703 26.3078L680.234 28.2521ZM709.716 38.1639C714.482 40.2897 719.099 42.6418 723.576 45.2328L724.578 43.5018C720.039 40.8749 715.359 38.4911 710.53 36.3373L709.716 38.1639ZM736.595 53.7379C740.734 56.7729 744.746 60.0527 748.637 63.59L749.982 62.11C746.04 58.5264 741.974 55.2021 737.777 52.125L736.595 53.7379ZM759.631 74.6229C763.037 78.3847 766.346 82.3797 769.564 86.6181L771.157 85.4087C767.906 81.1264 764.56 77.0868 761.113 73.2806L759.631 74.6229ZM778.511 99.3908C779.906 101.546 781.283 103.754 782.643 106.015L784.357 104.985C782.986 102.704 781.597 100.478 780.189 98.3039L778.511 99.3908Z" fill="#5ECBAD"/>
<path d="M423.985 56.2777C424.035 55.7277 423.63 55.2412 423.08 55.1912L414.117 54.375C413.567 54.325 413.08 54.7302 413.03 55.2802C412.98 55.8302 413.385 56.3167 413.935 56.3668L421.902 57.0922L421.177 65.0593C421.127 65.6093 421.532 66.0958 422.082 66.1458C422.632 66.1959 423.119 65.7907 423.169 65.2407L423.985 56.2777ZM422.349 55.4187C420.255 57.1633 418.158 58.8872 416.052 60.5885L417.309 62.1442C419.423 60.4358 421.528 58.7054 423.629 56.9554L422.349 55.4187ZM403.194 70.5653C398.845 73.7862 394.418 76.8978 389.868 79.8826L390.965 81.5549C395.551 78.5468 400.009 75.4131 404.384 72.1725L403.194 70.5653ZM375.991 88.3355C371.343 90.9476 366.541 93.4272 361.546 95.7586L362.391 97.571C367.435 95.2174 372.282 92.7147 376.971 90.079L375.991 88.3355ZM346.58 102.053C341.652 103.906 336.529 105.625 331.184 107.196L331.748 109.115C337.14 107.53 342.309 105.796 347.285 103.925L346.58 102.053ZM315.443 111.237C310.324 112.37 305.009 113.38 299.477 114.257L299.79 116.232C305.361 115.349 310.716 114.332 315.875 113.19L315.443 111.237ZM283.334 116.368C278.113 116.913 272.711 117.35 267.112 117.675L267.228 119.671C272.856 119.345 278.289 118.905 283.542 118.357L283.334 116.368ZM250.844 118.284C248.17 118.332 245.455 118.356 242.696 118.356L242.696 120.356C245.467 120.356 248.194 120.331 250.88 120.283L250.844 118.284Z" fill="#5ECBAD"/>
<path d="M876.115 423.494C876.664 423.43 877.057 422.933 876.993 422.385L875.954 413.445C875.89 412.896 875.394 412.503 874.845 412.567C874.297 412.631 873.903 413.127 873.967 413.676L874.891 421.622L866.945 422.546C866.396 422.61 866.003 423.107 866.067 423.655C866.131 424.204 866.627 424.597 867.176 424.533L876.115 423.494ZM823.588 323.002C823.588 325.444 823.688 327.869 823.881 330.275L825.875 330.115C825.686 327.761 825.588 325.389 825.588 323.002L823.588 323.002ZM826.115 344.628C827.206 349.385 828.612 354.03 830.258 358.535L832.136 357.849C830.517 353.415 829.135 348.85 828.065 344.181L826.115 344.628ZM835.968 371.86C838.143 376.288 840.501 380.526 842.955 384.54L844.661 383.497C842.237 379.531 839.909 375.346 837.763 370.978L835.968 371.86ZM851.014 396.569C854.056 400.733 857.101 404.53 860.002 407.902L861.518 406.597C858.65 403.264 855.638 399.508 852.629 395.389L851.014 396.569ZM869.935 418.459C872.058 420.497 873.912 422.122 875.379 423.284L876.621 421.716C875.216 420.604 873.411 419.023 871.32 417.016L869.935 418.459Z" fill="#F04C41"/>
<defs>
<filter id="filter0_f_260_94" x="110" y="101" width="124" height="124" filterUnits="userSpaceOnUse" color-interpolation-filters="sRGB">
<feFlood flood-opacity="0" result="BackgroundImageFix"/>
<feBlend mode="normal" in="SourceGraphic" in2="BackgroundImageFix" result="shape"/>
<feGaussianBlur stdDeviation="5" result="effect1_foregroundBlur_260_94"/>
</filter>
<filter id="filter1_f_260_94" x="0" y="376" width="124" height="124" filterUnits="userSpaceOnUse" color-interpolation-filters="sRGB">
<feFlood flood-opacity="0" result="BackgroundImageFix"/>
<feBlend mode="normal" in="SourceGraphic" in2="BackgroundImageFix" result="shape"/>
<feGaussianBlur stdDeviation="5" result="effect1_foregroundBlur_260_94"/>
</filter>
<filter id="filter2_f_260_94" x="770" y="101" width="124" height="124" filterUnits="userSpaceOnUse" color-interpolation-filters="sRGB">
<feFlood flood-opacity="0" result="BackgroundImageFix"/>
<feBlend mode="normal" in="SourceGraphic" in2="BackgroundImageFix" result="shape"/>
<feGaussianBlur stdDeviation="5" result="effect1_foregroundBlur_260_94"/>
</filter>
<filter id="filter3_f_260_94" x="438" y="0" width="124" height="124" filterUnits="userSpaceOnUse" color-interpolation-filters="sRGB">
<feFlood flood-opacity="0" result="BackgroundImageFix"/>
<feBlend mode="normal" in="SourceGraphic" in2="BackgroundImageFix" result="shape"/>
<feGaussianBlur stdDeviation="5" result="effect1_foregroundBlur_260_94"/>
</filter>
<filter id="filter4_f_260_94" x="882" y="379" width="124" height="124" filterUnits="userSpaceOnUse" color-interpolation-filters="sRGB">
<feFlood flood-opacity="0" result="BackgroundImageFix"/>
<feBlend mode="normal" in="SourceGraphic" in2="BackgroundImageFix" result="shape"/>
<feGaussianBlur stdDeviation="5" result="effect1_foregroundBlur_260_94"/>
</filter>
<clipPath id="clip0_260_94">
<rect width="43" height="43" fill="white" transform="translate(153 142)"/>
</clipPath>
</defs>
</svg>
