<svg width="43" height="43" viewBox="0 0 43 43" fill="none" xmlns="http://www.w3.org/2000/svg">
<g clip-path="url(#clip0_256_148)">
<path d="M42.9193 10.1948C42.767 9.6483 42.4087 9.17351 41.916 8.88684C41.4233 8.60017 40.832 8.51955 40.2856 8.67184C39.7391 8.82413 39.2643 9.18246 38.9776 9.67517L38.6193 10.3023C38.2789 10.1052 37.8399 10.2216 37.6429 10.562L35.8243 13.6616L35.1972 13.3033C35.036 13.2048 34.8389 13.1779 34.6508 13.2316C34.4626 13.2854 34.3104 13.4018 34.2118 13.572C34.0147 13.9125 34.1401 14.3514 34.4806 14.5485L35.1076 14.9068L29.016 25.4598L27.511 29.482L26.7943 30.8258C26.3733 31.5514 26.4181 32.4652 26.9108 33.146L25.2983 35.1258L24.8503 33.997C24.6443 33.4954 24.1785 33.146 23.632 33.1012C23.0856 33.0564 22.566 33.3252 22.2883 33.791L22.0374 34.221L21.7956 31.3543C21.7418 30.6735 21.2133 30.127 20.5414 30.0464C19.8695 29.9658 19.2245 30.3689 19.0095 31.0139L17.2447 36.2993C17.1193 36.6756 17.3253 37.0787 17.6926 37.2041C17.7643 37.24 17.836 37.2579 17.9166 37.2579C18.2212 37.2579 18.4989 37.0608 18.5974 36.7741L20.3533 31.4887L20.6041 34.4002C20.6578 35.0183 21.1058 35.5379 21.706 35.6812C22.3151 35.8245 22.9422 35.5558 23.2558 35.0183L23.5245 34.5793L23.9724 35.7081C24.1606 36.1829 24.5906 36.5233 25.0922 36.595C25.5939 36.6666 26.1045 36.4695 26.427 36.0754L28.0933 33.9612C28.2814 34.006 28.4695 34.0329 28.6576 34.0329C29.4281 34.0418 30.1358 33.6387 30.5299 32.9758L31.2466 31.7754L33.9789 28.4608L40.1333 17.7735L40.7604 18.1318C40.9306 18.2304 41.047 18.3827 41.1008 18.5708C41.1545 18.7589 41.1276 18.947 41.0291 19.1173L38.1624 24.0802C38.0549 24.2414 38.0191 24.4475 38.0639 24.6356C38.1087 24.8237 38.2251 24.9939 38.3954 25.0925C38.5566 25.191 38.7537 25.2179 38.9418 25.1641C39.1299 25.1104 39.2822 24.9939 39.3808 24.8237L42.2474 19.8608C42.5341 19.3681 42.6147 18.7768 42.4624 18.2304C42.3101 17.6839 41.9518 17.2091 41.4591 16.9225L40.832 16.5641L42.6237 13.4645C42.8208 13.1241 42.7043 12.6852 42.3639 12.4881L42.7222 11.861C42.9999 11.3593 43.0806 10.7591 42.9193 10.1948ZM40.2229 10.4008C40.3214 10.2306 40.4737 10.1141 40.6618 10.0604C40.8499 10.0156 41.0381 10.0425 41.2083 10.132C41.3785 10.2306 41.4949 10.3829 41.5487 10.571C41.5935 10.7591 41.5666 10.9473 41.477 11.1175L41.1187 11.7445L39.8735 11.0279L40.2229 10.4008ZM30.4493 30.4048L30.091 30.1987L29.0339 29.5806L30.0551 26.8573L32.3126 28.1652L30.4493 30.4048ZM28.2993 32.4741C27.9947 32.2591 27.9051 31.856 28.0843 31.5335L28.4426 30.9064L29.6879 31.6231L29.3295 32.2412C29.231 32.4114 29.0608 32.5368 28.8637 32.5816C28.6756 32.6264 28.4695 32.5906 28.2993 32.4741ZM33.1279 26.9827L30.6464 25.5493L36.3797 15.6145L38.8612 17.0479L33.1279 26.9827ZM39.5779 15.8116L37.0964 14.3783L38.5297 11.8968L41.0112 13.3302L39.5779 15.8116Z" fill="white"/>
<path d="M11.3053 32.1156L8.7701 34.6418L7.24719 33.1189C6.96948 32.8412 6.51261 32.8412 6.2349 33.1189C6.10052 33.2533 6.0199 33.4324 6.0199 33.6295C6.0199 33.8266 6.10052 34.0058 6.2349 34.1402L7.75781 35.6631C8.02656 35.9318 8.39385 36.0751 8.7701 36.0751C9.14635 36.0751 9.51365 35.9318 9.79135 35.6631L12.3176 33.1279C12.5595 32.8412 12.5416 32.4202 12.2818 32.1514C12.013 31.8916 11.592 31.8737 11.3053 32.1156Z" fill="white"/>
<path d="M2.92951 33.146C2.91159 33.2356 2.90264 33.3252 2.89368 33.4237C2.91159 33.3252 2.92055 33.2356 2.92951 33.146Z" fill="white"/>
<path d="M2.86664 34.0416C2.86664 35.7258 3.54747 37.2487 4.64935 38.3506C3.54747 37.2487 2.86664 35.7258 2.86664 34.0416C2.86664 33.8356 2.8756 33.6206 2.89351 33.4146C2.8756 33.6206 2.86664 33.8356 2.86664 34.0416Z" fill="white"/>
<path d="M11.7533 30.3151C11.6816 30.2613 11.601 30.2076 11.5204 30.1538C11.61 30.2076 11.6906 30.2703 11.7712 30.333C11.7623 30.324 11.7623 30.324 11.7533 30.3151Z" fill="white"/>
<path d="M13.6167 34.0416C13.6167 36.6127 11.5294 38.7 8.95832 38.7C6.38728 38.7 4.29999 36.6127 4.29999 34.0416C4.29999 31.4706 6.38728 29.3833 8.95832 29.3833C8.99416 29.3833 9.02999 29.3833 9.06582 29.3833C9.02999 29.3833 8.99416 29.3833 8.95832 29.3833C6.38728 29.3833 4.29999 31.4706 4.29999 34.0416C4.29999 36.6127 6.38728 38.7 8.95832 38.7C11.5294 38.7 13.6167 36.6127 13.6167 34.0416C13.6167 34.0327 13.6167 34.0148 13.6167 34.0058C13.6167 34.0237 13.6167 34.0327 13.6167 34.0416Z" fill="white"/>
<path d="M15.0499 34.0417C15.0499 35.7259 14.3691 37.2488 13.2672 38.3507C14.3601 37.2488 15.0499 35.7259 15.0499 34.0417V34.0059C15.0499 34.0148 15.0499 34.0327 15.0499 34.0417Z" fill="white"/>
<path d="M9.31664 10.042C8.92248 10.042 8.59998 10.3645 8.59998 10.7587C8.59998 11.1528 8.92248 11.4753 9.31664 11.4753H23.65C24.0441 11.4753 24.3666 11.1528 24.3666 10.7587C24.3666 10.3645 24.0441 10.042 23.65 10.042H9.31664Z" fill="white"/>
<path d="M6.62024 5.7334C6.07378 5.7334 5.63483 6.0559 5.63483 6.45007C5.63483 6.84423 6.07378 7.16673 6.62024 7.16673H26.3375C26.884 7.16673 27.3229 6.84423 27.3229 6.45007C27.3229 6.0559 26.884 5.7334 26.3375 5.7334H6.62024Z" fill="white"/>
<path d="M27.6723 15.0591H6.00208C5.45562 15.0591 5.01666 15.3816 5.01666 15.7757C5.01666 16.1699 5.45562 16.4924 6.00208 16.4924H27.6812C28.2277 16.4924 28.6667 16.1699 28.6667 15.7757C28.6577 15.3726 28.2187 15.0591 27.6723 15.0591Z" fill="white"/>
<path d="M20.7833 20.0668C20.7833 19.6726 20.4608 19.3501 20.0667 19.3501H5.73333C5.33916 19.3501 5.01666 19.6726 5.01666 20.0668C5.01666 20.4609 5.33916 20.7834 5.73333 20.7834H20.0667C20.4608 20.7834 20.7833 20.4699 20.7833 20.0668Z" fill="white"/>
<path d="M15.0501 33.9968C15.0322 32.0349 14.1005 30.297 12.6493 29.1951C12.6045 29.1593 12.5597 29.1234 12.5149 29.0965C12.4791 29.0697 12.4522 29.0518 12.4164 29.0249C12.3716 28.998 12.3268 28.9711 12.291 28.9353C12.2641 28.9174 12.2283 28.8995 12.2014 28.8815C12.1655 28.8547 12.1297 28.8368 12.0939 28.8188C12.058 28.8009 12.0222 28.774 11.9864 28.7561C11.8789 28.6934 11.7714 28.6397 11.6639 28.577C11.5116 28.5053 11.3683 28.4426 11.216 28.3799C10.7591 28.2007 10.2843 28.0753 9.80951 28.0036C9.77367 27.9947 9.73784 27.9947 9.71097 27.9857C9.69305 27.9857 9.68409 27.9857 9.66618 27.9768C9.59451 27.9678 9.52284 27.9588 9.45118 27.9588C9.4243 27.9588 9.39743 27.9588 9.37055 27.9499C9.33472 27.9499 9.29888 27.9409 9.26305 27.9409C9.21826 27.9409 9.18243 27.9409 9.13763 27.9409C9.12867 27.9409 9.11972 27.9409 9.1018 27.9409C9.05701 27.9409 9.00326 27.9409 8.95847 27.9409C8.90472 27.9409 8.84201 27.9409 8.78826 27.9409C8.73451 27.9409 8.68972 27.9409 8.63597 27.9499C8.60909 27.9499 8.58222 27.9499 8.55534 27.9588C8.51951 27.9588 8.49263 27.9588 8.4568 27.9678C8.44784 27.9678 8.42993 27.9678 8.42097 27.9678C8.36722 27.9678 8.31347 27.9768 8.26868 27.9857C7.56993 28.0663 6.88909 28.2634 6.24409 28.5859C6.04701 28.6845 5.86784 28.792 5.68868 28.8995C5.62597 28.9353 5.57222 28.9801 5.50951 29.0159C5.45576 29.0518 5.40201 29.0965 5.34826 29.1324C5.29451 29.1682 5.24972 29.204 5.19597 29.2488C5.17805 29.2668 5.16013 29.2757 5.13326 29.2936C5.10638 29.3205 5.07055 29.3384 5.04368 29.3653C4.98993 29.4101 4.92722 29.4638 4.87347 29.5086C4.83763 29.5355 4.81076 29.5713 4.77493 29.5982C4.65847 29.7057 4.55097 29.8222 4.44347 29.9386C4.41659 29.9655 4.39868 29.9924 4.3718 30.0193C4.30013 30.0999 4.22847 30.1895 4.1568 30.279C4.13889 30.3059 4.12097 30.3238 4.10305 30.3507C4.06722 30.3955 4.03138 30.4493 3.99555 30.494C3.95972 30.5478 3.92388 30.5926 3.89701 30.6463C3.86118 30.7001 3.82534 30.7628 3.78951 30.8165C3.77159 30.8434 3.75368 30.8703 3.74472 30.8972C3.69993 30.9778 3.65513 31.0495 3.61034 31.1301C3.59243 31.1659 3.57451 31.1928 3.55659 31.2286C3.54764 31.2376 3.53868 31.2555 3.53868 31.2645C3.5118 31.3272 3.47597 31.3899 3.44909 31.4526C3.43118 31.4795 3.42222 31.5153 3.4043 31.5511C3.37743 31.6138 3.35055 31.6765 3.32368 31.7482C3.31472 31.784 3.2968 31.8109 3.28784 31.8468C3.27889 31.8826 3.26097 31.9095 3.25201 31.9453C3.22514 32.008 3.20722 32.0797 3.18034 32.1424C3.17139 32.1782 3.16243 32.214 3.15347 32.2409C3.13555 32.3126 3.10868 32.3753 3.09076 32.447C3.0818 32.4828 3.07284 32.5097 3.06389 32.5455C3.04597 32.6172 3.02805 32.6799 3.01909 32.7515C3.01014 32.7874 3.00118 32.8143 3.00118 32.8501C2.98326 32.9218 2.9743 32.9934 2.96534 33.0651C2.96534 33.083 2.95639 33.1099 2.95639 33.1278C2.93847 33.2174 2.92951 33.307 2.92055 33.4055C2.90264 33.6115 2.89368 33.8176 2.89368 34.0326C2.89368 35.7168 3.57451 37.2397 4.67638 38.3415C5.75138 39.4524 7.2743 40.1332 8.95847 40.1332C10.6426 40.1332 12.1656 39.4524 13.2674 38.3505C14.3693 37.2486 15.0501 35.7257 15.0501 34.0415V33.9968C15.0501 34.0057 15.0501 34.0057 15.0501 33.9968ZM8.95847 38.6999C6.38743 38.6999 4.30013 36.6126 4.30013 34.0415C4.30013 31.4705 6.38743 29.3832 8.95847 29.3832C8.9943 29.3832 9.03013 29.3832 9.06597 29.3832C9.1018 29.3832 9.13763 29.3832 9.17347 29.3832C9.20034 29.3832 9.22722 29.3832 9.25409 29.3832C9.28097 29.3832 9.3168 29.3832 9.34368 29.3922C9.44222 29.4011 9.54076 29.4101 9.63034 29.428C9.65722 29.428 9.68409 29.437 9.71097 29.437C9.77368 29.4459 9.82743 29.4549 9.89013 29.4728C9.91701 29.4818 9.95284 29.4818 9.97972 29.4907C10.2485 29.5534 10.5083 29.634 10.7591 29.7415C10.786 29.7505 10.8128 29.7684 10.8487 29.7774C10.992 29.8401 11.1353 29.9118 11.2787 29.9924C11.3324 30.0193 11.3862 30.0551 11.4399 30.0909C11.4668 30.1088 11.4937 30.1268 11.5206 30.1447C11.6101 30.1984 11.6908 30.2611 11.7714 30.3238C12.8822 31.1659 13.5989 32.5007 13.6168 33.9968C13.6168 34.0057 13.6168 34.0236 13.6168 34.0326C13.6168 36.6126 11.5295 38.6999 8.95847 38.6999Z" fill="white"/>
<path d="M27.9411 19.3501H22.9244C22.5303 19.3501 22.2078 19.6726 22.2078 20.0668C22.2078 20.4609 22.5303 20.7834 22.9244 20.7834H27.9411C28.3353 20.7834 28.6578 20.4609 28.6578 20.0668C28.6578 19.6726 28.3442 19.3501 27.9411 19.3501Z" fill="white"/>
<path d="M12.9 24.3669C13.2942 24.3669 13.6167 24.0444 13.6167 23.6503C13.6167 23.2561 13.2942 22.9336 12.9 22.9336H5.73333C5.33916 22.9336 5.01666 23.2561 5.01666 23.6503C5.01666 24.0444 5.33916 24.3669 5.73333 24.3669H12.9Z" fill="white"/>
<path d="M15.7667 24.3669H20.7833C21.1775 24.3669 21.5 24.0444 21.5 23.6503C21.5 23.2561 21.1775 22.9336 20.7833 22.9336H15.7667C15.3725 22.9336 15.05 23.2561 15.05 23.6503C15.05 24.0534 15.3725 24.3669 15.7667 24.3669Z" fill="white"/>
<path d="M32.241 32.966C31.8469 32.966 31.5244 33.2885 31.5244 33.6827V40.8493C31.5244 41.2435 31.2019 41.566 30.8077 41.566H2.15C1.75583 41.566 1.43333 41.2435 1.43333 40.8493V2.1583C1.43333 1.76413 1.75583 1.44163 2.15 1.44163H30.8077C31.2019 1.44163 31.5244 1.76413 31.5244 2.1583V15.6137C31.5244 16.0079 31.8469 16.3304 32.241 16.3304C32.6352 16.3304 32.9577 16.0079 32.9577 15.6137V2.1583C32.9577 0.966842 31.9992 0.00830078 30.8077 0.00830078H2.15C0.958542 0.00830078 0 0.966842 0 2.1583V40.8493C0 42.0408 0.958542 42.9993 2.15 42.9993H30.8077C31.9992 42.9993 32.9577 42.0408 32.9577 40.8493V33.6827C32.9577 33.2885 32.6442 32.966 32.241 32.966Z" fill="white"/>
<path d="M7.67719 28.0933C7.72198 28.0843 7.77573 28.0754 7.82052 28.0664C7.76677 28.0754 7.72198 28.0843 7.67719 28.0933Z" fill="white"/>
<path d="M7.43542 28.1468C7.45334 28.1379 7.48022 28.1379 7.49813 28.1289C7.47126 28.1379 7.45334 28.1379 7.43542 28.1468Z" fill="white"/>
<path d="M7.49799 28.1291C7.56069 28.1112 7.61444 28.1022 7.67715 28.0933C7.61444 28.1022 7.55174 28.1201 7.49799 28.1291Z" fill="white"/>
<path d="M7.81158 28.0664C7.85638 28.0575 7.91013 28.0485 7.95492 28.0396C7.91013 28.0396 7.86533 28.0485 7.81158 28.0664Z" fill="white"/>
<path d="M8.25961 27.9946C8.16107 28.0036 8.06253 28.0215 7.96399 28.0394C8.06253 28.0215 8.16107 28.0036 8.25961 27.9946Z" fill="white"/>
<path d="M6.74573 28.3709C6.96969 28.2814 7.19364 28.2097 7.42656 28.147C7.2026 28.2097 6.96969 28.2814 6.74573 28.3709Z" fill="white"/>
<path d="M5.67072 28.9085C5.92155 28.7473 6.1903 28.6039 6.45905 28.4785C6.37842 28.5143 6.30676 28.5502 6.22613 28.586C6.03801 28.6935 5.84988 28.801 5.67072 28.9085Z" fill="white"/>
<path d="M6.46783 28.4871C6.47639 28.4871 6.47639 28.4785 6.48495 28.4785C6.47639 28.4785 6.46783 28.4871 6.46783 28.4871Z" fill="white"/>
<path d="M6.70984 28.3797C6.7188 28.3708 6.73671 28.3708 6.74567 28.3618C6.73671 28.3708 6.7188 28.3797 6.70984 28.3797Z" fill="white"/>
<path d="M6.4859 28.4789C6.55757 28.4431 6.63819 28.4162 6.70986 28.3804C6.62923 28.4162 6.55757 28.4431 6.4859 28.4789Z" fill="white"/>
<path d="M11.2069 28.3797C10.7501 28.2005 10.2753 28.0751 9.80048 28.0034C10.2932 28.0751 10.768 28.2005 11.2069 28.3797Z" fill="white"/>
<path d="M11.6636 28.5862C11.5113 28.5146 11.368 28.4519 11.2157 28.3892C11.359 28.4429 11.5113 28.5146 11.6636 28.5862Z" fill="white"/>
<path d="M11.9861 28.7563C11.8786 28.6936 11.7711 28.6399 11.6636 28.5771C11.7711 28.6399 11.8786 28.6936 11.9861 28.7563Z" fill="white"/>
</g>
<defs>
<clipPath id="clip0_256_148">
<rect width="43" height="43" fill="white"/>
</clipPath>
</defs>
</svg>
