<svg width="36" height="50" viewBox="0 0 36 50" fill="none" xmlns="http://www.w3.org/2000/svg">
<path d="M9.98 19.8736C10.2667 20.1608 10.7755 20.1395 11.0372 19.8298L14.5583 15.8329C14.8257 15.5294 14.7964 15.0665 14.4929 14.7991C14.1893 14.5316 13.7264 14.561 13.4591 14.8645L10.4438 18.2875L8.52102 16.4385C8.22962 16.1583 7.76585 16.1674 7.48548 16.4589C7.20511 16.7504 7.21419 17.214 7.50579 17.4944L9.98 19.8736Z" fill="white"/>
<path d="M16.9433 18.0791H27.2948C27.6994 18.0791 28.0272 17.7513 28.0272 17.3467C28.0272 16.9421 27.6994 16.6143 27.2948 16.6143H16.9433C16.5387 16.6143 16.2109 16.9421 16.2109 17.3467C16.2109 17.7513 16.5387 18.0791 16.9433 18.0791Z" fill="white"/>
<path d="M7.50573 26.1105L9.98004 28.4896C10.2664 28.7764 10.7744 28.7555 11.0363 28.4469L14.5625 24.4599C14.8305 24.1568 14.8021 23.6939 14.4992 23.426C14.196 23.158 13.7332 23.1864 13.4653 23.4893L10.4449 26.9045L8.52096 25.0546C8.22956 24.7742 7.76579 24.7833 7.48542 25.0749C7.20505 25.3665 7.21413 25.8302 7.50573 26.1105Z" fill="white"/>
<path d="M7.64648 34.509L10.1208 36.8881C10.4071 37.1749 10.9151 37.154 11.177 36.8453L14.7033 32.8583C14.9713 32.5553 14.9428 32.0924 14.6399 31.8244C14.3368 31.5564 13.8739 31.5849 13.606 31.8878L10.5856 35.3029L8.66171 33.453C8.3703 33.1726 7.90654 33.1817 7.62617 33.4733C7.3458 33.7649 7.35488 34.2286 7.64648 34.509Z" fill="white"/>
<path d="M16.9433 26.6602H27.2948C27.6994 26.6602 28.0272 26.3323 28.0272 25.9277C28.0272 25.5231 27.6994 25.1953 27.2948 25.1953H16.9433C16.5387 25.1953 16.2109 25.5231 16.2109 25.9277C16.2109 26.3323 16.5387 26.6602 16.9433 26.6602Z" fill="white"/>
<path d="M27.2948 34.0947H25.5858C25.1812 34.0947 24.8534 34.4226 24.8534 34.8271C24.8534 35.2317 25.1812 35.5596 25.5858 35.5596H27.2948C27.6994 35.5596 28.0272 35.2317 28.0272 34.8271C28.0272 34.4226 27.6993 34.0947 27.2948 34.0947Z" fill="white"/>
<path d="M16.9433 35.5596H22.1679C22.5725 35.5596 22.9003 35.2317 22.9003 34.8271C22.9003 34.4226 22.5725 34.0947 22.1679 34.0947H16.9433C16.5387 34.0947 16.2109 34.4226 16.2109 34.8271C16.2109 35.2317 16.5387 35.5596 16.9433 35.5596Z" fill="white"/>
<path d="M35.2049 23.6816C35.6095 23.6816 35.9373 23.3538 35.9373 22.9492V5.41999C35.9373 4.47771 35.1706 3.71101 34.2283 3.71101L21.722 3.70906C21.7097 2.68846 21.2765 1.70663 20.5294 1.00927C19.7608 0.291696 18.758 -0.0632826 17.704 0.00927558C15.7844 0.134763 14.2234 1.78583 14.2154 3.70906L1.70898 3.71101C0.766695 3.71101 0 4.47771 0 5.41999V48.2909C0 49.2331 0.766695 49.9998 1.70898 49.9998H34.2283C35.1706 49.9998 35.9373 49.2331 35.9373 48.2909V26.3671C35.9373 25.9626 35.6095 25.6347 35.2049 25.6347C34.8003 25.6347 34.4725 25.9626 34.4725 26.3671V48.2909C34.4725 48.4255 34.363 48.535 34.2283 48.535H1.70898C1.57431 48.535 1.46484 48.4255 1.46484 48.2909V5.41999C1.46484 5.28532 1.57431 5.17585 1.70898 5.17585H8.8731V6.64069H3.66209C3.2575 6.64069 2.92967 6.96852 2.92967 7.3731V46.3377C2.92967 46.7423 3.2575 47.0702 3.66209 47.0702H6.93356C7.33815 47.0702 7.66598 46.7423 7.66598 46.3377C7.66598 45.9332 7.33815 45.6053 6.93356 45.6053H4.39451V8.10552H8.8731V9.75844C8.8731 10.4316 9.42065 10.9791 10.0938 10.9791H19.9834C20.388 10.9791 20.7158 10.6513 20.7158 10.2467C20.7158 9.84213 20.388 9.5143 19.9834 9.5143H10.3379V5.17585H15.0262C15.4933 5.18161 15.8491 4.72741 15.7396 4.27527C15.4027 2.94471 16.4314 1.54608 17.8048 1.4706C19.2984 1.32275 20.5767 2.82762 20.1977 4.27556C20.0828 4.71843 20.4537 5.18552 20.9111 5.1739L25.5994 5.17585V9.5143H23.4013C22.9967 9.5143 22.6689 9.84213 22.6689 10.2467C22.6689 10.6513 22.9967 10.9791 23.4013 10.9791H25.8435C26.5167 10.9791 27.0642 10.4316 27.0642 9.75844V8.10552H31.5428V37.7929H24.4628C24.0582 37.7929 23.7303 38.1207 23.7303 38.5253V45.6053H10.3515C9.94692 45.6053 9.61909 45.9332 9.61909 46.3377C9.61909 46.7423 9.94692 47.0702 10.3515 47.0702H24.4628C24.6552 47.0703 24.8445 46.9913 24.9807 46.8557L32.7932 39.0432C32.9291 38.9068 33.0071 38.7182 33.0076 38.5253V7.3731C33.0076 6.96852 32.6798 6.64069 32.2752 6.64069H27.0642V5.17585H34.2283C34.363 5.17585 34.4725 5.28532 34.4725 5.41999V22.9492C34.4725 23.3538 34.8003 23.6816 35.2049 23.6816ZM25.1952 44.5696V39.2577H30.5071L25.1952 44.5696Z" fill="white"/>
</svg>
