<svg width="49" height="42" viewBox="0 0 49 42" fill="none" xmlns="http://www.w3.org/2000/svg">
<path d="M46.6583 4.58227L38.308 1.10347C37.385 0.722019 36.3483 0.722019 35.4253 1.10347L31.416 2.77352C31.2439 2.84535 31.1074 2.98262 31.0365 3.15512C30.9655 3.32763 30.9661 3.52124 31.0379 3.69336C31.1097 3.86549 31.247 4.00202 31.4195 4.07294C31.592 4.14386 31.7856 4.14334 31.9577 4.07151L35.967 2.40146C36.5437 2.16299 37.1915 2.16299 37.7682 2.40146L46.1185 5.88026C46.5081 6.0352 46.8431 6.30221 47.081 6.64752C47.3188 6.99283 47.449 7.40094 47.4549 7.82022V37.8802C47.4549 39.0498 46.4512 40.0001 45.2169 40.0001H44.0764C43.8899 40.0001 43.7112 40.0741 43.5794 40.2059C43.4475 40.3377 43.3735 40.5165 43.3735 40.7029C43.3735 40.8894 43.4475 41.0681 43.5794 41.2C43.7112 41.3318 43.8899 41.4058 44.0764 41.4058H45.216C47.2253 41.4058 48.8597 39.8248 48.8597 37.8802V7.82022C48.8542 7.12327 48.6421 6.44361 48.2503 5.86724C47.8584 5.29087 47.3044 4.84368 46.6583 4.58227Z" fill="white"/>
<path d="M41.5366 40.2336C41.4711 40.1594 41.3904 40.1 41.3001 40.0595C41.2097 40.0189 41.1118 39.9981 41.0128 39.9984H29.2043C29.6822 39.455 29.9491 38.7582 29.9567 38.0347C29.9643 37.3111 29.7119 36.6089 29.2456 36.0557C29.5291 35.9112 29.7881 35.723 30.0131 35.4981C30.5582 34.9527 30.8742 34.2196 30.8965 33.4489C30.9188 32.6781 30.6457 31.928 30.1331 31.352C30.5255 31.1304 30.8635 30.8239 31.1221 30.4548C31.3808 30.0858 31.5536 29.6635 31.6279 29.219C31.7022 28.7745 31.6761 28.319 31.5516 27.8858C31.427 27.4527 31.2072 27.0529 30.9081 26.7158C31.151 26.58 31.374 26.4113 31.5707 26.2144C32.0324 25.7526 32.3321 25.1536 32.4249 24.5072C32.5176 23.8608 32.3984 23.2017 32.0852 22.6287C31.8243 22.1521 31.4398 21.7545 30.9721 21.4778C30.5044 21.201 29.9708 21.0554 29.4274 21.0562H26.2785V7.82136C26.2842 7.40192 26.4142 6.99361 26.6521 6.64811C26.89 6.30261 27.2251 6.03546 27.6149 5.88046L28.8932 5.34815C29.0607 5.27872 29.1949 5.14715 29.2675 4.98101C29.3402 4.81486 29.3458 4.62704 29.283 4.45689C29.283 4.44752 29.2765 4.43815 29.2727 4.42878C29.2002 4.25746 29.0627 4.12185 28.8904 4.05161C28.7181 3.98136 28.525 3.98219 28.3534 4.05391L27.0741 4.58622C26.428 4.8478 25.8739 5.29515 25.482 5.87169C25.0902 6.44822 24.8781 7.12803 24.8727 7.82511V21.0562H21.9356C22.914 17.9635 22.8306 14.7405 21.6891 10.9965C21.518 10.4322 21.168 9.93874 20.6919 9.59075C20.2717 9.28092 19.7721 9.09689 19.2514 9.06012C18.7306 9.02334 18.2101 9.13534 17.7505 9.38305C17.2909 9.63076 16.9112 10.004 16.6556 10.4592C16.4 10.9145 16.2791 11.433 16.3069 11.9543C16.5262 16.18 14.5769 17.6345 11.8787 19.6485C10.9903 20.3111 10.0194 21.0365 9.06721 21.9259V21.0046C9.06721 20.8182 8.99315 20.6394 8.86134 20.5076C8.72952 20.3758 8.55074 20.3017 8.36432 20.3017H1.57916C1.39275 20.3017 1.21397 20.3758 1.08215 20.5076C0.950335 20.6394 0.876282 20.8182 0.876282 21.0046V40.9393C0.876282 41.1257 0.950335 41.3045 1.08215 41.4363C1.21397 41.5681 1.39275 41.6422 1.57916 41.6422H8.36432C8.55074 41.6422 8.72952 41.5681 8.86134 41.4363C8.99315 41.3045 9.06721 41.1257 9.06721 40.9393V39.1709C10.4027 39.2964 11.3773 39.5635 12.3248 40.2898C12.9435 40.7647 13.7004 41.0244 14.4803 41.0293H26.8792C27.3896 41.2765 27.9494 41.4046 28.5164 41.4041H41.0128C41.1484 41.4044 41.2813 41.3653 41.3952 41.2916C41.5091 41.2179 41.5993 41.1128 41.6547 40.989C41.7101 40.8651 41.7285 40.7279 41.7075 40.5938C41.6866 40.4597 41.6272 40.3346 41.5366 40.2336ZM7.66144 40.2336H2.28205V21.7075H7.66144V40.2336ZM25.7724 36.3912H26.9326C27.1086 36.391 27.2833 36.4198 27.4499 36.4765C27.7105 36.5647 27.9443 36.7179 28.1292 36.9216C28.3141 37.1252 28.4442 37.3726 28.507 37.6404C28.5698 37.9083 28.5634 38.1877 28.4883 38.4523C28.4132 38.717 28.272 38.9581 28.0778 39.153C28.0223 39.208 27.9624 39.2585 27.8988 39.3039C27.6372 39.494 27.3267 39.6056 27.0038 39.6254H14.4841C14.0121 39.6217 13.5543 39.4637 13.1805 39.1755C11.8553 38.1606 10.4392 37.8776 9.06814 37.7595V23.9267C10.2443 22.6297 11.5048 21.6897 12.7231 20.7797C15.4231 18.7657 17.9713 16.8623 17.7145 11.8859C17.6967 11.5577 17.7994 11.2344 18.0034 10.9767C18.2073 10.719 18.4983 10.5446 18.8218 10.4865C19.1452 10.4283 19.4788 10.4904 19.7597 10.6609C20.0406 10.8315 20.2495 11.0988 20.3471 11.4126C21.5092 15.2251 21.4914 18.433 20.2899 21.5079C20.2482 21.6145 20.2332 21.7298 20.2462 21.8435C20.2592 21.9573 20.2998 22.0662 20.3645 22.1607C20.4291 22.2552 20.5159 22.3324 20.6173 22.3858C20.7186 22.4391 20.8314 22.4668 20.9459 22.4666H29.4274C29.6431 22.4614 29.8578 22.4994 30.0586 22.5784C30.2595 22.6574 30.4425 22.7757 30.5969 22.9265C30.7514 23.0773 30.8741 23.2574 30.9579 23.4563C31.0417 23.6552 31.0848 23.8688 31.0848 24.0847C31.0848 24.3005 31.0417 24.5141 30.9579 24.713C30.8741 24.9119 30.7514 25.092 30.5969 25.2428C30.4425 25.3936 30.2595 25.5119 30.0586 25.5909C29.8578 25.6699 29.6431 25.7079 29.4274 25.7027H26.5427C26.3635 25.7026 26.191 25.7711 26.0607 25.8942C25.9304 26.0172 25.852 26.1854 25.8417 26.3643C25.8408 26.3781 25.8408 26.3918 25.8417 26.4056C25.8413 26.4939 25.8581 26.5815 25.8914 26.6633C25.9432 26.795 26.0335 26.9079 26.1506 26.9874C26.2676 27.0668 26.406 27.109 26.5474 27.1085H28.6486C28.8643 27.1033 29.079 27.1413 29.2798 27.2203C29.4807 27.2992 29.6637 27.4176 29.8181 27.5683C29.9726 27.7191 30.0953 27.8992 30.1791 28.0981C30.2629 28.297 30.306 28.5107 30.306 28.7265C30.306 28.9423 30.2629 29.156 30.1791 29.3548C30.0953 29.5537 29.9726 29.7339 29.8181 29.8846C29.6637 30.0354 29.4807 30.1537 29.2798 30.2327C29.079 30.3117 28.8643 30.3497 28.6486 30.3445H26.5427C26.5203 30.3431 26.4977 30.3431 26.4753 30.3445C26.2888 30.3535 26.1136 30.4361 25.9881 30.5743C25.8626 30.7124 25.7972 30.8947 25.8061 31.0811C25.8151 31.2676 25.8977 31.4428 26.0358 31.5683C26.174 31.6938 26.3563 31.7592 26.5427 31.7503H27.8726C28.295 31.7605 28.6967 31.9354 28.9918 32.2377C29.2869 32.5401 29.4522 32.9458 29.4522 33.3683C29.4522 33.7908 29.2869 34.1966 28.9918 34.4989C28.6967 34.8013 28.295 34.9762 27.8726 34.9864H25.7724C25.586 34.9864 25.4072 35.0604 25.2754 35.1922C25.1436 35.324 25.0695 35.5028 25.0695 35.6892C25.0695 35.8757 25.1436 36.0544 25.2754 36.1863C25.4072 36.3181 25.586 36.3921 25.7724 36.3921V36.3912Z" fill="white"/>
<path d="M36.7242 5.45508C36.1945 5.45508 35.6766 5.61217 35.2362 5.90648C34.7957 6.20079 34.4524 6.61911 34.2497 7.10853C34.0469 7.59795 33.9939 8.1365 34.0972 8.65607C34.2006 9.17564 34.4557 9.65289 34.8303 10.0275C35.2049 10.4021 35.6821 10.6572 36.2017 10.7605C36.7213 10.8639 37.2598 10.8108 37.7492 10.6081C38.2387 10.4054 38.657 10.0621 38.9513 9.6216C39.2456 9.18113 39.4027 8.66328 39.4027 8.13353C39.4019 7.42339 39.1195 6.74255 38.6174 6.2404C38.1152 5.73826 37.4344 5.45582 36.7242 5.45508ZM36.7242 9.40621C36.4725 9.40621 36.2265 9.33157 36.0172 9.19173C35.8079 9.05188 35.6447 8.85312 35.5484 8.62056C35.4521 8.38801 35.4269 8.13212 35.476 7.88524C35.5251 7.63836 35.6463 7.41159 35.8243 7.2336C36.0023 7.05562 36.2291 6.9344 36.4759 6.8853C36.7228 6.83619 36.9787 6.86139 37.2113 6.95772C37.4438 7.05405 37.6426 7.21717 37.7824 7.42646C37.9223 7.63576 37.9969 7.88181 37.9969 8.13353C37.9967 8.47099 37.8625 8.79456 37.6239 9.03318C37.3853 9.2718 37.0617 9.40597 36.7242 9.40621Z" fill="white"/>
<path d="M37.3934 30.7858H36.0626C35.7259 30.785 35.4032 30.6509 35.1651 30.4127C34.9271 30.1745 34.7932 29.8517 34.7927 29.515C34.7963 29.4153 34.7797 29.316 34.744 29.2229C34.7083 29.1298 34.6543 29.0449 34.585 28.9731C34.5158 28.9014 34.4328 28.8444 34.3411 28.8054C34.2493 28.7664 34.1506 28.7463 34.0509 28.7463C33.9513 28.7463 33.8526 28.7664 33.7608 28.8054C33.6691 28.8444 33.5861 28.9014 33.5169 28.9731C33.4476 29.0449 33.3936 29.1298 33.3579 29.2229C33.3222 29.316 33.3056 29.4153 33.3092 29.515C33.3096 30.2321 33.5897 30.9208 34.0898 31.4348C34.5899 31.9487 35.2708 32.2474 35.9876 32.2674V33.9094C35.9876 34.0067 36.0068 34.1031 36.044 34.1931C36.0813 34.283 36.1359 34.3647 36.2047 34.4336C36.2736 34.5024 36.3553 34.557 36.4452 34.5943C36.5352 34.6315 36.6316 34.6507 36.7289 34.6507C36.8263 34.6507 36.9227 34.6315 37.0126 34.5943C37.1025 34.557 37.1843 34.5024 37.2531 34.4336C37.3219 34.3647 37.3765 34.283 37.4138 34.1931C37.4511 34.1031 37.4702 34.0067 37.4702 33.9094V32.2674C38.1868 32.2472 38.8672 31.9485 39.3671 31.4348C39.867 30.9211 40.1471 30.2327 40.1477 29.5159V28.485C40.1487 28.0219 40.0025 27.5706 39.7303 27.196C39.4581 26.8214 39.074 26.5429 38.6333 26.4007L35.2829 25.3127C35.1405 25.2663 35.0164 25.176 34.9285 25.0548C34.8407 24.9336 34.7934 24.7876 34.7937 24.6379V23.1712C34.7937 22.8978 34.9023 22.6356 35.0956 22.4423C35.2889 22.2489 35.5511 22.1403 35.8245 22.1403H37.6324C37.9058 22.1403 38.168 22.2489 38.3613 22.4423C38.5546 22.6356 38.6633 22.8978 38.6633 23.1712C38.6633 23.3678 38.7414 23.5564 38.8804 23.6954C39.0194 23.8344 39.208 23.9125 39.4046 23.9125C39.6012 23.9125 39.7897 23.8344 39.9287 23.6954C40.0678 23.5564 40.1459 23.3678 40.1459 23.1712C40.1451 22.5045 39.88 21.8652 39.4086 21.3937C38.9373 20.9222 38.2982 20.6568 37.6314 20.6558H37.4684V19.0167C37.4684 18.9193 37.4492 18.823 37.4119 18.733C37.3747 18.6431 37.3201 18.5614 37.2512 18.4925C37.1824 18.4237 37.1007 18.3691 37.0107 18.3318C36.9208 18.2946 36.8244 18.2754 36.7271 18.2754C36.6297 18.2754 36.5333 18.2946 36.4434 18.3318C36.3534 18.3691 36.2717 18.4237 36.2029 18.4925C36.134 18.5614 36.0794 18.6431 36.0422 18.733C36.0049 18.823 35.9857 18.9193 35.9857 19.0167V20.6558H35.8236C35.1567 20.6566 34.5174 20.9218 34.0458 21.3934C33.5742 21.8649 33.309 22.5043 33.3082 23.1712V24.6407C33.3073 25.1039 33.4534 25.5554 33.7256 25.9302C33.9978 26.3049 34.3819 26.5836 34.8227 26.7259L38.1731 27.814C38.3154 27.8602 38.4394 27.9502 38.5273 28.0713C38.6152 28.1924 38.6625 28.3382 38.6623 28.4878V29.5187C38.6611 29.8547 38.5269 30.1765 38.2892 30.4139C38.0514 30.6514 37.7294 30.785 37.3934 30.7858Z" fill="white"/>
</svg>
