<svg width="110" height="110" viewBox="0 0 110 110" fill="none" xmlns="http://www.w3.org/2000/svg">
<g clip-path="url(#clip0_180_78)">
<path d="M62.1895 37.1292L58.617 36.4601C58.2707 36.3964 57.9496 36.2356 57.6911 35.9964C57.4327 35.7572 57.2476 35.4494 57.1574 35.1089C57.0673 34.7685 57.0758 34.4095 57.1819 34.0737C57.2881 33.7379 57.4875 33.4392 57.757 33.2125L58.9092 32.2333L59.9553 31.3471C59.9915 31.3149 60.0297 31.2849 60.0695 31.2573C60.2774 31.1062 60.5146 31.0003 60.7659 30.9463C61.0171 30.8924 61.2769 30.8916 61.5285 30.944L61.5775 30.9554C61.6327 30.9676 61.6872 30.9828 61.7407 31.0011C61.9698 31.0778 62.1816 31.1986 62.3641 31.3569C62.366 31.3575 62.3677 31.3586 62.3691 31.36C62.3705 31.3614 62.3716 31.3632 62.3722 31.365C62.478 31.4578 62.5727 31.5624 62.6546 31.6768C62.7002 31.7412 62.7422 31.8082 62.7802 31.8775L64.156 34.4103C64.3249 34.7184 64.4029 35.0681 64.381 35.4188C64.3591 35.7695 64.2382 36.1068 64.0322 36.3915C63.8263 36.6761 63.5439 36.8966 63.2177 37.0272C62.8915 37.1578 62.535 37.1932 62.1895 37.1292V37.1292Z" fill="#F04C41"/>
<path d="M62.542 38.1329C62.3635 38.1327 62.1854 38.1163 62.0099 38.0839L58.4375 37.4148C57.911 37.3155 57.4235 37.069 57.0313 36.704C56.6392 36.3389 56.3585 35.8702 56.2219 35.3521C56.0852 34.8341 56.0982 34.2879 56.2593 33.7769C56.4203 33.2659 56.7229 32.811 57.1319 32.465L59.3221 30.6013C59.3727 30.5572 59.433 30.5115 59.4853 30.4691C59.8025 30.2378 60.1643 30.0749 60.5477 29.9907C60.9312 29.9064 61.3279 29.9026 61.7129 29.9795L61.7945 29.9974C61.8805 30.017 61.9655 30.041 62.0491 30.0693C62.2187 30.1255 62.3826 30.1976 62.5387 30.2847L62.6056 30.2749L63.0952 30.7106C63.2256 30.8343 63.3436 30.9704 63.4477 31.117C63.5165 31.2116 63.5786 31.3108 63.6337 31.414L65.0111 33.9501C65.2451 34.3812 65.3633 34.8656 65.3541 35.3561C65.3449 35.8465 65.2088 36.3261 64.9588 36.7482C64.7089 37.1703 64.3538 37.5203 63.9282 37.7641C63.5026 38.008 63.021 38.1373 62.5305 38.1394L62.542 38.1329ZM61.1515 31.8856C60.9693 31.8848 60.7915 31.942 60.644 32.0488L60.5934 32.088L58.3902 33.955C58.2637 34.0624 58.1702 34.2034 58.1205 34.3617C58.0709 34.52 58.0671 34.6891 58.1096 34.8495C58.1521 35.0099 58.2392 35.1549 58.3608 35.2678C58.4824 35.3807 58.6335 35.4569 58.7966 35.4874L62.369 36.1549C62.532 36.1854 62.7003 36.1691 62.8545 36.1079C63.0086 36.0466 63.1423 35.943 63.24 35.8089C63.3377 35.6749 63.3954 35.5159 63.4064 35.3504C63.4175 35.1849 63.3814 35.0197 63.3025 34.8738L62.0132 32.5025H61.9936L61.6591 32.0342C61.59 31.9867 61.5147 31.9488 61.4355 31.9215L61.3784 31.9052L61.3392 31.8954H61.3506H61.331C61.2716 31.8865 61.2115 31.8832 61.1515 31.8856Z" fill="#282828"/>
<path d="M88.3044 30.1949C88.2997 30.2704 88.2997 30.3462 88.3044 30.4217L88.5688 33.6759C88.6031 34.0219 88.6749 34.802 88.0417 35.2785C87.8099 35.4524 87.5268 35.5443 87.2371 35.5396C86.9237 35.5276 86.6155 35.455 86.3297 35.3258L83.3138 34.0708C83.2271 34.053 83.1377 34.053 83.0511 34.0708L80.231 35.2491L80.0547 35.3209C79.7283 35.4564 78.9727 35.7599 78.3314 35.2785C77.69 34.7971 77.77 34.0219 77.8042 33.6759L78.0686 30.412C78.0742 30.3381 78.0742 30.2639 78.0686 30.19L75.8932 27.569C75.6582 27.3047 75.1441 26.709 75.3758 25.9583C75.6076 25.2076 76.3877 25.0036 76.7173 24.922L80.0205 24.106L80.0368 24.0782L80.2277 23.7518L81.7667 21.1913C81.9299 20.9187 82.3526 20.2121 83.18 20.2039C84.009 20.2039 84.4366 20.9187 84.5982 21.1831L86.3428 24.0929L89.6459 24.9089C89.9723 24.9905 90.7524 25.1831 90.9874 25.9452C91.2224 26.7074 90.705 27.2916 90.4684 27.5576L88.3044 30.1949Z" fill="#FFFF83"/>
<path d="M71.7121 49.0769C71.712 49.6642 71.542 50.239 71.2225 50.7318C71.1099 50.8313 70.9956 50.9276 70.8814 51.0239C70.3964 51.4254 69.8891 51.7991 69.362 52.1434C69.096 52.318 68.8267 52.4845 68.546 52.6461L67.9406 52.8892L67.7219 52.9774L67.6321 53.0116C67.4999 53.0622 65.8973 53.1014 65.8973 53.1014C65.7905 53.049 65.6869 52.9902 65.5873 52.9251C65.5048 52.8664 65.4287 52.7991 65.3604 52.7244V52.7244C65.2788 52.6406 65.2081 52.5468 65.1499 52.4453V52.4453L65.1254 52.4045C65.0311 52.2256 64.9682 52.0319 64.9394 51.8317C64.904 51.5609 64.904 51.2866 64.9394 51.0157L64.9851 50.469L65.2543 47.2622C65.597 46.8093 66.0415 46.4434 66.5519 46.1942C67.0622 45.945 67.624 45.8194 68.1919 45.8276C70.1307 45.8211 71.7121 47.2785 71.7121 49.0769Z" fill="#FFFF83"/>
<path d="M20.9656 62.154L11.3614 61.6889C11.3614 61.6889 5.60052 56.4665 5.60052 55.928C5.60052 55.3894 8.2884 48.2903 8.2884 48.2903L16.1986 47.6734L23.035 51.6277L27.9146 49.4947C27.9146 49.4947 26.7983 44.1777 27.0284 43.7175C27.2585 43.2573 28.6408 38.8787 28.6408 38.8787L32.3275 34.7987C32.3275 34.7987 38.0116 35.1137 38.2418 35.2687C38.4719 35.4238 41.0814 38.4168 41.3898 38.5702C41.6983 38.7236 43.0789 42.2585 43.0022 42.7187C42.9255 43.179 41.0439 47.9411 41.0439 47.9411L36.4743 52.6265C36.4743 52.6265 38.9223 57.8488 38.9223 58.1556C38.9223 58.4624 40.3062 62.3612 40.3062 62.3612L28.1724 69.0785L20.9656 62.154Z" fill="#F04C41"/>
<path d="M68.6798 64.3474H38.5176L55.1833 55.0598C56.0206 54.59 56.6379 53.808 56.9006 52.8846C57.1632 51.9612 57.0499 50.9713 56.5852 50.1312L54.1013 45.6775C53.9068 45.3305 53.6565 45.0179 53.3604 44.7522H48.3241L42.2385 48.1434C42.7853 47.0648 43.2064 45.927 43.4935 44.7522H40.9606C40.4074 46.6127 39.3286 48.6167 37.7309 50.6551L36.254 51.4792L35.1883 49.5616C34.9178 49.0754 34.5618 48.6419 34.1373 48.2822C34.3609 47.0668 34.7268 45.882 35.2275 44.7522H32.5771C32.2735 45.5617 32.0275 46.3918 31.8411 47.2361C30.8163 47.0714 29.7658 47.2571 28.8595 47.7632L28.4368 47.9998C28.3811 46.9172 28.4018 45.8319 28.4988 44.7522H26.0329C25.9176 46.2738 25.9307 47.8024 26.0721 49.3217L24.5935 50.1459C18.3479 45.5029 12.2378 44.5547 8.13825 47.6294C6.6981 48.7062 5.65174 50.2265 5.16018 51.9562C4.66863 53.686 4.75912 55.5293 5.41774 57.2026C6.81308 60.6852 10.3023 62.8068 15.1068 63.2556L8.01096 67.2164C7.17356 67.6852 6.55605 68.4668 6.29361 69.3899C6.03118 70.313 6.1452 71.3025 6.61072 72.1417L9.09459 76.5987C9.56433 77.4364 10.3469 78.054 11.2709 78.3161C12.1949 78.5782 13.1851 78.4636 14.0248 77.9973L22.0215 73.5403V93.4766C22.0232 94.6301 22.4828 95.7357 23.2992 96.5506C24.1156 97.3655 25.2221 97.823 26.3756 97.8226H67.3041C68.4564 97.8213 69.5613 97.363 70.3763 96.5483C71.1913 95.7336 71.6499 94.629 71.6516 93.4766V67.3208C71.6512 66.5327 71.338 65.7768 70.7808 65.2193C70.2236 64.6619 69.468 64.3482 68.6798 64.3474V64.3474ZM35.3075 54.8085L38.9419 61.3119L33.4111 64.3833C33.2173 64.4358 33.0395 64.5357 32.8938 64.6738L27.8901 67.4677L24.2622 60.9561L35.3075 54.8085ZM22.8505 53.9174L30.0525 49.9027C30.3768 49.7219 30.7419 49.627 31.1133 49.6269C31.3197 49.6269 31.5251 49.6555 31.7236 49.7118C32.0021 49.7892 32.2624 49.9213 32.4894 50.1003C32.7163 50.2794 32.9054 50.5018 33.0455 50.7546L34.1145 52.6689L23.0709 58.8248L21.9987 56.9023C21.7896 56.5294 21.6965 56.1027 21.731 55.6767C21.7302 55.6647 21.7302 55.6527 21.731 55.6408C21.7429 55.5064 21.7681 55.3736 21.8061 55.2442C21.8829 54.9646 22.0148 54.7031 22.1942 54.4752C22.3736 54.2474 22.5968 54.0577 22.8505 53.9174V53.9174ZM7.69109 56.2985C7.22905 55.1245 7.16633 53.8311 7.51261 52.6179C7.85889 51.4047 8.59491 50.3393 9.60703 49.5861C12.6082 47.334 17.2463 48.0504 22.2288 51.4613L21.6608 51.7779C20.77 52.2711 20.068 53.0459 19.6649 53.981C18.0476 53.4719 16.5968 53.1928 14.5177 52.9643C14.1937 52.9288 13.8689 53.0235 13.6147 53.2275C13.3605 53.4315 13.1978 53.7281 13.1623 54.052C13.1268 54.376 13.2215 54.7008 13.4255 54.955C13.6294 55.2092 13.926 55.3719 14.25 55.4074C16.5348 55.6571 17.8828 55.9688 19.3092 56.4486C19.3846 57.0299 19.5702 57.5916 19.8559 58.1034L20.9281 60.0243L19.5915 60.7684C13.5222 61.4245 9.07664 59.7664 7.69109 56.2985Z" fill="#5ECBAD"/>
<path d="M52.453 65.6268H41.0488V95.3762H52.453V65.6268Z" fill="#F04C41"/>
<path d="M68.6798 64.3474H38.5176L55.1834 55.0598C56.0206 54.59 56.638 53.808 56.9006 52.8846C57.1633 51.9611 57.0499 50.9713 56.5852 50.1312L54.1014 45.6775C53.6317 44.8397 52.849 44.2222 51.9249 43.9604C51.0008 43.6985 50.0105 43.8137 49.1711 44.2805L48.3242 44.7522L42.2385 48.1434C42.7854 47.0648 43.2065 45.9269 43.4935 44.7522C43.6052 44.2885 43.6902 43.8188 43.7481 43.3454C44.0614 40.7522 43.4723 38.4103 42.0459 36.5743C40.9152 35.124 39.3286 34.0973 37.5424 33.6599C35.7562 33.2225 33.8747 33.4001 32.2018 34.1639C31.9252 34.2889 31.7051 34.5124 31.5844 34.7909C31.4637 35.0694 31.4511 35.3829 31.549 35.6702C31.5607 35.7081 31.5749 35.7452 31.5915 35.7812C31.6571 35.9279 31.7511 36.0602 31.8679 36.1705C31.9848 36.2809 32.1223 36.3671 32.2725 36.4242C32.4227 36.4814 32.5827 36.5083 32.7434 36.5036C32.904 36.4988 33.0622 36.4624 33.2087 36.3964C34.3815 35.859 35.7012 35.7326 36.9547 36.0376C38.2081 36.3426 39.3222 37.0612 40.1169 38.0774C41.4764 39.8252 41.7375 42.1492 40.9639 44.7522C40.4107 46.6126 39.3319 48.6167 37.7342 50.6551L36.2573 51.4792L35.1883 49.5616C34.9179 49.0754 34.5618 48.6419 34.1373 48.2822C34.3609 47.0668 34.7268 45.882 35.2275 44.7522C35.4299 44.2849 35.6627 43.8313 35.9244 43.3944C36.0867 43.1174 36.1337 42.7877 36.0552 42.4764C35.9768 42.1651 35.7791 41.8971 35.5049 41.7301C35.2307 41.5631 34.9019 41.5106 34.5893 41.5838C34.2767 41.657 34.0054 41.8501 33.8338 42.1214C33.3347 42.9577 32.9141 43.8384 32.5772 44.7522C32.2735 45.5617 32.0275 46.3918 31.8412 47.2361C30.8163 47.0713 29.7658 47.2571 28.8595 47.7632L28.4368 47.9998C28.3811 46.9172 28.4019 45.8319 28.4989 44.7522C28.6963 42.6306 29.2153 40.8207 30.0492 39.3813C30.2051 39.1118 30.2524 38.7929 30.1815 38.4897C30.1105 38.1865 29.9267 37.9218 29.6674 37.7494V37.7494L29.6053 37.7102C29.4663 37.6296 29.3127 37.5772 29.1533 37.556C28.994 37.5347 28.832 37.5451 28.6767 37.5865C28.5213 37.6278 28.3757 37.6994 28.248 37.7971C28.1203 37.8948 28.0131 38.0166 27.9326 38.1557C26.8767 39.9786 26.2435 42.1883 26.0329 44.7538C25.9176 46.2754 25.9307 47.804 26.0721 49.3234L24.5935 50.1475C18.3479 45.5045 12.2378 44.5563 8.13827 47.631C6.69848 48.7077 5.65234 50.2277 5.1608 51.9571C4.66926 53.6865 4.75954 55.5295 5.41776 57.2026C6.81311 60.6852 10.3023 62.8068 15.1068 63.2556L8.01098 67.2164C7.17359 67.6852 6.55607 68.4667 6.29364 69.3899C6.0312 70.313 6.14522 71.3025 6.61074 72.1417L9.09461 76.5987C9.56435 77.4364 10.3469 78.054 11.2709 78.3161C12.1949 78.5782 13.1851 78.4636 14.0248 77.9973L22.0215 73.5403V93.4766C22.0233 94.6301 22.4828 95.7357 23.2992 96.5506C24.1156 97.3655 25.2221 97.823 26.3756 97.8226H67.3041C68.4565 97.8213 69.5613 97.363 70.3763 96.5483C71.1913 95.7336 71.6499 94.629 71.6517 93.4766V67.3208C71.6512 66.5326 71.3381 65.7768 70.7809 65.2193C70.2237 64.6618 69.468 64.3482 68.6798 64.3474V64.3474ZM50.3658 46.4184C50.5397 46.3209 50.7359 46.2698 50.9353 46.2699C51.145 46.2696 51.351 46.3252 51.5321 46.4311C51.7131 46.5369 51.8626 46.6892 51.9651 46.8721L54.4457 51.3274C54.5967 51.6005 54.6334 51.9222 54.5478 52.2223C54.4621 52.5223 54.2611 52.7762 53.9888 52.9284L41.0733 60.1271L37.447 53.6122L50.3658 46.4184ZM35.3091 54.8084L38.9419 61.3119L33.4111 64.3833C33.2173 64.4358 33.0395 64.5356 32.8938 64.6738L27.8901 67.4677L24.2622 60.9561L35.3091 54.8084ZM22.8522 53.9174L30.0541 49.9027C30.3784 49.7219 30.7436 49.6269 31.1149 49.6269C31.3213 49.6269 31.5267 49.6555 31.7253 49.7118C32.0038 49.7892 32.2641 49.9213 32.491 50.1003C32.718 50.2794 32.907 50.5018 33.0472 50.7546L34.1161 52.6689L23.0725 58.8248L22.0003 56.9023C21.7913 56.5294 21.6981 56.1027 21.7327 55.6767C21.7319 55.6647 21.7319 55.6527 21.7327 55.6408C21.7441 55.5065 21.7687 55.3736 21.8061 55.2442C21.8829 54.9645 22.0149 54.7031 22.1942 54.4752C22.3736 54.2474 22.5968 54.0577 22.8506 53.9174H22.8522ZM7.69111 56.2984C7.22907 55.1245 7.16635 53.8311 7.51263 52.6179C7.85891 51.4047 8.59494 50.3393 9.60705 49.5861C12.6083 47.334 17.2464 48.0504 22.2288 51.4613L21.6609 51.7779C20.77 52.271 20.068 53.0459 19.6649 53.981C18.0477 53.4719 16.5968 53.1928 14.5177 52.9643C14.1937 52.9288 13.8689 53.0235 13.6147 53.2275C13.3606 53.4314 13.1978 53.7281 13.1623 54.052C13.1268 54.376 13.2215 54.7008 13.4255 54.955C13.6295 55.2092 13.9261 55.3719 14.25 55.4074C16.5348 55.6571 17.8828 55.9688 19.3092 56.4486C19.3846 57.0299 19.5702 57.5915 19.8559 58.1034L20.9281 60.0243L19.5915 60.7684C13.5222 61.4245 9.07666 59.7664 7.69111 56.2984ZM22.6711 70.3759L22.6531 70.3873L12.8302 75.8594C12.5569 76.0065 12.237 76.0415 11.9383 75.9572C11.6395 75.8728 11.3853 75.6757 11.2292 75.4073L8.75027 70.952C8.59911 70.6803 8.56181 70.3597 8.64654 70.0606C8.73128 69.7614 8.93113 69.508 9.20232 69.3559L20.5234 63.0467C20.5593 63.0287 20.5935 63.0091 20.6278 62.9879L21.3916 62.562L22.1243 62.154L23.4577 64.5465L25.7522 68.6607L22.6711 70.3759ZM39.7693 95.3746H26.3756C25.8723 95.3742 25.3896 95.1741 25.0335 94.8183C24.6774 94.4625 24.4769 93.98 24.476 93.4766V72.176L34.1308 66.7904H39.7742L39.7693 95.3746ZM51.4576 95.3746H42.2173V66.7953H51.4576V95.3746ZM69.2037 93.4766C69.2028 93.98 69.0024 94.4625 68.6463 94.8183C68.2902 95.1741 67.8075 95.3742 67.3041 95.3746H53.9055V66.7953H68.6798C68.818 66.797 68.95 66.8525 69.0478 66.9501C69.1457 67.0476 69.2016 67.1795 69.2037 67.3176V93.4766Z" fill="#282828"/>
<path d="M90.4782 27.5756C90.7148 27.3096 91.2289 26.7139 90.9971 25.9632C90.7654 25.2125 89.9853 25.0085 89.6557 24.9269L86.3525 24.1109L84.608 21.2011C84.4448 20.9318 84.0188 20.2219 83.1898 20.2219C82.3624 20.2219 81.9364 20.9367 81.7765 21.2092L80.231 23.7617L80.04 24.0881L80.0237 24.1158L76.7206 24.9318C76.3942 25.0134 75.6141 25.206 75.3791 25.9681C75.1441 26.7302 75.6615 27.3145 75.8965 27.5789L78.0719 30.1998C78.0775 30.2737 78.0775 30.3479 78.0719 30.4218L77.8075 33.6857C77.7732 34.0317 77.7014 34.8118 78.3346 35.2883C78.9678 35.7649 79.7267 35.4662 80.058 35.3308L80.2343 35.259L83.0543 34.0839C83.141 34.0661 83.2304 34.0661 83.3171 34.0839L86.333 35.334C86.6188 35.4631 86.9269 35.5357 87.2403 35.5478C87.5301 35.5525 87.8131 35.4606 88.0449 35.2867C88.6781 34.8102 88.6063 34.0301 88.572 33.6841L88.3077 30.4299C88.303 30.3544 88.303 30.2786 88.3077 30.2031L90.4782 27.5756ZM86.5745 28.7718C86.0555 29.3855 86.0343 30.066 86.0735 30.598L86.2579 32.8681L84.1804 32.0015C83.543 31.755 82.8366 31.755 82.1992 32.0015L80.2408 32.8175L80.1282 32.8648L80.2408 31.4711L80.3126 30.5899C80.3469 30.2526 80.3226 29.9119 80.2408 29.5829C80.1628 29.2852 80.0183 29.0089 79.8181 28.7751L78.2237 26.8641L80.2343 26.3745L80.6814 26.2635C80.9471 26.2107 81.1971 26.0976 81.4121 25.9329C81.6271 25.7682 81.8015 25.5564 81.9217 25.3137L83.1914 23.1921L84.4121 25.2304L84.4578 25.3055C84.5782 25.5484 84.7528 25.7604 84.9682 25.9251C85.1835 26.0898 85.4338 26.2027 85.6998 26.2553L88.1575 26.8641L86.5745 28.7718Z" fill="#282828"/>
<path d="M80.5998 71.9116C82.1645 71.9116 83.433 70.6431 83.433 69.0785C83.433 67.5138 82.1645 66.2453 80.5998 66.2453C79.0352 66.2453 77.7667 67.5138 77.7667 69.0785C77.7667 70.6431 79.0352 71.9116 80.5998 71.9116Z" fill="#FEFFD4"/>
<path d="M8.60177 89.7932C10.1665 89.7932 11.4349 88.5248 11.4349 86.9601C11.4349 85.3954 10.1665 84.127 8.60177 84.127C7.03708 84.127 5.76865 85.3954 5.76865 86.9601C5.76865 88.5248 7.03708 89.7932 8.60177 89.7932Z" fill="#FEFFD4"/>
<path d="M50.8211 32.3801C52.5246 32.3801 53.9055 30.9992 53.9055 29.2957C53.9055 27.5922 52.5246 26.2112 50.8211 26.2112C49.1176 26.2112 47.7366 27.5922 47.7366 29.2957C47.7366 30.9992 49.1176 32.3801 50.8211 32.3801Z" fill="#FEFFD4"/>
<path d="M71.7121 49.9876C71.7121 50.7403 71.4889 51.4761 71.0707 52.102C70.6525 52.7278 70.0581 53.2156 69.3627 53.5037C68.6673 53.7917 67.9021 53.8671 67.1638 53.7202C66.4256 53.5734 65.7475 53.2109 65.2152 52.6787C64.683 52.1464 64.3205 51.4683 64.1737 50.73C64.0268 49.9918 64.1022 49.2266 64.3902 48.5312C64.6783 47.8358 65.1661 47.2414 65.7919 46.8232C66.4178 46.405 67.1536 46.1818 67.9063 46.1818C68.4072 46.1777 68.904 46.2733 69.3676 46.4631C69.8312 46.6529 70.2524 46.9331 70.6066 47.2873C70.9608 47.6415 71.241 48.0627 71.4308 48.5263C71.6206 48.9899 71.7162 49.4866 71.7121 49.9876V49.9876Z" fill="#FFFF83"/>
<path d="M67.9063 54.7725C66.9986 54.7699 66.1101 54.5104 65.3437 54.024C64.5772 53.5377 63.964 52.8444 63.575 52.0243C63.1336 51.0864 63.0086 50.0306 63.2187 49.0156C63.4288 48.0006 63.9627 47.0812 64.7402 46.3957C65.5177 45.7102 66.4967 45.2955 67.53 45.2141C68.5633 45.1327 69.5952 45.389 70.4704 45.9443C71.3456 46.4996 72.0169 47.3241 72.3834 48.2937C72.7498 49.2632 72.7917 50.3256 72.5025 51.321C72.2134 52.3164 71.609 53.191 70.7802 53.8135C69.9513 54.4359 68.9428 54.7724 67.9063 54.7725ZM67.9063 47.161C67.535 47.1608 67.1674 47.2337 66.8243 47.3757C66.4813 47.5177 66.1696 47.7259 65.9071 47.9884C65.6446 48.2509 65.4364 48.5626 65.2944 48.9056C65.1524 49.2487 65.0795 49.6163 65.0797 49.9876C65.0782 50.4029 65.1696 50.8133 65.3473 51.1887C65.576 51.6748 65.9377 52.0861 66.3906 52.375C66.8436 52.6638 67.3691 52.8184 67.9063 52.8207C68.2283 52.8211 68.548 52.7659 68.8512 52.6575C69.4801 52.4352 70.0102 51.9976 70.3476 51.4222C70.685 50.8468 70.808 50.1705 70.6949 49.5131C70.5818 48.8557 70.2398 48.2595 69.7295 47.83C69.2192 47.4004 68.5733 47.1652 67.9063 47.1659V47.161Z" fill="#282828"/>
<path d="M86.7279 53.9598C87.8437 53.9598 88.7483 53.0553 88.7483 51.9394C88.7483 50.8236 87.8437 49.919 86.7279 49.919C85.6121 49.919 84.7075 50.8236 84.7075 51.9394C84.7075 53.0553 85.6121 53.9598 86.7279 53.9598Z" fill="#5ECBAD"/>
<path d="M58.5 45C59.3284 45 60 44.3284 60 43.5C60 42.6716 59.3284 42 58.5 42C57.6716 42 57 42.6716 57 43.5C57 44.3284 57.6716 45 58.5 45Z" fill="#F04C41"/>
<path d="M15.5099 36.6821C16.9745 36.6821 18.1619 35.4947 18.1619 34.0301C18.1619 32.5654 16.9745 31.3781 15.5099 31.3781C14.0453 31.3781 12.8579 32.5654 12.8579 34.0301C12.8579 35.4947 14.0453 36.6821 15.5099 36.6821Z" fill="#5ECBAD"/>
<path d="M33.7473 19.3341C35.2119 19.3341 36.3993 18.1468 36.3993 16.6821C36.3993 15.2175 35.2119 14.0302 33.7473 14.0302C32.2827 14.0302 31.0953 15.2175 31.0953 16.6821C31.0953 18.1468 32.2827 19.3341 33.7473 19.3341Z" fill="#F04C41"/>
<path d="M72.1364 39.8938L75.2127 41.8326C75.5098 42.0195 75.7478 42.287 75.8991 42.6038C76.0503 42.9207 76.1085 43.2739 76.067 43.6226C76.0255 43.9712 75.8859 44.3009 75.6645 44.5734C75.443 44.8458 75.1489 45.0499 74.8161 45.1618L73.3865 45.6514L72.0809 46.0904C72.0352 46.1067 71.9879 46.1198 71.9422 46.1312C71.6937 46.1943 71.4349 46.2052 71.1821 46.163C70.9292 46.1209 70.6879 46.0267 70.4734 45.8864L70.431 45.857C70.382 45.8244 70.3363 45.7885 70.2922 45.7526C70.1072 45.5974 69.9547 45.4072 69.8434 45.1928C69.8428 45.189 69.8428 45.1852 69.8434 45.1814V45.1814C69.7798 45.0563 69.7305 44.9243 69.6966 44.7881C69.6767 44.7114 69.662 44.6334 69.6525 44.5547L69.3082 41.6938C69.2649 41.3455 69.3213 40.992 69.4709 40.6745C69.6205 40.3569 69.8571 40.0883 70.1532 39.8998C70.4494 39.7113 70.7929 39.6107 71.1439 39.6096C71.495 39.6086 71.8391 39.7071 72.1364 39.8938V39.8938Z" fill="#F04C41"/>
<path d="M71.4934 47.161C70.9441 47.1612 70.4066 47.0019 69.9463 46.7024C69.9218 46.6877 69.8989 46.6714 69.8761 46.6551C69.8034 46.6047 69.7336 46.5502 69.6672 46.4919C69.5322 46.3804 69.4082 46.2564 69.2967 46.1214H69.2249L68.9279 45.5404C68.8486 45.3725 68.7862 45.197 68.7419 45.0166C68.7136 44.9032 68.6923 44.7882 68.6782 44.6722L68.3322 41.8081C68.2685 41.2762 68.3567 40.7371 68.5866 40.2532C68.8165 39.7693 69.1788 39.3605 69.6315 39.0739C70.0841 38.7874 70.6087 38.635 71.1444 38.6342C71.6801 38.6334 72.2051 38.7844 72.6586 39.0696L75.7333 41.0068C76.187 41.2925 76.5504 41.7009 76.7814 42.1847C77.0125 42.6686 77.1016 43.208 77.0386 43.7404C76.9756 44.2728 76.7629 44.7765 76.4253 45.193C76.0877 45.6095 75.6389 45.9218 75.1311 46.0937L72.3975 47.0125C72.3322 47.0337 72.2604 47.0549 72.1919 47.0729C71.9636 47.131 71.7289 47.1606 71.4934 47.161V47.161ZM71.0038 45.0492L71.0201 45.0606C71.1213 45.1272 71.2352 45.1718 71.3547 45.1918C71.4741 45.2117 71.5964 45.2065 71.7137 45.1765L71.7773 45.1586L74.5109 44.2348C74.6683 44.1818 74.8073 44.0853 74.912 43.9564C75.0167 43.8275 75.0827 43.6716 75.1023 43.5067C75.122 43.3418 75.0945 43.1748 75.023 43.0249C74.9516 42.875 74.8391 42.7485 74.6986 42.66L71.6141 40.7196C71.4738 40.6316 71.3115 40.5852 71.1459 40.5855C70.9803 40.5859 70.8182 40.6331 70.6783 40.7216C70.5384 40.8102 70.4263 40.9365 70.3552 41.086C70.284 41.2355 70.2565 41.4021 70.2759 41.5666L70.6023 44.2577L70.7541 44.7963C70.8013 44.8705 70.8596 44.9371 70.9271 44.9937C70.9418 45.0051 70.9565 45.0182 70.9744 45.0296L71.007 45.0525L71.0038 45.0492Z" fill="#282828"/>
<path d="M63.8394 59.8512L60.8007 57.8553C60.507 57.6631 60.274 57.3915 60.1285 57.0721C59.983 56.7527 59.9311 56.3986 59.9787 56.0509C60.0264 55.7032 60.1717 55.3761 60.3978 55.1077C60.6239 54.8392 60.9214 54.6404 61.256 54.5343L62.6938 54.0773L63.9993 53.6611C64.045 53.6465 64.0924 53.635 64.1381 53.6236C64.3883 53.564 64.6483 53.5574 64.9013 53.6043C65.1543 53.6513 65.3946 53.7507 65.6068 53.8961C65.6215 53.9043 65.6346 53.9157 65.6493 53.9255C65.6965 53.9587 65.7417 53.9947 65.7847 54.0332C65.9671 54.1917 66.1163 54.3847 66.2237 54.6012C66.2245 54.603 66.2249 54.6049 66.2249 54.6069C66.2249 54.6088 66.2245 54.6108 66.2237 54.6126V54.6126C66.286 54.7382 66.3331 54.8708 66.3641 55.0075C66.3821 55.0844 66.3952 55.1624 66.4032 55.2409L66.6954 58.1083C66.7305 58.4562 66.6665 58.807 66.5109 59.1202C66.3553 59.4334 66.1143 59.6962 65.8158 59.8784C65.5173 60.0606 65.1734 60.1547 64.8237 60.1499C64.474 60.1451 64.1328 60.0416 63.8394 59.8512V59.8512Z" fill="#F04C41"/>
<path d="M64.6162 52.5971C65.1657 52.6082 65.7002 52.7782 66.1552 53.0867L66.2237 53.1356C66.2906 53.183 66.3575 53.2352 66.4293 53.2988C66.5612 53.4145 66.6825 53.5418 66.7916 53.6791H66.8651L67.1507 54.265C67.2276 54.4341 67.2867 54.6107 67.3269 54.7921C67.3536 54.906 67.3727 55.0216 67.384 55.1381L67.6778 58.0071C67.7323 58.5402 67.6346 59.0779 67.3961 59.5577C67.1575 60.0376 66.7877 60.44 66.3298 60.7182C65.8718 60.9965 65.3443 61.1393 64.8085 61.13C64.2727 61.1206 63.7505 60.9596 63.3025 60.6656L60.2637 58.6713C59.8151 58.3777 59.4589 57.9628 59.2366 57.4749C59.0143 56.9869 58.9349 56.4459 59.0077 55.9147C59.0805 55.3835 59.3025 54.8838 59.6479 54.4736C59.9932 54.0634 60.4478 53.7597 60.9589 53.5975L63.7056 52.7244C63.7708 52.7032 63.8426 52.6852 63.9128 52.6673C64.1436 52.6156 64.3798 52.5921 64.6162 52.5971V52.5971ZM65.0748 54.7187L65.0585 54.7072C64.9587 54.6383 64.8455 54.5911 64.7263 54.5689C64.607 54.5467 64.4844 54.5499 64.3665 54.5783L64.3029 54.5946L61.553 55.4677C61.3946 55.518 61.2538 55.612 61.1468 55.7391C61.0398 55.8661 60.971 56.0209 60.9485 56.1855C60.9259 56.35 60.9505 56.5176 61.0194 56.6687C61.0882 56.8199 61.1986 56.9484 61.3376 57.0393L64.3763 59.032C64.5144 59.1225 64.6752 59.1722 64.8403 59.1753C65.0054 59.1784 65.168 59.1348 65.3094 59.0495C65.4508 58.9643 65.5652 58.8408 65.6395 58.6933C65.7138 58.5458 65.7449 58.3804 65.7292 58.216L65.4534 55.52L65.3114 54.9782C65.2675 54.9038 65.2125 54.8367 65.1482 54.7791L65.1009 54.7399L65.0683 54.717L65.0748 54.7187Z" fill="#282828"/>
<path d="M65.85 24.4373C66.1945 25.1441 66.3121 25.9401 66.1868 26.7163C66.0615 27.4925 65.6993 28.211 65.1499 28.7735C64.5844 29.3506 63.8499 29.7328 63.0527 29.8647C62.2556 29.9966 61.4371 29.8714 60.7159 29.5071C59.9947 29.1429 59.4081 28.5586 59.041 27.8388C58.674 27.1189 58.5456 26.301 58.6744 25.5033C58.8032 24.7057 59.1825 23.9697 59.7574 23.402C60.3323 22.8342 61.073 22.4642 61.8722 22.3455C62.6714 22.2268 63.4877 22.3655 64.2028 22.7415C64.918 23.1176 65.4949 23.7115 65.85 24.4373V24.4373Z" fill="#5ECBAD"/>
<path d="M62.4424 30.8902C61.5885 30.891 60.7499 30.6632 60.0138 30.2305C59.2776 29.7977 58.6707 29.1758 58.2561 28.4293C57.8415 27.6828 57.6343 26.8389 57.656 25.9853C57.6777 25.1316 57.9276 24.2993 58.3796 23.5749C58.8316 22.8504 59.4693 22.2601 60.2265 21.8653C60.9836 21.4706 61.8327 21.2857 62.6855 21.3299C63.5382 21.3741 64.3636 21.6458 65.0759 22.1168C65.7882 22.5877 66.3615 23.2408 66.7361 24.0081V24.0081C67.0939 24.7368 67.2601 25.5447 67.219 26.3554C67.1778 27.1662 66.9307 27.9531 66.501 28.6419C66.0713 29.3306 65.4731 29.8985 64.763 30.2919C64.0529 30.6852 63.2542 30.8912 62.4424 30.8902V30.8902ZM62.4326 23.2835C61.9532 23.2835 61.4817 23.4057 61.0625 23.6384C60.6433 23.8711 60.2903 24.2067 60.0367 24.6136C59.7832 25.0205 59.6374 25.4852 59.6131 25.964C59.5889 26.4429 59.687 26.92 59.8981 27.3504C60.0787 27.7242 60.3408 28.0526 60.6652 28.3116C61.0841 28.6445 61.5886 28.8522 62.1205 28.9108C62.6523 28.9694 63.1899 28.8765 63.6713 28.6429C64.3456 28.3144 64.8619 27.7315 65.1068 27.0225C65.3516 26.3135 65.3048 25.5362 64.9769 24.8616V24.8616C64.7423 24.386 64.3788 23.9858 63.9278 23.7068C63.4768 23.4278 62.9564 23.2811 62.4261 23.2835H62.4326Z" fill="#282828"/>
<path d="M62.3331 15.086L65.9234 15.6295C66.2711 15.6809 66.5971 15.8299 66.8635 16.0592C67.1299 16.2885 67.3257 16.5887 67.4282 16.9249C67.5308 17.2611 67.5358 17.6194 67.4428 17.9584C67.3497 18.2973 67.1624 18.6029 66.9026 18.8396L65.7863 19.8547L64.7712 20.7768C64.7353 20.8094 64.6962 20.8404 64.6603 20.8698C64.4578 21.0283 64.2244 21.1426 63.9751 21.2056C63.7258 21.2686 63.4661 21.2787 63.2127 21.2353L63.1621 21.2255C63.107 21.215 63.0525 21.2014 62.9989 21.1847C62.7676 21.1181 62.5515 21.0073 62.3624 20.8584C62.3624 20.8584 62.3624 20.8584 62.3624 20.8502C62.2529 20.7616 62.1543 20.6602 62.0687 20.5483C62.0202 20.4861 61.976 20.4207 61.9365 20.3524L60.4677 17.8702C60.2884 17.5687 60.1983 17.2225 60.2077 16.8719C60.2171 16.5212 60.3258 16.1804 60.521 15.889C60.7163 15.5975 60.9902 15.3674 61.3109 15.2253C61.6316 15.0832 61.986 15.0349 62.3331 15.086V15.086Z" fill="#F04C41"/>
<path d="M63.5162 22.239C63.361 22.2394 63.2059 22.2269 63.0528 22.2015L62.9712 22.1868C62.8896 22.1705 62.808 22.1509 62.715 22.1232C62.5459 22.0755 62.382 22.0116 62.2254 21.9322L62.1552 21.9583L61.6656 21.565L61.6395 21.5324C61.5032 21.4128 61.3791 21.2799 61.269 21.1358C61.1977 21.0432 61.1323 20.9461 61.0732 20.8453L59.6044 18.3598C59.3319 17.898 59.196 17.3684 59.2124 16.8325C59.2288 16.2966 59.3969 15.7763 59.6971 15.332C59.9973 14.8878 60.4173 14.5378 60.9085 14.3226C61.3996 14.1075 61.9417 14.0361 62.4718 14.1167L66.0621 14.6601C66.5908 14.7414 67.0856 14.9706 67.4896 15.3211C67.8936 15.6716 68.1903 16.1292 68.3454 16.641C68.5004 17.1529 68.5077 17.6982 68.3662 18.2139C68.2246 18.7297 67.9402 19.195 67.5456 19.5561L65.4142 21.4932C65.3653 21.5389 65.3065 21.5879 65.251 21.6319C64.7563 22.0213 64.1459 22.2349 63.5162 22.239V22.239ZM63.3531 20.266H63.3759C63.4947 20.2878 63.6168 20.2846 63.7342 20.2565C63.8517 20.2284 63.962 20.176 64.0581 20.1028C64.0753 20.0902 64.0916 20.0766 64.107 20.062L66.2433 18.1199C66.3661 18.0082 66.4547 17.8639 66.4989 17.7039C66.543 17.5438 66.5409 17.3745 66.4927 17.2156C66.4445 17.0567 66.3523 16.9148 66.2267 16.8062C66.1011 16.6976 65.9473 16.6269 65.7831 16.6022L62.1927 16.0587C62.0297 16.0348 61.8633 16.0572 61.7125 16.1236C61.5618 16.1899 61.4327 16.2973 61.3402 16.4336C61.2477 16.5699 61.1955 16.7295 61.1895 16.8941C61.1836 17.0587 61.2241 17.2217 61.3066 17.3643L62.6693 19.6768H62.6807L63.0446 20.1419C63.1158 20.1878 63.1933 20.223 63.2747 20.2464L63.3335 20.2627H63.3694L63.3531 20.266Z" fill="#282828"/>
</g>
<defs>
<clipPath id="clip0_180_78">
<rect width="110" height="110" fill="white"/>
</clipPath>
</defs>
</svg>
