<svg width="458" height="363" viewBox="0 0 458 363" fill="none" xmlns="http://www.w3.org/2000/svg">
<path d="M-36.9302 30C-22.696 63.2106 -41.7664 92.8657 38.1965 135.933C105.858 172.374 163.3 135.047 253.723 187.238C344.145 239.428 289.442 296.461 451.824 334.091C614.206 371.72 534.57 378 534.57 378L-22.9303 383.5L-36.93 111.5L-36.9302 30Z" fill="#FFF388"/>
<path d="M-41.6031 -34.6394C-26.7681 -0.0268035 -42.8493 74.4061 40.4893 119.291C111.007 157.271 170.874 118.368 265.114 172.762C359.354 227.156 302.342 286.596 471.578 325.814C640.815 365.032 620.475 410.728 620.475 410.728L-75.3652 315.449L-85.7832 91.1891L-41.6031 -34.6394Z" stroke="#FFF388" stroke-width="2"/>
</svg>
