<svg width="20" height="20" viewBox="0 0 20 20" fill="none" xmlns="http://www.w3.org/2000/svg">
<path d="M9.50716 11.9107L12.1292 9.2887C12.2919 9.12599 12.5557 9.12599 12.7185 9.2887C12.8812 9.45142 12.8812 9.71524 12.7185 9.87796L9.38512 13.2113C9.22241 13.374 8.95859 13.374 8.79587 13.2113L5.46253 9.87796C5.29982 9.71524 5.29982 9.45142 5.46253 9.2887C5.62525 9.12599 5.88907 9.12599 6.05179 9.2887L8.67383 11.9107V2.91667C8.67383 2.68655 8.86038 2.5 9.0905 2.5C9.32061 2.5 9.50716 2.68655 9.50716 2.91667V11.9107ZM15.3405 12.9167C15.3405 12.6865 15.527 12.5 15.7572 12.5C15.9873 12.5 16.1738 12.6865 16.1738 12.9167V15.4167C16.1738 16.5673 15.2411 17.5 14.0905 17.5H4.0905C2.9399 17.5 2.00716 16.5673 2.00716 15.4167V12.9167C2.00716 12.6865 2.19371 12.5 2.42383 12.5C2.65395 12.5 2.8405 12.6865 2.8405 12.9167V15.4167C2.8405 16.107 3.40014 16.6667 4.0905 16.6667H14.0905C14.7809 16.6667 15.3405 16.107 15.3405 15.4167V12.9167Z" fill="white"/>
<path fill-rule="evenodd" clip-rule="evenodd" d="M9.80599 11.1866L11.9159 9.07665C12.1958 8.79677 12.6495 8.79677 12.9294 9.07665C13.2093 9.35652 13.2093 9.81029 12.9294 10.0902L9.59608 13.4235C9.31621 13.7034 8.86244 13.7034 8.58256 13.4235L5.24923 10.0902C4.96936 9.81029 4.96936 9.35652 5.24923 9.07665C5.52911 8.79677 5.98288 8.79677 6.26275 9.07665L8.37266 11.1866V2.91674C8.37266 2.52094 8.69352 2.20007 9.08932 2.20007C9.48513 2.20007 9.80599 2.52094 9.80599 2.91674V11.1866ZM12.128 9.28878C12.2907 9.12606 12.5546 9.12606 12.7173 9.28878C12.88 9.4515 12.88 9.71532 12.7173 9.87803L9.38395 13.2114C9.22123 13.3741 8.95741 13.3741 8.7947 13.2114L5.46136 9.87803C5.29865 9.71532 5.29865 9.4515 5.46136 9.28878C5.62408 9.12606 5.8879 9.12606 6.05062 9.28878L8.67266 11.9108V2.91674C8.67266 2.68662 8.85921 2.50007 9.08932 2.50007C9.31944 2.50007 9.50599 2.68662 9.50599 2.91674V11.9108L12.128 9.28878ZM15.0393 12.9167C15.0393 12.5209 15.3602 12.2001 15.756 12.2001C16.1518 12.2001 16.4727 12.5209 16.4727 12.9167V15.4167C16.4727 16.733 15.4056 17.8001 14.0893 17.8001H4.08932C2.77305 17.8001 1.70599 16.733 1.70599 15.4167V12.9167C1.70599 12.5209 2.02685 12.2001 2.42266 12.2001C2.81846 12.2001 3.13933 12.5209 3.13933 12.9167V15.4167C3.13933 15.9414 3.56465 16.3667 4.08932 16.3667H14.0893C14.614 16.3667 15.0393 15.9414 15.0393 15.4167V12.9167ZM15.756 12.5001C15.5259 12.5001 15.3393 12.6866 15.3393 12.9167V15.4167C15.3393 16.1071 14.7797 16.6667 14.0893 16.6667H4.08932C3.39897 16.6667 2.83932 16.1071 2.83932 15.4167V12.9167C2.83932 12.6866 2.65278 12.5001 2.42266 12.5001C2.19254 12.5001 2.00599 12.6866 2.00599 12.9167V15.4167C2.00599 16.5673 2.93873 17.5001 4.08932 17.5001H14.0893C15.2399 17.5001 16.1727 16.5673 16.1727 15.4167V12.9167C16.1727 12.6866 15.9861 12.5001 15.756 12.5001Z" fill="white"/>
</svg>
