<svg width="16" height="12" viewBox="0 0 16 12" fill="none" xmlns="http://www.w3.org/2000/svg">
<path d="M14.75 0.5H5.68964C5.51705 0.5 5.37714 0.639906 5.37714 0.8125C5.37714 0.985094 5.51705 1.125 5.68964 1.125H14.75C14.7662 1.125 14.7821 1.12622 14.798 1.12744L13.9248 2.00066C13.9248 2.00066 13.7704 2.16839 13.75 2.18878C13.7296 2.20917 13.625 2.31378 13.625 2.31378C13.625 2.31378 13.548 2.38917 13.5 2.43878C13.4195 2.52201 13.2998 2.62566 13.2998 2.62566L8.94386 6.98156C8.42342 7.502 7.57661 7.50203 7.05617 6.98156L1.20205 1.12744C1.21792 1.12622 1.23383 1.125 1.25002 1.125H2.90627C3.07886 1.125 3.21876 0.985094 3.21876 0.8125C3.21876 0.639906 3.07886 0.5 2.90627 0.5H1.25002C0.560765 0.5 1.52588e-05 1.06075 1.52588e-05 1.75V10.0638C1.52588e-05 10.7531 0.560765 11.3138 1.25002 11.3138H14.75C15.4393 11.3138 16 10.7531 16 10.0638V1.75C16 1.06075 15.4393 0.5 14.75 0.5ZM0.625015 10.0638V1.75C0.625015 1.65759 0.645703 1.57013 0.681859 1.49113L5.0313 5.84056L0.646859 10.225C0.633078 10.1735 0.625015 10.1196 0.625015 10.0638ZM14.75 10.6888H1.25002C1.1942 10.6888 1.14036 10.6807 1.08883 10.667L5.47326 6.28253L6.61426 7.42353C6.9963 7.80556 7.49814 7.99659 8.00001 7.99659C8.50189 7.99659 9.00373 7.80556 9.3858 7.42353L10.5268 6.28253L14.9112 10.667C14.8597 10.6807 14.8058 10.6888 14.75 10.6888ZM15.375 10.0638C15.375 10.1196 15.367 10.1735 15.3532 10.225L10.9687 5.84059L15.3182 1.49113C15.3543 1.57013 15.375 1.65759 15.375 1.75V10.0638Z" fill="white"/>
</svg>
