<svg width="26" height="23" viewBox="0 0 26 23" fill="none" xmlns="http://www.w3.org/2000/svg">
<path d="M1.89698 2.62654C3.17936 1.22742 4.95838 0.456909 6.90625 0.456909C9.6458 0.456909 11.3802 2.03015 12.3528 3.34998C12.6051 3.69246 12.8198 4.03586 13 4.35901C13.1802 4.03586 13.3948 3.69246 13.6472 3.34998C14.6198 2.03015 16.3542 0.456909 19.0938 0.456909C21.0416 0.456909 22.8206 1.22747 24.1031 2.62659C25.3263 3.96126 26 5.74876 26 7.65979C26 9.74002 25.1554 11.6748 23.3419 13.7487C21.7211 15.6022 19.3893 17.5127 16.6893 19.7251C15.6831 20.5495 14.6427 21.402 13.535 22.3339L13.5017 22.3619C13.3581 22.4828 13.1791 22.5432 13 22.5432C12.8209 22.5432 12.6419 22.4828 12.4983 22.3619L12.465 22.3339C11.3573 21.402 10.3169 20.5495 9.31059 19.725C6.61065 17.5128 4.27893 15.6022 2.65814 13.7487C0.844645 11.6748 0 9.74002 0 7.65979C0 5.74876 0.673714 3.96126 1.89698 2.62654ZM10.2988 18.6101C11.1661 19.3208 12.0588 20.0522 13 20.8389C13.9412 20.0523 14.8339 19.3208 15.7014 18.61C20.9856 14.2803 24.4766 11.4199 24.4766 7.65979C24.4766 6.10559 23.938 4.66204 22.9601 3.59509C21.971 2.51604 20.5979 1.92175 19.0938 1.92175C17.0052 1.92175 15.655 3.15896 14.8903 4.19685C14.2043 5.12771 13.8463 6.06609 13.7242 6.4263C13.6221 6.72781 13.3298 6.93186 13 6.93186C12.6702 6.93186 12.3779 6.72781 12.2758 6.4263C12.1537 6.06609 11.7957 5.12771 11.1097 4.1968C10.345 3.15896 8.99483 1.92175 6.90625 1.92175C5.40206 1.92175 4.02898 2.51604 3.03992 3.59509C2.06197 4.66204 1.52344 6.10559 1.52344 7.65979C1.52344 11.4199 5.01439 14.2803 10.2988 18.6101Z" fill="#282828"/>
</svg>
