<svg width="12" height="16" viewBox="0 0 12 16" fill="none" xmlns="http://www.w3.org/2000/svg">
<path d="M5.99993 0C2.74082 0 0.0894547 2.65137 0.0894547 5.91047C0.0894547 6.9834 0.570637 8.13733 0.590802 8.18601C0.746213 8.55489 1.05286 9.12786 1.27398 9.46371L5.32648 15.604C5.49232 15.8557 5.73778 16 5.99993 16C6.26208 16 6.50753 15.8557 6.67338 15.6043L10.7262 9.46371C10.9477 9.12786 11.254 8.55489 11.4094 8.18601C11.4296 8.13768 11.9104 6.98375 11.9104 5.91047C11.9104 2.65137 9.25904 0 5.99993 0ZM10.7683 7.91621C10.6296 8.24685 10.3441 8.77983 10.1456 9.08092L6.09276 15.2216C6.01279 15.3429 5.98741 15.3429 5.90745 15.2216L1.8546 9.08092C1.65608 8.77983 1.37064 8.2465 1.23191 7.91586C1.226 7.90161 0.784805 6.83946 0.784805 5.91047C0.784805 3.03485 3.12431 0.69535 5.99993 0.69535C8.87555 0.69535 11.2151 3.03485 11.2151 5.91047C11.2151 6.84085 10.7728 7.90578 10.7683 7.91621Z" fill="white"/>
<path d="M5.99978 2.78223C4.27427 2.78223 2.8707 4.18614 2.8707 5.9113C2.8707 7.63647 4.27427 9.04038 5.99978 9.04038C7.72529 9.04038 9.12885 7.63647 9.12885 5.9113C9.12885 4.18614 7.72529 2.78223 5.99978 2.78223ZM5.99978 8.34503C4.6581 8.34503 3.56605 7.25333 3.56605 5.9113C3.56605 4.56928 4.6581 3.47758 5.99978 3.47758C7.34146 3.47758 8.4335 4.56928 8.4335 5.9113C8.4335 7.25333 7.34146 8.34503 5.99978 8.34503Z" fill="white"/>
</svg>
