<svg width="20" height="20" viewBox="0 0 20 20" fill="none" xmlns="http://www.w3.org/2000/svg">
<path d="M13.125 11.875H6.25C5.56 11.875 5 12.435 5 13.125V18.75C5 19.44 5.56 20 6.25 20H13.125C13.815 20 14.375 19.44 14.375 18.75V13.125C14.375 12.435 13.815 11.875 13.125 11.875ZM13.125 18.75H6.25V13.125H13.125V18.75ZM15.625 9.375C16.6606 9.375 17.5 8.53562 17.5 7.5C17.5 6.46438 16.6606 5.625 15.625 5.625C14.5894 5.625 13.75 6.46438 13.75 7.5C13.75 8.53562 14.5894 9.375 15.625 9.375ZM15.625 6.875C15.9706 6.875 16.25 7.155 16.25 7.5C16.25 7.84562 15.9706 8.125 15.625 8.125C15.2794 8.125 15 7.84562 15 7.5C15 7.155 15.2794 6.875 15.625 6.875ZM17.5 3.125H16.25V2.5C16.25 1.11937 15.1306 0 13.75 0H6.25C4.86937 0 3.75 1.11937 3.75 2.5V3.125H2.5C1.11937 3.125 0 4.24437 0 5.625V13.125C0 14.5056 1.11937 15.625 2.5 15.625H3.75V14.375H2.5C1.81 14.375 1.25 13.815 1.25 13.125V5.625C1.25 4.935 1.81 4.375 2.5 4.375H17.5C18.19 4.375 18.75 4.935 18.75 5.625V13.125C18.75 13.815 18.19 14.375 17.5 14.375H15.625V15.625H17.5C18.8806 15.625 20 14.5056 20 13.125V5.625C20 4.24437 18.8806 3.125 17.5 3.125ZM15 3.125H5V2.5C5 1.81 5.56 1.25 6.25 1.25H13.75C14.44 1.25 15 1.81 15 2.5V3.125Z" fill="white"/>
</svg>
