<svg width="30" height="22" viewBox="0 0 30 22" fill="none" xmlns="http://www.w3.org/2000/svg">
<path d="M28.8907 11.07L25.2684 3.41643H26.7803C27.1282 3.41643 27.4103 3.13441 27.4103 2.7865C27.4103 2.43859 27.1282 2.15658 26.7803 2.15658H17.6774C17.3547 0.678009 15.8945 -0.259073 14.4159 0.0635768C13.369 0.292 12.5512 1.10972 12.3228 2.15658H3.21985C2.87192 2.15658 2.58989 2.43859 2.58989 2.7865C2.58989 3.13441 2.87192 3.41643 3.21985 3.41643H4.73178L1.10949 11.07C0.870992 11.1589 0.709417 11.3826 0.700012 11.6369C0.699952 14.3853 2.92805 16.6134 5.67657 16.6135C5.68712 16.6135 5.69761 16.6134 5.70816 16.6133C8.46523 16.5798 10.6969 14.3621 10.7478 11.6055C10.7519 11.343 10.5652 11.1163 10.3069 11.07L6.6846 3.41643H12.3227C12.6063 4.3807 13.3897 5.11582 14.3701 5.33768V17.1173C12.2279 17.4032 10.6343 19.2399 10.6533 21.4008C10.6528 21.7312 10.9204 21.9996 11.2509 22C11.2617 22 11.2725 21.9998 11.2833 21.9992H18.7168C19.0469 22.0166 19.3285 21.7631 19.3459 21.4331C19.3464 21.4223 19.3467 21.4115 19.3467 21.4008C19.3657 19.2399 17.7721 17.4032 15.63 17.1173V5.33768C16.6103 5.11582 17.3937 4.38064 17.6773 3.41643H23.3154L19.6931 11.07C19.4299 11.1299 19.2454 11.3671 19.2522 11.6369C19.2521 14.3853 21.4802 16.6134 24.2287 16.6135C24.2393 16.6135 24.2498 16.6134 24.2603 16.6133C27.0123 16.5967 29.2488 14.3883 29.3 11.6369C29.2829 11.3854 29.124 11.1654 28.8907 11.07ZM5.70816 15.3535C3.88001 15.3619 2.31726 14.0396 2.02287 12.2354H9.42491C9.08169 14.0243 7.52961 15.3264 5.70816 15.3535ZM8.88949 10.9755H2.52689L5.70816 4.14082L8.88949 10.9755ZM18.0239 20.7394H11.9763C12.3255 19.339 13.5578 18.3378 15.0001 18.2827C16.4422 18.3378 17.6746 19.339 18.0239 20.7394ZM15.0001 4.14082C14.1825 4.14082 13.5197 3.47804 13.5197 2.66051C13.5197 1.84297 14.1825 1.18019 15.0001 1.18019C15.8177 1.18019 16.4805 1.84297 16.4805 2.66051C16.4805 3.47804 15.8177 4.14082 15.0001 4.14082ZM24.2919 4.14082L27.4732 10.9755H21.1107L24.2919 4.14082ZM24.2605 15.3535C22.4323 15.3619 20.8696 14.0396 20.5752 12.2354H27.9772C27.634 14.0243 26.0819 15.3264 24.2605 15.3535Z" fill="#282828"/>
</svg>
