<svg width="16" height="16" viewBox="0 0 16 16" fill="none" xmlns="http://www.w3.org/2000/svg">
<g clip-path="url(#clip0_1601_317)">
<path d="M14.6977 3.62485H15.4256C15.5981 3.62485 15.738 3.48498 15.738 3.31243C15.738 3.13987 15.5981 3 15.4256 3H14.0613C13.8888 3 13.7489 3.13987 13.7489 3.31243V4.6767C13.7489 4.84925 13.8888 4.98912 14.0613 4.98912C14.2339 4.98912 14.3737 4.84925 14.3737 4.6767V4.28901C16.0279 7.13389 15.5882 10.8382 13.2139 13.2125C11.1201 15.3063 7.99183 15.9451 5.24436 14.8398C5.08427 14.7754 4.90232 14.8529 4.83789 15.013C4.77347 15.1731 4.85105 15.3551 5.01113 15.4195C5.98175 15.81 6.99594 15.9998 8.00114 15.9998C10.0824 15.9998 12.1243 15.1859 13.6558 13.6543C15.0234 12.2867 15.8487 10.4721 15.9798 8.54465C16.0984 6.80144 15.6448 5.07316 14.6977 3.62485Z" fill="white"/>
<path d="M1.98064 11.0218C1.80809 11.0218 1.66822 11.1617 1.66822 11.3342V11.7789C-0.0343464 8.92497 0.392552 5.17924 2.78636 2.78543C4.8946 0.677186 8.03973 0.0452743 10.7988 1.17554C10.9585 1.24099 11.1409 1.16451 11.2063 1.00489C11.2717 0.845209 11.1953 0.662752 11.0357 0.597361C9.59433 0.00687721 8.02127 -0.149648 6.48641 0.144751C4.91357 0.446429 3.48132 1.20678 2.34452 2.34357C0.976913 3.71121 0.151547 5.52587 0.020453 7.45326C-0.0992372 9.21324 0.364402 10.9579 1.3302 12.4147H0.587724C0.415172 12.4147 0.275299 12.5546 0.275299 12.7271C0.275299 12.8997 0.415172 13.0395 0.587724 13.0395H1.98061C2.15316 13.0395 2.29304 12.8997 2.29304 12.7271V11.3342C2.29307 11.1617 2.15319 11.0218 1.98064 11.0218Z" fill="white"/>
<path d="M7.99976 13.6827C9.45586 13.6827 10.912 13.1285 12.0205 12.02C14.2375 9.80296 14.2375 6.19556 12.0205 3.97853C11.1008 3.05881 9.93287 2.49545 8.64305 2.34939C7.39147 2.20761 6.11334 2.48857 5.04381 3.14036C4.89647 3.23015 4.84983 3.42238 4.93962 3.56972C5.02944 3.71709 5.22171 3.76368 5.36902 3.67392C7.3677 2.45589 9.92121 2.76288 11.5787 4.42036C13.5521 6.39377 13.5521 9.60472 11.5787 11.5781C9.60529 13.5515 6.3943 13.5515 4.4209 11.5781C2.76189 9.91912 2.4559 7.36404 3.67683 5.36464C3.76674 5.21739 3.72028 5.02509 3.57301 4.93518C3.42579 4.84526 3.23349 4.89175 3.14355 5.039C2.49033 6.10874 2.20839 7.38762 2.34967 8.64011C2.4953 9.93086 3.05872 11.0996 3.9791 12.02C5.08755 13.1285 6.54367 13.6827 7.99976 13.6827Z" fill="white"/>
<path d="M12.1794 8.31626C12.352 8.31626 12.4918 8.17639 12.4918 8.00383C12.4918 7.83128 12.352 7.69141 12.1794 7.69141H11.9902C11.8176 7.69141 11.6777 7.83128 11.6777 8.00383C11.6777 8.17639 11.8176 8.31626 11.9902 8.31626H12.1794Z" fill="white"/>
<path d="M3.82062 7.68164C3.64807 7.68164 3.50819 7.82151 3.50819 7.99407C3.50819 8.16662 3.64807 8.30649 3.82062 8.30649H4.00989C4.18244 8.30649 4.32231 8.16662 4.32231 7.99407C4.32231 7.82151 4.18244 7.68164 4.00989 7.68164H3.82062Z" fill="white"/>
<path d="M8.31743 4.00853V3.81926C8.31743 3.64671 8.17755 3.50684 8.005 3.50684C7.83245 3.50684 7.69257 3.64671 7.69257 3.81926V4.00853C7.69257 4.18108 7.83245 4.32095 8.005 4.32095C8.17755 4.32095 8.31743 4.18108 8.31743 4.00853Z" fill="white"/>
<path d="M7.68241 11.9892V12.1784C7.68241 12.351 7.82229 12.4909 7.99484 12.4909C8.16739 12.4909 8.30727 12.351 8.30727 12.1784V11.9892C8.30727 11.8166 8.16739 11.6768 7.99484 11.6768C7.82229 11.6768 7.68241 11.8167 7.68241 11.9892Z" fill="white"/>
<path d="M6.46545 6.0232C6.34345 5.9012 6.14562 5.9012 6.02362 6.0232C5.90162 6.1452 5.90162 6.34303 6.02362 6.46503L7.06103 7.50241C6.98211 7.65088 6.93719 7.82006 6.93719 7.99961C6.93719 8.58569 7.41398 9.06248 8.00006 9.06248C8.5861 9.06248 9.06293 8.58569 9.06293 7.99961C9.06293 7.82006 9.018 7.65088 8.93908 7.50241L11.0351 5.40638C11.1571 5.28438 11.1571 5.08655 11.0351 4.96455C10.9131 4.84255 10.7153 4.84255 10.5933 4.96455L8.49722 7.06061C8.34876 6.98169 8.17958 6.93677 8.00006 6.93677C7.82051 6.93677 7.65133 6.98169 7.50286 7.06061L6.46545 6.0232ZM8.43805 7.99964C8.43805 8.24114 8.24156 8.43766 8.00003 8.43766C7.75849 8.43766 7.56201 8.24114 7.56201 7.99964C7.56201 7.75813 7.75852 7.56162 8.00003 7.56162C8.24153 7.56162 8.43805 7.75813 8.43805 7.99964Z" fill="white"/>
<path d="M4.1921 4.52036C4.36465 4.52036 4.50453 4.38048 4.50453 4.20793C4.50453 4.03539 4.36465 3.89551 4.1921 3.89551C4.01955 3.89551 3.87968 4.03539 3.87968 4.20793C3.87968 4.38048 4.01955 4.52036 4.1921 4.52036Z" fill="white"/>
</g>
<defs>
<clipPath id="clip0_1601_317">
<rect width="16" height="16" fill="white"/>
</clipPath>
</defs>
</svg>
