<svg width="24" height="14" viewBox="0 0 24 14" fill="none" xmlns="http://www.w3.org/2000/svg">
<path d="M22.9336 10.7352C22.4115 10.1095 21.8218 9.5509 21.2513 9.01066C21.0509 8.82077 20.8435 8.62441 20.6438 8.42946C20.6438 8.42941 20.6437 8.42936 20.6437 8.42931C20.3751 8.16733 20.2436 7.98138 20.2299 7.84403C20.2164 7.70903 20.3086 7.50873 20.5208 7.21267C20.8381 6.76735 21.1763 6.32129 21.5035 5.88995C21.7943 5.50651 22.095 5.10999 22.3832 4.71122L22.4479 4.62169C23.0101 3.84347 23.5915 3.03876 23.903 2.05813C23.992 1.77698 24.0844 1.36091 23.8615 0.99566C23.6386 0.630315 23.2253 0.522033 22.934 0.472439C22.7917 0.448064 22.6567 0.446049 22.5311 0.446049L18.884 0.442814C18.2534 0.432314 17.816 0.73119 17.5775 1.33138C17.3868 1.81073 17.1614 2.36624 16.9004 2.89321C16.4009 3.91055 15.7663 5.08229 14.8464 6.05856L14.8055 6.10206C14.7429 6.1689 14.6406 6.27821 14.588 6.30329C14.4884 6.24066 14.3734 5.88249 14.3786 5.69485C14.3788 5.69021 14.3788 5.68562 14.3788 5.68102L14.3756 1.4668C14.3756 1.44538 14.3741 1.42396 14.3712 1.40272C14.2894 0.801503 14.13 0.198782 13.1784 0.0110001C13.1479 0.00495317 13.1169 0.00195312 13.0858 0.00195312H9.29198C8.57821 0.00195312 8.20068 0.328814 7.89801 0.68319C7.8104 0.786503 7.57762 1.06082 7.69621 1.39616C7.81621 1.73549 8.17378 1.80323 8.29115 1.82544C8.70459 1.90391 8.91839 2.13759 8.98458 2.58431C9.1154 3.45229 9.13144 4.38085 9.03511 5.50505C9.00825 5.80688 8.95828 6.03629 8.87765 6.22707C8.85534 6.2799 8.83575 6.31262 8.82206 6.33188C8.80022 6.32307 8.76623 6.3062 8.71917 6.27399C8.42864 6.0752 8.20968 5.76615 7.99795 5.46737C7.15223 4.27331 6.44085 2.95453 5.82289 1.43507C5.56841 0.812425 5.09 0.464658 4.47668 0.455658C3.30818 0.436205 2.22747 0.436674 1.17391 0.457158C0.676984 0.465783 0.328514 0.622205 0.138014 0.92216C-0.0527212 1.22268 -0.0457368 1.60583 0.158826 2.06118C1.62114 5.31291 2.94893 7.67842 4.46393 9.73127C5.53067 11.1765 6.60449 12.1798 7.84326 12.8885C9.1448 13.6331 10.6126 13.998 12.3155 13.998C12.5092 13.998 12.7062 13.9933 12.9058 13.9837C13.9564 13.9359 14.3839 13.518 14.4305 12.4948C14.4567 11.954 14.5169 11.5159 14.7257 11.1352C14.7841 11.0287 14.85 10.9572 14.902 10.9442C14.9572 10.9304 15.0551 10.9642 15.164 11.0349C15.3631 11.1642 15.5345 11.3395 15.6754 11.4934C15.8183 11.6498 15.9627 11.8114 16.1024 11.9676C16.3998 12.3003 16.7072 12.6443 17.0293 12.9725C17.7579 13.7151 18.5978 14.0557 19.5268 13.9844L22.8645 13.9859C22.8646 13.9859 22.8646 13.9859 22.8647 13.9859C22.8753 13.9859 22.8859 13.9856 22.8965 13.9849C23.2815 13.9593 23.6143 13.7461 23.8098 13.4C24.0451 12.9832 24.0416 12.4552 23.8001 11.9872C23.5481 11.5006 23.2211 11.0817 22.9336 10.7352ZM22.9772 12.9299C22.9312 13.0114 22.8744 13.0263 22.8451 13.0298L19.5081 13.0283C19.508 13.0283 19.5079 13.0283 19.5078 13.0283C19.4946 13.0283 19.4814 13.0288 19.4683 13.0299C18.8109 13.0847 18.2521 12.8536 17.7117 12.3028C17.4052 11.9905 17.1053 11.655 16.8153 11.3306C16.674 11.1725 16.5279 11.0089 16.3811 10.8482C16.199 10.6494 15.9739 10.4209 15.6848 10.2331C15.2518 9.95205 14.893 9.96054 14.6684 10.0172C14.446 10.0732 14.13 10.233 13.8874 10.6757C13.5732 11.2485 13.5039 11.8664 13.4756 12.4501C13.4593 12.8071 13.399 12.9014 13.3737 12.9254C13.3407 12.9568 13.2302 13.012 12.8618 13.0288C11.091 13.1121 9.60497 12.795 8.3181 12.0587C7.19863 11.4182 6.21838 10.4982 5.2333 9.16361C3.76024 7.16772 2.46415 4.85639 1.03094 1.66935C0.979001 1.5539 0.96297 1.48185 0.958329 1.44327C0.994892 1.43127 1.06633 1.41547 1.19158 1.41318C2.23446 1.39297 3.30387 1.39241 4.46183 1.41172C4.62036 1.41407 4.80087 1.46165 4.93756 1.7961C5.58322 3.38372 6.32905 4.76536 7.2178 6.02012C7.45377 6.35317 7.74749 6.76773 8.17917 7.06309C8.57456 7.33384 8.89542 7.3209 9.09501 7.2624C9.2947 7.20386 9.57183 7.0412 9.75848 6.59926C9.87891 6.3144 9.9517 5.99363 9.98775 5.58835C10.0907 4.38586 10.0725 3.38611 9.93033 2.44312C9.83016 1.76751 9.48131 1.27944 8.93179 1.03021C9.02939 0.979395 9.13936 0.958207 9.29208 0.958207H13.0363C13.247 1.00546 13.2887 1.06096 13.303 1.07994C13.3637 1.16061 13.3983 1.35144 13.4195 1.50055L13.4227 5.67591C13.4143 6.07618 13.6088 6.9639 14.2712 7.20732C14.2766 7.20934 14.2821 7.21122 14.2876 7.213C14.8906 7.41006 15.2894 6.98439 15.5036 6.75568L15.5417 6.71509C16.5493 5.64563 17.2279 4.39603 17.758 3.31626C18.0342 2.75868 18.2682 2.18193 18.4661 1.68477C18.5651 1.43544 18.6552 1.39438 18.8702 1.39893C18.8731 1.39902 18.876 1.39902 18.879 1.39902L22.5308 1.40226C22.6158 1.40226 22.7044 1.40324 22.7732 1.41501C22.9472 1.44463 23.0189 1.48072 23.0425 1.49568C23.0449 1.52338 23.0444 1.60307 22.9918 1.76938C22.7269 2.60324 22.2149 3.31172 21.673 4.06181L21.6083 4.15148C21.3267 4.54111 21.0294 4.93313 20.7419 5.3123C20.4105 5.74923 20.0679 6.20096 19.7431 6.65687C19.0487 7.62573 19.1098 8.26867 19.9763 9.11393C20.1811 9.31385 20.391 9.51269 20.5941 9.70498C21.1698 10.2503 21.7136 10.7653 22.1989 11.3468C22.4529 11.6531 22.7409 12.0209 22.9508 12.4263C23.0603 12.6385 23.0335 12.8302 22.9772 12.9299Z" fill="white"/>
</svg>
