<svg width="153" height="46" viewBox="0 0 153 46" fill="none" xmlns="http://www.w3.org/2000/svg">
<path d="M0.728 16V0.399999H4.856V6.208H9.512V0.399999H13.64V16H9.512V9.808H4.856V16H0.728ZM23.6634 16.288C22.2234 16.288 20.9594 15.968 19.8714 15.328C18.7834 14.672 17.9354 13.736 17.3274 12.52C16.7194 11.304 16.4154 9.84 16.4154 8.128C16.4154 6.416 16.7194 4.968 17.3274 3.784C17.9354 2.584 18.7834 1.672 19.8714 1.048C20.9594 0.423999 22.2234 0.111999 23.6634 0.111999C25.1034 0.111999 26.3674 0.423999 27.4554 1.048C28.5434 1.672 29.3914 2.584 29.9994 3.784C30.6074 4.968 30.9114 6.416 30.9114 8.128C30.9114 9.84 30.6074 11.304 29.9994 12.52C29.3914 13.736 28.5434 14.672 27.4554 15.328C26.3674 15.968 25.1034 16.288 23.6634 16.288ZM23.6634 12.736C24.6074 12.736 25.3434 12.32 25.8714 11.488C26.4154 10.656 26.6874 9.536 26.6874 8.128C26.6874 6.704 26.4154 5.608 25.8714 4.84C25.3434 4.056 24.6074 3.664 23.6634 3.664C22.7354 3.664 21.9994 4.056 21.4554 4.84C20.9114 5.608 20.6394 6.704 20.6394 8.128C20.6394 9.536 20.9114 10.656 21.4554 11.488C21.9994 12.32 22.7354 12.736 23.6634 12.736ZM33.7046 16V0.399999H39.3206C40.4086 0.399999 41.4006 0.511999 42.2966 0.735999C43.1926 0.959999 43.9046 1.352 44.4326 1.912C44.9606 2.472 45.2246 3.264 45.2246 4.288C45.2246 4.96 45.0486 5.632 44.6966 6.304C44.3446 6.96 43.8646 7.408 43.2566 7.648V7.744C44.0086 7.952 44.6406 8.352 45.1526 8.944C45.6806 9.536 45.9446 10.352 45.9446 11.392C45.9446 12.464 45.6646 13.344 45.1046 14.032C44.5446 14.704 43.8006 15.2 42.8726 15.52C41.9446 15.84 40.9206 16 39.8006 16H33.7046ZM37.8326 6.496H39.2246C39.8966 6.496 40.3926 6.352 40.7126 6.064C41.0326 5.776 41.1926 5.392 41.1926 4.912C41.1926 4.432 41.0326 4.088 40.7126 3.88C40.3926 3.672 39.8966 3.568 39.2246 3.568H37.8326V6.496ZM37.8326 12.832H39.5126C41.1126 12.832 41.9126 12.256 41.9126 11.104C41.9126 10.528 41.7126 10.12 41.3126 9.88C40.9286 9.64 40.3286 9.52 39.5126 9.52H37.8326V12.832ZM54.9759 16.288C53.5359 16.288 52.2719 15.968 51.1839 15.328C50.0959 14.672 49.2479 13.736 48.6399 12.52C48.0319 11.304 47.7279 9.84 47.7279 8.128C47.7279 6.416 48.0319 4.968 48.6399 3.784C49.2479 2.584 50.0959 1.672 51.1839 1.048C52.2719 0.423999 53.5359 0.111999 54.9759 0.111999C56.4159 0.111999 57.6799 0.423999 58.7679 1.048C59.8559 1.672 60.7039 2.584 61.3119 3.784C61.9199 4.968 62.2239 6.416 62.2239 8.128C62.2239 9.84 61.9199 11.304 61.3119 12.52C60.7039 13.736 59.8559 14.672 58.7679 15.328C57.6799 15.968 56.4159 16.288 54.9759 16.288ZM54.9759 12.736C55.9199 12.736 56.6559 12.32 57.1839 11.488C57.7279 10.656 57.9999 9.536 57.9999 8.128C57.9999 6.704 57.7279 5.608 57.1839 4.84C56.6559 4.056 55.9199 3.664 54.9759 3.664C54.0479 3.664 53.3119 4.056 52.7679 4.84C52.2239 5.608 51.9519 6.704 51.9519 8.128C51.9519 9.536 52.2239 10.656 52.7679 11.488C53.3119 12.32 54.0479 12.736 54.9759 12.736ZM65.0171 16V0.399999H75.1931V3.856H69.1451V16H65.0171ZM83.5931 16.288C82.1531 16.288 80.8891 15.968 79.8011 15.328C78.7131 14.672 77.8651 13.736 77.2571 12.52C76.6491 11.304 76.3451 9.84 76.3451 8.128C76.3451 6.416 76.6491 4.968 77.2571 3.784C77.8651 2.584 78.7131 1.672 79.8011 1.048C80.8891 0.423999 82.1531 0.111999 83.5931 0.111999C85.0331 0.111999 86.2971 0.423999 87.3851 1.048C88.4731 1.672 89.3211 2.584 89.9291 3.784C90.5371 4.968 90.8411 6.416 90.8411 8.128C90.8411 9.84 90.5371 11.304 89.9291 12.52C89.3211 13.736 88.4731 14.672 87.3851 15.328C86.2971 15.968 85.0331 16.288 83.5931 16.288ZM83.5931 12.736C84.5371 12.736 85.2731 12.32 85.8011 11.488C86.3451 10.656 86.6171 9.536 86.6171 8.128C86.6171 6.704 86.3451 5.608 85.8011 4.84C85.2731 4.056 84.5371 3.664 83.5931 3.664C82.6651 3.664 81.9291 4.056 81.3851 4.84C80.8411 5.608 80.5691 6.704 80.5691 8.128C80.5691 9.536 80.8411 10.656 81.3851 11.488C81.9291 12.32 82.6651 12.736 83.5931 12.736ZM98.5359 7.744C98.3599 8.704 98.1359 9.592 97.8639 10.408C97.6079 11.208 97.3039 11.92 96.9519 12.544H101.752V3.856H99.2559C99.1599 4.384 99.0719 4.84 98.9919 5.224C98.9279 5.592 98.8639 5.968 98.7999 6.352C98.7359 6.736 98.6479 7.2 98.5359 7.744ZM95.8959 16V20.512H92.1999L91.8639 15.136V12.544H92.5839C92.9519 12.416 93.3279 11.952 93.7119 11.152C94.1119 10.352 94.4879 9.04 94.8399 7.216C95.0159 6.352 95.1599 5.584 95.2719 4.912C95.3999 4.24 95.5279 3.56 95.6559 2.872C95.7839 2.168 95.9279 1.344 96.0879 0.399999H105.88V12.544H107.848V15.136L107.512 20.512H103.816V16H95.8959ZM109.666 16V0.399999H113.794V6.208H118.45V0.399999H122.578V16H118.45V9.808H113.794V16H109.666ZM126.025 16V0.399999H130.105V4.912C130.105 5.872 130.041 6.896 129.913 7.984C129.785 9.056 129.673 10.016 129.577 10.864H129.673L131.161 7.36L134.617 0.399999H138.985V16H134.905V11.488C134.905 10.528 134.969 9.52 135.097 8.464C135.225 7.392 135.337 6.416 135.433 5.536H135.337L133.849 9.016L130.393 16H126.025ZM142.431 16V0.399999H152.511V3.856H146.559V6.304H151.647V9.76H146.559V12.544H152.751V16H142.431ZM0.728 41V25.4H13.352V41H9.224V28.856H4.856V41H0.728ZM23.3821 41.288C21.9421 41.288 20.6781 40.968 19.5901 40.328C18.5021 39.672 17.6541 38.736 17.0461 37.52C16.4381 36.304 16.1341 34.84 16.1341 33.128C16.1341 31.416 16.4381 29.968 17.0461 28.784C17.6541 27.584 18.5021 26.672 19.5901 26.048C20.6781 25.424 21.9421 25.112 23.3821 25.112C24.8221 25.112 26.0861 25.424 27.1741 26.048C28.2621 26.672 29.1101 27.584 29.7181 28.784C30.3261 29.968 30.6301 31.416 30.6301 33.128C30.6301 34.84 30.3261 36.304 29.7181 37.52C29.1101 38.736 28.2621 39.672 27.1741 40.328C26.0861 40.968 24.8221 41.288 23.3821 41.288ZM23.3821 37.736C24.3261 37.736 25.0621 37.32 25.5901 36.488C26.1341 35.656 26.4061 34.536 26.4061 33.128C26.4061 31.704 26.1341 30.608 25.5901 29.84C25.0621 29.056 24.3261 28.664 23.3821 28.664C22.4541 28.664 21.7181 29.056 21.1741 29.84C20.6301 30.608 20.3581 31.704 20.3581 33.128C20.3581 34.536 20.6301 35.656 21.1741 36.488C21.7181 37.32 22.4541 37.736 23.3821 37.736ZM38.3249 32.744C38.1489 33.704 37.9249 34.592 37.6529 35.408C37.3969 36.208 37.0929 36.92 36.7409 37.544H41.5409V28.856H39.0449C38.9489 29.384 38.8609 29.84 38.7809 30.224C38.7169 30.592 38.6529 30.968 38.5889 31.352C38.5249 31.736 38.4369 32.2 38.3249 32.744ZM35.6849 41V45.512H31.9889L31.6529 40.136V37.544H32.3729C32.7409 37.416 33.1169 36.952 33.5009 36.152C33.9009 35.352 34.2769 34.04 34.6289 32.216C34.8049 31.352 34.9489 30.584 35.0609 29.912C35.1889 29.24 35.3169 28.56 35.4449 27.872C35.5729 27.168 35.7169 26.344 35.8769 25.4H45.6689V37.544H47.6369V40.136L47.3009 45.512H43.6049V41H35.6849ZM53.5803 33.416L53.3163 34.496H56.1963L55.9323 33.416C55.7403 32.664 55.5483 31.848 55.3563 30.968C55.1643 30.088 54.9723 29.256 54.7803 28.472H54.6843C54.5243 29.256 54.3483 30.088 54.1563 30.968C53.9643 31.848 53.7723 32.664 53.5803 33.416ZM47.5803 41L52.3323 25.4H57.3243L62.0763 41H57.7083L56.9403 37.688H52.5723L51.8043 41H47.5803ZM63.5639 41V25.4H69.2759C70.4119 25.4 71.4599 25.56 72.4199 25.88C73.3799 26.2 74.1479 26.736 74.7239 27.488C75.3159 28.24 75.6119 29.272 75.6119 30.584C75.6119 31.848 75.3159 32.888 74.7239 33.704C74.1479 34.504 73.3799 35.096 72.4199 35.48C71.4759 35.864 70.4599 36.056 69.3719 36.056H67.6919V41H63.5639ZM67.6919 32.792H69.1799C69.9959 32.792 70.5959 32.6 70.9799 32.216C71.3799 31.816 71.5799 31.272 71.5799 30.584C71.5799 29.88 71.3639 29.384 70.9319 29.096C70.4999 28.808 69.8839 28.664 69.0839 28.664H67.6919V32.792ZM78.1655 41V25.4H82.2935V31.352H83.6375L85.6055 27.896C86.1815 26.888 86.8135 26.176 87.5015 25.76C88.1895 25.328 89.0135 25.112 89.9735 25.112C90.2135 25.112 90.4615 25.128 90.7175 25.16C90.9895 25.192 91.2215 25.256 91.4135 25.352L90.7415 29.048C90.5975 29 90.4615 28.976 90.3335 28.976C90.2055 28.96 90.1015 28.952 90.0215 28.952C89.6695 28.952 89.3735 29.04 89.1335 29.216C88.9095 29.376 88.6615 29.688 88.3895 30.152L86.8535 32.744L91.8455 41H87.5255L83.6375 34.664H82.2935V41H78.1655ZM93.4702 41V25.4H97.5502V29.912C97.5502 30.872 97.4862 31.896 97.3582 32.984C97.2302 34.056 97.1182 35.016 97.0222 35.864H97.1182L98.6062 32.36L102.062 25.4H106.43V41H102.35V36.488C102.35 35.528 102.414 34.52 102.542 33.464C102.67 32.392 102.782 31.416 102.878 30.536H102.782L101.294 34.016L97.8382 41H93.4702Z" fill="white"/>
</svg>
