<svg width="360" height="168" viewBox="0 0 360 168" fill="none" xmlns="http://www.w3.org/2000/svg">
<rect width="360" height="168" rx="10" fill="#FEFFD4"/>
<mask id="mask0_1537_8887" style="mask-type:alpha" maskUnits="userSpaceOnUse" x="0" y="0" width="360" height="168">
<rect width="360" height="168" rx="10" fill="#FFF388"/>
</mask>
<g mask="url(#mask0_1537_8887)">
<path d="M157.903 146.365C109.779 114.466 57.5 159.5 56.2335 169.5L56.2335 191.642L256.486 184.784L442.951 167.784L432.139 60.8827C432.139 60.8827 301.999 7.49841 289.57 78.3398C277.141 149.181 201.804 175.464 157.903 146.365Z" stroke="#FFF388" stroke-width="3"/>
<path d="M164.886 156.862C116.762 124.964 64.4822 169.998 63.2157 179.998L63.2157 202.14L263.469 195.281L449.933 178.282L439.121 71.3803C439.121 71.3803 308.981 17.996 296.552 88.8374C284.123 159.679 208.786 185.961 164.886 156.862Z" stroke="#FFF388" stroke-width="3"/>
<path d="M169.886 168.862C121.762 136.964 69.4822 181.998 68.2157 191.998L68.2157 214.14L268.469 207.281L454.933 190.282L444.121 83.3803C444.121 83.3803 313.981 29.996 301.552 100.837C289.123 171.679 213.786 197.961 169.886 168.862Z" stroke="#FFF388" stroke-width="3"/>
</g>
</svg>
