<svg width="262" height="168" viewBox="0 0 262 168" fill="none" xmlns="http://www.w3.org/2000/svg">
<rect width="262" height="168" rx="10" fill="#5ECBAD"/>
<mask id="mask0_1536_8886" style="mask-type:alpha" maskUnits="userSpaceOnUse" x="0" y="0" width="262" height="168">
<rect width="262" height="168" rx="10" fill="#5ECBAD"/>
</mask>
<g mask="url(#mask0_1536_8886)">
<path d="M69.8562 239.817C89.1236 245.363 38.1239 220.582 69.7795 203.996C96.565 189.962 82.8736 155.337 120.532 137.743C158.191 120.148 193.443 162.837 231.134 112.579C268.826 62.3214 277.584 96.258 277.584 96.258L260.026 287.002L78.4231 260.118L69.8562 239.817Z" stroke="#46AD91" stroke-width="3"/>
<path d="M80.4639 250.867C99.7313 256.412 48.7317 231.632 80.3873 215.046C107.173 201.012 93.4814 166.387 131.14 148.792C168.799 131.198 204.051 173.887 241.742 123.629C279.434 73.3712 288.192 107.308 288.192 107.308L270.634 298.052L89.0308 271.168L80.4639 250.867Z" stroke="#46AD91" stroke-width="3"/>
<path d="M97.5288 261.016C116.796 266.562 65.7966 241.781 97.4522 225.195C124.238 211.161 110.546 176.536 148.205 158.941C185.864 141.347 221.116 184.036 258.807 133.778C296.498 83.5204 305.257 117.457 305.257 117.457L287.698 308.201L106.096 281.317L97.5288 261.016Z" stroke="#46AD91" stroke-width="3"/>
</g>
</svg>
