<svg width="458" height="366" viewBox="0 0 458 366" fill="none" xmlns="http://www.w3.org/2000/svg">
<rect width="458" height="366" rx="10" fill="#FF8B84"/>
<mask id="mask0_1536_8885" style="mask-type:alpha" maskUnits="userSpaceOnUse" x="0" y="0" width="458" height="366">
<rect width="458" height="366" rx="10" fill="#FF8B84"/>
</mask>
<g mask="url(#mask0_1536_8885)">
<path d="M130.568 374.773C150.166 389.01 299.766 376.617 350.038 323.446C394.055 276.889 356.195 210.475 429.292 178.257C502.39 146.039 592.147 229.518 592.147 229.518L429.559 421.444L130.568 374.773Z" stroke="#F04C41" stroke-width="3"/>
<path d="M148.126 389.213C167.725 403.45 317.325 391.058 367.597 337.886C411.614 291.329 373.754 224.915 446.851 192.697C519.948 160.479 609.706 243.958 609.706 243.958L447.118 435.885L148.126 389.213Z" stroke="#F04C41" stroke-width="3"/>
<path d="M162.142 403.198C181.74 417.434 331.34 405.042 381.612 351.87C425.629 305.314 387.769 238.9 460.866 206.682C533.964 174.464 623.721 257.942 623.721 257.942L461.134 449.869L162.142 403.198Z" stroke="#F04C41" stroke-width="3"/>
</g>
</svg>
