<svg width="652" height="169" viewBox="0 0 652 169" fill="none" xmlns="http://www.w3.org/2000/svg">
<rect width="652" height="169" rx="10" fill="#F04C41"/>
<mask id="mask0_1797_8888" style="mask-type:alpha" maskUnits="userSpaceOnUse" x="0" y="0" width="652" height="169">
<rect width="652" height="169" rx="10" fill="#F04C41"/>
</mask>
<g mask="url(#mask0_1797_8888)">
<path d="M118.5 56.5C23.6345 125.126 -50.7348 47.2802 -52.7999 39.5L-52.7999 -58.2041L320.7 -58.2042L690.7 -49.7041L666 179.5C666 179.5 345.901 262.092 320.7 145.296C295.5 28.5 189 5.5 118.5 56.5Z" fill="#FF8B84"/>
<path d="M117.526 67.5C22.6609 136.126 -51.7084 58.2802 -53.7735 50.5L-53.7735 -47.2041L319.727 -47.2042L689.727 -38.7041L665.026 190.5C665.026 190.5 329.5 264 311.5 150.5C293.5 37 188.026 16.5 117.526 67.5Z" stroke="#FF8B84" stroke-width="2"/>
</g>
</svg>
