<svg width="360" height="168" viewBox="0 0 360 168" fill="none" xmlns="http://www.w3.org/2000/svg">
<path d="M3.92066 -40.0942C13.224 -18.3879 12.8917 20.8367 65.1551 48.9851C109.378 72.803 146.922 48.4062 206.022 82.5177C265.122 116.629 229.368 153.906 335.5 178.5C441.632 203.094 428.876 231.751 428.876 231.751L-7.49967 172L-14.0331 31.3616L3.92066 -40.0942Z" fill="#FFF388"/>
<path d="M13 -62.5C22.6961 -39.8774 12.1855 8.77153 66.6552 38.1082C112.745 62.9316 151.874 37.5049 213.469 73.0564C275.063 108.608 237.8 147.458 348.413 173.091C459.025 198.723 445.731 228.59 445.731 228.59L-9.06669 166.316L-15.8759 19.7408L13 -62.5Z" stroke="#FFF388" stroke-width="2"/>
</svg>
