<svg width="46" height="40" viewBox="0 0 46 40" fill="none" xmlns="http://www.w3.org/2000/svg">
<path d="M44.3709 25.246L42.0334 25.9101L36.2826 5.77569C36.2162 5.52335 36.0436 5.31085 35.8045 5.17804C35.5787 5.04523 35.2998 5.01866 35.0475 5.08507L25.2193 7.88741L19.6014 9.49444L10.7295 12.0179L8.37872 3.77023C8.29903 3.49132 8.09981 3.26554 7.84747 3.14601L1.79122 0.317104C1.28654 0.0780416 0.702163 0.303823 0.4631 0.795229C0.224038 1.29992 0.449819 1.88429 0.941225 2.12335L6.58575 4.76632L9.08263 13.5187C9.08263 13.5187 9.08263 13.5187 9.08263 13.5319L13.7576 29.9608C12.8545 30.4257 12.1108 31.1429 11.6061 32.046C10.9287 33.2546 10.7693 34.6624 11.1545 35.9905C11.792 38.2085 13.8373 39.7624 16.1483 39.7624C16.6264 39.7624 17.1045 39.696 17.5693 39.5632C18.8975 39.178 20.0131 38.3015 20.6772 37.0929C21.2217 36.1101 21.4342 34.9944 21.2881 33.8921L41.5951 28.1148H41.6084L44.9154 27.1718C45.4467 27.0257 45.7521 26.4679 45.6061 25.9366C45.4467 25.4054 44.8889 25.0999 44.3709 25.246ZM26.1623 14.8335L24.5951 14.289C24.1967 14.1429 23.7584 14.2757 23.4928 14.6077L22.4568 15.896L21.1022 11.1413L24.8076 10.0921L26.1623 14.8335ZM18.9373 36.1366C18.5256 36.8804 17.835 37.4249 17.0248 37.6507C16.7326 37.7304 16.4404 37.7702 16.1483 37.7702C14.7272 37.7702 13.4654 36.814 13.0803 35.446C12.8412 34.6226 12.9475 33.7593 13.3592 33.0155C13.7709 32.2718 14.4615 31.7273 15.2717 31.5015C15.5639 31.4218 15.8561 31.3819 16.1483 31.3819C17.5693 31.3819 18.8311 32.3382 19.2162 33.7062C19.4553 34.5296 19.349 35.3929 18.9373 36.1366ZM20.6506 32.0062C19.7475 30.4124 18.0342 29.3898 16.1483 29.3898C15.9889 29.3898 15.8428 29.403 15.6834 29.4163L11.274 13.9437L19.1897 11.6858L21.0756 18.2866C21.1818 18.6452 21.474 18.9108 21.8326 18.9905C21.899 19.0038 21.9654 19.0038 22.0318 19.0038C22.324 19.0038 22.6162 18.871 22.8022 18.6319L24.6084 16.3874L27.3178 17.3437C27.424 17.3835 27.5436 17.3968 27.6631 17.3968C28.2076 17.3968 28.6592 16.9452 28.6592 16.4007C28.6592 16.2812 28.6326 16.1616 28.5928 16.0554L26.7334 9.52101L34.649 7.2632L40.1209 26.4413L20.6506 32.0062Z" fill="white"/>
</svg>
