<svg width="46" height="46" viewBox="0 0 46 46" fill="none" xmlns="http://www.w3.org/2000/svg">
<g clip-path="url(#clip0_1178_7446)">
<path d="M38.7465 4.18677C37.5152 4.18677 36.5176 5.18403 36.5176 6.41489C36.5176 7.64575 37.5152 8.64302 38.7465 8.64302C39.9778 8.64302 40.9755 7.64575 40.9755 6.41489C40.9665 5.18403 39.9688 4.18677 38.7465 4.18677ZM38.7465 7.29536C38.2612 7.29536 37.8657 6.90005 37.8657 6.41489C37.8657 5.92974 38.2612 5.53442 38.7465 5.53442C39.2319 5.53442 39.6273 5.92974 39.6273 6.41489C39.6183 6.90005 39.2319 7.29536 38.7465 7.29536Z" fill="white"/>
<path d="M45.4148 5.94882L39.8424 0.449578C39.2312 -0.152463 38.2426 -0.152463 37.6314 0.449578L34.1352 3.8911L33.1735 4.8346L32.0591 5.93984C31.6726 6.31723 31.4569 6.8384 31.4569 7.37755V10.9718C31.4659 11.6547 31.4659 11.6637 31.4749 11.9243H10.1471C9.28428 11.9243 8.57425 12.6252 8.57425 13.4968V31.5221H1.12346C0.50331 31.5221 0 32.0253 0 32.6453V44.8748C0 45.4949 0.50331 45.998 1.12346 45.998H9.72467C10.5875 45.998 11.2975 45.2972 11.2975 44.4256V43.2664H32.9309C34.297 43.2664 35.4115 42.1522 35.4115 40.7863C35.4115 40.6516 35.4025 40.5168 35.3845 40.391H37.227C38.0898 40.391 38.7998 39.6901 38.7998 38.8185V26.4632C38.7998 26.0947 38.4942 25.7892 38.1258 25.7892C37.7573 25.7892 37.4517 26.0947 37.4517 26.4632V38.8185C37.4517 38.9443 37.3528 39.0431 37.227 39.0431H34.6925C34.2431 38.5849 33.6139 38.3063 32.9219 38.3063H27.5023C27.6551 37.9918 27.736 37.6503 27.736 37.2819C27.736 35.97 26.6665 34.9097 25.3632 34.9097H22.5681C21.894 34.9097 21.2289 34.7839 20.5998 34.5413L18.4607 33.7146C17.6788 33.4091 16.8519 33.2563 16.0071 33.2563H11.2885V33.1036C11.2885 32.3039 10.6864 31.6389 9.91341 31.5491V13.5058C9.91341 13.38 10.0123 13.2811 10.1381 13.2811H19V32.6453C19 33.0137 19.3055 33.3192 19.674 33.3192C20.0425 33.3192 20.3481 33.0137 20.3481 32.6453V13.2811H27.2776V32.6363C27.2776 33.0047 27.5832 33.3103 27.9517 33.3103C28.3202 33.3103 28.6258 33.0047 28.6258 32.6363V13.2811H31.4569V22.5813C31.4569 23.435 32.1489 24.1269 33.0028 24.1269H44.4531C45.3069 24.1269 45.999 23.435 45.999 22.5813V7.38653C46.0169 6.84739 45.8012 6.32622 45.4148 5.94882ZM11.2975 34.6042H16.0161C16.6901 34.6042 17.3552 34.73 17.9754 34.9726L20.1144 35.7993C20.8964 36.1048 21.7232 36.2576 22.5681 36.2576H25.3632C25.9295 36.2576 26.3878 36.7158 26.3878 37.2819C26.3878 37.848 25.9295 38.3063 25.3632 38.3063H21.4266C21.0581 38.3063 20.7526 38.6118 20.7526 38.9802C20.7526 39.3486 21.0581 39.6541 21.4266 39.6541H32.9309C33.56 39.6541 34.0633 40.1663 34.0633 40.7863C34.0633 41.4153 33.551 41.9185 32.9309 41.9185H11.2975V34.6042ZM5.21286 44.6592H1.34815V32.8789H5.21286V44.6592ZM9.94936 33.1036V44.4345C9.94936 44.5603 9.8505 44.6592 9.72467 44.6592H6.56101V32.8789H9.72467C9.8505 32.8789 9.94936 32.9778 9.94936 33.1036ZM44.6688 22.5813C44.6688 22.6892 44.5789 22.779 44.4711 22.779H33.0118C32.9039 22.779 32.814 22.6892 32.814 22.5813V11.9962V7.38653C32.814 7.20682 32.8859 7.03609 33.0118 6.91029L33.9195 6.02071L34.9441 5.00532L38.5751 1.42003C38.6201 1.3751 38.674 1.35713 38.7369 1.35713C38.7998 1.35713 38.8538 1.3751 38.8987 1.42003L44.4711 6.91029C44.5969 7.03609 44.6688 7.20682 44.6688 7.38653V22.5813Z" fill="white"/>
<path d="M38.7466 12.9663C39.2858 12.9663 39.7172 13.4066 39.7172 13.9367C39.7172 14.3051 40.0228 14.6107 40.3913 14.6107C40.7598 14.6107 41.0654 14.3051 41.0654 13.9367C41.0654 12.8944 40.3733 12.0048 39.4206 11.7173V10.8187C39.4206 10.4503 39.1151 10.1448 38.7466 10.1448C38.3781 10.1448 38.0725 10.4503 38.0725 10.8187V11.7173C37.1198 12.0048 36.4277 12.8944 36.4277 13.9367C36.4277 15.2127 37.4703 16.255 38.7466 16.255C38.7645 16.255 38.7825 16.255 38.8005 16.255C39.3128 16.282 39.7172 16.7043 39.7172 17.2255C39.7172 17.7646 39.2768 18.1959 38.7466 18.1959C38.2163 18.1959 37.7759 17.7557 37.7759 17.2255C37.7759 16.8571 37.4703 16.5516 37.1018 16.5516C36.7333 16.5516 36.4277 16.8571 36.4277 17.2255C36.4277 18.2678 37.1198 19.1574 38.0725 19.445V20.3435C38.0725 20.7119 38.3781 21.0175 38.7466 21.0175C39.1151 21.0175 39.4206 20.7119 39.4206 20.3435V19.445C40.3733 19.1574 41.0654 18.2678 41.0654 17.2255C41.0654 15.9495 40.0228 14.9072 38.7466 14.9072C38.7286 14.9072 38.7106 14.9072 38.6926 14.9072C38.1803 14.8802 37.7759 14.4579 37.7759 13.9367C37.7669 13.3976 38.2073 12.9663 38.7466 12.9663Z" fill="white"/>
<path d="M29.891 2.75821C28.6062 2.99181 27.9863 3.46798 27.9863 3.46798L28.8757 4.50118C28.8757 4.50118 29.8281 3.79141 31.9664 4.0879C32.2539 4.12384 32.5414 3.98009 32.6672 3.71056C32.8468 3.3422 32.6492 2.88399 32.2539 2.77618C31.5082 2.56954 30.7086 2.61446 29.891 2.75821ZM30.8613 7.09766C30.6816 6.77423 30.2683 6.65743 29.9449 6.8461C29.1453 7.29532 28.2648 8.03204 27.6179 8.76876C27.1687 8.41837 26.6207 8.22071 26.0457 8.22071H25.7761C26.6476 6.47774 27.6988 5.21095 28.8668 4.51016C29.1902 4.32149 29.289 3.90821 29.1004 3.58477C28.9117 3.26134 28.4984 3.16251 28.175 3.35118C26.6297 4.26759 25.3179 5.90274 24.2757 8.21173H23.3414C21.5894 4.30352 18.9121 2.20118 16.1089 2.57852C14.0875 2.84806 12.4882 4.43829 12.2277 6.45079C11.9582 8.49024 13.0543 10.4309 15.2105 11.9313H17.9957C14.9589 10.6195 13.2968 8.64298 13.5664 6.62149C13.7461 5.21993 14.8691 4.10587 16.2886 3.90821C18.3371 3.6297 20.3675 5.22891 21.85 8.20274H21.4906C20.9246 8.20274 20.3855 8.38243 19.9363 8.72384C19.2984 8.04102 18.6785 7.51993 17.7351 6.85509C17.4296 6.63946 17.0164 6.71134 16.7918 7.0168C16.5761 7.32227 16.648 7.74454 16.9535 7.96016C17.9867 8.69688 18.5437 9.20899 19.1007 9.81993C18.9839 10.1164 18.9211 10.4309 18.9211 10.7633V11.9402H20.2687V10.7723C20.2687 10.5387 20.3406 10.3051 20.4664 10.1074C20.4664 10.0984 20.4754 10.0984 20.4754 10.0895C20.5203 10.0266 20.5652 9.97266 20.6191 9.91876C20.8437 9.69415 21.1492 9.56837 21.4726 9.56837L26.0097 9.57735C26.2164 9.57735 26.414 9.63126 26.5937 9.73009C26.6925 9.78399 26.7824 9.85587 26.8632 9.93673C27.0968 10.1703 27.2226 10.4668 27.2136 10.7902V11.9402H28.5613V10.7902C28.5613 10.4758 28.5074 10.1793 28.3996 9.8918C28.9386 9.21798 29.8371 8.44532 30.5738 8.02306C30.9332 7.83438 31.05 7.4211 30.8613 7.09766Z" fill="white"/>
</g>
<defs>
<clipPath id="clip0_1178_7446">
<rect width="46" height="46" fill="white"/>
</clipPath>
</defs>
</svg>
