<svg width="53" height="49" viewBox="0 0 53 49" fill="none" xmlns="http://www.w3.org/2000/svg">
<g clip-path="url(#clip0_1178_7427)">
<path d="M48.6141 22.1457L47.2633 17.0735C47.6289 16.9969 47.9031 16.6907 47.9031 16.327V15.5135C47.9031 13.7334 46.3695 12.2883 44.4805 12.2883H38.3461V10.6039C38.3461 9.73303 37.5945 9.01526 36.6602 9.01526H5.40937C4.48516 9.01526 3.72344 9.72346 3.72344 10.6039V24.5C3.72344 24.9211 4.08906 25.2657 4.53594 25.2657C4.98281 25.2657 5.34844 24.9211 5.34844 24.5V10.5848C5.34844 10.5561 5.36875 10.5369 5.39922 10.5369H36.6602C36.6906 10.5369 36.7109 10.5561 36.7109 10.5848V27.7348C36.7109 27.7444 36.7109 27.7635 36.7109 27.7731V33.5535H19.8313C19.1305 31.6491 17.2109 30.2805 14.9563 30.2805C12.7016 30.2805 10.782 31.6491 10.0813 33.5535H5.40937C5.37891 33.5535 5.35859 33.5344 5.35859 33.5057V31.8213H8.88281C9.32969 31.8213 9.69531 31.4768 9.69531 31.0557C9.69531 30.6346 9.32969 30.2901 8.88281 30.2901H1.0625C0.615625 30.2901 0.25 30.6346 0.25 31.0557C0.25 31.4768 0.615625 31.8213 1.0625 31.8213H3.72344V33.5057C3.72344 34.3766 4.475 35.0944 5.40937 35.0944H9.80703C9.80703 35.1135 9.80703 35.1231 9.80703 35.1422C9.80703 37.8219 12.1227 40.0039 14.9664 40.0039C17.8102 40.0039 20.1258 37.8219 20.1258 35.1422C20.1258 35.1231 20.1258 35.1135 20.1258 35.0944H38.4781C38.4781 35.1135 38.4781 35.1231 38.4781 35.1422C38.4781 37.8219 40.7938 40.0039 43.6375 40.0039C46.4813 40.0039 48.7969 37.8219 48.7969 35.1422C48.7969 35.1231 48.7969 35.1135 48.7969 35.0944H51.4375C51.8844 35.0944 52.25 34.7498 52.25 34.3287V26.1461C52.25 24.1172 50.6656 22.4424 48.6141 22.1457ZM14.9563 38.4631C13.0063 38.4631 11.432 36.9701 11.432 35.1422C11.432 33.3143 13.0164 31.8213 14.9563 31.8213C16.8961 31.8213 18.4805 33.3143 18.4805 35.1422C18.4906 36.9701 16.9062 38.4631 14.9563 38.4631ZM38.3563 13.81H44.4906C45.4758 13.81 46.2781 14.566 46.2781 15.4944V15.5422H38.3563V13.81ZM38.3563 17.083H45.5875L46.918 22.0979H38.3563V17.083ZM43.6172 38.4631C41.6672 38.4631 40.093 36.9701 40.093 35.1422C40.093 33.3143 41.6773 31.8213 43.6172 31.8213C45.5672 31.8213 47.1414 33.3143 47.1414 35.1422C47.1516 36.9701 45.5672 38.4631 43.6172 38.4631ZM50.625 33.5535H48.4922C47.7914 31.6491 45.8719 30.2805 43.6172 30.2805C41.3625 30.2805 39.443 31.6491 38.7422 33.5535H38.3461V23.6291H47.9539C49.132 23.6291 50.1375 24.366 50.4828 25.3709H47.9539C47.507 25.3709 47.1414 25.7155 47.1414 26.1366V27.7731C47.1414 29.1033 48.2891 30.1752 49.6906 30.1752H50.6148V33.5535H50.625ZM50.625 28.644H49.7008C49.193 28.644 48.7766 28.2516 48.7766 27.7731V26.9022H50.625V28.644Z" fill="white"/>
<path d="M14.9555 33.5535C14.0313 33.5535 13.2695 34.2617 13.2695 35.1421C13.2695 36.0226 14.0211 36.7308 14.9555 36.7308C15.8797 36.7308 16.6414 36.0226 16.6414 35.1421C16.6414 34.2617 15.8898 33.5535 14.9555 33.5535Z" fill="white"/>
<path d="M43.6176 33.5535C42.6934 33.5535 41.9316 34.2617 41.9316 35.1421C41.9316 36.0226 42.6832 36.7308 43.6176 36.7308C44.552 36.7308 45.3035 36.0226 45.3035 35.1421C45.3035 34.2617 44.552 33.5535 43.6176 33.5535Z" fill="white"/>
<path d="M34.0695 30.2805H21.9023C21.4555 30.2805 21.0898 30.625 21.0898 31.0461C21.0898 31.4672 21.4555 31.8118 21.9023 31.8118H34.0695C34.5164 31.8118 34.882 31.4672 34.882 31.0461C34.882 30.625 34.5164 30.2805 34.0695 30.2805Z" fill="white"/>
<path d="M13.6254 27.0074H3.20508C2.7582 27.0074 2.39258 27.352 2.39258 27.7731C2.39258 28.1942 2.7582 28.5387 3.20508 28.5387H13.6254C14.0723 28.5387 14.4379 28.1942 14.4379 27.7731C14.4379 27.352 14.0824 27.0074 13.6254 27.0074Z" fill="white"/>
<path d="M28.5662 16.5949C28.2514 16.2983 27.7334 16.2983 27.4186 16.5949L20.1772 23.4186L16.4092 19.868C16.0943 19.5713 15.5764 19.5713 15.2615 19.868C14.9467 20.1647 14.9467 20.6528 15.2615 20.9494L19.6084 25.0455C19.7709 25.1987 19.974 25.2657 20.1873 25.2657C20.4006 25.2657 20.6037 25.1891 20.7662 25.0455L28.5865 17.6764C28.8811 17.3797 28.8811 16.8916 28.5662 16.5949Z" fill="white"/>
</g>
<defs>
<clipPath id="clip0_1178_7427">
<rect width="52" height="49" fill="white" transform="translate(0.25)"/>
</clipPath>
</defs>
</svg>
