<svg width="110" height="110" viewBox="0 0 110 110" fill="none" xmlns="http://www.w3.org/2000/svg">
<g clip-path="url(#clip0_180_74)">
<path d="M57.0819 63.6435V97.6335H50.6246C49.598 97.6343 48.5845 97.4023 47.6606 96.9548H25.2195C23.8076 96.9459 22.4373 96.4758 21.3173 95.6162C19.5969 94.2962 17.8324 93.8127 15.4148 93.5853V96.7868C15.4148 97.1243 15.2807 97.448 15.0421 97.6866C14.8034 97.9252 14.4798 98.0593 14.1423 98.0593H1.85882C1.52135 98.0593 1.19769 97.9252 0.95906 97.6866C0.720427 97.448 0.586365 97.1243 0.586365 96.7868V60.6982C0.586365 60.3607 0.720427 60.037 0.95906 59.7984C1.19769 59.5598 1.52135 59.4257 1.85882 59.4257H14.1423C14.4798 59.4257 14.8034 59.5598 15.0421 59.7984C15.2807 60.037 15.4148 60.3607 15.4148 60.6982V62.366C17.1419 60.7559 18.8996 59.4427 20.5046 58.2432C25.3892 54.5972 28.9181 51.9657 28.5211 44.314C28.4521 43.0973 28.8313 41.8974 29.5869 40.9412C30.3425 39.9851 31.4222 39.3389 32.6219 39.1247C33.8217 38.9106 35.0583 39.1434 36.098 39.7792C37.1377 40.4149 37.9086 41.4095 38.2647 42.575C40.3312 49.3529 40.4822 55.191 38.711 60.7864H44.0281V36.8319C44.038 35.57 44.4219 34.3393 45.1313 33.2956C45.8407 32.2518 46.8437 31.442 48.0135 30.9684L50.3294 30.0048C50.6402 29.8749 50.9897 29.8734 51.3016 30.0006C51.6135 30.1278 51.8624 30.3733 51.9937 30.6834C51.9937 30.7004 52.0073 30.7173 52.0124 30.7343C52.126 31.0423 52.1159 31.3823 51.9843 31.6831C51.8528 31.9839 51.6099 32.2221 51.3066 32.3478L48.9924 33.3115C48.2868 33.592 47.6802 34.0757 47.2495 34.7012C46.8189 35.3266 46.5834 36.0658 46.5731 36.8251V60.7915H52.2737C53.2574 60.7912 54.223 61.0559 55.0691 61.5578C55.9152 62.0596 56.6104 62.7801 57.0819 63.6435Z" fill="#FFDEC7"/>
<path d="M13.7487 60.4573H2.25244V96.8988H13.7487V60.4573Z" fill="#5ECBAD"/>
<path d="M86.0007 85.5213C86.0007 85.5213 86.0007 40.7307 86.0007 39.7009C86.0007 38.6711 84.567 32.548 84.567 32.548L65.4835 25.4001L55.2377 29.4618L52.0141 30.7411L49.7763 31.6284L44.0281 36.8319V59.3494L44.661 63.3364H52.2737C52.6643 63.327 53.0528 63.3958 53.4164 63.5388C53.78 63.6818 54.1114 63.8961 54.391 64.169C54.6705 64.4419 54.8927 64.768 55.0444 65.1281C55.1961 65.4881 55.2742 65.8749 55.2742 66.2656C55.2742 66.6563 55.1961 67.0431 55.0444 67.4032C54.8927 67.7632 54.6705 68.0893 54.391 68.3623C54.1114 68.6352 53.78 68.8495 53.4164 68.9924C53.0528 69.1354 52.6643 69.2042 52.2737 69.1948H47.0515C46.727 69.1947 46.4148 69.3187 46.1789 69.5415C45.9429 69.7642 45.8011 70.0687 45.7824 70.3926L45.869 70.9339C45.9627 71.1722 46.1262 71.3767 46.3381 71.5205C46.55 71.6643 46.8005 71.7407 47.0566 71.7397H50.8604C51.251 71.7303 51.6395 71.7992 52.0031 71.9421C52.3668 72.0851 52.6981 72.2994 52.9777 72.5723C53.2573 72.8452 53.4794 73.1713 53.6311 73.5314C53.7828 73.8915 53.861 74.2782 53.861 74.669C53.861 75.0597 53.7828 75.4464 53.6311 75.8065C53.4794 76.1666 53.2573 76.4927 52.9777 76.7656C52.6981 77.0385 52.3668 77.2528 52.0031 77.3958C51.6395 77.5387 51.251 77.6076 50.8604 77.5982H47.0515C47.0108 77.5956 46.97 77.5956 46.9293 77.5982L47.3314 80.1431H49.459C50.2237 80.1615 50.9508 80.4782 51.4851 81.0255C52.0194 81.5728 52.3185 82.3074 52.3185 83.0723C52.3185 83.8372 52.0194 84.5717 51.4851 85.1191C50.9508 85.6664 50.2237 85.9831 49.459 86.0015H48.2629L48.6921 88.7008C49.1638 88.8606 49.587 89.1379 49.9218 89.5066C50.2567 89.8752 50.492 90.3231 50.6058 90.808C50.7195 91.2928 50.7079 91.7987 50.5719 92.2778C50.436 92.7569 50.1803 93.1934 49.8289 93.5463C49.7283 93.6459 49.6199 93.7372 49.5048 93.8195L49.7746 95.5161H82.6431L85.9956 92.4622L86.0007 85.5213ZM65.4835 39.7009C65.0278 39.7009 64.5824 39.5658 64.2035 39.3126C63.8246 39.0594 63.5293 38.6996 63.3549 38.2786C63.1805 37.8576 63.1349 37.3943 63.2238 36.9474C63.3127 36.5005 63.5321 36.0899 63.8543 35.7677C64.1766 35.4455 64.5871 35.2261 65.034 35.1372C65.481 35.0483 65.9442 35.0939 66.3652 35.2683C66.7862 35.4427 67.1461 35.738 67.3992 36.1169C67.6524 36.4958 67.7875 36.9412 67.7875 37.3969C67.7871 38.0078 67.5442 38.5936 67.1122 39.0256C66.6802 39.4576 66.0944 39.7005 65.4835 39.7009V39.7009Z" fill="#F04C41"/>
<path d="M83.4676 30.9684L68.3508 24.6706C66.6797 23.98 64.803 23.98 63.132 24.6706L55.8739 27.694C55.5623 27.824 55.3151 28.0725 55.1867 28.3848C55.0583 28.6971 55.0592 29.0476 55.1893 29.3592C55.3193 29.6708 55.5678 29.918 55.8801 30.0464C56.1924 30.1747 56.5429 30.1738 56.8545 30.0438L64.1126 27.0204C65.1567 26.5887 66.3294 26.5887 67.3735 27.0204L82.4903 33.3182C83.1957 33.5987 83.8021 34.0821 84.2327 34.7072C84.6634 35.3324 84.899 36.0712 84.9097 36.8302V91.2491C84.9097 93.3665 83.0926 95.0868 80.8582 95.0868H78.7934C78.4559 95.0868 78.1323 95.2209 77.8936 95.4595C77.655 95.6982 77.5209 96.0218 77.5209 96.3593C77.5209 96.6968 77.655 97.0204 77.8936 97.259C78.1323 97.4977 78.4559 97.6317 78.7934 97.6317H80.8565C84.494 97.6317 87.4529 94.7696 87.4529 91.2491V36.8302C87.443 35.5685 87.059 34.3381 86.3496 33.2947C85.6402 32.2512 84.6372 31.4417 83.4676 30.9684V30.9684Z" fill="#282828"/>
<path d="M74.1956 95.5093C74.0769 95.375 73.9309 95.2675 73.7674 95.1941C73.6038 95.1206 73.4265 95.0829 73.2472 95.0835H51.8699C52.7349 94.0998 53.2182 92.8383 53.2319 91.5285C53.2456 90.2186 52.7888 88.9474 51.9445 87.9458C52.4578 87.6843 52.9267 87.3436 53.3341 86.9363C54.3209 85.949 54.893 84.6219 54.9334 83.2265C54.9738 81.8312 54.4793 80.4732 53.5512 79.4305C54.2617 79.0294 54.8735 78.4745 55.3418 77.8063C55.81 77.1382 56.1229 76.3738 56.2574 75.569C56.3919 74.7643 56.3447 73.9397 56.1192 73.1556C55.8938 72.3715 55.4958 71.6477 54.9543 71.0374C55.3941 70.7916 55.7978 70.4861 56.1538 70.1297C56.9897 69.2937 57.5323 68.2093 57.7002 67.0391C57.8681 65.8689 57.6524 64.6758 57.0853 63.6384C56.6129 62.7755 55.9168 62.0557 55.0701 61.5548C54.2234 61.0538 53.2575 60.7901 52.2737 60.7915H46.5731V36.8319C46.5834 36.0726 46.8189 35.3334 47.2495 34.708C47.6802 34.0825 48.2868 33.5989 48.9924 33.3183L51.3066 32.3546C51.6099 32.2289 51.8528 31.9907 51.9843 31.6899C52.1159 31.3892 52.126 31.0491 52.0124 30.7411C52.0124 30.7241 52.0005 30.7072 51.9937 30.6902C51.8624 30.3801 51.6135 30.1346 51.3016 30.0074C50.9897 29.8802 50.6402 29.8817 50.3294 30.0116L48.0135 30.9752C46.8437 31.4488 45.8407 32.2586 45.1313 33.3024C44.4219 34.3461 44.038 35.5768 44.0281 36.8387V60.7915H38.711C40.4822 55.1927 40.3312 49.358 38.2648 42.5801C37.9551 41.5584 37.3215 40.6651 36.4596 40.0351C35.6988 39.4742 34.7944 39.1411 33.8516 39.0745C32.9088 39.008 31.9665 39.2107 31.1345 39.6592C30.3025 40.1076 29.6151 40.7833 29.1524 41.6074C28.6897 42.4315 28.4708 43.3702 28.5211 44.314C28.9181 51.964 25.3892 54.5972 20.5046 58.2432C18.8962 59.4427 17.1385 60.7559 15.4148 62.366V60.6982C15.4148 60.3607 15.2807 60.0371 15.0421 59.7984C14.8034 59.5598 14.4798 59.4257 14.1423 59.4257H1.85882C1.52135 59.4257 1.19769 59.5598 0.95906 59.7984C0.720427 60.0371 0.586365 60.3607 0.586365 60.6982V96.7869C0.586365 97.1243 0.720427 97.448 0.95906 97.6866C1.19769 97.9253 1.52135 98.0593 1.85882 98.0593H14.1423C14.4798 98.0593 14.8034 97.9253 15.0421 97.6866C15.2807 97.448 15.4148 97.1243 15.4148 96.7869V93.5853C17.8324 93.8127 19.5969 94.2962 21.3122 95.6111C22.4322 96.4708 23.8025 96.9408 25.2144 96.9497H47.6606C48.5845 97.3972 49.598 97.6293 50.6246 97.6284H73.2472C73.4929 97.6288 73.7333 97.558 73.9396 97.4246C74.1458 97.2913 74.309 97.1009 74.4094 96.8767C74.5097 96.6525 74.5429 96.4041 74.505 96.1614C74.4671 95.9187 74.3596 95.6922 74.1956 95.5093V95.5093ZM12.8698 95.5093H3.13128V61.9707H12.8698V95.5093ZM45.6569 88.5532H47.7573C48.0758 88.5529 48.3923 88.605 48.6938 88.7076C49.1655 88.8674 49.5887 89.1447 49.9235 89.5133C50.2584 89.882 50.4937 90.3299 50.6075 90.8148C50.7212 91.2996 50.7096 91.8054 50.5737 92.2845C50.4377 92.7636 50.182 93.2002 49.8306 93.5531C49.73 93.6527 49.6216 93.744 49.5065 93.8263C49.0328 94.1704 48.4707 94.3723 47.8862 94.4082H25.2212C24.3667 94.4015 23.5379 94.1155 22.8612 93.5938C20.4622 91.7564 17.8986 91.244 15.4165 91.0302V65.9882C17.5457 63.6401 19.8277 61.9384 22.0333 60.291C26.9212 56.645 31.5343 53.1992 31.0694 44.1902C31.0372 43.5961 31.2231 43.0107 31.5923 42.5442C31.9614 42.0776 32.4883 41.762 33.0739 41.6567C33.6594 41.5515 34.2632 41.6638 34.7718 41.9726C35.2803 42.2813 35.6585 42.7653 35.8352 43.3334C37.939 50.2352 37.9068 56.0427 35.7317 61.6093C35.6563 61.8024 35.6291 62.0109 35.6526 62.2169C35.6762 62.4229 35.7497 62.62 35.8667 62.791C35.9838 62.9621 36.1409 63.102 36.3243 63.1985C36.5078 63.2951 36.712 63.3453 36.9193 63.3449H52.2737C52.6643 63.3355 53.0528 63.4043 53.4164 63.5473C53.78 63.6903 54.1114 63.9045 54.391 64.1775C54.6705 64.4504 54.8927 64.7765 55.0444 65.1366C55.1961 65.4966 55.2742 65.8834 55.2742 66.2741C55.2742 66.6648 55.1961 67.0516 55.0444 67.4117C54.8927 67.7717 54.6705 68.0978 54.391 68.3708C54.1114 68.6437 53.78 68.8579 53.4164 69.0009C53.0528 69.1439 52.6643 69.2127 52.2737 69.2033H47.0515C46.727 69.2032 46.4148 69.3272 46.1789 69.5499C45.9429 69.7727 45.8011 70.0772 45.7824 70.4011C45.7808 70.426 45.7808 70.4509 45.7824 70.4758C45.7816 70.6357 45.8121 70.7942 45.8724 70.9424C45.9661 71.1807 46.1296 71.3852 46.3415 71.529C46.5534 71.6728 46.8039 71.7492 47.06 71.7482H50.8638C51.2544 71.7388 51.6429 71.8077 52.0066 71.9506C52.3702 72.0936 52.7015 72.3079 52.9811 72.5808C53.2607 72.8537 53.4828 73.1798 53.6345 73.5399C53.7862 73.9 53.8644 74.2867 53.8644 74.6774C53.8644 75.0682 53.7862 75.4549 53.6345 75.815C53.4828 76.1751 53.2607 76.5011 52.9811 76.7741C52.7015 77.047 52.3702 77.2613 52.0066 77.4042C51.6429 77.5472 51.2544 77.616 50.8638 77.6066H47.0515C47.0108 77.6041 46.97 77.6041 46.9294 77.6066C46.5919 77.6228 46.2747 77.7724 46.0475 78.0225C45.8203 78.2726 45.7018 78.6027 45.718 78.9402C45.7342 79.2777 45.8838 79.5949 46.1339 79.8221C46.3839 80.0492 46.714 80.1678 47.0515 80.1516H49.459C50.2237 80.17 50.9508 80.4867 51.4851 81.034C52.0195 81.5813 52.3186 82.3159 52.3186 83.0808C52.3186 83.8457 52.0195 84.5802 51.4851 85.1275C50.9508 85.6749 50.2237 85.9916 49.459 86.01H45.6569C45.3194 86.01 44.9958 86.144 44.7571 86.3827C44.5185 86.6213 44.3844 86.9449 44.3844 87.2824C44.3844 87.6199 44.5185 87.9436 44.7571 88.1822C44.9958 88.4208 45.3194 88.5549 45.6569 88.5549V88.5532Z" fill="#282828"/>
<path d="M65.4835 32.548C64.5245 32.548 63.587 32.8324 62.7896 33.3652C61.9922 33.898 61.3707 34.6553 61.0037 35.5413C60.6367 36.4273 60.5407 37.4023 60.7278 38.3429C60.9149 39.2835 61.3767 40.1475 62.0548 40.8256C62.7329 41.5037 63.5969 41.9655 64.5375 42.1526C65.4781 42.3397 66.4531 42.2437 67.3391 41.8767C68.2251 41.5097 68.9824 40.8882 69.5152 40.0908C70.048 39.2934 70.3324 38.3559 70.3324 37.3969C70.3311 36.1113 69.8198 34.8787 68.9107 33.9697C68.0017 33.0606 66.7691 32.5493 65.4835 32.548ZM65.4835 39.7009C65.0278 39.7009 64.5824 39.5658 64.2035 39.3126C63.8246 39.0594 63.5293 38.6996 63.3549 38.2786C63.1805 37.8576 63.1349 37.3943 63.2238 36.9474C63.3127 36.5005 63.5321 36.0899 63.8543 35.7677C64.1765 35.4455 64.5871 35.2261 65.034 35.1372C65.4809 35.0483 65.9442 35.0939 66.3652 35.2683C66.7862 35.4427 67.146 35.738 67.3992 36.1169C67.6524 36.4957 67.7875 36.9412 67.7875 37.3969C67.7871 38.0078 67.5442 38.5936 67.1122 39.0256C66.6802 39.4576 66.0944 39.7004 65.4835 39.7009V39.7009Z" fill="#282828"/>
<path d="M66.6949 78.4058H64.2857C63.6761 78.4044 63.0919 78.1615 62.661 77.7303C62.2301 77.2991 61.9877 76.7147 61.9868 76.1051C61.9932 75.9248 61.9632 75.745 61.8986 75.5764C61.834 75.4079 61.7361 75.2541 61.6108 75.1243C61.4854 74.9944 61.3352 74.8911 61.1691 74.8206C61.003 74.75 60.8244 74.7137 60.6439 74.7137C60.4634 74.7137 60.2848 74.75 60.1187 74.8206C59.9525 74.8911 59.8023 74.9944 59.677 75.1243C59.5517 75.2541 59.4538 75.4079 59.3892 75.5764C59.3246 75.745 59.2946 75.9248 59.301 76.1051C59.3018 77.4034 59.8088 78.6502 60.7142 79.5807C61.6196 80.5111 62.8522 81.0519 64.1499 81.0881V84.0606C64.1499 84.2368 64.1846 84.4113 64.2521 84.5741C64.3195 84.737 64.4184 84.8849 64.543 85.0095C64.6676 85.1341 64.8156 85.233 64.9784 85.3004C65.1412 85.3679 65.3157 85.4026 65.492 85.4026C65.6682 85.4026 65.8427 85.3679 66.0055 85.3004C66.1683 85.233 66.3163 85.1341 66.4409 85.0095C66.5655 84.8849 66.6644 84.737 66.7318 84.5741C66.7993 84.4113 66.834 84.2368 66.834 84.0606V81.0881C68.1312 81.0515 69.363 80.5107 70.268 79.5807C71.173 78.6507 71.6799 77.4045 71.6812 76.1068V74.2406C71.6829 73.4023 71.4182 72.5851 70.9255 71.907C70.4327 71.2288 69.7373 70.7247 68.9395 70.4673L62.8741 68.4975C62.6163 68.4136 62.3918 68.2502 62.2327 68.0307C62.0735 67.8113 61.9881 67.547 61.9885 67.276V64.6208C61.9885 64.1258 62.1851 63.6511 62.5351 63.3011C62.8851 62.9511 63.3598 62.7545 63.8547 62.7545H67.1275C67.6225 62.7545 68.0971 62.9511 68.4471 63.3011C68.7971 63.6511 68.9938 64.1258 68.9938 64.6208C68.9938 64.9767 69.1352 65.318 69.3868 65.5697C69.6385 65.8214 69.9799 65.9628 70.3358 65.9628C70.6917 65.9628 71.0331 65.8214 71.2847 65.5697C71.5364 65.318 71.6778 64.9767 71.6778 64.6208C71.6765 63.4138 71.1965 62.2565 70.3432 61.4029C69.4898 60.5492 68.3328 60.0689 67.1258 60.0671H66.8306V57.0997C66.8306 56.9234 66.7959 56.7489 66.7284 56.5861C66.661 56.4233 66.5621 56.2753 66.4375 56.1507C66.3129 56.0261 66.165 55.9273 66.0021 55.8598C65.8393 55.7924 65.6648 55.7577 65.4886 55.7577C65.3123 55.7577 65.1378 55.7924 64.975 55.8598C64.8122 55.9273 64.6642 56.0261 64.5396 56.1507C64.415 56.2753 64.3161 56.4233 64.2487 56.5861C64.1813 56.7489 64.1465 56.9234 64.1465 57.0997V60.0671H63.853C62.6457 60.0684 61.4883 60.5486 60.6346 61.4023C59.7809 62.256 59.3007 63.4135 59.2993 64.6208V67.2811C59.2976 68.1196 59.5621 68.937 60.0549 69.6154C60.5476 70.2939 61.2431 70.7983 62.041 71.056L68.1064 73.0258C68.3641 73.1094 68.5886 73.2725 68.7477 73.4917C68.9068 73.7108 68.9924 73.9748 68.9921 74.2457V76.1119C68.9898 76.7202 68.747 77.3028 68.3165 77.7326C67.8861 78.1624 67.3031 78.4044 66.6949 78.4058V78.4058Z" fill="#282828"/>
<path d="M20.9962 26.9924C22.651 26.9924 23.9924 25.651 23.9924 23.9962C23.9924 22.3415 22.651 21 20.9962 21C19.3415 21 18 22.3415 18 23.9962C18 25.651 19.3415 26.9924 20.9962 26.9924Z" fill="#FEFFD4"/>
<path d="M42.5402 18.8733C44.522 18.8733 46.1285 17.2667 46.1285 15.285C46.1285 13.3032 44.522 11.6966 42.5402 11.6966C40.5584 11.6966 38.9518 13.3032 38.9518 15.285C38.9518 17.2667 40.5584 18.8733 42.5402 18.8733Z" fill="#5ECBAD"/>
<path d="M7.5 46C8.88071 46 10 44.8807 10 43.5C10 42.1193 8.88071 41 7.5 41C6.11928 41 5 42.1193 5 43.5C5 44.8807 6.11928 46 7.5 46Z" fill="#F04C41"/>
<path d="M94.9453 69.8906C96.572 69.8906 97.8906 68.572 97.8906 66.9453C97.8906 65.3187 96.572 64 94.9453 64C93.3187 64 92 65.3187 92 66.9453C92 68.572 93.3187 69.8906 94.9453 69.8906Z" fill="#FEFFD4"/>
<path d="M70.4726 13.9453C71.286 13.9453 71.9453 13.286 71.9453 12.4727C71.9453 11.6593 71.286 11 70.4726 11C69.6593 11 69 11.6593 69 12.4727C69 13.286 69.6593 13.9453 70.4726 13.9453Z" fill="#F04C41"/>
<path d="M64.5883 109.177C66.5701 109.177 68.1767 107.57 68.1767 105.588C68.1767 103.607 66.5701 102 64.5883 102C62.6066 102 61 103.607 61 105.588C61 107.57 62.6066 109.177 64.5883 109.177Z" fill="#FEFFD4"/>
<path d="M29.9819 106.244C30.9723 106.244 31.7752 105.441 31.7752 104.45C31.7752 103.46 30.9723 102.657 29.9819 102.657C28.9914 102.657 28.1885 103.46 28.1885 104.45C28.1885 105.441 28.9914 106.244 29.9819 106.244Z" fill="#5ECBAD"/>
<path d="M90 30C91.6569 30 93 28.6569 93 27C93 25.3431 91.6569 24 90 24C88.3431 24 87 25.3431 87 27C87 28.6569 88.3431 30 90 30Z" fill="#5ECBAD"/>
</g>
<defs>
<clipPath id="clip0_180_74">
<rect width="110" height="110" fill="white"/>
</clipPath>
</defs>
</svg>
