<svg width="110" height="110" viewBox="0 0 110 110" fill="none" xmlns="http://www.w3.org/2000/svg">
<g clip-path="url(#clip0_180_94)">
<path d="M30.3775 45.8241L27.5223 50.2256L29.533 55.0688C29.6352 55.3134 29.6537 55.585 29.5856 55.8412C29.5311 56.0451 29.4232 56.2308 29.273 56.3792H26.9453L23.0518 55.3423L21.8391 56.3792H17.0018L16.802 52.666L12.3299 49.9295C12.1385 49.8124 11.9837 49.6442 11.883 49.4437C11.7823 49.2432 11.7397 49.0185 11.76 48.7951C11.7803 48.5717 11.8628 48.3584 11.998 48.1794C12.1332 48.0004 12.3159 47.8628 12.5252 47.7822L17.4181 45.8962L18.6368 40.796C18.6888 40.5776 18.801 40.3781 18.9606 40.2201C19.1203 40.0621 19.321 39.952 19.5399 39.9023C19.7589 39.8526 19.9875 39.8651 20.1997 39.9386C20.4119 40.0122 20.5993 40.1436 20.7406 40.3182L24.0466 44.3875L29.273 43.9668C29.4966 43.949 29.7206 43.9942 29.9199 44.0971C30.1191 44.2 30.2856 44.3566 30.4005 44.5492C30.5154 44.7418 30.5741 44.9627 30.5701 45.187C30.566 45.4112 30.4993 45.6298 30.3775 45.8181V45.8241Z" fill="#FFFF83"/>
<path d="M62.5431 37.6659L55.1798 44.8413L56.9169 54.9741C56.9546 55.195 56.9298 55.4221 56.8452 55.6296C56.7607 55.8371 56.6199 56.0169 56.4386 56.1486C56.2573 56.2804 56.0428 56.3588 55.8193 56.3751C55.5959 56.3914 55.3723 56.345 55.1738 56.2409L46.0733 51.4578L36.9744 56.2409C36.8011 56.3321 36.6082 56.3796 36.4124 56.3792C36.3454 56.3789 36.2786 56.3734 36.2125 56.3626C36.0568 56.3361 35.9078 56.2791 35.7741 56.1949C35.6404 56.1108 35.5246 56.0011 35.4333 55.8721C35.3421 55.7431 35.2771 55.5975 35.2422 55.4434C35.2072 55.2893 35.203 55.1299 35.2298 54.9741L36.9669 44.8413L29.6036 37.6659C29.4432 37.5093 29.3298 37.311 29.2762 37.0934C29.2225 36.8758 29.2308 36.6475 29.3 36.4343C29.3692 36.2212 29.4967 36.0316 29.668 35.887C29.8392 35.7425 30.0475 35.6486 30.2693 35.6162L40.4427 34.1375L44.9929 24.9184C45.0921 24.7171 45.2457 24.5477 45.4363 24.4292C45.6268 24.3107 45.8467 24.2479 46.0711 24.2479C46.2955 24.2479 46.5154 24.3107 46.7059 24.4292C46.8965 24.5477 47.0501 24.7171 47.1493 24.9184L51.698 34.1375L61.8714 35.6147C62.0936 35.6467 62.3024 35.7403 62.4741 35.8849C62.6459 36.0294 62.7737 36.2192 62.8432 36.4327C62.9126 36.6462 62.9209 36.8749 62.867 37.0928C62.8132 37.3108 62.6994 37.5093 62.5386 37.6659H62.5431Z" fill="#FFFF83"/>
<path d="M79.3945 49.2263L74.6986 51.566L74.0133 56.3747H70.8817L68.2414 53.6818L63.0751 54.5835C62.854 54.6219 62.6266 54.5978 62.4186 54.5137C62.2106 54.4297 62.0302 54.2891 61.898 54.1079C61.7657 53.9266 61.6868 53.712 61.6701 53.4883C61.6535 53.2645 61.6998 53.0406 61.8038 52.8418L64.2292 48.1939L61.7752 43.5595C61.6699 43.3613 61.6222 43.1374 61.6376 42.9135C61.653 42.6895 61.7307 42.4743 61.8621 42.2922C61.9935 42.1102 62.1732 41.9685 62.381 41.8834C62.5887 41.7982 62.8161 41.7729 63.0375 41.8104L68.2083 42.682L71.8584 38.9162C72.0146 38.755 72.2127 38.6407 72.4305 38.5863C72.6482 38.532 72.8768 38.5396 73.0904 38.6084C73.304 38.6772 73.4941 38.8044 73.6391 38.9757C73.7842 39.1469 73.8784 39.3553 73.9111 39.5773L74.6805 44.7647L79.3885 47.0714C79.5894 47.1708 79.7584 47.3243 79.8766 47.5147C79.9949 47.7051 80.0575 47.9247 80.0575 48.1488C80.0575 48.3729 79.9949 48.5926 79.8766 48.7829C79.7584 48.9733 79.5894 49.1269 79.3885 49.2263H79.3945Z" fill="#FFFF83"/>
<path d="M83.3437 71.1659C83.3437 71.4848 83.217 71.7905 82.9916 72.016C82.7661 72.2414 82.4603 72.3681 82.1415 72.3681H74.9285V97.6137C74.9285 97.9325 74.8018 98.2383 74.5764 98.4638C74.3509 98.6892 74.0451 98.8159 73.7263 98.8159H18.4264C18.1076 98.8159 17.8018 98.6892 17.5763 98.4638C17.3509 98.2383 17.2242 97.9325 17.2242 97.6137V72.3681H10.0112C9.80618 72.3682 9.60452 72.3159 9.4254 72.2162C9.24629 72.1164 9.09566 71.9725 8.98783 71.7981C8.88001 71.6238 8.81858 71.4247 8.80938 71.2199C8.80018 71.0151 8.84351 70.8113 8.93526 70.6279L13.7439 61.0106C13.8439 60.8108 13.9975 60.6429 14.1875 60.5256C14.3776 60.4083 14.5965 60.3462 14.8199 60.3464H77.3328C77.5561 60.3462 77.7751 60.4083 77.9652 60.5256C78.1552 60.6429 78.3088 60.8108 78.4088 61.0106L83.2174 70.6279C83.3007 70.795 83.3439 70.9792 83.3437 71.1659Z" fill="#F04C41"/>
<path d="M83.2159 70.6234L78.4072 61.0061C78.3073 60.8063 78.1537 60.6384 77.9636 60.5211C77.7736 60.4038 77.5546 60.3417 77.3313 60.3419H14.8184C14.595 60.3417 14.3761 60.4038 14.186 60.5211C13.996 60.6384 13.8424 60.8063 13.7424 61.0061L8.93375 70.6234C8.84095 70.8069 8.79678 71.0112 8.80546 71.2167C8.81414 71.4221 8.87538 71.6219 8.98332 71.797C9.09127 71.972 9.24231 72.1164 9.42201 72.2164C9.6017 72.3164 9.80405 72.3686 10.0097 72.3681H17.2227V97.6137C17.2227 97.9325 17.3494 98.2383 17.5748 98.4638C17.8003 98.6892 18.1061 98.8159 18.4249 98.8159H73.7248C74.0436 98.8159 74.3494 98.6892 74.5748 98.4638C74.8003 98.2383 74.927 97.9325 74.927 97.6137V72.3681H82.14C82.345 72.3682 82.5467 72.3159 82.7258 72.2162C82.9049 72.1164 83.0555 71.9725 83.1634 71.7981C83.2712 71.6237 83.3326 71.4247 83.3418 71.2199C83.351 71.0151 83.3077 70.8113 83.2159 70.6279V70.6234ZM11.9542 69.9637L15.5607 62.7507H44.1333L40.5268 69.9637H11.9542ZM44.8727 96.4115H19.6271V72.3681H41.2662C41.4895 72.3682 41.7085 72.3062 41.8985 72.1889C42.0885 72.0715 42.2421 71.9036 42.3421 71.7039L44.8727 66.6412V96.4115ZM72.5226 96.4115H47.277V66.6367L49.8076 71.6994C49.9075 71.8991 50.0611 72.067 50.2512 72.1844C50.4412 72.3017 50.6602 72.3637 50.8835 72.3636H72.5226V96.4115ZM51.6259 69.9637L48.0193 62.7507H76.592L80.1985 69.9637H51.6259Z" fill="#282828"/>
<path d="M62.5641 35.9678C62.3799 35.7775 62.1379 35.6534 61.8759 35.6147L51.7025 34.1375L47.1538 24.9184C47.0546 24.7171 46.901 24.5477 46.7104 24.4292C46.5199 24.3107 46.3 24.2479 46.0756 24.2479C45.8512 24.2479 45.6313 24.3107 45.4408 24.4292C45.2502 24.5477 45.0966 24.7171 44.9974 24.9184L40.4472 34.1375L30.2738 35.6162C30.052 35.6486 29.8438 35.7425 29.6725 35.887C29.5012 36.0316 29.3738 36.2212 29.3045 36.4343C29.2353 36.6475 29.227 36.8758 29.2807 37.0934C29.3343 37.311 29.4477 37.5093 29.6081 37.6659L36.9714 44.8413L35.2343 54.9741C35.2075 55.1299 35.2117 55.2893 35.2467 55.4434C35.2816 55.5975 35.3466 55.7431 35.4378 55.8721C35.5291 56.0011 35.6449 56.1108 35.7786 56.1949C35.9123 56.2791 36.0613 56.3361 36.217 56.3626C36.2831 56.3734 36.3499 56.3789 36.4169 56.3792C36.6127 56.3796 36.8056 56.3321 36.9789 56.2409L46.0779 51.4578L55.1783 56.2409C55.35 56.332 55.5414 56.3794 55.7358 56.3792C55.9109 56.3793 56.0839 56.3411 56.2427 56.2674C56.4015 56.1937 56.5423 56.0861 56.6553 55.9523C56.7682 55.8185 56.8505 55.6616 56.8965 55.4927C56.9425 55.3237 56.951 55.1467 56.9214 54.9741L55.1843 44.8413L62.5476 37.6659C62.7746 37.4427 62.9039 37.1386 62.907 36.8203C62.9101 36.5019 62.7868 36.1954 62.5641 35.9678ZM53.0504 43.561C52.9109 43.6971 52.8066 43.865 52.7463 44.0503C52.6861 44.2357 52.6719 44.4329 52.7048 44.625L54.1384 52.98L46.6354 49.0354C46.4624 48.9458 46.2704 48.8991 46.0756 48.8991C45.8808 48.8991 45.6888 48.9458 45.5158 49.0354L38.0128 52.983L39.4464 44.628C39.4793 44.4359 39.4651 44.2387 39.4049 44.0533C39.3446 43.868 39.2403 43.7001 39.1007 43.564L33.0313 37.6479L41.4179 36.4292C41.6102 36.4005 41.7927 36.3257 41.9498 36.2111C42.1068 36.0964 42.2337 35.9454 42.3196 35.771L46.0763 28.1702L49.8331 35.771C49.919 35.9454 50.0459 36.0964 50.2029 36.2111C50.36 36.3257 50.5425 36.4005 50.7348 36.4292L59.1229 37.6479L53.0504 43.561Z" fill="#282828"/>
<path d="M30.0213 44.1621C29.7987 44.0178 29.5345 43.9512 29.27 43.9728L24.042 44.3875L20.7361 40.3182C20.5948 40.1436 20.4074 40.0122 20.1952 39.9386C19.983 39.8651 19.7544 39.8526 19.5354 39.9023C19.3164 39.952 19.1158 40.0621 18.9561 40.2201C18.7965 40.3781 18.6843 40.5776 18.6323 40.796L17.4136 45.8962L12.5252 47.7822C12.3159 47.8628 12.1332 48.0004 11.998 48.1794C11.8628 48.3584 11.7803 48.5717 11.76 48.7951C11.7397 49.0185 11.7823 49.2432 11.883 49.4437C11.9837 49.6442 12.1385 49.8125 12.3299 49.9295L16.802 52.666L17.0018 56.3792L17.0845 57.9014C17.101 58.2089 17.235 58.4984 17.4586 58.71C17.6823 58.9217 17.9787 59.0394 18.2866 59.039H18.3528C18.6168 59.0247 18.8687 58.9239 19.0696 58.752L21.8421 56.3807L23.0548 55.3438L26.9483 56.3807L28.1219 56.6932C28.3386 56.7507 28.5671 56.7465 28.7815 56.681C28.9959 56.6154 29.1878 56.4913 29.3353 56.3224C29.4829 56.1536 29.5803 55.9469 29.6165 55.7256C29.6528 55.5044 29.6264 55.2774 29.5405 55.0703L27.5298 50.2271L30.385 45.8256C30.4706 45.6926 30.5291 45.544 30.5571 45.3883C30.5852 45.2326 30.5822 45.0729 30.5485 44.9184C30.5147 44.7638 30.4507 44.6175 30.3603 44.4877C30.2698 44.3579 30.1546 44.2473 30.0213 44.1621ZM25.0624 50.5637L26.3803 53.7419L23.0563 52.8553C22.8679 52.8051 22.6702 52.8014 22.4802 52.8446C22.2901 52.8878 22.1134 52.9766 21.9653 53.1033L19.3521 55.3393L19.1657 51.9056C19.1555 51.7109 19.098 51.5216 18.9982 51.354C18.8985 51.1865 18.7595 51.0457 18.5932 50.9439L15.6584 49.1496L18.8682 47.9114C19.0499 47.8413 19.2119 47.728 19.3402 47.5814C19.4684 47.4349 19.5592 47.2593 19.6045 47.0699L20.4055 43.7248L22.5754 46.3951C22.6982 46.5463 22.856 46.6654 23.035 46.7421C23.2141 46.8188 23.4091 46.8508 23.6033 46.8354L27.0324 46.5634L25.1631 49.4502C25.0578 49.614 24.994 49.8009 24.9769 49.9949C24.9599 50.1888 24.9903 50.384 25.0654 50.5637H25.0624Z" fill="#282828"/>
<path d="M79.9355 47.6199C79.8175 47.3832 79.6247 47.1919 79.387 47.0759L74.679 44.7692L73.9096 39.5819C73.8769 39.3599 73.7827 39.1514 73.6376 38.9802C73.4926 38.8089 73.3025 38.6817 73.0889 38.6129C72.8753 38.5441 72.6467 38.5365 72.429 38.5909C72.2112 38.6453 72.0131 38.7595 71.8569 38.9207L68.2068 42.6865L63.036 41.8149C62.8146 41.7774 62.5872 41.8027 62.3795 41.8879C62.1717 41.9731 61.992 42.1147 61.8606 42.2967C61.7292 42.4788 61.6514 42.694 61.6361 42.918C61.6207 43.142 61.6684 43.3658 61.7737 43.5641L64.2276 48.1984L61.8022 52.8463C61.6988 53.0446 61.6527 53.2679 61.6691 53.491C61.6856 53.714 61.764 53.9281 61.8954 54.1091C62.0269 54.29 62.2063 54.4307 62.4133 54.5153C62.6204 54.5999 62.847 54.6251 63.0675 54.588L68.2339 53.6863L70.8817 56.3792L71.9125 57.4311C72.0695 57.5912 72.2682 57.7041 72.486 57.7572C72.7039 57.8103 72.9322 57.8014 73.1453 57.7315C73.3583 57.6616 73.5476 57.5336 73.6917 57.3618C73.8358 57.19 73.929 56.9813 73.9607 56.7594L74.0148 56.3807L74.7001 51.572L79.3945 49.2263C79.6786 49.0843 79.895 48.8356 79.9963 48.5347C80.0977 48.2337 80.0758 47.9048 79.9355 47.6199ZM73.0621 49.6951C72.8882 49.7814 72.7378 49.9084 72.6237 50.0654C72.5096 50.2224 72.4352 50.4047 72.4069 50.5968L71.9215 54.0034L69.5172 51.5465C69.3807 51.4073 69.2124 51.3033 69.0268 51.2436C68.8412 51.1839 68.6438 51.1703 68.4518 51.2039L65.0631 51.7959L66.6545 48.7454C66.7451 48.573 66.7924 48.3812 66.7924 48.1864C66.7924 47.9917 66.7451 47.7998 66.6545 47.6274L65.0451 44.5874L68.4367 45.1584C68.6291 45.191 68.8264 45.1763 69.0118 45.1155C69.1971 45.0548 69.3649 44.9499 69.5007 44.8098L71.8885 42.3439L72.3934 45.746C72.4222 45.9385 72.4972 46.121 72.6121 46.2781C72.727 46.4351 72.8784 46.562 73.0531 46.6476L76.1412 48.1624L73.0621 49.6951Z" fill="#282828"/>
<path d="M62.8632 22.9573C64.6185 22.9573 66.0414 21.5344 66.0414 19.7791C66.0414 18.0238 64.6185 16.6008 62.8632 16.6008C61.1079 16.6008 59.6849 18.0238 59.6849 19.7791C59.6849 21.5344 61.1079 22.9573 62.8632 22.9573Z" fill="#5ECBAD"/>
<path d="M19.6271 33.574C21.3824 33.574 22.8053 32.1511 22.8053 30.3958C22.8053 28.6405 21.3824 27.2175 19.6271 27.2175C17.8718 27.2175 16.4488 28.6405 16.4488 30.3958C16.4488 32.1511 17.8718 33.574 19.6271 33.574Z" fill="#F04C41"/>
<path d="M31.5211 22.3878C32.9618 22.3878 34.1298 21.2198 34.1298 19.7791C34.1298 18.3383 32.9618 17.1704 31.5211 17.1704C30.0803 17.1704 28.9123 18.3383 28.9123 19.7791C28.9123 21.2198 30.0803 22.3878 31.5211 22.3878Z" fill="#FEFFD4"/>
<path d="M78.7529 31.5949C80.1936 31.5949 81.3616 30.427 81.3616 28.9862C81.3616 27.5455 80.1936 26.3775 78.7529 26.3775C77.3121 26.3775 76.1442 27.5455 76.1442 28.9862C76.1442 30.427 77.3121 31.5949 78.7529 31.5949Z" fill="#FEFFD4"/>
<path d="M86.0125 58.7039C87.4532 58.7039 88.6212 57.5359 88.6212 56.0952C88.6212 54.6544 87.4532 53.4865 86.0125 53.4865C84.5717 53.4865 83.4038 54.6544 83.4038 56.0952C83.4038 57.5359 84.5717 58.7039 86.0125 58.7039Z" fill="#FEFFD4"/>
<path d="M3.19639 35.6147C4.63714 35.6147 5.8051 34.4467 5.8051 33.006C5.8051 31.5652 4.63714 30.3973 3.19639 30.3973C1.75564 30.3973 0.587677 31.5652 0.587677 33.006C0.587677 34.4467 1.75564 35.6147 3.19639 35.6147Z" fill="#FEFFD4"/>
<path d="M85 43C86.1046 43 87 42.1046 87 41C87 39.8954 86.1046 39 85 39C83.8954 39 83 39.8954 83 41C83 42.1046 83.8954 43 85 43Z" fill="#F04C41"/>
<path d="M46.0763 13.4241C46.7967 13.4241 47.3807 12.8401 47.3807 12.1198C47.3807 11.3994 46.7967 10.8154 46.0763 10.8154C45.356 10.8154 44.772 11.3994 44.772 12.1198C44.772 12.8401 45.356 13.4241 46.0763 13.4241Z" fill="#F04C41"/>
<path d="M5.05675 58.2395C6.0842 58.2395 6.91711 57.4066 6.91711 56.3792C6.91711 55.3517 6.0842 54.5188 5.05675 54.5188C4.0293 54.5188 3.19639 55.3517 3.19639 56.3792C3.19639 57.4066 4.0293 58.2395 5.05675 58.2395Z" fill="#5ECBAD"/>
</g>
<defs>
<clipPath id="clip0_180_94">
<rect width="110" height="110" fill="white"/>
</clipPath>
</defs>
</svg>
