<svg width="35" height="35" viewBox="0 0 35 35" fill="none" xmlns="http://www.w3.org/2000/svg">
<g clip-path="url(#clip0_381_3384)">
<path d="M21.0005 0H13.9996C7.244 0 1.74805 5.49596 1.74805 12.2516V17.5023C1.74805 22.2451 4.48338 26.5492 8.74893 28.5738V34.4211C8.74893 34.9288 9.38406 35.1942 9.74486 34.8336L14.8246 29.7538H21.0004C27.756 29.7538 33.252 24.2579 33.252 17.5023V12.2516C33.252 5.49596 27.756 0 21.0005 0Z" fill="#665CAC"/>
<path d="M26.3069 21.7452L25.7824 18.9037C25.739 18.669 25.5572 18.4843 25.3231 18.4375L21.1978 17.6125C21.0062 17.5743 20.8088 17.6342 20.6708 17.772L18.9948 19.4481C16.171 18.1828 14.6038 16.6122 13.2249 13.6672L14.8954 11.9967C15.0333 11.8587 15.0932 11.6609 15.055 11.4696L14.23 7.34429C14.1831 7.1103 13.9985 6.92832 13.7637 6.88498L10.9223 6.36053C10.8445 6.34624 10.7644 6.34775 10.6872 6.36532C9.93692 6.53574 9.25237 6.91376 8.70748 7.45879C7.76398 8.40229 7.40339 9.77905 7.66479 11.4402C8.10359 14.2297 9.47023 18.1117 11.9917 20.6433L12.0261 20.6774C14.5557 23.1971 18.4377 24.5639 21.2274 25.0028C21.5788 25.0581 21.9172 25.0855 22.2418 25.0855C23.4514 25.0855 24.4649 24.704 25.2089 23.96C25.7538 23.415 26.132 22.7305 26.3023 21.9804C26.3196 21.9031 26.3213 21.8231 26.3069 21.7452Z" fill="white"/>
<path d="M14.3243 12.567L14.8947 11.9966L14.8953 11.996L14.3242 12.567L14.3243 12.567Z" fill="#E5E5E5"/>
<path d="M20.6697 17.7714L20.0938 18.3474L20.0938 18.3475L20.6698 17.7715L20.6697 17.7714Z" fill="#E5E5E5"/>
<path d="M23.342 23.9853C23.0174 23.9853 22.679 23.9579 22.3275 23.9025C19.538 23.4636 15.6559 22.0969 13.1263 19.5772L13.0918 19.543C10.5704 17.0115 9.20377 13.1295 8.76497 10.34C8.55381 8.9979 8.74904 7.84161 9.32934 6.94931C9.10711 7.09758 8.89854 7.26766 8.70748 7.45872C7.76398 8.40222 7.40339 9.77898 7.66479 11.4402C8.10359 14.2297 9.47023 18.1116 11.9917 20.6432L12.0261 20.6774C14.5557 23.197 18.4378 24.5638 21.2274 25.0027C21.5788 25.0581 21.9172 25.0855 22.2418 25.0855C23.4514 25.0855 24.4649 24.704 25.209 23.9599C25.3999 23.7689 25.57 23.5604 25.7183 23.3381C25.0595 23.7666 24.257 23.9853 23.342 23.9853Z" fill="#E5E5E5"/>
<path d="M18.6654 9.91785C18.3432 9.91785 18.082 10.179 18.082 10.5012C18.082 10.8234 18.3432 11.0846 18.6654 11.0846C19.9522 11.0846 20.9991 12.1315 20.9991 13.4183C20.9991 13.7361 21.2646 14.0016 21.5824 14.0016C21.9003 14.0016 22.1658 13.7361 22.1658 13.4183C22.1659 11.4881 20.5956 9.91785 18.6654 9.91785Z" fill="white"/>
<path d="M18.6669 7.5842C18.4511 7.5842 18.2333 7.59616 18.0195 7.61975C17.6992 7.65509 17.4682 7.94336 17.5036 8.26369C17.5389 8.58402 17.8278 8.81439 18.1475 8.7796C18.319 8.76066 18.4937 8.75102 18.6669 8.75102C21.2404 8.75102 23.3342 10.8447 23.3342 13.4183C23.3342 13.5915 23.3245 13.7663 23.3056 13.9377C23.2707 14.2536 23.5055 14.5469 23.8215 14.5817C24.1375 14.6165 24.4305 14.3818 24.4654 14.0658C24.489 13.8519 24.501 13.6341 24.501 13.4183C24.501 10.2014 21.8838 7.5842 18.6669 7.5842Z" fill="white"/>
<path d="M18.6669 5.2507C18.4584 5.2507 18.2472 5.25863 18.0394 5.27442C17.7181 5.29876 17.4774 5.57903 17.5017 5.90025C17.526 6.22154 17.8072 6.4623 18.1275 6.43797C18.3061 6.42436 18.4876 6.41753 18.6669 6.41753C22.5272 6.41753 25.6678 9.5581 25.6678 13.4184C25.6678 13.9646 25.6047 14.5083 25.4805 15.0344C25.4092 15.3359 25.5948 15.6493 25.8938 15.7312C26.2083 15.8173 26.541 15.6201 26.616 15.3028C26.761 14.6889 26.8346 14.0549 26.8346 13.4184C26.8346 8.9147 23.1706 5.2507 18.6669 5.2507Z" fill="white"/>
</g>
<defs>
<clipPath id="clip0_381_3384">
<rect width="35" height="35" fill="white"/>
</clipPath>
</defs>
</svg>
