<svg width="12" height="11" viewBox="0 0 12 11" fill="none" xmlns="http://www.w3.org/2000/svg">
<path d="M4.40227 10.1537C4.0799 9.80293 3.75753 9.45483 3.43794 9.10137C2.40968 7.97138 1.38421 6.83871 0.355955 5.70872C0.10306 5.43024 -0.0553468 5.1223 0.019688 4.74475C0.172536 3.96286 1.07295 3.64421 1.71214 4.14762C1.86777 4.2708 1.99838 4.4261 2.13178 4.57338C2.81543 5.31778 3.49908 6.06486 4.17995 6.80926C4.23831 6.87352 4.28833 6.94046 4.35503 7.0208C4.54678 6.80658 4.73854 6.59772 4.92474 6.3835C6.39486 4.67781 7.86499 2.97211 9.33511 1.26909C9.57967 0.985255 9.82978 0.701419 10.0827 0.422938C10.3939 0.0801923 10.7747 -0.0858252 11.2471 0.0427044C11.9363 0.230144 12.2281 1.01471 11.8113 1.58238C11.5806 1.89835 11.3055 2.18754 11.0498 2.48477C9.33233 4.47162 7.61765 6.4558 5.90297 8.43998C5.41663 9.00229 4.93029 9.56193 4.44118 10.1216C4.43284 10.1323 4.42173 10.1376 4.40227 10.1537Z" fill="white"/>
</svg>
