<svg width="40" height="40" viewBox="0 0 40 40" fill="none" xmlns="http://www.w3.org/2000/svg">
<path d="M20 0C16.0444 0 12.1776 1.17298 8.88861 3.37061C5.59962 5.56824 3.03618 8.69181 1.52242 12.3463C0.00867236 16.0009 -0.387403 20.0222 0.384301 23.9018C1.15601 27.7814 3.06084 31.3451 5.85788 34.1421C8.65493 36.9392 12.2186 38.844 16.0982 39.6157C19.9778 40.3874 23.9991 39.9913 27.6537 38.4776C31.3082 36.9638 34.4318 34.4004 36.6294 31.1114C38.827 27.8224 40 23.9556 40 20C39.9845 14.7004 37.8724 9.62237 34.125 5.875C30.3776 2.12763 25.2996 0.0155121 20 0ZM15.8942 30.6635L5.64424 20.4135L8.51925 17.5385L15.9039 24.9231L31.4904 9.33653L34.3654 12.2115L15.8942 30.6635Z" fill="#5ECBAD"/>
</svg>
