<svg width="21" height="20" viewBox="0 0 21 20" fill="none" xmlns="http://www.w3.org/2000/svg">
<path d="M9.07341 1.39058C9.52244 0.00861144 11.4776 0.00860977 11.9266 1.39058L13.1942 5.29179C13.395 5.90983 13.9709 6.32827 14.6208 6.32827H18.7227C20.1758 6.32827 20.78 8.18769 19.6044 9.04179L16.2858 11.4529C15.7601 11.8348 15.5401 12.5119 15.7409 13.1299L17.0085 17.0312C17.4575 18.4131 15.8758 19.5623 14.7003 18.7082L11.3817 16.2971C10.8559 15.9152 10.1441 15.9152 9.61832 16.2971L6.29975 18.7082C5.12418 19.5623 3.54246 18.4131 3.99148 17.0312L5.25907 13.1299C5.45988 12.5119 5.23989 11.8348 4.71416 11.4529L1.39559 9.0418C0.220015 8.18769 0.824177 6.32827 2.27726 6.32827H6.37925C7.02909 6.32827 7.60502 5.90983 7.80583 5.2918L9.07341 1.39058Z" fill="#FFF388"/>
</svg>
