<svg width="29" height="29" viewBox="0 0 29 29" fill="none" xmlns="http://www.w3.org/2000/svg">
<path d="M13.5489 1.54508C13.8483 0.623774 15.1517 0.623773 15.4511 1.54508L17.8412 8.90122C18.109 9.72526 18.8769 10.2832 19.7433 10.2832H27.478C28.4467 10.2832 28.8495 11.5228 28.0658 12.0922L21.8083 16.6385C21.1073 17.1478 20.814 18.0506 21.0818 18.8746L23.4719 26.2307C23.7713 27.1521 22.7168 27.9182 21.9331 27.3488L15.6756 22.8024C14.9746 22.2932 14.0254 22.2932 13.3244 22.8024L7.06693 27.3488C6.28321 27.9182 5.22873 27.1521 5.52809 26.2307L7.91824 18.8746C8.18599 18.0506 7.89267 17.1478 7.1917 16.6385L0.934194 12.0922C0.150481 11.5228 0.553256 10.2832 1.52198 10.2832H9.25668C10.1231 10.2832 10.891 9.72527 11.1588 8.90122L13.5489 1.54508Z" stroke="#FFF388"/>
</svg>
