<svg width="29" height="29" viewBox="0 0 29 29" fill="none" xmlns="http://www.w3.org/2000/svg">
<path d="M13.0734 1.39057C13.5224 0.00860906 15.4776 0.00860977 15.9266 1.39058L18.3167 8.74671C18.5175 9.36475 19.0935 9.78319 19.7433 9.78319H27.478C28.9311 9.78319 29.5353 11.6426 28.3597 12.4967L22.1022 17.0431C21.5765 17.425 21.3565 18.1021 21.5573 18.7201L23.9474 26.0762C24.3965 27.4582 22.8148 28.6074 21.6392 27.7533L15.3817 23.2069C14.8559 22.825 14.1441 22.825 13.6183 23.2069L7.36082 27.7533C6.18525 28.6074 4.60353 27.4582 5.05256 26.0762L7.44271 18.7201C7.64352 18.1021 7.42354 17.425 6.8978 17.0431L0.640301 12.4967C-0.535269 11.6426 0.0688949 9.78319 1.52198 9.78319H9.25668C9.90652 9.78319 10.4825 9.36475 10.6833 8.74671L13.0734 1.39057Z" fill="#FFF388"/>
</svg>
