<svg width="143" height="44" viewBox="0 0 143 44" fill="none" xmlns="http://www.w3.org/2000/svg">
<path d="M11.8879 15.1395H8.86441V8.97236H3.19783V15.1395H0.174316V0.842921H3.19783V6.44943H8.86441V0.842921H11.8879V15.1395Z" fill="#F04C41"/>
<path d="M28.4601 7.9712C28.4601 9.07915 28.32 10.087 28.0396 10.9947C27.7727 11.8891 27.3589 12.6633 26.7982 13.3174C26.2509 13.9715 25.5434 14.4721 24.6757 14.8192C23.8214 15.1662 22.8136 15.3398 21.6522 15.3398C20.4909 15.3398 19.4764 15.1662 18.6087 14.8192C17.7544 14.4587 17.0469 13.9582 16.4862 13.3174C15.9389 12.6633 15.5251 11.8824 15.2448 10.9747C14.9778 10.067 14.8443 9.05913 14.8443 7.95118C14.8443 6.46946 15.0846 5.18129 15.5652 4.08669C16.0591 2.99208 16.8066 2.14443 17.8078 1.54374C18.8223 0.929689 20.1104 0.622665 21.6723 0.622665C23.2207 0.622665 24.4955 0.929689 25.4967 1.54374C26.4979 2.14443 27.2387 2.99876 27.7193 4.10671C28.2132 5.20132 28.4601 6.48948 28.4601 7.9712ZM18.028 7.9712C18.028 8.97236 18.1548 9.83336 18.4085 10.5542C18.6621 11.275 19.0559 11.829 19.5898 12.2161C20.1238 12.6032 20.8113 12.7968 21.6522 12.7968C22.5199 12.7968 23.214 12.6032 23.7346 12.2161C24.2686 11.829 24.6557 11.275 24.896 10.5542C25.1496 9.83336 25.2764 8.97236 25.2764 7.9712C25.2764 6.46278 24.9961 5.28141 24.4355 4.42708C23.8748 3.57276 22.9537 3.1456 21.6723 3.1456C20.8179 3.1456 20.1238 3.33915 19.5898 3.72627C19.0559 4.11339 18.6621 4.66736 18.4085 5.3882C18.1548 6.10904 18.028 6.97004 18.028 7.9712Z" fill="#F04C41"/>
<path d="M35.8667 0.842921C37.1348 0.842921 38.1961 0.96306 39.0504 1.20334C39.9181 1.43027 40.5655 1.81071 40.9927 2.34466C41.4332 2.86527 41.6534 3.57276 41.6534 4.46713C41.6534 5.00108 41.5667 5.48832 41.3931 5.92883C41.2196 6.36934 40.966 6.72976 40.6322 7.01008C40.3119 7.29041 39.9181 7.47062 39.4509 7.55071V7.65083C39.9314 7.74427 40.3653 7.91113 40.7524 8.15141C41.1395 8.39169 41.4465 8.73876 41.6735 9.19262C41.9004 9.64648 42.0138 10.2472 42.0138 10.9947C42.0138 11.8624 41.8003 12.6099 41.3731 13.2373C40.9593 13.8514 40.3586 14.3252 39.571 14.659C38.7834 14.9793 37.849 15.1395 36.7678 15.1395H31.4215V0.842921H35.8667ZM36.2071 6.5095C37.0881 6.5095 37.6955 6.36934 38.0292 6.08901C38.3763 5.80869 38.5498 5.40155 38.5498 4.8676C38.5498 4.32029 38.3496 3.9265 37.9491 3.68622C37.5487 3.44594 36.9146 3.3258 36.0469 3.3258H34.4451V6.5095H36.2071ZM34.4451 8.91229V12.6366H36.4274C37.3351 12.6366 37.9692 12.4631 38.3296 12.116C38.69 11.7556 38.8702 11.2817 38.8702 10.6944C38.8702 10.3339 38.7901 10.0202 38.6299 9.75327C38.4831 9.48629 38.2228 9.27939 37.849 9.13255C37.4752 8.98571 36.968 8.91229 36.3272 8.91229H34.4451Z" fill="#F04C41"/>
<path d="M57.8497 7.9712C57.8497 9.07915 57.7096 10.087 57.4293 10.9947C57.1623 11.8891 56.7485 12.6633 56.1878 13.3174C55.6405 13.9715 54.933 14.4721 54.0653 14.8192C53.211 15.1662 52.2032 15.3398 51.0418 15.3398C49.8805 15.3398 48.866 15.1662 47.9983 14.8192C47.144 14.4587 46.4365 13.9582 45.8758 13.3174C45.3285 12.6633 44.9147 11.8824 44.6344 10.9747C44.3674 10.067 44.2339 9.05913 44.2339 7.95118C44.2339 6.46946 44.4742 5.18129 44.9548 4.08669C45.4487 2.99208 46.1962 2.14443 47.1974 1.54374C48.2119 0.929689 49.5 0.622665 51.0619 0.622665C52.6103 0.622665 53.8851 0.929689 54.8863 1.54374C55.8875 2.14443 56.6283 2.99876 57.1089 4.10671C57.6028 5.20132 57.8497 6.48948 57.8497 7.9712ZM47.4176 7.9712C47.4176 8.97236 47.5444 9.83336 47.7981 10.5542C48.0517 11.275 48.4455 11.829 48.9794 12.2161C49.5134 12.6032 50.2009 12.7968 51.0418 12.7968C51.9095 12.7968 52.6036 12.6032 53.1243 12.2161C53.6582 11.829 54.0453 11.275 54.2856 10.5542C54.5392 9.83336 54.666 8.97236 54.666 7.9712C54.666 6.46278 54.3857 5.28141 53.8251 4.42708C53.2644 3.57276 52.3433 3.1456 51.0619 3.1456C50.2075 3.1456 49.5134 3.33915 48.9794 3.72627C48.4455 4.11339 48.0517 4.66736 47.7981 5.3882C47.5444 6.10904 47.4176 6.97004 47.4176 7.9712Z" fill="#F04C41"/>
<path d="M69.8416 0.842921V3.34583H63.8347V15.1395H60.8111V0.842921H69.8416Z" fill="#F04C41"/>
<path d="M84.6191 7.9712C84.6191 9.07915 84.4789 10.087 84.1986 10.9947C83.9316 11.8891 83.5178 12.6633 82.9572 13.3174C82.4099 13.9715 81.7024 14.4721 80.8347 14.8192C79.9804 15.1662 78.9726 15.3398 77.8112 15.3398C76.6499 15.3398 75.6353 15.1662 74.7677 14.8192C73.9133 14.4587 73.2059 13.9582 72.6452 13.3174C72.0979 12.6633 71.6841 11.8824 71.4038 10.9747C71.1368 10.067 71.0033 9.05913 71.0033 7.95118C71.0033 6.46946 71.2436 5.18129 71.7241 4.08669C72.218 2.99208 72.9656 2.14443 73.9667 1.54374C74.9813 0.929689 76.2694 0.622665 77.8312 0.622665C79.3797 0.622665 80.6545 0.929689 81.6557 1.54374C82.6568 2.14443 83.3977 2.99876 83.8783 4.10671C84.3722 5.20132 84.6191 6.48948 84.6191 7.9712ZM74.187 7.9712C74.187 8.97236 74.3138 9.83336 74.5674 10.5542C74.8211 11.275 75.2149 11.829 75.7488 12.2161C76.2828 12.6032 76.9702 12.7968 77.8112 12.7968C78.6789 12.7968 79.373 12.6032 79.8936 12.2161C80.4276 11.829 80.8147 11.275 81.055 10.5542C81.3086 9.83336 81.4354 8.97236 81.4354 7.9712C81.4354 6.46278 81.1551 5.28141 80.5944 4.42708C80.0338 3.57276 79.1127 3.1456 77.8312 3.1456C76.9769 3.1456 76.2828 3.33915 75.7488 3.72627C75.2149 4.11339 74.8211 4.66736 74.5674 5.3882C74.3138 6.10904 74.187 6.97004 74.187 7.9712Z" fill="#F04C41"/>
<path d="M98.3824 0.842921V12.6166H100.285V19.3044H97.3613V15.1395H88.4109V19.3044H85.4875V12.6166H86.5887C86.9625 11.8691 87.3229 11.0815 87.67 10.2539C88.0171 9.42622 88.3374 8.53853 88.6311 7.59076C88.9381 6.64299 89.2118 5.61513 89.4521 4.50718C89.6923 3.38588 89.8926 2.16446 90.0528 0.842921H98.3824ZM92.4556 3.36585C92.3621 4.05999 92.2286 4.80085 92.0551 5.58843C91.8816 6.36267 91.6747 7.15692 91.4344 7.9712C91.2074 8.78548 90.9538 9.58641 90.6735 10.374C90.3932 11.1616 90.0928 11.9091 89.7724 12.6166H95.3589V3.36585H92.4556Z" fill="#F04C41"/>
<path d="M114.194 15.1395H111.171V8.97236H105.504V15.1395H102.481V0.842921H105.504V6.44943H111.171V0.842921H114.194V15.1395Z" fill="#F04C41"/>
<path d="M117.791 0.842921H120.515V7.75094C120.515 8.08467 120.508 8.45843 120.495 8.87225C120.481 9.28606 120.468 9.6932 120.454 10.0937C120.441 10.4808 120.428 10.8212 120.414 11.1149C120.401 11.3952 120.388 11.5887 120.374 11.6955H120.434L127.042 0.842921H130.666V15.1395H127.963V8.27155C127.963 7.91113 127.97 7.51734 127.983 7.09018C127.997 6.64966 128.01 6.22918 128.023 5.82871C128.05 5.42825 128.07 5.08118 128.083 4.7875C128.11 4.48048 128.13 4.28025 128.143 4.1868H128.063L121.436 15.1395H117.791V0.842921Z" fill="#F04C41"/>
<path d="M142.505 15.1395H134.275V0.842921H142.505V3.3258H137.299V6.46946H142.145V8.95234H137.299V12.6366H142.505V15.1395Z" fill="#F04C41"/>
<path d="M0.174316 38.9767V24.6801H11.4875V38.9767H8.46394V27.2031H3.19783V38.9767H0.174316Z" fill="#F04C41"/>
<path d="M28.0691 31.8084C28.0691 32.9164 27.9289 33.9242 27.6486 34.8319C27.3816 35.7263 26.9678 36.5005 26.4071 37.1546C25.8598 37.8087 25.1523 38.3093 24.2847 38.6564C23.4303 39.0034 22.4225 39.177 21.2612 39.177C20.0998 39.177 19.0853 39.0034 18.2176 38.6564C17.3633 38.2959 16.6558 37.7954 16.0952 37.1546C15.5478 36.5005 15.134 35.7196 14.8537 34.8119C14.5867 33.9042 14.4532 32.8963 14.4532 31.7884C14.4532 30.3067 14.6935 29.0185 15.1741 27.9239C15.668 26.8293 16.4155 25.9816 17.4167 25.3809C18.4312 24.7669 19.7194 24.4599 21.2812 24.4599C22.8296 24.4599 24.1045 24.7669 25.1056 25.3809C26.1068 25.9816 26.8476 26.836 27.3282 27.9439C27.8221 29.0385 28.0691 30.3267 28.0691 31.8084ZM17.6369 31.8084C17.6369 32.8096 17.7638 33.6706 18.0174 34.3914C18.271 35.1122 18.6648 35.6662 19.1988 36.0533C19.7327 36.4405 20.4202 36.634 21.2612 36.634C22.1288 36.634 22.823 36.4405 23.3436 36.0533C23.8775 35.6662 24.2646 35.1122 24.5049 34.3914C24.7585 33.6706 24.8854 32.8096 24.8854 31.8084C24.8854 30.3 24.605 29.1186 24.0444 28.2643C23.4837 27.41 22.5627 26.9828 21.2812 26.9828C20.4268 26.9828 19.7327 27.1764 19.1988 27.5635C18.6648 27.9506 18.271 28.5046 18.0174 29.2254C17.7638 29.9462 17.6369 30.8072 17.6369 31.8084Z" fill="#F04C41"/>
<path d="M41.8324 24.6801V36.4538H43.7346V43.1416H40.8112V38.9767H31.8608V43.1416H28.9374V36.4538H30.0387C30.4125 35.7063 30.7729 34.9187 31.1199 34.0911C31.467 33.2634 31.7874 32.3757 32.0811 31.428C32.3881 30.4802 32.6617 29.4523 32.902 28.3444C33.1423 27.2231 33.3425 26.0017 33.5027 24.6801H41.8324ZM35.9055 27.2031C35.8121 27.8972 35.6786 28.6381 35.505 29.4256C35.3315 30.1999 35.1246 30.9941 34.8843 31.8084C34.6574 32.6227 34.4038 33.4236 34.1234 34.2112C33.8431 34.9988 33.5428 35.7463 33.2224 36.4538H38.8089V27.2031H35.9055Z" fill="#F04C41"/>
<path d="M54.6807 38.9767L53.6395 35.5728H48.4335L47.3923 38.9767H44.1285L49.1744 24.6201H52.8787L57.9445 38.9767H54.6807ZM51.8775 29.706C51.8107 29.479 51.724 29.192 51.6172 28.845C51.5104 28.4979 51.4036 28.1442 51.2968 27.7837C51.19 27.4233 51.1033 27.1096 51.0365 26.8426C50.9698 27.1096 50.8763 27.4433 50.7562 27.8438C50.6494 28.2309 50.5426 28.6047 50.4358 28.9651C50.3424 29.3122 50.269 29.5591 50.2156 29.706L49.1944 33.0298H52.9187L51.8775 29.706Z" fill="#F04C41"/>
<path d="M64.3205 24.6801C66.1627 24.6801 67.5042 25.0806 68.3452 25.8815C69.1995 26.6691 69.6267 27.757 69.6267 29.1453C69.6267 29.7727 69.5333 30.3734 69.3464 30.9474C69.1595 31.5081 68.8458 32.0153 68.4053 32.4692C67.9781 32.9097 67.4108 33.2568 66.7033 33.5104C65.9958 33.764 65.1215 33.8908 64.0803 33.8908H62.7787V38.9767H59.7552V24.6801H64.3205ZM64.1604 27.163H62.7787V31.4079H63.7799C64.3539 31.4079 64.8478 31.3345 65.2616 31.1877C65.6754 31.0409 65.9958 30.8072 66.2227 30.4869C66.4497 30.1665 66.5631 29.7527 66.5631 29.2454C66.5631 28.5379 66.3696 28.0173 65.9825 27.6836C65.5953 27.3365 64.988 27.163 64.1604 27.163Z" fill="#F04C41"/>
<path d="M83.982 38.9767H80.538L75.3519 31.7283V38.9767H72.3284V24.6801H75.3519V31.6082L80.4779 24.6801H83.7016L78.4956 31.5481L83.982 38.9767Z" fill="#F04C41"/>
<path d="M85.7816 24.6801H88.5047V31.5882C88.5047 31.9219 88.498 32.2956 88.4847 32.7095C88.4713 33.1233 88.458 33.5304 88.4446 33.9309C88.4313 34.318 88.4179 34.6584 88.4046 34.9521C88.3913 35.2324 88.3779 35.4259 88.3646 35.5327H88.4246L95.0323 24.6801H98.6565V38.9767H95.9534V32.1088C95.9534 31.7483 95.96 31.3545 95.9734 30.9274C95.9867 30.4869 96.0001 30.0664 96.0134 29.6659C96.0401 29.2655 96.0602 28.9184 96.0735 28.6247C96.1002 28.3177 96.1202 28.1175 96.1336 28.024H96.0535L89.4258 38.9767H85.7816V24.6801Z" fill="#F04C41"/>
</svg>
