<svg width="20" height="20" viewBox="0 0 20 20" fill="none" xmlns="http://www.w3.org/2000/svg">
<g clip-path="url(#clip0_1501_1544)">
<path d="M12.0003 0H7.99977C4.13942 0 0.998871 3.14055 0.998871 7.0009V10.0013C0.998871 12.7115 2.56192 15.171 4.99938 16.3279V19.6692C4.99938 19.9593 5.36231 20.111 5.56848 19.9049L8.47117 17.0022H12.0002C15.8605 17.0022 19.0011 13.8616 19.0011 10.0013V7.0009C19.0011 3.14055 15.8605 0 12.0003 0Z" fill="#665CAC"/>
<path d="M15.0332 12.4258L14.7335 10.8021C14.7087 10.668 14.6048 10.5625 14.471 10.5357L12.1137 10.0643C12.0042 10.0425 11.8914 10.0767 11.8125 10.1554L10.8548 11.1132C9.24124 10.3902 8.3457 9.49267 7.55773 7.80982L8.51234 6.85525C8.59113 6.77642 8.62535 6.66337 8.60351 6.55408L8.13207 4.19673C8.10531 4.06302 7.9998 3.95904 7.86566 3.93427L6.24199 3.63458C6.19754 3.62642 6.15175 3.62728 6.10761 3.63732C5.6789 3.7347 5.28773 3.95072 4.97636 4.26216C4.43722 4.8013 4.23117 5.58802 4.38054 6.53728C4.63129 8.13127 5.41222 10.3495 6.85304 11.7961L6.87273 11.8157C8.3182 13.2555 10.5365 14.0365 12.1306 14.2873C12.3314 14.3189 12.5248 14.3346 12.7103 14.3346C13.4015 14.3346 13.9806 14.1165 14.4058 13.6914C14.7171 13.38 14.9332 12.9888 15.0306 12.5602C15.0405 12.516 15.0414 12.4703 15.0332 12.4258Z" fill="white"/>
<path d="M8.18638 7.18119L8.51232 6.85521L8.51267 6.85486L8.18634 7.18115L8.18638 7.18119Z" fill="#E5E5E5"/>
<path d="M11.8126 10.1551L11.4834 10.4842L11.4835 10.4843L11.8126 10.1551L11.8126 10.1551Z" fill="#E5E5E5"/>
<path d="M13.3388 13.7059C13.1533 13.7059 12.9599 13.6902 12.7591 13.6586C11.1651 13.4078 8.94676 12.6268 7.50125 11.187L7.48156 11.1674C6.04074 9.72085 5.25981 7.50256 5.00906 5.90858C4.8884 5.14166 4.99996 4.48092 5.33156 3.97104C5.20457 4.05577 5.08539 4.15295 4.97621 4.26213C4.43707 4.80127 4.23102 5.58799 4.38039 6.53725C4.63113 8.13124 5.41207 10.3495 6.85289 11.7961L6.87258 11.8157C8.31805 13.2555 10.5364 14.0365 12.1304 14.2873C12.3313 14.3189 12.5246 14.3346 12.7101 14.3346C13.4013 14.3346 13.9804 14.1166 14.4056 13.6914C14.5148 13.5822 14.612 13.4631 14.6967 13.3361C14.3202 13.5809 13.8616 13.7059 13.3388 13.7059Z" fill="#E5E5E5"/>
<path d="M10.6668 5.66733C10.4827 5.66733 10.3334 5.81659 10.3334 6.00069C10.3334 6.18479 10.4827 6.33405 10.6668 6.33405C11.4021 6.33405 12.0003 6.93225 12.0003 7.66756C12.0003 7.84921 12.152 8.00092 12.3336 8.00092C12.5153 8.00092 12.667 7.84921 12.667 7.66756C12.667 6.56459 11.7697 5.66733 10.6668 5.66733Z" fill="white"/>
<path d="M10.6668 4.33383C10.5435 4.33383 10.419 4.34067 10.2968 4.35414C10.1138 4.37434 9.98181 4.53907 10.002 4.72211C10.0222 4.90516 10.1873 5.0368 10.37 5.01692C10.4679 5.0061 10.5678 5.00059 10.6668 5.00059C12.1374 5.00059 13.3338 6.197 13.3338 7.66758C13.3338 7.7666 13.3283 7.86645 13.3174 7.96442C13.2975 8.14492 13.4317 8.3125 13.6123 8.33238C13.7928 8.35227 13.9603 8.21817 13.9802 8.03758C13.9937 7.91539 14.0005 7.79094 14.0005 7.66758C14.0005 5.82938 12.505 4.33383 10.6668 4.33383Z" fill="white"/>
<path d="M10.6672 3.0004C10.5481 3.0004 10.4274 3.00493 10.3087 3.01395C10.1251 3.02786 9.98749 3.18801 10.0014 3.37157C10.0153 3.55516 10.176 3.69274 10.359 3.67883C10.4611 3.67106 10.5648 3.66715 10.6672 3.66715C12.8731 3.66715 14.6677 5.46176 14.6677 7.66766C14.6677 7.97977 14.6317 8.29048 14.5607 8.5911C14.5199 8.76337 14.626 8.94243 14.7969 8.98923C14.9766 9.03844 15.1667 8.92575 15.2096 8.74446C15.2924 8.39364 15.3345 8.03137 15.3345 7.66766C15.3345 5.09411 13.2408 3.0004 10.6672 3.0004Z" fill="white"/>
</g>
<defs>
<clipPath id="clip0_1501_1544">
<rect width="20" height="20" fill="white"/>
</clipPath>
</defs>
</svg>
