<svg width="38" height="39" viewBox="0 0 38 39" fill="none" xmlns="http://www.w3.org/2000/svg">
<g clip-path="url(#clip0_1791_9663)">
<path d="M22.8006 0.5H15.1997C7.86499 0.5 1.89795 6.46704 1.89795 13.8017V19.5024C1.89795 24.6518 4.86774 29.3249 9.49891 31.523V37.8714C9.49891 38.4227 10.1885 38.7109 10.5802 38.3194L16.0953 32.8042H22.8005C30.1351 32.8042 36.1022 26.8371 36.1022 19.5024V13.8017C36.1022 6.46704 30.1351 0.5 22.8006 0.5Z" fill="#665CAC"/>
<path d="M28.563 24.109L27.9936 21.024C27.9464 20.7692 27.749 20.5687 27.4949 20.5179L23.016 19.6221C22.808 19.5807 22.5936 19.6456 22.4438 19.7953L20.6242 21.615C17.5583 20.2413 15.8568 18.5361 14.3597 15.3386L16.1734 13.525C16.3231 13.3752 16.3881 13.1604 16.3466 12.9527L15.4509 8.47378C15.4001 8.21973 15.1996 8.02216 14.9447 7.97511L11.8598 7.4057C11.7753 7.39019 11.6883 7.39182 11.6044 7.4109C10.7899 7.59592 10.0467 8.00635 9.45507 8.5981C8.4307 9.62247 8.0392 11.1172 8.32301 12.9208C8.79942 15.9494 10.2832 20.1641 13.0208 22.9127L13.0582 22.9498C15.8046 25.6854 20.0194 27.1693 23.0481 27.6458C23.4296 27.7059 23.7971 27.7357 24.1495 27.7357C25.4628 27.7357 26.5631 27.3214 27.3709 26.5137C27.9625 25.922 28.3731 25.1788 28.5581 24.3644C28.5768 24.2805 28.5786 24.1936 28.563 24.109Z" fill="white"/>
<path d="M15.554 14.1442L16.1733 13.5249L16.174 13.5242L15.554 14.1442L15.554 14.1442Z" fill="#E5E5E5"/>
<path d="M22.4439 19.7947L21.8186 20.42L21.8187 20.4201L22.444 19.7948L22.4439 19.7947Z" fill="#E5E5E5"/>
<path d="M25.3437 26.5412C24.9913 26.5412 24.6239 26.5114 24.2423 26.4513C21.2137 25.9748 16.9989 24.4909 14.2524 21.7553L14.215 21.7182C11.4774 18.9696 9.99365 14.7549 9.51724 11.7263C9.28798 10.2692 9.49995 9.01375 10.13 8.04498C9.88871 8.20596 9.66227 8.39061 9.45482 8.59805C8.43046 9.62242 8.03895 11.1172 8.32277 12.9208C8.79918 15.9493 10.283 20.1641 13.0205 22.9126L13.0579 22.9497C15.8043 25.6854 20.0191 27.1693 23.0478 27.6458C23.4294 27.7059 23.7969 27.7357 24.1492 27.7357C25.4625 27.7357 26.5628 27.3214 27.3707 26.5137C27.5781 26.3062 27.7627 26.0798 27.9237 25.8386C27.2085 26.3038 26.3371 26.5412 25.3437 26.5412Z" fill="#E5E5E5"/>
<path d="M20.2669 11.2679C19.9171 11.2679 19.6335 11.5515 19.6335 11.9013C19.6335 12.2511 19.9171 12.5347 20.2669 12.5347C21.664 12.5347 22.8006 13.6713 22.8006 15.0684C22.8006 15.4135 23.0889 15.7018 23.434 15.7018C23.7791 15.7018 24.0674 15.4135 24.0674 15.0684C24.0674 12.9727 22.3626 11.2679 20.2669 11.2679Z" fill="white"/>
<path d="M20.2669 8.73426C20.0326 8.73426 19.7962 8.74725 19.564 8.77285C19.2163 8.81123 18.9655 9.12421 19.0039 9.47199C19.0422 9.81978 19.3559 10.0699 19.703 10.0321C19.8892 10.0116 20.0789 10.0011 20.2669 10.0011C23.0611 10.0011 25.3342 12.2743 25.3342 15.0684C25.3342 15.2565 25.3238 15.4462 25.3032 15.6324C25.2654 15.9753 25.5202 16.2937 25.8633 16.3315C26.2064 16.3693 26.5246 16.1145 26.5625 15.7714C26.5881 15.5392 26.6011 15.3028 26.6011 15.0684C26.6011 11.5758 23.7596 8.73426 20.2669 8.73426Z" fill="white"/>
<path d="M20.2674 6.20074C20.041 6.20074 19.8118 6.20935 19.5861 6.2265C19.2373 6.25292 18.9759 6.55722 19.0023 6.90597C19.0287 7.2548 19.334 7.5162 19.6818 7.48978C19.8757 7.47501 20.0728 7.46758 20.2674 7.46758C24.4586 7.46758 27.8683 10.8773 27.8683 15.0686C27.8683 15.6616 27.7999 16.2519 27.665 16.8231C27.5876 17.1504 27.7891 17.4906 28.1137 17.5795C28.4552 17.673 28.8165 17.4589 28.8978 17.1145C29.0553 16.4479 29.1352 15.7596 29.1352 15.0686C29.1352 10.1788 25.1571 6.20074 20.2674 6.20074Z" fill="white"/>
</g>
<defs>
<clipPath id="clip0_1791_9663">
<rect width="38" height="38" fill="white" transform="translate(0 0.5)"/>
</clipPath>
</defs>
</svg>
