<svg width="36" height="38" viewBox="0 0 36 38" fill="none" xmlns="http://www.w3.org/2000/svg">
<g clip-path="url(#clip0_1791_9660)">
<path d="M18.0045 0.5H17.9955C8.07075 0.5 0 8.79725 0 19C0 23.0469 1.269 26.7978 3.42675 29.8433L1.1835 36.7161L8.10225 34.4429C10.9485 36.3808 14.3438 37.5 18.0045 37.5C27.9292 37.5 36 29.2004 36 19C36 8.79956 27.9292 0.5 18.0045 0.5Z" fill="#4CAF50"/>
<path d="M28.4783 26.6243C28.044 27.8846 26.3205 28.9299 24.9458 29.2351C24.0053 29.4409 22.7768 29.6051 18.6413 27.843C13.3515 25.5906 9.94499 20.0661 9.67949 19.7076C9.42524 19.3492 7.54199 16.7823 7.54199 14.1276C7.54199 11.4728 8.85374 10.1801 9.38249 9.62512C9.81674 9.16956 10.5345 8.96143 11.223 8.96143C11.4457 8.96143 11.646 8.973 11.826 8.98225C12.3547 9.00537 12.6202 9.03775 12.969 9.89568C13.4032 10.971 14.4607 13.6257 14.5867 13.8986C14.715 14.1715 14.8432 14.5415 14.6632 14.8999C14.4945 15.2699 14.346 15.4341 14.0805 15.7486C13.815 16.0631 13.563 16.3036 13.2975 16.6412C13.0545 16.9349 12.78 17.2494 13.086 17.7929C13.392 18.3247 14.4495 20.0984 16.0065 21.5229C18.0158 23.3614 19.6448 23.9487 20.2275 24.1985C20.6618 24.3835 21.1793 24.3396 21.4965 23.9927C21.8993 23.5464 22.3965 22.8064 22.9028 22.0779C23.2628 21.5553 23.7173 21.4906 24.1943 21.6756C24.6803 21.849 27.252 23.1556 27.7808 23.4261C28.3095 23.699 28.6583 23.8285 28.7865 24.0574C28.9125 24.2864 28.9125 25.3617 28.4783 26.6243Z" fill="#FAFAFA"/>
</g>
<defs>
<clipPath id="clip0_1791_9660">
<rect width="36" height="37" fill="white" transform="translate(0 0.5)"/>
</clipPath>
</defs>
</svg>
