<svg width="24" height="15" viewBox="0 0 24 15" fill="none" xmlns="http://www.w3.org/2000/svg">
<path d="M6.53033 0.46967C6.23744 0.176777 5.76256 0.176777 5.46967 0.46967L0.696699 5.24264C0.403805 5.53553 0.403805 6.01041 0.696699 6.3033C0.989592 6.59619 1.46447 6.59619 1.75736 6.3033L6 2.06066L10.2426 6.3033C10.5355 6.59619 11.0104 6.59619 11.3033 6.3033C11.5962 6.01041 11.5962 5.53553 11.3033 5.24264L6.53033 0.46967ZM6.75 14L6.75 1L5.25 1L5.25 14L6.75 14Z" fill="#5ECBAD"/>
<path d="M17.4697 14.5303C17.7626 14.8232 18.2374 14.8232 18.5303 14.5303L23.3033 9.75736C23.5962 9.46447 23.5962 8.98959 23.3033 8.6967C23.0104 8.40381 22.5355 8.40381 22.2426 8.6967L18 12.9393L13.7574 8.6967C13.4645 8.40381 12.9896 8.40381 12.6967 8.6967C12.4038 8.98959 12.4038 9.46447 12.6967 9.75736L17.4697 14.5303ZM17.25 1L17.25 14L18.75 14L18.75 1L17.25 1Z" fill="#5ECBAD"/>
</svg>
