<svg width="21" height="20" viewBox="0 0 21 20" fill="none" xmlns="http://www.w3.org/2000/svg">
<path d="M17.1352 1.07576C17.7293 0.481636 18.6926 0.481636 19.2867 1.07576C19.8808 1.66989 19.8808 2.63317 19.2867 3.2273L4.22599 18.288C3.63186 18.8821 2.66859 18.8821 2.07446 18.288C1.48033 17.6939 1.48033 16.7306 2.07446 16.1365L17.1352 1.07576Z" fill="#C4C4C4"/>
<path d="M2.07576 3.22738C1.48164 2.63325 1.48164 1.66998 2.07576 1.07585C2.66989 0.481718 3.63317 0.481718 4.2273 1.07585L19.288 16.1366C19.8821 16.7307 19.8821 17.694 19.288 18.2881C18.6939 18.8822 17.7306 18.8822 17.1365 18.2881L2.07576 3.22738Z" fill="#C4C4C4"/>
</svg>
