<svg width="40" height="40" viewBox="0 0 40 40" fill="none" xmlns="http://www.w3.org/2000/svg">
<path d="M19.9988 0C11.8511 0 5.22266 6.62842 5.22266 14.7762C5.22266 17.4585 6.42561 20.3433 6.47602 20.465C6.86455 21.3872 7.63117 22.8196 8.18398 23.6593L18.3152 39.01C18.7298 39.6393 19.3435 40 19.9988 40C20.6542 40 21.2679 39.6393 21.6825 39.0109L31.8146 23.6593C32.3682 22.8196 33.134 21.3872 33.5225 20.465C33.5729 20.3442 34.775 17.4594 34.775 14.7762C34.775 6.62842 28.1466 0 19.9988 0ZM31.9197 19.7905C31.5729 20.6171 30.8593 21.9496 30.363 22.7023L20.2309 38.0539C20.031 38.3572 19.9676 38.3572 19.7676 38.0539L9.63552 22.7023C9.13921 21.9496 8.42561 20.6163 8.07881 19.7897C8.06403 19.754 6.96103 17.0987 6.96103 14.7762C6.96103 7.58714 12.8098 1.73837 19.9988 1.73837C27.1879 1.73837 33.0367 7.58714 33.0367 14.7762C33.0367 17.1021 31.931 19.7645 31.9197 19.7905Z" fill="#F04C41"/>
<path d="M19.9985 6.95436C15.6847 6.95436 12.1758 10.4641 12.1758 14.7771C12.1758 19.09 15.6847 22.5997 19.9985 22.5997C24.3122 22.5997 27.8211 19.09 27.8211 14.7771C27.8211 10.4641 24.3122 6.95436 19.9985 6.95436ZM19.9985 20.8614C16.6443 20.8614 13.9142 18.1321 13.9142 14.7771C13.9142 11.422 16.6443 8.69274 19.9985 8.69274C23.3527 8.69274 26.0828 11.422 26.0828 14.7771C26.0828 18.1321 23.3527 20.8614 19.9985 20.8614Z" fill="#F04C41"/>
</svg>
