<svg width="110" height="110" viewBox="0 0 110 110" fill="none" xmlns="http://www.w3.org/2000/svg">
<g clip-path="url(#clip0_1345_7878)">
<path d="M62.1896 37.1292L58.6172 36.4601C58.2708 36.3964 57.9497 36.2356 57.6913 35.9964C57.4328 35.7572 57.2477 35.4494 57.1576 35.1089C57.0674 34.7685 57.0759 34.4095 57.1821 34.0737C57.2882 33.7379 57.4877 33.4392 57.7571 33.2125L58.9093 32.2333L59.9554 31.3471C59.9917 31.3149 60.0298 31.2849 60.0697 31.2573C60.2776 31.1062 60.5148 31.0003 60.766 30.9463C61.0173 30.8924 61.2771 30.8916 61.5287 30.944L61.5776 30.9554C61.6328 30.9676 61.6873 30.9828 61.7408 31.0011C61.9699 31.0778 62.1817 31.1986 62.3642 31.3569C62.3661 31.3575 62.3679 31.3586 62.3693 31.36C62.3707 31.3614 62.3718 31.3632 62.3724 31.365C62.4781 31.4578 62.5728 31.5624 62.6547 31.6768C62.7004 31.7412 62.7424 31.8082 62.7804 31.8775L64.1562 34.4103C64.325 34.7184 64.4031 35.0681 64.3812 35.4188C64.3593 35.7695 64.2383 36.1068 64.0324 36.3915C63.8265 36.6761 63.544 36.8966 63.2178 37.0272C62.8917 37.1578 62.5351 37.1932 62.1896 37.1292Z" fill="#F04C41"/>
<path d="M62.5427 38.1329C62.3643 38.1327 62.1862 38.1164 62.0107 38.084L58.4383 37.4149C57.9118 37.3156 57.4243 37.0691 57.0321 36.704C56.64 36.339 56.3593 35.8702 56.2227 35.3522C56.086 34.8341 56.099 34.288 56.26 33.777C56.4211 33.266 56.7237 32.8111 57.1327 32.4651L59.3229 30.6013C59.3734 30.5573 59.4338 30.5116 59.4861 30.4691C59.8033 30.2379 60.1651 30.075 60.5485 29.9907C60.932 29.9064 61.3287 29.9026 61.7137 29.9796L61.7953 29.9975C61.8813 30.0171 61.9663 30.041 62.0499 30.0693C62.2195 30.1256 62.3834 30.1977 62.5395 30.2847L62.6064 30.2749L63.096 30.7107C63.2264 30.8344 63.3444 30.9705 63.4485 31.117C63.5173 31.2116 63.5794 31.3109 63.6345 31.4141L65.0119 33.9502C65.2459 34.3813 65.3641 34.8657 65.3549 35.3561C65.3457 35.8465 65.2095 36.3262 64.9596 36.7483C64.7097 37.1703 64.3546 37.5204 63.929 37.7642C63.5034 38.008 63.0218 38.1373 62.5313 38.1395L62.5427 38.1329ZM61.1523 31.8857C60.9701 31.8849 60.7923 31.942 60.6448 32.0489L60.5942 32.0881L58.391 33.9551C58.2645 34.0624 58.171 34.2034 58.1213 34.3617C58.0717 34.52 58.0679 34.6892 58.1104 34.8496C58.1529 35.0099 58.24 35.155 58.3616 35.2679C58.4832 35.3808 58.6343 35.4569 58.7974 35.4875L62.3698 36.155C62.5328 36.1855 62.7011 36.1691 62.8553 36.1079C63.0094 36.0467 63.1431 35.943 63.2408 35.809C63.3384 35.6749 63.3962 35.516 63.4072 35.3505C63.4183 35.185 63.3822 35.0197 63.3032 34.8739L62.014 32.5026H61.9944L61.6599 32.0342C61.5908 31.9867 61.5155 31.9489 61.4363 31.9216L61.3791 31.9053L61.34 31.8955H61.3514H61.3318C61.2724 31.8865 61.2123 31.8832 61.1523 31.8857Z" fill="#282828"/>
<path d="M88.3036 30.1951C88.2989 30.2706 88.2989 30.3464 88.3036 30.4219L88.568 33.6761C88.6023 34.0221 88.6741 34.8022 88.0409 35.2787C87.8091 35.4526 87.526 35.5445 87.2363 35.5398C86.9229 35.5277 86.6148 35.4551 86.3289 35.326L83.313 34.071C83.2263 34.0532 83.1369 34.0532 83.0503 34.071L80.2302 35.2493L80.0539 35.3211C79.7275 35.4566 78.9719 35.7601 78.3306 35.2787C77.6892 34.7973 77.7692 34.0221 77.8034 33.6761L78.0678 30.4121C78.0734 30.3383 78.0734 30.2641 78.0678 30.1902L75.8924 27.5692C75.6574 27.3048 75.1433 26.7092 75.375 25.9585C75.6068 25.2078 76.3869 25.0038 76.7165 24.9222L80.0197 24.1062L80.036 24.0784L80.2269 23.752L81.7659 21.1914C81.9291 20.9189 82.3518 20.2123 83.1792 20.2041C84.0082 20.2041 84.4358 20.9189 84.5974 21.1833L86.342 24.0931L89.6451 24.9091C89.9715 24.9907 90.7516 25.1833 90.9866 25.9454C91.2216 26.7075 90.7043 27.2918 90.4676 27.5578L88.3036 30.1951Z" fill="#FFFF83"/>
<path d="M71.7113 49.0768C71.7113 49.6641 71.5413 50.2389 71.2217 50.7316C71.1091 50.8312 70.9949 50.9275 70.8807 51.0238C70.3957 51.4252 69.8884 51.799 69.3613 52.1433C69.0953 52.3179 68.826 52.4844 68.5453 52.6459L67.9398 52.8891L67.7212 52.9772L67.6314 53.0115C67.4992 53.0621 65.8966 53.1013 65.8966 53.1013C65.7898 53.0489 65.6862 52.99 65.5865 52.925C65.504 52.8663 65.428 52.799 65.3597 52.7243C65.2781 52.6405 65.2073 52.5467 65.1492 52.4452L65.1247 52.4044C65.0304 52.2255 64.9674 52.0318 64.9386 51.8316C64.9033 51.5607 64.9033 51.2864 64.9386 51.0156L64.9843 50.4689L65.2536 47.262C65.5963 46.8092 66.0408 46.4433 66.5511 46.1941C67.0615 45.9449 67.6233 45.8193 68.1912 45.8275C70.1299 45.821 71.7113 47.2784 71.7113 49.0768Z" fill="#FFFF83"/>
<path d="M20.9647 62.1541L11.3605 61.689C11.3605 61.689 5.59961 56.4666 5.59961 55.9281C5.59961 55.3895 8.28748 48.2904 8.28748 48.2904L16.1977 47.6735L23.0341 51.6278L27.9137 49.4948C27.9137 49.4948 26.7974 44.1778 27.0275 43.7176C27.2576 43.2574 28.6399 38.8788 28.6399 38.8788L32.3265 34.7988C32.3265 34.7988 38.0107 35.1138 38.2408 35.2688C38.471 35.4239 41.0805 38.4169 41.3889 38.5703C41.6974 38.7237 43.078 42.2586 43.0013 42.7188C42.9246 43.179 41.0429 47.9412 41.0429 47.9412L36.4734 52.6266C36.4734 52.6266 38.9214 57.8489 38.9214 58.1557C38.9214 58.4625 40.3053 62.3613 40.3053 62.3613L28.1715 69.0786L20.9647 62.1541Z" fill="#F04C41"/>
<path d="M68.6797 64.3474H38.5174L55.1832 55.0598C56.0205 54.59 56.6378 53.808 56.9005 52.8846C57.1631 51.9612 57.0497 50.9713 56.5851 50.1312L54.1012 45.6775C53.9067 45.3305 53.6563 45.0179 53.3603 44.7522H48.324L42.2383 48.1434C42.7852 47.0648 43.2063 45.927 43.4933 44.7522H40.9605C40.4073 46.6127 39.3285 48.6167 37.7308 50.6551L36.2539 51.4792L35.1882 49.5616C34.9177 49.0754 34.5617 48.6419 34.1372 48.2822C34.3608 47.0668 34.7267 45.882 35.2274 44.7522H32.577C32.2734 45.5617 32.0274 46.3918 31.841 47.2361C30.8161 47.0714 29.7657 47.2571 28.8594 47.7632L28.4367 47.9998C28.381 46.9172 28.4017 45.8319 28.4987 44.7522H26.0328C25.9175 46.2738 25.9306 47.8024 26.072 49.3217L24.5934 50.1459C18.3478 45.5029 12.2377 44.5547 8.13813 47.6294C6.69798 48.7062 5.65162 50.2265 5.16006 51.9562C4.66851 53.686 4.759 55.5293 5.41762 57.2026C6.81296 60.6852 10.3021 62.8068 15.1067 63.2556L8.01083 67.2164C7.17344 67.6852 6.55593 68.4668 6.29349 69.3899C6.03105 70.313 6.14508 71.3025 6.61059 72.1417L9.09447 76.5987C9.5642 77.4364 10.3467 78.054 11.2707 78.3161C12.1948 78.5782 13.185 78.4636 14.0247 77.9973L22.0214 73.5403V93.4766C22.0231 94.6301 22.4827 95.7357 23.2991 96.5506C24.1155 97.3655 25.222 97.823 26.3755 97.8226H67.3039C68.4563 97.8213 69.5611 97.363 70.3761 96.5483C71.1911 95.7336 71.6498 94.629 71.6515 93.4766V67.3208C71.6511 66.5327 71.3379 65.7768 70.7807 65.2193C70.2235 64.6619 69.4679 64.3482 68.6797 64.3474ZM35.3073 54.8085L38.9417 61.3119L33.411 64.3833C33.2172 64.4358 33.0394 64.5357 32.8936 64.6738L27.89 67.4677L24.2621 60.9561L35.3073 54.8085ZM22.8504 53.9174L30.0524 49.9027C30.3767 49.7219 30.7418 49.627 31.1131 49.6269C31.3195 49.6269 31.5249 49.6555 31.7235 49.7118C32.002 49.7892 32.2623 49.9213 32.4893 50.1003C32.7162 50.2794 32.9053 50.5018 33.0454 50.7546L34.1144 52.6689L23.0707 58.8248L21.9985 56.9023C21.7895 56.5294 21.6963 56.1027 21.7309 55.6767C21.7301 55.6647 21.7301 55.6527 21.7309 55.6408C21.7428 55.5064 21.768 55.3736 21.806 55.2442C21.8828 54.9646 22.0147 54.7031 22.1941 54.4752C22.3735 54.2474 22.5966 54.0577 22.8504 53.9174ZM7.69097 56.2985C7.22893 55.1245 7.16621 53.8311 7.51249 52.6179C7.85877 51.4047 8.59479 50.3393 9.60691 49.5861C12.6081 47.334 17.2462 48.0504 22.2286 51.4613L21.6607 51.7779C20.7698 52.271 20.0679 53.0459 19.6648 53.981C18.0475 53.4719 16.5967 53.1928 14.5175 52.9643C14.1936 52.9288 13.8688 53.0235 13.6146 53.2275C13.3604 53.4315 13.1977 53.7281 13.1622 54.052C13.1267 54.376 13.2213 54.7008 13.4253 54.955C13.6293 55.2092 13.9259 55.3719 14.2499 55.4074C16.5347 55.6571 17.8827 55.9688 19.309 56.4486C19.3845 57.0299 19.57 57.5916 19.8557 58.1034L20.928 60.0243L19.5914 60.7684C13.522 61.4245 9.07652 59.7664 7.69097 56.2985Z" fill="#5ECBAD"/>
<path d="M52.4531 65.627H41.0488V95.3763H52.4531V65.627Z" fill="#F04C41"/>
<path d="M68.6792 64.3474H38.5169L55.1827 55.0598C56.02 54.59 56.6373 53.808 56.9 52.8846C57.1626 51.9612 57.0493 50.9713 56.5846 50.1312L54.1007 45.6775C53.631 44.8397 52.8484 44.2222 51.9243 43.9604C51.0001 43.6985 50.0099 43.8137 49.1705 44.2806L48.3235 44.7522L42.2379 48.1435C42.7847 47.0649 43.2058 45.927 43.4929 44.7522C43.6046 44.2886 43.6896 43.8189 43.7474 43.3454C44.0608 40.7522 43.4716 38.4103 42.0453 36.5744C40.9146 35.1241 39.328 34.0973 37.5418 33.6599C35.7555 33.2225 33.874 33.4001 32.2012 34.1639C31.9246 34.2889 31.7044 34.5125 31.5838 34.791C31.4631 35.0695 31.4504 35.3829 31.5484 35.6702C31.5601 35.7081 31.5743 35.7452 31.5908 35.7812C31.6565 35.9279 31.7504 36.0602 31.8673 36.1706C31.9842 36.2809 32.1216 36.3671 32.2719 36.4243C32.4221 36.4814 32.5821 36.5084 32.7428 36.5036C32.9034 36.4988 33.0615 36.4624 33.2081 36.3965C34.3809 35.8591 35.7006 35.7327 36.954 36.0377C38.2075 36.3427 39.3215 37.0613 40.1163 38.0774C41.4757 39.8253 41.7368 42.1492 40.9633 44.7522C40.41 46.6127 39.3313 48.6167 37.7336 50.6551L36.2566 51.4792L35.1877 49.5617C34.9172 49.0754 34.5612 48.642 34.1367 48.2822C34.3603 47.0668 34.7262 45.882 35.2269 44.7522C35.4293 44.2849 35.6621 43.8313 35.9237 43.3944C36.086 43.1174 36.133 42.7877 36.0546 42.4764C35.9761 42.1651 35.7785 41.8971 35.5043 41.7301C35.2301 41.5631 34.9012 41.5106 34.5886 41.5838C34.276 41.657 34.0047 41.8501 33.8332 42.1215C33.3341 42.9578 32.9134 43.8384 32.5765 44.7522C32.2729 45.5618 32.0269 46.3918 31.8405 47.2361C30.8156 47.0714 29.7652 47.2571 28.8589 47.7632L28.4362 47.9999C28.3805 46.9172 28.4012 45.832 28.4982 44.7522C28.6957 42.6306 29.2147 40.8208 30.0486 39.3814C30.2045 39.1118 30.2518 38.793 30.1808 38.4898C30.1099 38.1866 29.926 37.9218 29.6667 37.7494L29.6047 37.7102C29.4656 37.6296 29.312 37.5772 29.1527 37.556C28.9933 37.5348 28.8314 37.5451 28.676 37.5865C28.5207 37.6279 28.375 37.6994 28.2474 37.7971C28.1197 37.8948 28.0125 38.0166 27.9319 38.1557C26.876 39.9787 26.2428 42.1884 26.0323 44.7538C25.917 46.2754 25.9301 47.804 26.0715 49.3234L24.5929 50.1475C18.3473 45.5046 12.2372 44.5564 8.13763 47.631C6.69784 48.7078 5.6517 50.2278 5.16016 51.9571C4.66862 53.6865 4.7589 55.5295 5.41712 57.2026C6.81246 60.6852 10.3016 62.8068 15.1062 63.2556L8.01034 67.2164C7.17295 67.6852 6.55543 68.4668 6.29299 69.3899C6.03056 70.313 6.14458 71.3025 6.6101 72.1417L9.09397 76.5987C9.56371 77.4365 10.3462 78.054 11.2703 78.3161C12.1943 78.5783 13.1845 78.4636 14.0242 77.9973L22.0209 73.5403V93.4766C22.0226 94.6301 22.4822 95.7358 23.2986 96.5507C24.115 97.3655 25.2215 97.823 26.375 97.8226H67.3034C68.4558 97.8213 69.5606 97.3631 70.3756 96.5484C71.1907 95.7337 71.6493 94.629 71.651 93.4766V67.3209C71.6506 66.5327 71.3374 65.7769 70.7802 65.2194C70.223 64.6619 69.4674 64.3483 68.6792 64.3474ZM50.3651 46.4185C50.5391 46.321 50.7352 46.2698 50.9347 46.27C51.1444 46.2696 51.3504 46.3252 51.5314 46.4311C51.7124 46.537 51.8619 46.6892 51.9645 46.8722L54.4451 51.3275C54.5961 51.6005 54.6327 51.9223 54.5471 52.2223C54.4615 52.5223 54.2605 52.7762 53.9881 52.9284L41.0726 60.1271L37.4464 53.6122L50.3651 46.4185ZM35.3085 54.8085L38.9413 61.3119L33.4105 64.3833C33.2167 64.4359 33.0389 64.5357 32.8931 64.6738L27.8895 67.4677L24.2616 60.9561L35.3085 54.8085ZM22.8516 53.9174L30.0535 49.9027C30.3778 49.7219 30.743 49.627 31.1143 49.6269C31.3207 49.627 31.5261 49.6555 31.7246 49.7118C32.0031 49.7892 32.2635 49.9213 32.4904 50.1004C32.7174 50.2794 32.9064 50.5018 33.0465 50.7546L34.1155 52.6689L23.0719 58.8248L21.9997 56.9023C21.7907 56.5294 21.6975 56.1027 21.732 55.6767C21.7312 55.6647 21.7312 55.6527 21.732 55.6408C21.7434 55.5065 21.768 55.3737 21.8055 55.2442C21.8823 54.9646 22.0142 54.7031 22.1936 54.4753C22.373 54.2474 22.5961 54.0577 22.8499 53.9174H22.8516ZM7.69047 56.2985C7.22843 55.1245 7.16571 53.8311 7.51199 52.6179C7.85827 51.4048 8.5943 50.3393 9.60641 49.5861C12.6076 47.334 17.2457 48.0504 22.2281 51.4613L21.6602 51.7779C20.7694 52.2711 20.0674 53.046 19.6643 53.9811C18.047 53.4719 16.5962 53.1928 14.517 52.9643C14.1931 52.9288 13.8683 53.0235 13.6141 53.2275C13.3599 53.4315 13.1972 53.7281 13.1617 54.0521C13.1262 54.376 13.2208 54.7008 13.4248 54.955C13.6288 55.2092 13.9254 55.3719 14.2494 55.4074C16.5342 55.6571 17.8822 55.9688 19.3085 56.4486C19.384 57.03 19.5695 57.5916 19.8552 58.1034L20.9275 60.0243L19.5909 60.7685C13.5215 61.4245 9.07602 59.7664 7.69047 56.2985ZM22.6704 70.3759L22.6525 70.3874L12.8296 75.8594C12.5562 76.0065 12.2364 76.0416 11.9376 75.9572C11.6389 75.8729 11.3847 75.6757 11.2286 75.4073L8.74962 70.952C8.59847 70.6803 8.56117 70.3598 8.6459 70.0606C8.73064 69.7614 8.93049 69.508 9.20168 69.3559L20.5227 63.0467C20.5586 63.0288 20.5929 63.0092 20.6272 62.988L21.3909 62.562L22.1237 62.154L23.457 64.5465L25.7516 68.6607L22.6704 70.3759ZM39.7687 95.3746H26.375C25.8716 95.3742 25.3889 95.1741 25.0328 94.8183C24.6767 94.4625 24.4762 93.98 24.4754 93.4766V72.176L34.1302 66.7905H39.7736L39.7687 95.3746ZM51.4569 95.3746H42.2166V66.7954H51.4569V95.3746ZM69.2031 93.4766C69.2022 93.98 69.0017 94.4625 68.6456 94.8183C68.2895 95.1741 67.8068 95.3742 67.3034 95.3746H53.9049V66.7954H68.6792C68.8173 66.7971 68.9494 66.8526 69.0472 66.9501C69.145 67.0476 69.201 67.1795 69.2031 67.3176V93.4766Z" fill="#282828"/>
<path d="M90.4772 27.5756C90.7139 27.3096 91.2279 26.7139 90.9962 25.9632C90.7645 25.2125 89.9844 25.0085 89.6547 24.9269L86.3516 24.1109L84.607 21.2011C84.4438 20.9318 84.0179 20.2219 83.1888 20.2219C82.3614 20.2219 81.9355 20.9367 81.7755 21.2093L80.23 23.7617L80.0391 24.0881L80.0228 24.1158L76.7197 24.9318C76.3933 25.0134 75.6132 25.206 75.3782 25.9681C75.1432 26.7303 75.6605 27.3145 75.8955 27.5789L78.0709 30.1998C78.0765 30.2737 78.0765 30.3479 78.0709 30.4218L77.8066 33.6858C77.7723 34.0317 77.7005 34.8118 78.3337 35.2884C78.9669 35.7649 79.7258 35.4662 80.0571 35.3308L80.2333 35.259L83.0534 34.084C83.14 34.0662 83.2294 34.0662 83.3161 34.084L86.332 35.3341C86.6179 35.4632 86.926 35.5358 87.2394 35.5478C87.5291 35.5525 87.8122 35.4606 88.044 35.2867C88.6772 34.8102 88.6054 34.0301 88.5711 33.6841L88.3067 30.43C88.302 30.3544 88.302 30.2787 88.3067 30.2031L90.4772 27.5756ZM86.5735 28.7719C86.0546 29.3855 86.0334 30.066 86.0725 30.5981L86.2569 32.8681L84.1794 32.0016C83.542 31.7551 82.8356 31.7551 82.1982 32.0016L80.2398 32.8175L80.1272 32.8649L80.2398 31.4712L80.3116 30.5899C80.346 30.2526 80.3217 29.9119 80.2398 29.583C80.1619 29.2852 80.0173 29.009 79.8172 28.7751L78.2227 26.8641L80.2333 26.3745L80.6805 26.2635C80.9461 26.2107 81.1961 26.0976 81.4111 25.9329C81.6262 25.7683 81.8005 25.5564 81.9208 25.3137L83.1905 23.1921L84.4112 25.2305L84.4569 25.3055C84.5773 25.5484 84.7519 25.7604 84.9672 25.9251C85.1826 26.0898 85.4329 26.2028 85.6988 26.2554L88.1566 26.8641L86.5735 28.7719Z" fill="#282828"/>
<path d="M80.6007 71.9116C82.1654 71.9116 83.4338 70.6432 83.4338 69.0785C83.4338 67.5138 82.1654 66.2454 80.6007 66.2454C79.036 66.2454 77.7676 67.5138 77.7676 69.0785C77.7676 70.6432 79.036 71.9116 80.6007 71.9116Z" fill="#FEFFD4"/>
<path d="M8.60265 89.7932C10.1673 89.7932 11.4358 88.5247 11.4358 86.9601C11.4358 85.3954 10.1673 84.127 8.60265 84.127C7.03796 84.127 5.76953 85.3954 5.76953 86.9601C5.76953 88.5247 7.03796 89.7932 8.60265 89.7932Z" fill="#FEFFD4"/>
<path d="M50.8208 32.3803C52.5243 32.3803 53.9052 30.9994 53.9052 29.2959C53.9052 27.5924 52.5243 26.2114 50.8208 26.2114C49.1173 26.2114 47.7363 27.5924 47.7363 29.2959C47.7363 30.9994 49.1173 32.3803 50.8208 32.3803Z" fill="#FEFFD4"/>
<path d="M71.7112 49.9875C71.7112 50.7403 71.488 51.4761 71.0698 52.1019C70.6516 52.7278 70.0572 53.2156 69.3618 53.5036C68.6664 53.7917 67.9012 53.867 67.1629 53.7202C66.4247 53.5733 65.7465 53.2109 65.2143 52.6786C64.682 52.1464 64.3196 51.4683 64.1727 50.73C64.0259 49.9918 64.1013 49.2266 64.3893 48.5311C64.6774 47.8357 65.1652 47.2413 65.791 46.8232C66.4169 46.405 67.1527 46.1818 67.9054 46.1818C68.4063 46.1776 68.9031 46.2733 69.3667 46.463C69.8303 46.6528 70.2515 46.933 70.6057 47.2872C70.9599 47.6415 71.2401 48.0627 71.4299 48.5263C71.6197 48.9899 71.7153 49.4866 71.7112 49.9875Z" fill="#FFFF83"/>
<path d="M67.9061 54.7724C66.9984 54.7697 66.11 54.5102 65.3435 54.0239C64.577 53.5376 63.9639 52.8443 63.5748 52.0241C63.1334 51.0863 63.0084 50.0305 63.2185 49.0155C63.4286 48.0005 63.9626 47.0811 64.74 46.3956C65.5175 45.71 66.4965 45.2954 67.5298 45.214C68.5632 45.1326 69.595 45.3888 70.4702 45.9442C71.3455 46.4995 72.0168 47.3239 72.3832 48.2935C72.7497 49.2631 72.7915 50.3255 72.5024 51.3209C72.2133 52.3163 71.6089 53.1909 70.78 53.8133C69.9512 54.4358 68.9427 54.7723 67.9061 54.7724ZM67.9061 47.1609C67.5349 47.1606 67.1672 47.2336 66.8242 47.3756C66.4811 47.5176 66.1695 47.7258 65.9069 47.9883C65.6444 48.2508 65.4362 48.5625 65.2943 48.9055C65.1523 49.2485 65.0793 49.6162 65.0795 49.9874C65.078 50.4028 65.1695 50.8132 65.3472 51.1886C65.5758 51.6747 65.9376 52.086 66.3905 52.3749C66.8434 52.6637 67.3689 52.8183 67.9061 52.8206C68.2281 52.8209 68.5478 52.7657 68.851 52.6574C69.48 52.4351 70.01 51.9975 70.3474 51.4221C70.6848 50.8466 70.8079 50.1704 70.6948 49.513C70.5816 48.8556 70.2397 48.2594 69.7293 47.8299C69.219 47.4003 68.5732 47.1651 67.9061 47.1658V47.1609Z" fill="#282828"/>
<path d="M86.7274 53.9597C87.8433 53.9597 88.7478 53.0552 88.7478 51.9393C88.7478 50.8235 87.8433 49.9189 86.7274 49.9189C85.6116 49.9189 84.707 50.8235 84.707 51.9393C84.707 53.0552 85.6116 53.9597 86.7274 53.9597Z" fill="#5ECBAD"/>
<path d="M58.5 45C59.3284 45 60 44.3284 60 43.5C60 42.6716 59.3284 42 58.5 42C57.6716 42 57 42.6716 57 43.5C57 44.3284 57.6716 45 58.5 45Z" fill="#F04C41"/>
<path d="M15.5094 36.6819C16.974 36.6819 18.1614 35.4945 18.1614 34.0299C18.1614 32.5653 16.974 31.3779 15.5094 31.3779C14.0447 31.3779 12.8574 32.5653 12.8574 34.0299C12.8574 35.4945 14.0447 36.6819 15.5094 36.6819Z" fill="#5ECBAD"/>
<path d="M33.7477 19.3342C35.2123 19.3342 36.3996 18.1469 36.3996 16.6822C36.3996 15.2176 35.2123 14.0303 33.7477 14.0303C32.283 14.0303 31.0957 15.2176 31.0957 16.6822C31.0957 18.1469 32.283 19.3342 33.7477 19.3342Z" fill="#F04C41"/>
<path d="M72.1373 39.8938L75.2136 41.8326C75.5107 42.0195 75.7488 42.287 75.9 42.6038C76.0512 42.9207 76.1094 43.2739 76.0679 43.6226C76.0264 43.9712 75.8868 44.3009 75.6654 44.5734C75.444 44.8458 75.1498 45.0499 74.817 45.1618L73.3874 45.6514L72.0818 46.0904C72.0361 46.1067 71.9888 46.1198 71.9431 46.1312C71.6947 46.1943 71.4358 46.2052 71.183 46.163C70.9302 46.1209 70.6888 46.0267 70.4743 45.8864L70.4319 45.857C70.3829 45.8244 70.3372 45.7885 70.2932 45.7526C70.1081 45.5974 69.9556 45.4072 69.8444 45.1928C69.8437 45.189 69.8437 45.1852 69.8444 45.1814C69.7807 45.0563 69.7314 44.9243 69.6975 44.7881C69.6777 44.7114 69.6629 44.6334 69.6534 44.5547L69.3091 41.6938C69.2658 41.3455 69.3222 40.992 69.4718 40.6745C69.6214 40.3569 69.858 40.0883 70.1542 39.8998C70.4503 39.7113 70.7938 39.6107 71.1449 39.6096C71.4959 39.6086 71.84 39.7071 72.1373 39.8938Z" fill="#F04C41"/>
<path d="M71.4938 47.1611C70.9446 47.1613 70.4071 47.002 69.9467 46.7025C69.9222 46.6878 69.8994 46.6715 69.8765 46.6552C69.8038 46.6048 69.7341 46.5503 69.6676 46.492C69.5327 46.3805 69.4086 46.2565 69.2972 46.1215H69.2253L68.9283 45.5405C68.849 45.3726 68.7867 45.1971 68.7423 45.0167C68.714 44.9033 68.6927 44.7883 68.6786 44.6723L68.3327 41.8082C68.2689 41.2763 68.3571 40.7372 68.587 40.2533C68.817 39.7694 69.1792 39.3606 69.6319 39.074C70.0846 38.7875 70.6091 38.635 71.1448 38.6343C71.6806 38.6335 72.2056 38.7845 72.659 39.0697L75.7337 41.0069C76.1874 41.2926 76.5508 41.701 76.7818 42.1848C77.0129 42.6687 77.102 43.2081 77.039 43.7405C76.976 44.2729 76.7633 44.7766 76.4257 45.1931C76.0881 45.6096 75.6393 45.9219 75.1315 46.0938L72.3979 47.0126C72.3326 47.0338 72.2608 47.055 72.1923 47.073C71.964 47.1311 71.7294 47.1607 71.4938 47.1611ZM71.0042 45.0493L71.0205 45.0607C71.1217 45.1273 71.2357 45.1719 71.3551 45.1919C71.4745 45.2118 71.5968 45.2066 71.7141 45.1766L71.7778 45.1586L74.5113 44.2349C74.6687 44.1819 74.8078 44.0854 74.9124 43.9565C75.0171 43.8276 75.0831 43.6717 75.1028 43.5068C75.1224 43.3419 75.0949 43.1749 75.0234 43.025C74.952 42.8751 74.8395 42.7486 74.699 42.6601L71.6146 40.7197C71.4743 40.6317 71.3119 40.5852 71.1463 40.5856C70.9808 40.586 70.8186 40.6332 70.6787 40.7217C70.5388 40.8103 70.4268 40.9366 70.3556 41.0861C70.2844 41.2356 70.2569 41.4022 70.2763 41.5667L70.6027 44.2578L70.7545 44.7963C70.8017 44.8706 70.8601 44.9372 70.9275 44.9938C70.9422 45.0052 70.9569 45.0183 70.9748 45.0297L71.0075 45.0526L71.0042 45.0493Z" fill="#282828"/>
<path d="M63.8388 59.8513L60.8 57.8554C60.5064 57.6631 60.2733 57.3916 60.1279 57.0722C59.9824 56.7528 59.9305 56.3987 59.9781 56.051C60.0258 55.7032 60.1711 55.3762 60.3972 55.1077C60.6233 54.8393 60.9208 54.6404 61.2554 54.5343L62.6931 54.0774L63.9987 53.6612C64.0444 53.6465 64.0917 53.6351 64.1374 53.6237C64.3877 53.564 64.6477 53.5575 64.9007 53.6044C65.1537 53.6513 65.394 53.7507 65.6062 53.8962C65.6209 53.9044 65.634 53.9158 65.6487 53.9256C65.6959 53.9588 65.7411 53.9947 65.7841 54.0333C65.9665 54.1918 66.1157 54.3848 66.2231 54.6012C66.2239 54.603 66.2243 54.605 66.2243 54.6069C66.2243 54.6089 66.2239 54.6108 66.2231 54.6127C66.2854 54.7383 66.3325 54.8709 66.3635 55.0076C66.3815 55.0845 66.3946 55.1624 66.4026 55.241L66.6947 58.1084C66.7298 58.4563 66.6659 58.8071 66.5103 59.1203C66.3547 59.4334 66.1137 59.6963 65.8152 59.8785C65.5167 60.0606 65.1728 60.1547 64.8231 60.1499C64.4734 60.1451 64.1322 60.0416 63.8388 59.8513Z" fill="#F04C41"/>
<path d="M64.6171 52.5971C65.1667 52.6082 65.7012 52.7782 66.1561 53.0867L66.2246 53.1356C66.2916 53.183 66.3585 53.2352 66.4303 53.2988C66.5622 53.4145 66.6834 53.5418 66.7926 53.6791H66.866L67.1516 54.265C67.2286 54.4341 67.2876 54.6107 67.3279 54.7921C67.3546 54.906 67.3736 55.0216 67.385 55.1381L67.6787 58.0071C67.7333 58.5402 67.6356 59.0779 67.397 59.5577C67.1584 60.0376 66.7887 60.44 66.3307 60.7182C65.8727 60.9965 65.3453 61.1393 64.8094 61.13C64.2736 61.1206 63.7514 60.9596 63.3034 60.6656L60.2647 58.6713C59.816 58.3777 59.4599 57.9628 59.2376 57.4749C59.0152 56.9869 58.9359 56.4459 59.0087 55.9147C59.0815 55.3835 59.3034 54.8838 59.6488 54.4736C59.9942 54.0634 60.4488 53.7597 60.9599 53.5975L63.7065 52.7244C63.7718 52.7032 63.8436 52.6852 63.9138 52.6673C64.1445 52.6156 64.3807 52.5921 64.6171 52.5971ZM65.0757 54.7187L65.0594 54.7072C64.9596 54.6383 64.8464 54.5911 64.7272 54.5689C64.608 54.5467 64.4854 54.5499 64.3675 54.5783L64.3038 54.5946L61.5539 55.4677C61.3956 55.518 61.2548 55.612 61.1478 55.7391C61.0408 55.8661 60.972 56.0209 60.9494 56.1855C60.9269 56.35 60.9515 56.5176 61.0203 56.6687C61.0892 56.8199 61.1995 56.9484 61.3385 57.0393L64.3772 59.032C64.5153 59.1225 64.6762 59.1722 64.8413 59.1753C65.0064 59.1784 65.169 59.1348 65.3104 59.0495C65.4517 58.9643 65.5662 58.8408 65.6404 58.6933C65.7147 58.5458 65.7458 58.3804 65.7302 58.216L65.4544 55.52L65.3124 54.9782C65.2685 54.9038 65.2134 54.8367 65.1492 54.7791L65.1018 54.7399L65.0692 54.717L65.0757 54.7187Z" fill="#282828"/>
<path d="M65.8493 24.4373C66.1938 25.1441 66.3114 25.9401 66.1861 26.7163C66.0608 27.4925 65.6986 28.2111 65.1492 28.7735C64.5837 29.3506 63.8492 29.7328 63.052 29.8647C62.2549 29.9966 61.4364 29.8714 60.7152 29.5072C59.994 29.1429 59.4074 28.5586 59.0403 27.8388C58.6733 27.119 58.5449 26.301 58.6737 25.5034C58.8025 24.7057 59.1818 23.9697 59.7567 23.402C60.3316 22.8343 61.0723 22.4643 61.8715 22.3455C62.6707 22.2268 63.487 22.3655 64.2021 22.7416C64.9173 23.1176 65.4942 23.7116 65.8493 24.4373Z" fill="#5ECBAD"/>
<path d="M62.4422 30.8902C61.5883 30.891 60.7497 30.6632 60.0136 30.2305C59.2774 29.7977 58.6706 29.1758 58.256 28.4293C57.8413 27.6828 57.6341 26.8389 57.6558 25.9853C57.6775 25.1316 57.9274 24.2993 58.3794 23.5749C58.8314 22.8504 59.4691 22.2601 60.2263 21.8653C60.9835 21.4706 61.8325 21.2857 62.6853 21.3299C63.5381 21.3741 64.3635 21.6458 65.0758 22.1168C65.7881 22.5877 66.3613 23.2408 66.736 24.0081C67.0937 24.7368 67.2599 25.5447 67.2188 26.3554C67.1776 27.1662 66.9305 27.9531 66.5008 28.6419C66.0711 29.3306 65.473 29.8985 64.7628 30.2919C64.0527 30.6852 63.254 30.8912 62.4422 30.8902ZM62.4324 23.2835C61.953 23.2835 61.4815 23.4057 61.0623 23.6384C60.6431 23.8711 60.2901 24.2067 60.0365 24.6136C59.783 25.0205 59.6372 25.4852 59.613 25.964C59.5887 26.4429 59.6868 26.92 59.898 27.3504C60.0785 27.7242 60.3406 28.0526 60.665 28.3116C61.084 28.6445 61.5884 28.8522 62.1203 28.9108C62.6521 28.9694 63.1897 28.8765 63.6711 28.6429C64.3454 28.3144 64.8618 27.7315 65.1066 27.0225C65.3514 26.3135 65.3047 25.5362 64.9767 24.8616C64.7421 24.386 64.3786 23.9858 63.9276 23.7068C63.4766 23.4278 62.9562 23.2811 62.4259 23.2835H62.4324Z" fill="#282828"/>
<path d="M62.3331 15.086L65.9234 15.6294C66.2711 15.6808 66.5971 15.8298 66.8635 16.0591C67.1298 16.2884 67.3257 16.5886 67.4282 16.9248C67.5308 17.261 67.5358 17.6194 67.4428 17.9583C67.3497 18.2972 67.1624 18.6028 66.9026 18.8395L65.7863 19.8546L64.7712 20.7767C64.7353 20.8093 64.6962 20.8403 64.6603 20.8697C64.4578 21.0282 64.2244 21.1426 63.9751 21.2055C63.7258 21.2685 63.4661 21.2786 63.2127 21.2353L63.1621 21.2255C63.107 21.215 63.0525 21.2014 62.9989 21.1847C62.7676 21.1181 62.5515 21.0072 62.3624 20.8583C62.3624 20.8583 62.3624 20.8583 62.3624 20.8501C62.2529 20.7615 62.1543 20.6601 62.0687 20.5482C62.0202 20.4861 61.976 20.4206 61.9365 20.3524L60.4677 17.8701C60.2884 17.5686 60.1983 17.2225 60.2077 16.8718C60.2171 16.5211 60.3258 16.1803 60.521 15.8889C60.7163 15.5975 60.9902 15.3674 61.3109 15.2252C61.6316 15.0831 61.986 15.0348 62.3331 15.086Z" fill="#F04C41"/>
<path d="M63.5161 22.239C63.3609 22.2394 63.2058 22.2269 63.0526 22.2015L62.971 22.1868C62.8894 22.1705 62.8079 22.1509 62.7148 22.1232C62.5458 22.0755 62.3819 22.0116 62.2252 21.9322L62.1551 21.9583L61.6655 21.565L61.6393 21.5324C61.5031 21.4128 61.379 21.2799 61.2689 21.1358C61.1976 21.0432 61.1322 20.9461 61.0731 20.8453L59.6043 18.3598C59.3318 17.898 59.1959 17.3684 59.2123 16.8325C59.2287 16.2966 59.3967 15.7763 59.6969 15.332C59.9972 14.8878 60.4172 14.5378 60.9084 14.3226C61.3995 14.1075 61.9416 14.0361 62.4717 14.1167L66.062 14.6601C66.5906 14.7414 67.0855 14.9706 67.4895 15.3211C67.8935 15.6716 68.1901 16.1292 68.3452 16.641C68.5003 17.1529 68.5075 17.6982 68.366 18.2139C68.2245 18.7297 67.9401 19.195 67.5455 19.5561L65.4141 21.4932C65.3652 21.5389 65.3064 21.5879 65.2509 21.6319C64.7561 22.0213 64.1458 22.2349 63.5161 22.239ZM63.3529 20.266H63.3758C63.4946 20.2878 63.6166 20.2846 63.7341 20.2565C63.8516 20.2284 63.9619 20.176 64.0579 20.1028C64.0751 20.0902 64.0915 20.0766 64.1069 20.062L66.2432 18.1199C66.366 18.0082 66.4546 17.8639 66.4988 17.7039C66.5429 17.5438 66.5408 17.3745 66.4926 17.2156C66.4444 17.0567 66.3522 16.9148 66.2266 16.8062C66.101 16.6976 65.9471 16.6269 65.783 16.6022L62.1926 16.0587C62.0296 16.0348 61.8632 16.0572 61.7124 16.1236C61.5616 16.1899 61.4326 16.2973 61.3401 16.4336C61.2476 16.5699 61.1953 16.7295 61.1894 16.8941C61.1834 17.0587 61.224 17.2217 61.3064 17.3643L62.6691 19.6768H62.6806L63.0445 20.1419C63.1157 20.1878 63.1932 20.223 63.2746 20.2464L63.3333 20.2627H63.3692L63.3529 20.266Z" fill="#282828"/>
</g>
<defs>
<clipPath id="clip0_1345_7878">
<rect width="110" height="110" fill="white"/>
</clipPath>
</defs>
</svg>
