<svg width="21" height="20" viewBox="0 0 21 20" fill="none" xmlns="http://www.w3.org/2000/svg">
<path d="M9.54894 1.54509C9.8483 0.623774 11.1517 0.623775 11.4511 1.54508L12.7186 5.4463C12.9864 6.27035 13.7543 6.82827 14.6208 6.82827H18.7227C19.6915 6.82827 20.0942 8.06789 19.3105 8.63729L15.9919 11.0484C15.291 11.5577 14.9977 12.4604 15.2654 13.2844L16.533 17.1857C16.8323 18.107 15.7779 18.8731 14.9941 18.3037L11.6756 15.8926C10.9746 15.3833 10.0254 15.3833 9.32443 15.8926L6.00585 18.3037C5.22214 18.8731 4.16766 18.107 4.46701 17.1857L5.7346 13.2844C6.00234 12.4604 5.70903 11.5577 5.00805 11.0484L1.68948 8.63729C0.905763 8.06789 1.30854 6.82827 2.27726 6.82827H6.37925C7.2457 6.82827 8.01361 6.27035 8.28136 5.4463L9.54894 1.54509Z" stroke="#FFF388"/>
</svg>
