<svg width="110" height="110" viewBox="0 0 110 110" fill="none" xmlns="http://www.w3.org/2000/svg">
<g clip-path="url(#clip0_1394_10244)">
<path d="M47.1388 24.75C50.4104 19.0833 58.5896 19.0833 61.8612 24.75L91.7391 76.5C95.0107 82.1667 90.9212 89.25 84.3779 89.25H24.6221C18.0788 89.25 13.9893 82.1667 17.2609 76.5L47.1388 24.75Z" fill="#F04C41" stroke="#282828" stroke-width="3"/>
<mask id="path-2-inside-1_1394_10244" fill="white">
<path fill-rule="evenodd" clip-rule="evenodd" d="M63.1372 45.1509C63.1372 46.4015 62.8693 47.5895 62.3877 48.6607C62.3695 48.8699 62.3379 49.0807 62.2922 49.2924L59.475 62.3523C58.3402 67.6132 50.8347 67.6132 49.6999 62.3523L46.8827 49.2924C46.8446 49.116 46.8164 48.9402 46.7974 48.7655C46.2857 47.6672 46 46.4424 46 45.1509C46 40.4186 49.8363 36.5823 54.5686 36.5823C59.3009 36.5823 63.1372 40.4186 63.1372 45.1509Z"/>
</mask>
<path fill-rule="evenodd" clip-rule="evenodd" d="M63.1372 45.1509C63.1372 46.4015 62.8693 47.5895 62.3877 48.6607C62.3695 48.8699 62.3379 49.0807 62.2922 49.2924L59.475 62.3523C58.3402 67.6132 50.8347 67.6132 49.6999 62.3523L46.8827 49.2924C46.8446 49.116 46.8164 48.9402 46.7974 48.7655C46.2857 47.6672 46 46.4424 46 45.1509C46 40.4186 49.8363 36.5823 54.5686 36.5823C59.3009 36.5823 63.1372 40.4186 63.1372 45.1509Z" fill="white"/>
<path d="M62.3877 48.6607L59.6515 47.4306L59.4431 47.894L59.399 48.4003L62.3877 48.6607ZM62.2922 49.2924L65.2248 49.925L65.2248 49.925L62.2922 49.2924ZM59.475 62.3523L62.4076 62.9849L59.475 62.3523ZM49.6999 62.3523L46.7673 62.9849H46.7673L49.6999 62.3523ZM46.8827 49.2924L43.9501 49.925L46.8827 49.2924ZM46.7974 48.7655L49.78 48.4426L49.7266 47.9487L49.5168 47.4985L46.7974 48.7655ZM65.1239 49.8908C65.7759 48.4405 66.1372 46.8338 66.1372 45.1509H60.1372C60.1372 45.9691 59.9626 46.7386 59.6515 47.4306L65.1239 49.8908ZM65.2248 49.925C65.2969 49.5906 65.3472 49.2554 65.3764 48.9211L59.399 48.4003C59.3917 48.4844 59.3789 48.5709 59.3597 48.6598L65.2248 49.925ZM62.4076 62.9849L65.2248 49.925L59.3597 48.6598L56.5425 61.7197L62.4076 62.9849ZM46.7673 62.9849C48.5831 71.4023 60.5918 71.4023 62.4076 62.9849L56.5425 61.7197C56.0886 63.824 53.0864 63.8241 52.6324 61.7197L46.7673 62.9849ZM43.9501 49.925L46.7673 62.9849L52.6324 61.7197L49.8152 48.6598L43.9501 49.925ZM43.8149 49.0884C43.8451 49.3672 43.89 49.6464 43.9501 49.925L49.8152 48.6598C49.7993 48.5857 49.7877 48.5132 49.78 48.4426L43.8149 49.0884ZM43 45.1509C43 46.8891 43.3854 48.5456 44.0781 50.0325L49.5168 47.4985C49.1861 46.7888 49 45.9957 49 45.1509H43ZM54.5686 33.5823C48.1794 33.5823 43 38.7617 43 45.1509H49C49 42.0754 51.4931 39.5823 54.5686 39.5823V33.5823ZM66.1372 45.1509C66.1372 38.7617 60.9578 33.5823 54.5686 33.5823V39.5823C57.6441 39.5823 60.1372 42.0754 60.1372 45.1509H66.1372Z" fill="#282828" mask="url(#path-2-inside-1_1394_10244)"/>
<circle cx="55.1367" cy="78" r="3.5" fill="white" stroke="#282828" stroke-width="3"/>
</g>
<defs>
<clipPath id="clip0_1394_10244">
<rect width="110" height="110" fill="white"/>
</clipPath>
</defs>
</svg>
