<svg width="40" height="40" viewBox="0 0 40 40" fill="none" xmlns="http://www.w3.org/2000/svg">
<path d="M35.3954 23.795C35.7254 23.795 35.9991 23.5215 35.9991 23.1917V12.339C35.9991 10.8185 34.7595 9.57959 33.2382 9.57959H6.91714C5.39583 9.57959 4.15625 10.8185 4.15625 12.339V27.8256C4.15625 29.3461 5.39583 30.5769 6.91714 30.5769H33.2382C34.7595 30.5769 35.9991 29.338 35.9991 27.8256V25.5971C35.9991 25.2673 35.7254 24.9937 35.3954 24.9937C35.0654 24.9937 34.7917 25.2673 34.7917 25.5971V27.8256C34.7917 28.6783 34.0914 29.3782 33.2382 29.3782H6.91714C6.06392 29.3782 5.36364 28.6864 5.36364 27.8256V19.3784H34.7917V23.1917C34.7917 23.5215 35.0654 23.795 35.3954 23.795ZM5.36364 12.339C5.36364 11.4862 6.06392 10.7863 6.91714 10.7863H33.2382C34.0914 10.7863 34.7917 11.4782 34.7917 12.339V14.4468H5.36364V12.339ZM5.36364 18.1716V15.6535H34.7917V18.1716H5.36364Z" fill="#46AD91"/>
<path d="M31.7898 23.767H28.1567C27.6514 23.767 27.2344 24.1791 27.2344 24.6963V26.9993C27.2344 27.5084 27.6434 27.9286 28.1567 27.9286H31.7979C32.3031 27.9286 32.7202 27.5165 32.7202 26.9993V24.6963C32.7122 24.1791 32.2951 23.767 31.7898 23.767ZM31.5091 26.7165H28.4294V24.9791H31.5091V26.7165Z" fill="#46AD91"/>
<path d="M24.8621 23.767H17.1826C16.6781 23.767 16.2617 24.1791 16.2617 24.6963V26.9993C16.2617 27.5084 16.6701 27.9286 17.1826 27.9286H24.8621C25.3666 27.9286 25.783 27.5165 25.783 26.9993V24.6963C25.783 24.1791 25.3746 23.767 24.8621 23.767ZM24.5819 26.7165H17.4549V24.9791H24.5819V26.7165Z" fill="#46AD91"/>
<path d="M9.86416 26.7306C9.53482 26.7306 9.26172 27.0021 9.26172 27.3296C9.26172 27.6571 9.53482 27.9286 9.86416 27.9286H13.7037C14.033 27.9286 14.3061 27.6651 14.3061 27.3296C14.3061 27.0021 14.033 26.7306 13.7037 26.7306H9.86416Z" fill="#46AD91"/>
</svg>
