<svg width="40" height="40" viewBox="0 0 40 40" fill="none" xmlns="http://www.w3.org/2000/svg">
<g clip-path="url(#clip0_400_3978)">
<path d="M39.9996 6.44227V25.9029C39.9996 26.2079 39.7467 26.4609 39.4417 26.4609H38.8838V29.6522C38.8838 29.8085 38.8168 29.9572 38.6978 30.0688C38.5936 30.1655 38.4597 30.2102 38.3258 30.2102C38.311 30.2102 38.2886 30.2102 38.2738 30.2102L36.652 30.0465V33.5578C36.652 33.7289 36.5776 33.8851 36.4437 33.9892C36.347 34.0711 36.2206 34.1157 36.0941 34.1157C36.0569 34.1157 36.0123 34.1083 35.9751 34.1008L0.445972 26.446C0.438533 26.446 0.431094 26.4385 0.423655 26.4385C0.416216 26.4385 0.408777 26.4385 0.401338 26.4311C0.393899 26.4311 0.386459 26.4237 0.37902 26.4237H0.371581C0.364142 26.4237 0.356703 26.4237 0.356703 26.4162C0.356703 26.4162 0.356703 26.4162 0.349264 26.4162C0.341825 26.4162 0.334386 26.4088 0.326947 26.4088C0.319508 26.4088 0.312068 26.4014 0.304629 26.4014C0.304629 26.4014 0.304629 26.4014 0.29719 26.4014C0.289751 26.4014 0.282312 26.3939 0.274873 26.3939C0.267434 26.3939 0.259995 26.3865 0.259995 26.3865L0.252556 26.379C0.245117 26.379 0.245117 26.3716 0.237678 26.3716C0.230238 26.3716 0.230238 26.3642 0.222799 26.3567L0.21536 26.3493C0.207921 26.3493 0.207921 26.3418 0.200482 26.3344C0.193043 26.327 0.193043 26.327 0.185604 26.3195C0.178165 26.3195 0.178165 26.3121 0.170726 26.3046C0.163287 26.2972 0.163287 26.2972 0.155848 26.2898L0.148408 26.2823C0.140969 26.2749 0.140969 26.2749 0.13353 26.2675C0.13353 26.26 0.126091 26.26 0.126091 26.2526L0.118652 26.2451C0.111213 26.2377 0.111213 26.2303 0.103774 26.2303C0.103774 26.2228 0.0963348 26.2228 0.0963348 26.2154L0.0888957 26.2079C0.0814566 26.2005 0.0814566 26.1931 0.0740175 26.1856C0.0740175 26.1782 0.0665784 26.1782 0.0665784 26.1707C0.0665784 26.1633 0.0591393 26.1633 0.0591393 26.1559C0.0591393 26.1484 0.0517002 26.1484 0.0517002 26.141C0.0517002 26.1335 0.0442612 26.1335 0.0442612 26.1261C0.0442612 26.1187 0.0368221 26.1187 0.0368221 26.1112C0.0368221 26.1038 0.029383 26.1038 0.029383 26.0963C0.029383 26.0889 0.0219439 26.0815 0.0219439 26.074C0.0219439 26.0666 0.0145048 26.0592 0.0145048 26.0592V26.0517C0.0145048 26.0443 0.0145048 26.0368 0.00706569 26.0294C0.00706569 26.022 0.00706569 26.0145 -0.000373407 26.0145V26.0071C-0.000373407 25.9996 -0.000373407 25.9848 -0.0078125 25.9773C-0.0078125 25.9699 -0.0078125 25.9699 -0.0078125 25.9624C-0.0078125 25.9624 -0.0078125 25.9624 -0.0078125 25.955C-0.0078125 25.9401 -0.0078125 25.9178 -0.0078125 25.9029V6.44227C-0.0078125 6.13727 0.245117 5.88434 0.55012 5.88434H39.4343C39.7467 5.88434 39.9996 6.12983 39.9996 6.44227ZM33.6466 25.345C33.9145 22.5851 36.1164 20.3757 38.8763 20.1153V12.2299C36.1164 11.9621 33.907 9.76011 33.6466 7.0002H6.34517C6.07737 9.76011 3.87539 11.9695 1.11549 12.2299V20.1153C3.87539 20.3831 6.08481 22.5851 6.34517 25.345H33.6466ZM5.22187 25.345C4.96894 23.1951 3.25795 21.4916 1.11549 21.2386V25.345H5.22187ZM5.22187 7.0002H1.11549V11.1066C3.26539 10.8537 4.96894 9.14266 5.22187 7.0002ZM38.8838 7.0002H34.7774C35.0303 9.1501 36.7413 10.8537 38.8838 11.1066V7.0002ZM35.5287 29.9349L10.2953 27.4279L35.5287 32.8659V29.9349ZM37.7605 26.4609H11.8203L37.7605 29.0348V26.4609ZM38.8838 25.345V21.2386C36.7339 21.4916 35.0303 23.2025 34.7774 25.345H38.3258H38.8838ZM25.8282 11.791C25.5752 11.9695 25.5157 12.3192 25.6943 12.5646C26.4382 13.621 26.8324 14.8708 26.8324 16.1652C26.8324 19.6243 24.0205 22.4363 20.5613 22.4363C17.1021 22.4363 14.2901 19.6243 14.2901 16.1652C14.2901 12.706 17.1021 9.89401 20.5613 9.89401C21.8631 9.89401 23.1054 10.2883 24.1618 11.0322C24.4147 11.2107 24.7644 11.1512 24.9355 10.8983C25.114 10.6454 25.0545 10.2957 24.8016 10.1246C23.5518 9.24681 22.0863 8.78558 20.5538 8.78558C16.4772 8.78558 13.1668 12.1034 13.1668 16.1726C13.1668 20.2418 16.4847 23.5596 20.5538 23.5596C24.623 23.5596 27.9409 20.2418 27.9409 16.1726C27.9409 14.6401 27.4796 13.1746 26.6018 11.9249C26.4307 11.672 26.0811 11.6124 25.8282 11.791Z" fill="#46AD91"/>
<path d="M19.4896 16.976V18.0026H21.7734C21.8478 18.0026 21.8998 18.0398 21.9445 18.1068C21.9891 18.1812 22.0114 18.2927 22.0114 18.4638C22.0114 18.7763 21.9296 18.9325 21.7734 18.9325H19.4896V20.5542C19.4896 20.6286 19.4524 20.6881 19.3705 20.7253C19.2887 20.7625 19.1325 20.7848 18.8944 20.7848C18.6564 20.7848 18.5002 20.7625 18.4258 20.7253C18.3514 20.6881 18.3068 20.6286 18.3068 20.5542V18.9325H17.6447C17.4959 18.9325 17.4141 18.7763 17.4141 18.4638C17.4141 18.3002 17.4364 18.1812 17.4736 18.1068C17.5108 18.0324 17.5628 18.0026 17.6372 18.0026H18.3068V16.976H17.6372C17.5628 16.976 17.5108 16.9388 17.4736 16.8644C17.4364 16.7901 17.4141 16.671 17.4141 16.5074C17.4141 16.3437 17.4364 16.2321 17.4736 16.1577C17.5108 16.0833 17.5703 16.0536 17.6372 16.0536H18.2993V12.0885C18.2993 11.9026 18.3514 11.7612 18.4481 11.6868C18.5448 11.605 18.6564 11.5678 18.7829 11.5678H20.6203C21.0592 11.5678 21.4684 11.6199 21.8552 11.7315C22.242 11.8431 22.5768 12.0142 22.8595 12.2373C23.1422 12.4605 23.3728 12.7432 23.5364 13.0779C23.7001 13.4127 23.7819 13.807 23.7819 14.2533C23.7819 14.6625 23.715 15.027 23.5736 15.3617C23.4397 15.6965 23.2314 15.9792 22.9562 16.2172C22.6809 16.4553 22.3313 16.6413 21.9147 16.7752C21.4981 16.9091 21.0146 16.976 20.4492 16.976H19.4896ZM19.4896 12.4828V16.0536H20.531C20.8881 16.0536 21.2006 16.0089 21.4609 15.9197C21.7213 15.8304 21.9296 15.7039 22.0933 15.5477C22.2569 15.3915 22.3759 15.213 22.4578 15.0047C22.5322 14.7964 22.5768 14.5732 22.5768 14.3352C22.5768 13.9558 22.5173 13.6508 22.3983 13.4053C22.2792 13.1672 22.123 12.9812 21.937 12.8399C21.7436 12.706 21.5279 12.6093 21.2898 12.5572C21.0518 12.5051 20.8137 12.4828 20.5682 12.4828H19.4896Z" fill="#46AD91"/>
</g>
<defs>
<clipPath id="clip0_400_3978">
<rect width="40" height="40" fill="white"/>
</clipPath>
</defs>
</svg>
