<svg width="56" height="56" viewBox="0 0 56 56" fill="none" xmlns="http://www.w3.org/2000/svg">
<path d="M49.5551 33.313C50.0171 33.313 50.4003 32.9301 50.4003 32.4683V17.2746C50.4003 15.1459 48.6649 13.4114 46.535 13.4114H9.68556C7.55573 13.4114 5.82031 15.1459 5.82031 17.2746V38.9557C5.82031 41.0844 7.55573 42.8077 9.68556 42.8077H46.535C48.6649 42.8077 50.4003 41.0732 50.4003 38.9557V35.8359C50.4003 35.3741 50.0171 34.9912 49.5551 34.9912C49.0931 34.9912 48.7099 35.3741 48.7099 35.8359V38.9557C48.7099 40.1496 47.7295 41.1295 46.535 41.1295H9.68556C8.49105 41.1295 7.51065 40.1609 7.51065 38.9557V27.1296H48.7099V32.4683C48.7099 32.9301 49.0931 33.313 49.5551 33.313ZM7.51065 17.2746C7.51065 16.0807 8.49105 15.1008 9.68556 15.1008H46.535C47.7295 15.1008 48.7099 16.0694 48.7099 17.2746V20.2255H7.51065V17.2746ZM7.51065 25.4402V21.9149H48.7099V25.4402H7.51065Z" fill="white"/>
<path d="M44.5075 33.2737H39.4211C38.7138 33.2737 38.1299 33.8507 38.1299 34.5747V37.799C38.1299 38.5117 38.7025 39.1 39.4211 39.1H44.5188C45.2261 39.1 45.81 38.523 45.81 37.799V34.5747C45.7988 33.8507 45.2149 33.2737 44.5075 33.2737ZM44.1145 37.403H39.8029V34.9707H44.1145V37.403Z" fill="white"/>
<path d="M34.8101 33.2737H24.0588C23.3525 33.2737 22.7695 33.8507 22.7695 34.5747V37.799C22.7695 38.5117 23.3413 39.1 24.0588 39.1H34.8101C35.5164 39.1 36.0994 38.523 36.0994 37.799V34.5747C36.0994 33.8507 35.5276 33.2737 34.8101 33.2737ZM34.4177 37.403H24.44V34.9707H34.4177V37.403Z" fill="white"/>
<path d="M13.8131 37.4227C13.3521 37.4227 12.9697 37.8029 12.9697 38.2614C12.9697 38.7198 13.3521 39.1 13.8131 39.1H19.1885C19.6496 39.1 20.0319 38.731 20.0319 38.2614C20.0319 37.8029 19.6496 37.4227 19.1885 37.4227H13.8131Z" fill="white"/>
</svg>
