<svg width="50" height="50" viewBox="0 0 50 50" fill="none" xmlns="http://www.w3.org/2000/svg">
<path d="M48.8569 31.1689L45.7744 25.0039C45.7104 24.8759 45.6119 24.7682 45.4901 24.693C45.3683 24.6178 45.2279 24.578 45.0847 24.5781H5.01235C4.86918 24.578 4.72882 24.6178 4.607 24.693C4.48517 24.7682 4.38671 24.8759 4.32264 25.0039L1.24015 31.1689C1.18066 31.2865 1.15235 31.4174 1.15791 31.5492C1.16348 31.6809 1.20273 31.8089 1.27193 31.9211C1.34113 32.0333 1.43795 32.1259 1.55314 32.19C1.66833 32.2541 1.79803 32.2876 1.92986 32.2872H6.55359V48.4703C6.55359 48.6747 6.63478 48.8707 6.7793 49.0152C6.92382 49.1598 7.11983 49.2409 7.32422 49.2409H42.7729C42.9772 49.2409 43.1733 49.1598 43.3178 49.0152C43.4623 48.8707 43.5435 48.6747 43.5435 48.4703V32.2872H48.1672C48.2986 32.2873 48.4279 32.2538 48.5427 32.1899C48.6576 32.1259 48.7541 32.0337 48.8232 31.9219C48.8923 31.8101 48.9317 31.6825 48.9376 31.5512C48.9435 31.4199 48.9157 31.2893 48.8569 31.1718V31.1689ZM3.17634 30.746L5.48821 26.1223H23.804L21.4921 30.746H3.17634ZM24.2779 47.6997H8.09484V32.2872H21.9661C22.1092 32.2873 22.2496 32.2476 22.3714 32.1724C22.4932 32.0972 22.5917 31.9895 22.6558 31.8615L24.2779 28.6162V47.6997ZM42.0022 47.6997H25.8192V28.6133L27.4413 31.8586C27.5054 31.9866 27.6039 32.0943 27.7257 32.1695C27.8475 32.2447 27.9879 32.2845 28.131 32.2844H42.0022V47.6997ZM28.6069 30.746L26.295 26.1223H44.6108L46.9227 30.746H28.6069Z" fill="white"/>
<path d="M35.6187 8.95369C35.5006 8.83169 35.3455 8.75211 35.1775 8.72732L28.6561 7.78042L25.7403 1.87071C25.6767 1.7417 25.5782 1.63308 25.4561 1.55713C25.3339 1.48117 25.193 1.44092 25.0491 1.44092C24.9053 1.44092 24.7643 1.48117 24.6422 1.55713C24.52 1.63308 24.4216 1.7417 24.358 1.87071L21.4412 7.78042L14.9198 8.72828C14.7776 8.74909 14.6441 8.80922 14.5343 8.9019C14.4245 8.99457 14.3428 9.11609 14.2984 9.25274C14.254 9.38939 14.2488 9.53572 14.2831 9.67522C14.3175 9.81472 14.3902 9.94183 14.493 10.0422L19.2131 14.6418L18.0995 21.1372C18.0824 21.237 18.0851 21.3393 18.1075 21.438C18.1299 21.5368 18.1715 21.6302 18.23 21.7128C18.2886 21.7955 18.3628 21.8658 18.4485 21.9198C18.5342 21.9737 18.6297 22.0103 18.7295 22.0273C18.7719 22.0342 18.8147 22.0377 18.8576 22.0379C18.9832 22.0381 19.1068 22.0077 19.2179 21.9493L25.0506 18.8832L30.8842 21.9493C30.9943 22.0076 31.117 22.0381 31.2416 22.0379C31.3538 22.038 31.4647 22.0135 31.5665 21.9662C31.6683 21.919 31.7586 21.85 31.831 21.7643C31.9034 21.6785 31.9561 21.5779 31.9856 21.4696C32.0151 21.3613 32.0205 21.2479 32.0016 21.1372L30.888 14.6418L35.6081 10.0422C35.7536 9.89914 35.8365 9.70419 35.8385 9.50013C35.8405 9.29607 35.7614 9.09955 35.6187 8.95369ZM29.5202 13.8211C29.4307 13.9083 29.3638 14.016 29.3252 14.1348C29.2866 14.2536 29.2775 14.38 29.2986 14.5031L30.2176 19.859L25.4079 17.3304C25.2971 17.2729 25.174 17.243 25.0491 17.243C24.9242 17.243 24.8012 17.2729 24.6903 17.3304L19.8806 19.8609L20.7996 14.5051C20.8207 14.3819 20.8116 14.2555 20.773 14.1367C20.7344 14.0179 20.6675 13.9103 20.5781 13.8231L16.6874 10.0306L22.0634 9.24942C22.1867 9.23107 22.3037 9.1831 22.4044 9.10961C22.505 9.03613 22.5864 8.93932 22.6414 8.8275L25.0496 3.95524L27.4578 8.8275C27.5128 8.93932 27.5942 9.03613 27.6948 9.10961C27.7955 9.1831 27.9125 9.23107 28.0358 9.24942L33.4128 10.0306L29.5202 13.8211Z" fill="white"/>
<path d="M14.757 14.2065C14.6143 14.114 14.4449 14.0713 14.2754 14.0851L10.9241 14.3509L8.80491 11.7424C8.71433 11.6305 8.59422 11.5462 8.45819 11.4991C8.32216 11.452 8.17566 11.4439 8.03528 11.4758C7.8949 11.5077 7.76625 11.5783 7.66393 11.6795C7.5616 11.7808 7.48968 11.9087 7.45632 12.0487L6.6751 15.3181L3.54156 16.527C3.40735 16.5787 3.29028 16.6669 3.20359 16.7816C3.1169 16.8964 3.06405 17.0331 3.05102 17.1763C3.03799 17.3196 3.0653 17.4636 3.12986 17.5921C3.19442 17.7206 3.29365 17.8285 3.41633 17.9035L6.28305 19.6577L6.41117 22.0379L6.46415 23.0137C6.47476 23.2108 6.56061 23.3964 6.70399 23.532C6.84738 23.6677 7.03737 23.7432 7.23477 23.7429H7.27715C7.44638 23.7338 7.60787 23.6691 7.73664 23.5589L9.51389 22.0389L10.2913 21.3742L12.7871 22.0389L13.5394 22.2392C13.6783 22.2761 13.8248 22.2734 13.9623 22.2314C14.0997 22.1894 14.2227 22.1098 14.3173 22.0015C14.4118 21.8933 14.4743 21.7608 14.4975 21.619C14.5208 21.4771 14.5039 21.3316 14.4488 21.1989L13.1599 18.0942L14.9901 15.2728C15.045 15.1875 15.0825 15.0923 15.1005 14.9925C15.1185 14.8927 15.1166 14.7903 15.0949 14.6912C15.0732 14.5922 15.0323 14.4984 14.9743 14.4152C14.9163 14.332 14.8425 14.2611 14.757 14.2065ZM11.5782 18.31L12.423 20.3474L10.2922 19.779C10.1715 19.7468 10.0448 19.7445 9.92293 19.7722C9.8011 19.7999 9.68783 19.8568 9.59287 19.938L7.91773 21.3713L7.79829 19.1702C7.7917 19.0454 7.75484 18.9241 7.6909 18.8167C7.62697 18.7093 7.53786 18.619 7.43128 18.5537L5.54999 17.4036L7.60756 16.6098C7.72405 16.5649 7.82787 16.4923 7.9101 16.3983C7.99232 16.3044 8.05048 16.1918 8.07956 16.0704L8.59299 13.9261L9.98396 15.6379C10.0627 15.7348 10.1638 15.8111 10.2786 15.8603C10.3934 15.9094 10.5184 15.93 10.6428 15.9201L12.841 15.7458L11.6427 17.5962C11.5753 17.7012 11.5343 17.8211 11.5234 17.9454C11.5125 18.0697 11.532 18.1949 11.5801 18.31H11.5782Z" fill="white"/>
<path d="M46.7537 16.423C46.6781 16.2712 46.5545 16.1487 46.4021 16.0743L43.3841 14.5957L42.8909 11.2704C42.87 11.1281 42.8096 10.9945 42.7166 10.8847C42.6236 10.775 42.5018 10.6934 42.3648 10.6493C42.2279 10.6052 42.0814 10.6003 41.9418 10.6352C41.8022 10.67 41.6752 10.7433 41.5751 10.8466L39.2353 13.2605L35.9207 12.7018C35.7788 12.6778 35.633 12.694 35.4998 12.7486C35.3666 12.8032 35.2514 12.894 35.1672 13.0107C35.083 13.1274 35.0331 13.2654 35.0233 13.4089C35.0134 13.5525 35.044 13.696 35.1115 13.8231L36.6845 16.7939L35.1298 19.7733C35.0635 19.9004 35.0339 20.0435 35.0445 20.1865C35.055 20.3295 35.1053 20.4667 35.1895 20.5827C35.2738 20.6987 35.3888 20.7889 35.5215 20.8431C35.6543 20.8974 35.7995 20.9135 35.9409 20.8897L39.2526 20.3117L40.9499 22.0379L41.6107 22.7122C41.7114 22.8148 41.8387 22.8872 41.9784 22.9213C42.118 22.9553 42.2644 22.9496 42.401 22.9048C42.5376 22.86 42.6589 22.7779 42.7512 22.6678C42.8436 22.5577 42.9033 22.4239 42.9237 22.2817L42.9584 22.0389L43.3976 18.9564L46.4069 17.4527C46.589 17.3617 46.7277 17.2023 46.7927 17.0094C46.8577 16.8164 46.8436 16.6056 46.7537 16.423ZM42.3477 17.7533C42.2362 17.8086 42.1398 17.89 42.0666 17.9907C41.9935 18.0913 41.9458 18.2082 41.9277 18.3312L41.6165 20.515L40.0753 18.94C39.9878 18.8508 39.8799 18.7842 39.7609 18.7459C39.6419 18.7076 39.5154 18.6989 39.3923 18.7204L37.2201 19.0999L38.2402 17.1445C38.2983 17.034 38.3286 16.911 38.3286 16.7861C38.3286 16.6613 38.2983 16.5383 38.2402 16.4278L37.2086 14.4791L39.3827 14.8451C39.506 14.866 39.6325 14.8566 39.7513 14.8176C39.8701 14.7787 39.9777 14.7114 40.0647 14.6217L41.5953 13.0409L41.919 15.2218C41.9374 15.3452 41.9856 15.4622 42.0592 15.5629C42.1329 15.6635 42.2299 15.7448 42.3419 15.7998L44.3214 16.7707L42.3477 17.7533Z" fill="white"/>
</svg>
