<svg width="54" height="47" viewBox="0 0 54 47" fill="none" xmlns="http://www.w3.org/2000/svg">
<path d="M51.7012 8.87386H44.7838C44.8471 8.66269 44.8893 8.43041 44.8893 8.19812V4.05926C44.8893 3.43632 44.6995 2.83449 44.3304 2.32769L43.3497 0.955107C42.9912 0.448307 42.4429 0.120998 41.8313 0.0259733C41.2091 -0.0584934 40.6081 0.0998815 40.1125 0.479982L35.1564 4.38657H33.3427L28.3866 0.479982C27.9016 0.0998815 27.29 -0.0690517 26.6678 0.0259733C26.0562 0.11044 25.5079 0.437748 25.1494 0.955107L24.1687 2.32769C23.7996 2.83449 23.6098 3.43632 23.6098 4.05926V8.19812C23.6098 8.43041 23.652 8.66269 23.7153 8.87386H16.7979C15.5325 8.87386 14.4991 9.90857 14.4991 11.165V15.4728C14.4991 16.5392 15.2373 17.4472 16.2285 17.7006L13.5395 21.9662L7.80316 12.8649C7.48682 12.3687 6.98067 12.0414 6.41125 11.9569C5.83128 11.8724 5.25132 12.0414 4.80844 12.4215L2.97364 14.0158C2.28823 14.6176 1.89807 15.4728 1.89807 16.3914V19.5589C1.89807 20.752 2.34095 21.8395 3.07909 22.6736H2.42531C1.08612 22.6736 0 23.7611 0 25.102V44.5716C0 45.9125 1.08612 47 2.42531 47H49.5079C50.9209 47 52.0703 45.8491 52.0703 44.4449V17.7429C53.1564 17.5634 54 16.6131 54 15.4728V11.165C53.9895 9.90857 52.9666 8.87386 51.7012 8.87386ZM41.0931 1.72586C41.2408 1.60972 41.42 1.55693 41.6098 1.58861C41.7996 1.62028 41.9578 1.71531 42.0633 1.86312L43.0439 3.23571C43.2127 3.47855 43.3076 3.75307 43.3076 4.0487V8.18757C43.3076 8.55711 43.0018 8.8633 42.6327 8.8633H39.1107C39.1529 8.71548 39.1424 7.96584 39.1424 7.69132L41.0193 6.30818C41.3673 6.04422 41.4411 5.54798 41.1775 5.19956C40.9139 4.85113 40.4183 4.77722 40.0703 5.04118L38.7417 6.03367C38.4253 5.45296 37.9192 4.98839 37.3286 4.70332L41.0931 1.72586ZM32.5308 5.97032H35.9578C36.7381 5.97032 37.5712 6.66716 37.5606 7.57518V8.41985C37.5606 9.30675 36.8436 10.0247 35.9578 10.0247H32.5308C31.645 10.0247 30.9279 9.30675 30.9279 8.41985V7.57518C30.9174 6.81498 31.6134 5.97032 32.5308 5.97032ZM25.1916 4.05926C25.1916 3.76362 25.2865 3.47855 25.4552 3.24626L26.4359 1.87368C26.5413 1.72587 26.71 1.62028 26.8893 1.59916C27.0791 1.56749 27.2583 1.62028 27.406 1.73642L31.1705 4.70332C30.5694 4.98839 30.0633 5.46351 29.7469 6.04422L28.3023 4.97783C27.9438 4.72443 27.4587 4.79834 27.1951 5.14676C26.9315 5.50575 27.0158 5.99143 27.3638 6.25539L29.3462 7.71244C29.3568 8.18757 29.3146 8.33538 29.3779 8.87386H25.8664C25.4974 8.87386 25.1916 8.56767 25.1916 8.19812V4.05926ZM16.0808 15.4834V11.1756C16.0808 10.7849 16.3972 10.4682 16.7979 10.4682H30.0949C30.6749 11.165 31.5606 11.6085 32.5308 11.6085H33.4587V16.2013H25.1916C25.1388 15.3672 24.7592 14.5754 24.116 14.0263L22.2812 12.432C21.8383 12.0519 21.2583 11.883 20.6784 11.9674C20.0984 12.0519 19.5923 12.3898 19.2865 12.8755L17.188 16.1908H16.7979C16.4077 16.1908 16.0808 15.874 16.0808 15.4834ZM3.47979 16.3914C3.47979 15.9374 3.68014 15.515 4.01757 15.2194L5.85237 13.6251C6.04218 13.4878 6.25308 13.4562 6.47452 13.7201L11.3462 21.4594L7.78207 19.6434C7.39192 19.4427 6.9174 19.6011 6.71705 19.9918C6.5167 20.3824 6.67487 20.8576 7.06503 21.0582L10.239 22.6736H6.59051C4.87171 22.6736 3.47979 21.2799 3.47979 19.5589V16.3914ZM1.58172 25.0915C1.58172 24.6269 1.96134 24.2468 2.42531 24.2468H9.07909V31.3525H1.58172V25.0915ZM1.58172 32.9363H9.07909V37.4025H1.58172V32.9363ZM9.07909 45.4057H2.42531C1.96134 45.4057 1.58172 45.0256 1.58172 44.561V38.9757H9.07909V45.4057ZM16.4288 45.4057H10.6608V24.2468H16.4288V45.4057ZM20.362 19.9812C20.1617 19.5906 19.6872 19.4322 19.297 19.6328L15.7434 21.4488L20.6151 13.7096C20.6995 13.5723 20.8366 13.5301 20.8998 13.5195C20.9736 13.509 21.1107 13.509 21.2373 13.6145L23.0721 15.2089C23.4095 15.5045 23.6098 15.9268 23.6098 16.3808V19.5483C23.6098 21.2588 22.2179 22.663 20.4991 22.663H16.8401L20.0141 21.0476C20.4042 20.847 20.5624 20.3719 20.362 19.9812ZM25.5079 44.561C25.5079 45.0256 25.1283 45.4057 24.6643 45.4057H18.0105V38.9757H25.5079V44.561ZM25.5079 37.4025H18.0105V32.9363H25.5079V37.4025ZM25.5079 31.3525H18.0105V24.2468H24.6643C25.1283 24.2468 25.5079 24.6269 25.5079 25.0915V31.3525ZM33.4587 45.4057H26.942C27.0369 45.1417 27.0896 44.8567 27.0896 44.561V31.2364H33.4587V45.4057ZM50.478 44.4343C50.478 44.9728 50.0457 45.4163 49.4974 45.4163H35.0404V31.2364H50.4886V44.4343H50.478ZM50.478 29.6527H35.0404V20.6886C35.0404 20.2557 34.6819 19.8968 34.2496 19.8968C33.8067 19.8968 33.4587 20.2557 33.4587 20.6886V29.6527H27.0896V25.0915C27.0896 23.7505 26.0035 22.663 24.6643 22.663H24.0105C24.7487 21.8395 25.1916 20.7414 25.1916 19.5483V17.7745H50.478V29.6527ZM52.4077 15.4834C52.4077 15.874 52.0914 16.1908 51.7012 16.1908H35.0404V11.5979H35.9578C36.9385 11.5979 37.8137 11.1545 38.3937 10.4576H51.7012C52.0914 10.4576 52.4077 10.7744 52.4077 11.165V15.4834Z" fill="white"/>
</svg>
