<svg width="70" height="70" viewBox="0 0 70 70" fill="none" xmlns="http://www.w3.org/2000/svg">
<g clip-path="url(#clip0_1302_9316)">
<path d="M63.8403 56.1513C63.5216 55.2838 63.3395 54.7816 63.3395 54.5076C63.3395 54.2337 63.5216 53.7314 63.8403 52.8639C63.8403 52.8487 63.8554 52.8335 63.8554 52.803C64.1134 52.0116 64.0223 51.1441 63.6127 50.4288C63.203 49.7134 62.4898 49.196 61.6857 49.0286C61.6705 49.0286 61.6553 49.0286 61.6401 49.0133C60.7753 48.8611 60.1987 48.7698 59.9711 48.6329C59.7435 48.4959 59.4097 48.1154 58.8027 47.3696C58.7876 47.3544 58.7724 47.3392 58.7724 47.324C58.2262 46.7 57.422 46.3499 56.6026 46.3499C55.7681 46.3499 54.9791 46.7 54.4328 47.324C54.4177 47.3392 54.4025 47.3544 54.4025 47.3696C53.8411 48.0393 53.4769 48.4959 53.2341 48.6329C53.0065 48.7698 52.5058 48.8611 51.5651 49.0133C51.5499 49.0133 51.5347 49.0133 51.5044 49.0286C50.685 49.196 49.9871 49.7134 49.5774 50.4288C49.1677 51.1441 49.0767 52.0116 49.3346 52.803L49.896 54.4924C49.8505 54.7359 49.6684 55.2229 49.5774 55.4665C49.4712 55.7556 49.3801 56.0144 49.3043 56.2731C49.0767 57.0493 49.1677 57.8864 49.5622 58.5713C49.9719 59.2866 50.685 59.804 51.4892 59.9715C51.5044 59.9715 51.5196 59.9715 51.5347 59.9867C52.3996 60.1389 52.9762 60.2302 53.2038 60.3672C53.4314 60.5041 53.7652 60.8846 54.3721 61.6304C54.3873 61.6456 54.4025 61.6608 54.4025 61.6761C54.9487 62.3001 55.7529 62.6501 56.5723 62.6501C57.4068 62.6501 58.1958 62.3001 58.742 61.6761C58.7572 61.6608 58.7724 61.6456 58.7724 61.6304C59.3338 60.9607 59.698 60.5041 59.9407 60.3672C60.1683 60.2302 60.6691 60.1389 61.6098 59.9867C61.625 59.9867 61.6401 59.9867 61.6553 59.9715C62.4747 59.804 63.1726 59.2866 63.5823 58.5713C63.992 57.8559 64.083 56.9884 63.8251 56.197C63.8403 56.1818 63.8403 56.1666 63.8403 56.1513ZM56.5723 60.4889C54.7515 58.3125 54.1901 57.9929 51.383 57.4907C51.4285 57.3537 51.4892 57.1863 51.5499 57.0341C51.9596 55.9078 52.4755 54.5228 51.9899 53.3053L51.3982 51.5246C54.1901 51.0376 54.7515 50.7027 56.5723 48.5263C58.3931 50.7027 58.9545 51.0223 61.7312 51.5094C60.7753 54.1424 60.7753 54.8577 61.7312 57.4907C58.9545 57.9929 58.3931 58.3125 56.5723 60.4889Z" fill="#F04C41"/>
<path d="M59 54.5C59 55.8807 57.8807 57 56.5 57C55.1193 57 54 55.8807 54 54.5C54 53.1193 55.1193 52 56.5 52C57.8807 52 59 53.1193 59 54.5Z" stroke="#F04C41" stroke-width="2"/>
<path d="M67.0332 16.0644H58.0645C58.1465 15.791 58.2012 15.4902 58.2012 15.1894V9.83002C58.2012 9.02338 57.9551 8.24408 57.4766 7.58783L56.2051 5.81049C55.7402 5.15424 55.0293 4.73041 54.2363 4.60736C53.4297 4.49799 52.6504 4.70307 52.0078 5.19525L45.582 10.2538H43.2305L36.8047 5.19525C36.1758 4.70307 35.3828 4.48432 34.5762 4.60736C33.7832 4.71674 33.0723 5.14057 32.6074 5.81049L31.3359 7.58783C30.8574 8.24408 30.6113 9.02338 30.6113 9.83002V15.1894C30.6113 15.4902 30.666 15.791 30.748 16.0644H21.7793C20.1387 16.0644 18.7988 17.4042 18.7988 19.0312V24.6093C18.7988 25.9902 19.7559 27.166 21.041 27.4941L17.5547 33.0175L10.1172 21.2324C9.70703 20.5898 9.05078 20.166 8.3125 20.0566C7.56055 19.9472 6.80859 20.166 6.23438 20.6581L3.85547 22.7226C2.9668 23.5019 2.46094 24.6093 2.46094 25.7988V29.9003C2.46094 31.4453 3.03516 32.8535 3.99219 33.9335H3.14453C1.4082 33.9335 0 35.3417 0 37.0781V62.289C0 64.0253 1.4082 65.4335 3.14453 65.4335H64.1895C66.0215 65.4335 67.5117 63.9433 67.5117 62.1249V27.5488C68.9199 27.3163 70.0137 26.0859 70.0137 24.6093V19.0312C70 17.4042 68.6738 16.0644 67.0332 16.0644ZM53.2793 6.80853C53.4707 6.65814 53.7031 6.58978 53.9492 6.6308C54.1953 6.67182 54.4004 6.79486 54.5371 6.98627L55.8086 8.76361C56.0273 9.07807 56.1504 9.43354 56.1504 9.81635V15.1757C56.1504 15.6542 55.7539 16.0507 55.2754 16.0507H50.709C50.7637 15.8593 50.75 14.8886 50.75 14.5331L53.1836 12.7421C53.6348 12.4003 53.7305 11.7578 53.3887 11.3066C53.0469 10.8554 52.4043 10.7597 51.9531 11.1015L50.2305 12.3867C49.8203 11.6347 49.1641 11.0331 48.3984 10.664L53.2793 6.80853ZM42.1777 12.3046H46.6211C47.6328 12.3046 48.7129 13.207 48.6992 14.3828V15.4765C48.6992 16.6249 47.7695 17.5546 46.6211 17.5546H42.1777C41.0293 17.5546 40.0996 16.6249 40.0996 15.4765V14.3828C40.0859 13.3984 40.9883 12.3046 42.1777 12.3046ZM32.6621 9.83002C32.6621 9.44721 32.7852 9.07807 33.0039 8.77728L34.2754 6.99994C34.4121 6.80853 34.6309 6.67182 34.8633 6.64447C35.1094 6.60346 35.3418 6.67182 35.5332 6.82221L40.4141 10.664C39.6348 11.0331 38.9785 11.6484 38.5684 12.4003L36.6953 11.0195C36.2305 10.6913 35.6016 10.7871 35.2598 11.2382C34.918 11.7031 35.0273 12.332 35.4785 12.6738L38.0488 14.5605C38.0625 15.1757 38.0078 15.3671 38.0898 16.0644H33.5371C33.0586 16.0644 32.6621 15.6679 32.6621 15.1894V9.83002ZM20.8496 24.623V19.0449C20.8496 18.539 21.2598 18.1288 21.7793 18.1288H39.0195C39.7715 19.0312 40.9199 19.6054 42.1777 19.6054H43.3809V25.5527H32.6621C32.5938 24.4726 32.1016 23.4472 31.2676 22.7363L28.8887 20.6718C28.3145 20.1796 27.5625 19.9609 26.8105 20.0703C26.0586 20.1796 25.4023 20.6171 25.0059 21.246L22.2852 25.539H21.7793C21.2734 25.539 20.8496 25.1288 20.8496 24.623ZM4.51172 25.7988C4.51172 25.2109 4.77148 24.664 5.20898 24.2812L7.58789 22.2167C7.83398 22.039 8.10742 21.998 8.39453 22.3398L14.7109 32.3613L10.0898 30.0097C9.58398 29.7499 8.96875 29.955 8.70898 30.4609C8.44922 30.9667 8.6543 31.582 9.16016 31.8417L13.2754 33.9335H8.54492C6.31641 33.9335 4.51172 32.1288 4.51172 29.9003V25.7988ZM2.05078 37.0644C2.05078 36.4628 2.54297 35.9706 3.14453 35.9706H11.7715V45.1718H2.05078V37.0644ZM2.05078 47.2226H11.7715V53.0058H2.05078V47.2226ZM11.7715 63.3691H3.14453C2.54297 63.3691 2.05078 62.8769 2.05078 62.2753V55.0429H11.7715V63.3691ZM21.3008 63.3691H13.8223V35.9706H21.3008V63.3691ZM26.4004 30.4472C26.1406 29.9413 25.5254 29.7363 25.0195 29.996L20.4121 32.3476L26.7285 22.3261C26.8379 22.1484 27.0156 22.0937 27.0977 22.08C27.1934 22.0663 27.3711 22.0663 27.5352 22.2031L29.9141 24.2675C30.3516 24.6503 30.6113 25.1972 30.6113 25.7851V29.8867C30.6113 32.1015 28.8066 33.9199 26.5781 33.9199H21.834L25.9492 31.8281C26.4551 31.5683 26.6602 30.9531 26.4004 30.4472ZM33.0723 62.2753C33.0723 62.8769 32.5801 63.3691 31.9785 63.3691H23.3516V55.0429H33.0723V62.2753ZM33.0723 53.0058H23.3516V47.2226H33.0723V53.0058ZM33.0723 45.1718H23.3516V35.9706H31.9785C32.5801 35.9706 33.0723 36.4628 33.0723 37.0644V45.1718ZM43.3809 63.3691H34.9316C35.0547 63.0273 35.123 62.6581 35.123 62.2753V45.0214H43.3809V63.3691ZM65.4473 62.1113C65.4473 62.8085 64.8867 63.3828 64.1758 63.3828H45.4316V45.0214H65.4609V62.1113H65.4473ZM65.4473 42.9706H45.4316V31.3632C45.4316 30.8027 44.9668 30.3378 44.4062 30.3378C43.832 30.3378 43.3809 30.8027 43.3809 31.3632V42.9706H35.123V37.0644C35.123 35.3281 33.7148 33.9199 31.9785 33.9199H31.1309C32.0879 32.8535 32.6621 31.4316 32.6621 29.8867V27.5898H65.4473V42.9706ZM67.9492 24.623C67.9492 25.1288 67.5391 25.539 67.0332 25.539H45.4316V19.5917H46.6211C47.8926 19.5917 49.0273 19.0175 49.7793 18.1152H67.0332C67.5391 18.1152 67.9492 18.5253 67.9492 19.0312V24.623Z" fill="#F04C41"/>
</g>
<defs>
<clipPath id="clip0_1302_9316">
<rect width="70" height="70" fill="white"/>
</clipPath>
</defs>
</svg>
