<svg width="70" height="70" viewBox="0 0 70 70" fill="none" xmlns="http://www.w3.org/2000/svg">
<g clip-path="url(#clip0_1302_9323)">
<path d="M66.6972 19.3987C63.6072 15.3717 58.7376 13.1538 52.986 13.1538C47.1952 13.1538 41.1608 15.3978 35.9945 19.4724C30.8358 23.5409 27.1429 28.9612 25.5958 34.7347C23.9846 40.7479 24.8799 46.3829 28.1169 50.6013C31.207 54.6283 36.0765 56.8462 41.8282 56.8462C47.619 56.8462 53.6533 54.6022 58.8197 50.5276C63.9783 46.4592 67.6712 41.0388 69.2183 35.2653C70.8295 29.2522 69.9341 23.6173 66.6972 19.3987ZM67.2375 34.7347C64.2736 45.7964 52.875 54.7958 41.828 54.7958C36.7284 54.7958 32.4367 52.8629 29.7437 49.3532C26.9037 45.6519 26.134 40.649 27.5765 35.2656C30.5405 24.2039 41.939 15.2045 52.986 15.2045C58.0856 15.2045 62.3772 17.1374 65.0703 20.6471C67.9103 24.3482 68.68 29.3513 67.2375 34.7347Z" fill="#F04C41"/>
<path d="M50.3435 25.0672C50.7962 25.0672 51.2105 24.7651 51.3333 24.307L51.6269 23.2112C51.7735 22.6642 51.4489 22.102 50.902 21.9554C50.3554 21.8094 49.7928 22.1334 49.6462 22.6804L49.3526 23.7762C49.206 24.3231 49.5306 24.8854 50.0775 25.0319C50.1664 25.0559 50.2556 25.0672 50.3435 25.0672Z" fill="#F04C41"/>
<path d="M43.4791 45.6931L43.1856 46.7889C43.039 47.3358 43.3637 47.8981 43.9106 48.0446C43.9995 48.0684 44.0888 48.0798 44.1767 48.0798C44.6294 48.0798 45.0437 47.7777 45.1664 47.3196L45.4599 46.2237C45.6065 45.6768 45.2818 45.1145 44.7348 44.968C44.1875 44.822 43.6256 45.1461 43.4791 45.6931Z" fill="#F04C41"/>
<path d="M58.3641 36.0254H59.46C60.0262 36.0254 60.4853 35.5664 60.4853 35.0001C60.4853 34.4339 60.0262 33.9749 59.46 33.9749H58.3641C57.7979 33.9749 57.3389 34.4339 57.3389 35.0001C57.3389 35.5664 57.7979 36.0254 58.3641 36.0254Z" fill="#F04C41"/>
<path d="M36.4482 33.9749H35.3524C34.7862 33.9749 34.3271 34.4339 34.3271 35.0001C34.3271 35.5664 34.7862 36.0254 35.3524 36.0254H36.4482C37.0145 36.0254 37.4735 35.5664 37.4735 35.0001C37.4735 34.4339 37.0145 33.9749 36.4482 33.9749Z" fill="#F04C41"/>
<path d="M58.6318 26.1463C58.2811 25.7017 57.6366 25.6256 57.1919 25.9762L49.3862 32.1324C48.978 31.9059 48.501 31.7831 47.9932 31.7831C47.5013 31.7831 47.0115 31.8981 46.5527 32.099L41.8155 25.6279C41.481 25.1709 40.8395 25.0718 40.3826 25.4061C39.9257 25.7407 39.8265 26.3822 40.1609 26.8391L44.9302 33.3542C44.6058 33.7642 44.3584 34.2326 44.2239 34.7348C43.9823 35.6362 44.1368 36.5351 44.6476 37.2008C45.1432 37.8468 45.9346 38.2171 46.8186 38.2171C48.4887 38.2171 50.1445 36.9206 50.588 35.2655C50.7256 34.7518 50.7342 34.239 50.6219 33.7696L58.4617 27.5864C58.9064 27.2355 58.9826 26.5908 58.6318 26.1463ZM48.6071 34.7347C48.4028 35.4974 47.5669 36.1664 46.8186 36.1664C46.6453 36.1664 46.4102 36.1293 46.2744 35.9524C46.1548 35.7966 46.1294 35.5462 46.2047 35.2654C46.4091 34.5027 47.2449 33.8337 47.9932 33.8337C48.1665 33.8337 48.4017 33.8707 48.5374 34.0476C48.657 34.2035 48.6825 34.4539 48.6071 34.7347Z" fill="#F04C41"/>
<path d="M39.533 24.1819C46.479 18.7039 55.3437 18.0588 60.1533 22.6814C60.5616 23.0739 61.2105 23.0609 61.6029 22.6527C61.9953 22.2445 61.9824 21.5955 61.5742 21.2031C58.871 18.6048 55.0084 17.3181 50.6988 17.5795C46.4331 17.8384 42.0167 19.6113 38.263 22.5718C34.5158 25.5272 31.6928 29.4579 30.3142 33.6396C28.9254 37.8526 29.0844 42.0341 30.7622 45.4139C30.9412 45.7747 31.3041 45.9836 31.6814 45.9836C31.8345 45.9836 31.9899 45.9491 32.1364 45.8764C32.6436 45.6246 32.8507 45.0094 32.5989 44.5023C29.5786 38.4176 32.5595 29.6816 39.533 24.1819Z" fill="#F04C41"/>
<path d="M62.6762 24.1235C62.169 24.3751 61.9619 24.9904 62.2138 25.4976C65.2341 31.5824 62.2533 40.3184 55.2798 45.8181C48.3338 51.2961 39.4689 51.9412 34.6595 47.3186C34.2512 46.9262 33.6021 46.9391 33.2099 47.3473C32.8175 47.7555 32.8304 48.4046 33.2386 48.7969C35.712 51.1743 39.1557 52.4537 43.0247 52.4537C43.3843 52.4537 43.7475 52.4427 44.1139 52.4204C48.3796 52.1615 52.7959 50.3884 56.5497 47.4279C60.2969 44.4725 63.1198 40.5419 64.4985 36.3601C65.8873 32.1472 65.7281 27.9657 64.0505 24.5858C63.7987 24.0788 63.1834 23.8715 62.6762 24.1235Z" fill="#F04C41"/>
<path d="M6.5038 36.0254H20.7497C21.3159 36.0254 21.775 35.5664 21.775 35.0001C21.775 34.4339 21.3159 33.9749 20.7497 33.9749H6.5038C5.93757 33.9749 5.47852 34.4339 5.47852 35.0001C5.47852 35.5664 5.93743 36.0254 6.5038 36.0254Z" fill="#F04C41"/>
<path d="M12.2656 29H21.7344C22.4334 29 23 28.5523 23 28C23 27.4477 22.4334 27 21.7344 27H12.2656C11.5666 27 11 27.4477 11 28C11 28.5523 11.5666 29 12.2656 29Z" fill="#F04C41"/>
<path d="M21.7757 41.575C21.7757 41.0087 21.3167 40.5497 20.7504 40.5497H1.02528C0.459052 40.5497 0 41.0087 0 41.575C0 42.1412 0.459052 42.6003 1.02528 42.6003H20.7504C21.3167 42.6003 21.7757 42.1412 21.7757 41.575Z" fill="#F04C41"/>
<path d="M28 22C28 21.4477 27.3579 21 26.5658 21H20.4342C19.6421 21 19 21.4477 19 22C19 22.5523 19.6421 23 20.4342 23H26.5658C27.3579 23 28 22.5523 28 22Z" fill="#F04C41"/>
<path d="M21.8463 47.1249H9.79188C9.22565 47.1249 8.7666 47.5839 8.7666 48.1502C8.7666 48.7164 9.22565 49.1754 9.79188 49.1754H21.8463C22.4125 49.1754 22.8716 48.7164 22.8716 48.1502C22.8716 47.5839 22.4125 47.1249 21.8463 47.1249Z" fill="#F04C41"/>
</g>
<defs>
<clipPath id="clip0_1302_9323">
<rect width="70" height="70" fill="white"/>
</clipPath>
</defs>
</svg>
