<svg width="458" height="366" viewBox="0 0 458 366" fill="none" xmlns="http://www.w3.org/2000/svg">
<rect width="458" height="366" rx="10" fill="#46AD91"/>
<mask id="mask0_1796_8885" style="mask-type:alpha" maskUnits="userSpaceOnUse" x="0" y="0" width="458" height="366">
<rect width="458" height="366" rx="10" fill="#46AD91"/>
</mask>
<g mask="url(#mask0_1796_8885)">
<path d="M140.608 182.466C107.162 318.922 -4.83454 302.57 -10.8397 300.207L-24.3428 194.352L-19.3674 -10.2172L401.333 -40.7402C401.333 -40.7402 401.676 48.6628 298.962 54.2087C196.249 59.7547 152.461 134.105 140.608 182.466Z" fill="#5ECBAD"/>
<path d="M414.333 -31.7402C414.333 -31.7402 414.676 57.6628 311.962 63.2087C209.249 68.7547 165.461 143.105 153.608 191.466C120.162 327.922 -5.33765 318.863 -11.3428 316.5L-11.3428 203.352L-6.36742 -1.21724L414.333 -31.7402ZM414.333 -31.7402L275.202 -4.62188" stroke="#5ECBAD" stroke-width="2"/>
</g>
</svg>
