<svg width="35" height="35" viewBox="0 0 35 35" fill="none" xmlns="http://www.w3.org/2000/svg">
<path d="M17.5044 0H17.4956C7.84656 0 0 7.84875 0 17.5C0 21.3281 1.23375 24.8762 3.33156 27.7572L1.15062 34.2584L7.87719 32.1081C10.6444 33.9412 13.9453 35 17.5044 35C27.1534 35 35 27.1491 35 17.5C35 7.85094 27.1534 0 17.5044 0Z" fill="#4CAF50"/>
<path d="M27.6867 24.7122C27.2645 25.9044 25.5889 26.8931 24.2524 27.1819C23.338 27.3766 22.1436 27.5319 18.123 25.865C12.9802 23.7344 9.66828 18.5084 9.41016 18.1694C9.16297 17.8303 7.33203 15.4022 7.33203 12.8909C7.33203 10.3797 8.60734 9.15687 9.12141 8.63187C9.5436 8.20093 10.2414 8.00406 10.9108 8.00406C11.1273 8.00406 11.322 8.015 11.497 8.02375C12.0111 8.04562 12.2692 8.07625 12.6083 8.88781C13.0305 9.905 14.0586 12.4162 14.1811 12.6744C14.3058 12.9325 14.4305 13.2825 14.2555 13.6216C14.0914 13.9716 13.947 14.1269 13.6889 14.4244C13.4308 14.7219 13.1858 14.9494 12.9277 15.2687C12.6914 15.5466 12.4245 15.8441 12.722 16.3581C13.0195 16.8612 14.0477 18.5391 15.5614 19.8866C17.5149 21.6256 19.0986 22.1812 19.6652 22.4175C20.0874 22.5925 20.5905 22.5509 20.8989 22.2228C21.2905 21.8006 21.7739 21.1006 22.2661 20.4116C22.6161 19.9172 23.058 19.8559 23.5217 20.0309C23.9942 20.195 26.4945 21.4309 27.0086 21.6869C27.5227 21.945 27.8617 22.0675 27.9864 22.2841C28.1089 22.5006 28.1089 23.5178 27.6867 24.7122Z" fill="#FAFAFA"/>
</svg>
