<svg width="46" height="40" viewBox="0 0 46 40" fill="none" xmlns="http://www.w3.org/2000/svg">
<path d="M44.3699 25.246L42.0324 25.9101L36.2816 5.77569C36.2152 5.52335 36.0426 5.31085 35.8035 5.17804C35.5777 5.04523 35.2988 5.01866 35.0465 5.08507L25.2184 7.88741L19.6004 9.49444L10.7285 12.0179L8.37774 3.77023C8.29806 3.49132 8.09884 3.26554 7.84649 3.14601L1.79025 0.317104C1.28556 0.0780416 0.701186 0.303823 0.462124 0.795229C0.223061 1.29992 0.448842 1.88429 0.940248 2.12335L6.58478 4.76632L9.08165 13.5187C9.08165 13.5187 9.08165 13.5187 9.08165 13.5319L13.7566 29.9608C12.8535 30.4257 12.1098 31.1429 11.6051 32.046C10.9277 33.2546 10.7684 34.6624 11.1535 35.9905C11.791 38.2085 13.8363 39.7624 16.1473 39.7624C16.6254 39.7624 17.1035 39.696 17.5684 39.5632C18.8965 39.178 20.0121 38.3015 20.6762 37.0929C21.2207 36.1101 21.4332 34.9944 21.2871 33.8921L41.5941 28.1148H41.6074L44.9145 27.1718C45.4457 27.0257 45.7512 26.4679 45.6051 25.9366C45.4457 25.4054 44.8879 25.0999 44.3699 25.246ZM26.1613 14.8335L24.5941 14.289C24.1957 14.1429 23.7574 14.2757 23.4918 14.6077L22.4559 15.896L21.1012 11.1413L24.8066 10.0921L26.1613 14.8335ZM18.9363 36.1366C18.5246 36.8804 17.834 37.4249 17.0238 37.6507C16.7316 37.7304 16.4395 37.7702 16.1473 37.7702C14.7262 37.7702 13.4645 36.814 13.0793 35.446C12.8402 34.6226 12.9465 33.7593 13.3582 33.0155C13.7699 32.2718 14.4606 31.7273 15.2707 31.5015C15.5629 31.4218 15.8551 31.3819 16.1473 31.3819C17.5684 31.3819 18.8301 32.3382 19.2152 33.7062C19.4543 34.5296 19.3481 35.3929 18.9363 36.1366ZM20.6496 32.0062C19.7465 30.4124 18.0332 29.3898 16.1473 29.3898C15.9879 29.3898 15.8418 29.403 15.6824 29.4163L11.2731 13.9437L19.1887 11.6858L21.0746 18.2866C21.1809 18.6452 21.4731 18.9108 21.8316 18.9905C21.8981 19.0038 21.9645 19.0038 22.0309 19.0038C22.3231 19.0038 22.6152 18.871 22.8012 18.6319L24.6074 16.3874L27.3168 17.3437C27.4231 17.3835 27.5426 17.3968 27.6621 17.3968C28.2066 17.3968 28.6582 16.9452 28.6582 16.4007C28.6582 16.2812 28.6316 16.1616 28.5918 16.0554L26.7324 9.52101L34.648 7.2632L40.1199 26.4413L20.6496 32.0062Z" fill="white"/>
</svg>
