<svg width="70" height="70" viewBox="0 0 70 70" fill="none" xmlns="http://www.w3.org/2000/svg">
<path d="M35 48.1934C23.6523 48.1934 14.4238 38.9648 14.4238 27.6172C14.4238 16.2695 23.6523 7.04102 35 7.04102C46.3477 7.04102 55.5762 16.2695 55.5762 27.6172C55.5762 38.9648 46.3477 48.1934 35 48.1934ZM35 9.22852C24.8555 9.22852 16.6113 17.4727 16.6113 27.6172C16.6113 37.7617 24.8555 46.0059 35 46.0059C45.1445 46.0059 53.3887 37.7617 53.3887 27.6172C53.3887 17.4727 45.1445 9.22852 35 9.22852Z" fill="#F04C41"/>
<path d="M61.851 28.739C63.2319 26.6198 62.9858 23.8444 61.2221 22.0124C60.4428 21.2057 60.1283 20.071 60.3608 18.9772C60.8803 16.489 59.6498 14.0143 57.353 12.9343C56.3412 12.4557 55.6303 11.5124 55.4526 10.4186C55.0424 7.91669 52.9916 6.04364 50.4623 5.86591C49.3412 5.78387 48.3432 5.16864 47.7826 4.19794C46.4975 2.01044 43.9135 1.01239 41.4799 1.76434C40.4135 2.09247 39.2514 1.87372 38.3764 1.19012C36.394 -0.382141 33.6049 -0.382141 31.6225 1.19012C30.7475 1.88739 29.5854 2.10614 28.519 1.76434C26.099 1.01239 23.5014 2.01044 22.2162 4.19794C21.6557 5.16864 20.644 5.78387 19.5365 5.86591C17.0072 6.04364 14.9565 7.91669 14.5463 10.4186C14.3686 11.5261 13.6576 12.4694 12.6459 12.9343C10.349 14.0143 9.10489 16.5026 9.6381 18.9772C9.87052 20.071 9.54239 21.2057 8.77677 22.0124C7.02677 23.8444 6.767 26.6061 8.14786 28.739C8.7631 29.6686 8.87247 30.8444 8.43497 31.8835C7.46427 34.2214 8.21622 36.9011 10.2807 38.3776C11.183 39.0339 11.7162 40.0866 11.6889 41.2077C11.6342 43.7507 13.3022 45.9655 15.7631 46.5944C16.4877 46.7858 17.1166 47.196 17.5678 47.7702L11.9213 61.4147C11.1283 63.3288 12.9193 65.2975 14.9018 64.6823L21.0815 62.7819C21.2592 62.7272 21.4506 62.8093 21.5463 62.9733L24.5815 68.6882C25.5522 70.5202 28.2045 70.3835 28.9975 68.4831L34.8901 54.2643C34.9721 54.2643 35.0404 54.2643 35.1225 54.2643L41.0151 68.4831C41.808 70.3972 44.4604 70.5202 45.4311 68.6882L48.4662 62.9733C48.5483 62.8093 48.7533 62.7272 48.9311 62.7819L55.1108 64.6823C57.0932 65.2839 58.8842 63.3151 58.0912 61.4147L52.4448 47.7702C52.8959 47.196 53.5248 46.7722 54.2494 46.5944C56.7104 45.9518 58.3783 43.737 58.3237 41.2077C58.2963 40.0866 58.8295 39.0339 59.7319 38.3776C61.7963 36.9011 62.5483 34.2214 61.5776 31.8835C61.1401 30.8581 61.2494 29.6823 61.851 28.739ZM27.0971 67.7038C26.974 68.0182 26.5365 68.0319 26.3862 67.7311L23.351 62.0163C22.8041 60.9772 21.5873 60.485 20.4799 60.8268L14.3002 62.7272C13.9858 62.8229 13.685 62.5085 13.8217 62.194L18.8393 50.0944C19.974 51.6393 21.8608 52.5007 23.8569 52.2682C24.9643 52.1452 26.0717 52.569 26.7963 53.403C27.8627 54.6335 29.3666 55.2761 30.8842 55.2761C31.3627 55.2761 31.8549 55.2077 32.3334 55.071L27.0971 67.7038ZM55.7123 62.7272L49.5326 60.8268C48.4115 60.485 47.2084 60.9909 46.6615 62.0163L43.6127 67.7448C43.4623 68.0456 43.0248 68.0182 42.9018 67.7175L37.6791 55.0983C39.6615 55.6452 41.8217 55.03 43.2162 53.4167C43.9545 52.569 45.0483 52.1452 46.1557 52.2819C48.1518 52.5143 50.0385 51.653 51.1733 50.1081L56.1908 62.2077C56.3139 62.5085 56.0268 62.8229 55.7123 62.7272ZM60.142 27.6179C59.1576 29.1218 58.9799 31.0085 59.6772 32.6765C60.2787 34.1393 59.8139 35.7936 58.5287 36.7233C57.0658 37.7761 56.2182 39.4714 56.2729 41.2624C56.3139 42.8483 55.2748 44.2155 53.7436 44.612C52.308 44.9811 51.1186 45.9108 50.394 47.1686V47.1823C50.2436 47.4557 50.1069 47.7292 49.9975 48.03C49.4643 49.5202 47.9877 50.4225 46.4291 50.2448C44.6518 50.0397 42.8744 50.7233 41.6987 52.0768C40.6596 53.2663 38.9643 53.5807 37.5697 52.8425C37.0912 52.5964 36.5854 52.4186 36.0795 52.3229H36.0658C35.3822 52.1862 34.685 52.1862 34.0014 52.3229C34.0014 52.3229 34.0014 52.3229 33.9877 52.3229C33.4682 52.4186 32.9623 52.5964 32.4975 52.8561C31.1029 53.5944 29.4076 53.28 28.3686 52.0905C27.3295 50.9011 25.8256 50.2175 24.267 50.2175C24.0619 50.2175 23.8432 50.2311 23.6381 50.2585C22.0658 50.4362 20.6029 49.5339 20.0697 48.0436C19.9604 47.7429 19.8373 47.4694 19.6733 47.196C19.6733 47.196 19.6733 47.1823 19.6596 47.1823C18.935 45.9245 17.7319 44.9948 16.31 44.6257C14.7787 44.2292 13.7397 42.8483 13.7807 41.2761C13.8217 39.485 12.974 37.7761 11.5248 36.737C10.2397 35.821 9.77482 34.153 10.3764 32.6901C11.06 31.0358 10.8959 29.1491 9.91154 27.6315C9.05021 26.3054 9.21427 24.5827 10.2943 23.4479C11.5385 22.1491 12.058 20.3307 11.6889 18.5671C11.3608 17.0222 12.1264 15.4772 13.5619 14.8073C15.1889 14.0417 16.3373 12.5378 16.6244 10.7604C16.8842 9.20184 18.1557 8.03973 19.7279 7.93036C21.519 7.80731 23.1322 6.80927 24.0483 5.26434C24.8412 3.89716 26.4545 3.28192 27.9721 3.74677C29.6811 4.27997 31.5541 3.9245 32.9623 2.81708C34.2065 1.8327 35.9291 1.8327 37.1596 2.81708C38.5678 3.93817 40.4272 4.27997 42.1498 3.74677C43.6537 3.28192 45.267 3.89716 46.0737 5.26434C46.976 6.80927 48.5893 7.80731 50.394 7.93036C51.9662 8.03973 53.2514 9.20184 53.4975 10.7604C53.7846 12.5378 54.933 14.0417 56.56 14.8073C57.9955 15.4772 58.7612 17.0222 58.433 18.5671C58.0639 20.3307 58.5834 22.1491 59.8276 23.4479C60.8393 24.5827 61.0033 26.3054 60.142 27.6179Z" fill="#F04C41"/>
<path d="M49.4781 23.4199C49.2183 22.6132 48.5074 22.08 47.6597 22.0527L39.6207 21.7656L36.859 14.205C36.5718 13.412 35.8336 12.9062 34.9996 12.9062C34.1656 12.9062 33.4273 13.412 33.1402 14.205L30.3785 21.7656L22.3394 22.0527C21.4918 22.08 20.7808 22.6269 20.5211 23.4199C20.2613 24.2128 20.5211 25.0742 21.191 25.5937L27.5211 30.5566L25.3062 38.2812C25.0738 39.0878 25.3609 39.9355 26.0445 40.4277C26.7281 40.9199 27.6168 40.9335 28.314 40.4687L34.9859 35.9707L41.6578 40.4687C42.355 40.9335 43.2437 40.9199 43.9273 40.4277C44.6109 39.9355 44.898 39.0878 44.6656 38.2812L42.4507 30.5429L48.7808 25.58C49.4781 25.0742 49.7379 24.2128 49.4781 23.4199ZM41.1793 28.9706C40.5367 29.4765 40.2769 30.2968 40.4957 31.0761L42.6695 38.6777L36.107 34.2617C35.7652 34.0292 35.3824 33.9199 34.9996 33.9199C34.6168 33.9199 34.234 34.0292 33.8922 34.2617L27.3297 38.6777L29.5035 31.0761C29.7222 30.2968 29.4625 29.4628 28.8199 28.9706L22.5992 24.0898L30.5015 23.8027C31.3082 23.7753 32.0191 23.2558 32.2925 22.5038L34.9996 15.08L37.7066 22.5038C37.98 23.2695 38.691 23.7753 39.4976 23.8027L47.4 24.0898L41.1793 28.9706Z" fill="#F04C41"/>
</svg>
