<svg width="70" height="66" viewBox="0 0 70 66" fill="none" xmlns="http://www.w3.org/2000/svg">
<path d="M65.1055 29.6232L63.2871 22.8511C63.7793 22.7489 64.1484 22.34 64.1484 21.8545V20.7684C64.1484 18.3918 62.084 16.4624 59.541 16.4624H51.2832V14.2136C51.2832 13.0508 50.2715 12.0925 49.0137 12.0925H6.94531C5.70117 12.0925 4.67578 13.0381 4.67578 14.2136V32.7664C4.67578 33.3287 5.16797 33.7886 5.76953 33.7886C6.37109 33.7886 6.86328 33.3287 6.86328 32.7664V14.188C6.86328 14.1497 6.89062 14.1241 6.93164 14.1241H49.0137C49.0547 14.1241 49.082 14.1497 49.082 14.188V37.0852C49.082 37.098 49.082 37.1236 49.082 37.1363V44.8539H26.3594C25.416 42.3112 22.832 40.484 19.7969 40.484C16.7617 40.484 14.1777 42.3112 13.2344 44.8539H6.94531C6.9043 44.8539 6.87695 44.8284 6.87695 44.79V42.5412H11.6211C12.2227 42.5412 12.7148 42.0812 12.7148 41.519C12.7148 40.9568 12.2227 40.4968 11.6211 40.4968H1.09375C0.492188 40.4968 0 40.9568 0 41.519C0 42.0812 0.492188 42.5412 1.09375 42.5412H4.67578V44.79C4.67578 45.9528 5.6875 46.9111 6.94531 46.9111H12.8652C12.8652 46.9366 12.8652 46.9494 12.8652 46.975C12.8652 50.5527 15.9824 53.4659 19.8105 53.4659C23.6387 53.4659 26.7559 50.5527 26.7559 46.975C26.7559 46.9494 26.7559 46.9366 26.7559 46.9111H51.4609C51.4609 46.9366 51.4609 46.9494 51.4609 46.975C51.4609 50.5527 54.5781 53.4659 58.4062 53.4659C62.2344 53.4659 65.3516 50.5527 65.3516 46.975C65.3516 46.9494 65.3516 46.9366 65.3516 46.9111H68.9062C69.5078 46.9111 70 46.4511 70 45.8889V34.9642C70 32.2554 67.8672 30.0193 65.1055 29.6232ZM19.7969 51.4088C17.1719 51.4088 15.0527 49.4155 15.0527 46.975C15.0527 44.5345 17.1855 42.5412 19.7969 42.5412C22.4082 42.5412 24.541 44.5345 24.541 46.975C24.5547 49.4155 22.4219 51.4088 19.7969 51.4088ZM51.2969 18.494H59.5547C60.8809 18.494 61.9609 19.5035 61.9609 20.7429V20.8068H51.2969V18.494ZM51.2969 22.8639H61.0312L62.8223 29.5593H51.2969V22.8639ZM58.3789 51.4088C55.7539 51.4088 53.6348 49.4155 53.6348 46.975C53.6348 44.5345 55.7676 42.5412 58.3789 42.5412C61.0039 42.5412 63.123 44.5345 63.123 46.975C63.1367 49.4155 61.0039 51.4088 58.3789 51.4088ZM67.8125 44.8539H64.9414C63.998 42.3112 61.4141 40.484 58.3789 40.484C55.3438 40.484 52.7598 42.3112 51.8164 44.8539H51.2832V31.6037H64.2168C65.8027 31.6037 67.1562 32.5876 67.6211 33.9292H64.2168C63.6152 33.9292 63.123 34.3892 63.123 34.9514V37.1363C63.123 38.9124 64.668 40.3435 66.5547 40.3435H67.7988V44.8539H67.8125ZM67.8125 38.2991H66.5684C65.8848 38.2991 65.3242 37.7752 65.3242 37.1363V35.9736H67.8125V38.2991Z" fill="#F04C41"/>
<path d="M19.7969 44.8538C18.5527 44.8538 17.5273 45.7993 17.5273 46.9748C17.5273 48.1503 18.5391 49.0959 19.7969 49.0959C21.041 49.0959 22.0664 48.1503 22.0664 46.9748C22.0664 45.7993 21.0547 44.8538 19.7969 44.8538Z" fill="#F04C41"/>
<path d="M58.3789 44.8538C57.1348 44.8538 56.1094 45.7993 56.1094 46.9748C56.1094 48.1503 57.1211 49.0959 58.3789 49.0959C59.6367 49.0959 60.6484 48.1503 60.6484 46.9748C60.6484 45.7993 59.6367 44.8538 58.3789 44.8538Z" fill="#F04C41"/>
<path d="M45.5273 40.4841H29.1484C28.5469 40.4841 28.0547 40.9441 28.0547 41.5063C28.0547 42.0685 28.5469 42.5285 29.1484 42.5285H45.5273C46.1289 42.5285 46.6211 42.0685 46.6211 41.5063C46.6211 40.9441 46.1289 40.4841 45.5273 40.4841Z" fill="#F04C41"/>
<path d="M18.0059 36.1143H3.97852C3.37695 36.1143 2.88477 36.5742 2.88477 37.1365C2.88477 37.6987 3.37695 38.1586 3.97852 38.1586H18.0059C18.6074 38.1586 19.0996 37.6987 19.0996 37.1365C19.0996 36.5742 18.6211 36.1143 18.0059 36.1143Z" fill="#F04C41"/>
<path d="M38.1172 22.2124C37.6934 21.8163 36.9961 21.8163 36.5723 22.2124L26.8242 31.3227L21.752 26.5823C21.3281 26.1862 20.6309 26.1862 20.207 26.5823C19.7832 26.9784 19.7832 27.63 20.207 28.0261L26.0586 33.4949C26.2774 33.6993 26.5508 33.7887 26.8379 33.7887C27.125 33.7887 27.3984 33.6865 27.6172 33.4949L38.1445 23.6562C38.541 23.2601 38.541 22.6085 38.1172 22.2124Z" fill="#F04C41"/>
</svg>
