<svg width="70" height="70" viewBox="0 0 70 70" fill="none" xmlns="http://www.w3.org/2000/svg">
<g clip-path="url(#clip0_223_19)">
<path d="M0.451172 16.3789C0.724609 16.5566 1.01172 16.5566 1.32617 16.5566C1.66797 16.5566 15.4902 16.5703 15.6816 16.5293C16.1465 16.4063 16.4473 15.9961 16.4609 15.5313C16.4609 15.4766 16.4746 1.73633 16.4609 1.14844C16.4473 0.533203 15.9687 0.109375 15.3809 0.109375C15.1484 0.109375 1.81836 0.109375 1.10742 0.109375C0.505859 0.109375 0.0136719 0.519531 0 1.13477C0 1.29883 0 15.4629 0 15.5176C0 15.8594 0.164062 16.1875 0.451172 16.3789ZM9.67969 8.32617L14.4102 3.5957V13.043L9.67969 8.32617ZM12.9609 14.5059H3.5L8.23047 9.77539L12.9609 14.5059ZM8.23047 6.87695L3.5 2.14648H12.9473L8.23047 6.87695ZM6.78125 8.32617L2.05078 13.0566V3.60938L6.78125 8.32617Z" fill="#F04C41"/>
<path d="M54.0039 16.3789C54.2774 16.5566 54.5645 16.5566 54.8789 16.5566C55.2207 16.5566 69.043 16.5703 69.2344 16.5293C69.6992 16.4063 70 15.9961 70.0137 15.5313C70.0137 15.4766 70.0273 1.73633 70.0137 1.14844C70 0.533203 69.5215 0.109375 68.9336 0.109375C68.7012 0.109375 55.3711 0.109375 54.6602 0.109375C54.0586 0.109375 53.5664 0.519531 53.5527 1.13477C53.5527 1.29883 53.5527 15.4629 53.5527 15.5176C53.5391 15.8594 53.7031 16.1875 54.0039 16.3789ZM63.2188 8.32617L67.9492 3.60938V13.0566L63.2188 8.32617ZM66.5 14.5059H57.0527L61.7832 9.77539L66.5 14.5059ZM61.7695 6.87695L57.0391 2.14648H66.4863L61.7695 6.87695ZM60.3203 8.32617L55.5899 13.0566V3.60938L60.3203 8.32617Z" fill="#F04C41"/>
<path d="M33.4551 12.1953C33.7012 12.1953 33.9473 12.0996 34.1387 11.8945L40.1406 5.55078C40.5234 5.1543 40.5234 4.49805 40.1406 4.10156C39.7578 3.70508 39.1426 3.70508 38.7734 4.10156L33.4551 9.7207L31.2266 7.36914C30.8437 6.97266 30.2285 6.97266 29.8594 7.36914C29.4766 7.76562 29.4766 8.42187 29.8594 8.81836L32.7715 11.8945C32.9629 12.0859 33.209 12.1953 33.4551 12.1953Z" fill="#F04C41"/>
<path d="M61.9883 19.8378C61.4414 19.7148 60.8809 20.0566 60.7578 20.6034C60.7441 20.6718 59.2129 27.0155 52.1445 30.1191C51.625 30.3515 51.3926 30.953 51.6113 31.4726C51.7754 31.8554 52.1582 32.0878 52.5547 32.0878C52.6914 32.0878 52.8281 32.0605 52.9648 32.0058C60.9629 28.4921 62.6855 21.3827 62.7539 21.0819C62.8769 20.5214 62.5351 19.9609 61.9883 19.8378Z" fill="#F04C41"/>
<path d="M17.8555 30.1191C10.8418 27.0429 9.31053 20.8769 9.24217 20.6034C9.11913 20.0566 8.55858 19.7148 8.01171 19.8378C7.46483 19.9609 7.10936 20.5214 7.24608 21.0683C7.31444 21.3691 9.0371 28.4921 17.0351 31.9921C17.1719 32.0468 17.3086 32.0741 17.4453 32.0741C17.8418 32.0741 18.2109 31.8417 18.3887 31.4589C18.6074 30.953 18.375 30.3515 17.8555 30.1191Z" fill="#F04C41"/>
<path d="M51.9258 61.0313H50.9961V35.1504C50.9961 33.127 49.3555 31.4863 47.3321 31.4863H47.3047C46.7305 31.4863 46.1836 31.6231 45.6914 31.8555V31.6504C45.6914 29.3262 43.8047 27.4395 41.4805 27.4395C40.7012 27.4395 39.9629 27.6445 39.3067 28.041C39.1289 25.8809 37.3106 24.1719 35.0957 24.1719H34.836C34.043 24.1719 33.3047 24.3906 32.6621 24.7734V16.5566H46.293C47.6875 16.5566 48.8086 15.4219 48.8086 14.041V2.625C48.8086 1.23047 47.6738 0.109375 46.293 0.109375H23.6934C22.2988 0.109375 21.1777 1.24414 21.1777 2.625V14.041C21.1777 15.1758 21.9434 16.1465 22.9824 16.4609V21.1367C22.9824 21.6973 23.4473 22.1621 24.0078 22.1621C24.5684 22.1621 25.0332 21.6973 25.0332 21.1367V14.9297C25.0332 14.1777 25.3203 13.4805 25.8535 12.9473C26.3867 12.4141 27.084 12.127 27.836 12.127C29.3809 12.127 30.6387 13.3848 30.6387 14.9297V28.4102C30.6387 28.9707 31.1035 29.4356 31.6641 29.4356C32.2246 29.4356 32.6895 28.9707 32.6895 28.4102C32.6895 27.207 33.6602 26.2363 34.8633 26.2363H35.1231C36.3262 26.2363 37.2969 27.207 37.2969 28.4102V31.6641C37.2969 32.2246 37.7617 32.6895 38.3223 32.6895C38.8828 32.6895 39.3477 32.2246 39.3477 31.6641C39.3477 31.0898 39.5664 30.543 39.9766 30.1328C40.3867 29.7227 40.9199 29.5039 41.4942 29.5039C42.6836 29.5039 43.6543 30.4746 43.6543 31.6641V33.8516C43.6543 34.3027 43.9551 34.6992 44.3926 34.8359L44.6934 34.918C45.1582 35.0547 45.6641 34.8496 45.8965 34.4121C46.1699 33.8789 46.7305 33.5371 47.3321 33.5371H47.3457C48.2344 33.5371 48.959 34.2617 48.959 35.1504V61.0313H31.1172V60.6074C31.1172 60.5801 31.1172 60.5664 31.1172 60.5391C30.9805 58.3242 29.2715 55.9727 26.0586 53.5664C22.6953 51.0371 20.6856 46.9902 20.6856 42.7246V40.3047C20.6856 39.1426 21.6289 38.2129 22.7774 38.2129H22.9824V43.5449C22.9824 44.1055 23.4473 44.5703 24.0078 44.5703C24.5684 44.5703 25.0332 44.1055 25.0332 43.5449V37.1875V37.1738V25.7168C25.0332 25.1563 24.5684 24.6914 24.0078 24.6914C23.4473 24.6914 22.9824 25.1563 22.9824 25.7168V36.1621H22.7774C20.4942 36.1621 18.6348 38.0215 18.6348 40.3047V42.7246C18.6348 47.6328 20.9453 52.2949 24.8281 55.207C27.4942 57.2031 28.957 59.0762 29.0664 60.6348V61.0313H28.3418C27.7813 61.0313 27.3164 61.4961 27.3164 62.0566V68.8789C27.3164 69.4395 27.7813 69.9043 28.3418 69.9043H42.3281C42.6153 69.9043 42.875 69.7949 43.0664 69.5899C43.2578 69.3848 43.3672 69.1113 43.3535 68.8379C43.3535 68.8242 43.3535 68.7969 43.3535 68.7832C43.3125 68.2363 42.8477 67.8262 42.2871 67.8399C42.2461 67.8399 42.1914 67.8399 42.1504 67.8535H29.3672V63.082H50.9004V67.8535H47.086C47.0176 67.8399 46.9356 67.8399 46.8672 67.8399C46.3203 67.8672 45.8828 68.3047 45.8828 68.8516C45.8828 68.8652 45.8828 68.8926 45.8828 68.9063C45.8965 69.4668 46.3477 69.9043 46.9082 69.9043H51.9258C52.4863 69.9043 52.9512 69.4395 52.9512 68.8789V62.0566C52.9512 61.4961 52.4863 61.0313 51.9258 61.0313ZM27.8223 10.0625C26.5235 10.0625 25.3067 10.5684 24.3906 11.4844C23.8438 12.0313 23.461 12.6738 23.2149 13.3711V2.625C23.2149 2.36523 23.4199 2.16016 23.6797 2.16016H46.293C46.5528 2.16016 46.7578 2.36523 46.7578 2.625V14.041C46.7578 14.3008 46.5528 14.5059 46.293 14.5059H32.6485C32.4434 12.0176 30.3653 10.0625 27.8223 10.0625Z" fill="#F04C41"/>
<path d="M30.1328 64.9414V65.5566C30.1328 66.1172 30.5977 66.582 31.1582 66.582C31.7187 66.582 32.1836 66.1172 32.1836 65.5566V64.9414C32.1836 64.3809 31.7187 63.916 31.1582 63.916C30.5977 63.916 30.1328 64.3672 30.1328 64.9414Z" fill="#F04C41"/>
</g>
<defs>
<clipPath id="clip0_223_19">
<rect width="70" height="70" fill="white"/>
</clipPath>
</defs>
</svg>
