<svg width="70" height="71" viewBox="0 0 70 71" fill="none" xmlns="http://www.w3.org/2000/svg">
<g clip-path="url(#clip0_224_14)">
<path d="M58.9612 6.87109C57.0874 6.87109 55.5693 8.38867 55.5693 10.2617C55.5693 12.1348 57.0874 13.6523 58.9612 13.6523C60.8349 13.6523 62.353 12.1348 62.353 10.2617C62.3394 8.38867 60.8212 6.87109 58.9612 6.87109ZM58.9612 11.6016C58.2226 11.6016 57.6208 11 57.6208 10.2617C57.6208 9.52344 58.2226 8.92188 58.9612 8.92188C59.6997 8.92188 60.3015 9.52344 60.3015 10.2617C60.2878 11 59.6997 11.6016 58.9612 11.6016Z" fill="#F04C41"/>
<path d="M69.1094 9.5526L60.6297 1.18418C59.6997 0.268033 58.1952 0.268033 57.2652 1.18418L51.9449 6.42128L50.4815 7.85704L48.7855 9.53892C48.1974 10.1132 47.8692 10.9063 47.8692 11.7267V17.1963C47.8829 18.2355 47.8829 18.2492 47.8965 18.6457H15.4412C14.1282 18.6457 13.0478 19.7123 13.0478 21.0387V48.4684H1.70961C0.765907 48.4684 0 49.2342 0 50.1777V68.7878C0 69.7313 0.765907 70.4971 1.70961 70.4971H14.7984C16.1114 70.4971 17.1919 69.4305 17.1919 68.1041V66.3402H50.1122C52.1911 66.3402 53.887 64.6446 53.887 62.5662C53.887 62.3611 53.8733 62.156 53.846 61.9646H56.6498C57.9627 61.9646 59.0432 60.898 59.0432 59.5716V40.7701C59.0432 40.2094 58.5782 39.7445 58.0174 39.7445C57.4567 39.7445 56.9917 40.2094 56.9917 40.7701V59.5716C56.9917 59.7631 56.8412 59.9135 56.6498 59.9135H52.7929C52.109 59.2161 51.1516 58.7922 50.0985 58.7922H41.8513C42.0838 58.3136 42.2069 57.794 42.2069 57.2334C42.2069 55.237 40.5794 53.6235 38.5962 53.6235H34.3427C33.317 53.6235 32.3049 53.4321 31.3475 53.0629L28.0924 51.8049C26.9025 51.34 25.6442 51.1075 24.3586 51.1075H17.1782V50.8751C17.1782 49.6581 16.2618 48.6462 15.0856 48.5095V21.0523C15.0856 20.8609 15.2361 20.7105 15.4276 20.7105H28.913V50.1777C28.913 50.7383 29.378 51.2032 29.9388 51.2032C30.4995 51.2032 30.9645 50.7383 30.9645 50.1777V20.7105H41.5094V50.164C41.5094 50.7246 41.9744 51.1896 42.5352 51.1896C43.0959 51.1896 43.561 50.7246 43.561 50.164V20.7105H47.8692V34.8629C47.8692 36.162 48.9223 37.2149 50.2216 37.2149H67.646C68.9453 37.2149 69.9984 36.162 69.9984 34.8629V11.7404C70.0258 10.92 69.6975 10.1269 69.1094 9.5526ZM17.1919 53.1586H24.3723C25.398 53.1586 26.4101 53.35 27.3538 53.7192L30.6089 54.9772C31.7988 55.4421 33.0571 55.6746 34.3427 55.6746H38.5962C39.4579 55.6746 40.1554 56.372 40.1554 57.2334C40.1554 58.0949 39.4579 58.7922 38.5962 58.7922H32.6058C32.045 58.7922 31.58 59.2571 31.58 59.8178C31.58 60.3784 32.045 60.8433 32.6058 60.8433H50.1122C51.0696 60.8433 51.8355 61.6227 51.8355 62.5662C51.8355 63.5234 51.0559 64.2891 50.1122 64.2891H17.1919V53.1586ZM7.93261 68.4597H2.05154V50.5332H7.93261V68.4597ZM15.1403 50.8751V68.1178C15.1403 68.3092 14.9899 68.4597 14.7984 68.4597H9.98414V50.5332H14.7984C14.9899 50.5332 15.1403 50.6836 15.1403 50.8751ZM67.9742 34.8629C67.9742 35.027 67.8375 35.1638 67.6733 35.1638H50.2353C50.0712 35.1638 49.9344 35.027 49.9344 34.8629V18.7551V11.7404C49.9344 11.4669 50.0438 11.2071 50.2353 11.0157L51.6167 9.66199L53.1758 8.11684L58.7013 2.66096C58.7697 2.59259 58.8517 2.56524 58.9475 2.56524C59.0432 2.56524 59.1253 2.59259 59.1937 2.66096L67.6733 11.0157C67.8648 11.2071 67.9742 11.4669 67.9742 11.7404V34.8629Z" fill="#F04C41"/>
<path d="M58.9612 20.2313C59.7818 20.2313 60.4383 20.9014 60.4383 21.7081C60.4383 22.2687 60.9033 22.7337 61.464 22.7337C62.0248 22.7337 62.4898 22.2687 62.4898 21.7081C62.4898 20.1219 61.4367 18.7682 59.9869 18.3307V16.9633C59.9869 16.4027 59.5219 15.9377 58.9612 15.9377C58.4004 15.9377 57.9354 16.4027 57.9354 16.9633V18.3307C56.4856 18.7682 55.4325 20.1219 55.4325 21.7081C55.4325 23.6498 57.019 25.236 58.9612 25.236C58.9885 25.236 59.0159 25.236 59.0432 25.236C59.8228 25.277 60.4383 25.9197 60.4383 26.7128C60.4383 27.5332 59.7681 28.1895 58.9612 28.1895C58.1542 28.1895 57.484 27.5195 57.484 26.7128C57.484 26.1521 57.019 25.6872 56.4583 25.6872C55.8975 25.6872 55.4325 26.1521 55.4325 26.7128C55.4325 28.2989 56.4856 29.6526 57.9354 30.0902V31.4576C57.9354 32.0182 58.4004 32.4831 58.9612 32.4831C59.5219 32.4831 59.9869 32.0182 59.9869 31.4576V30.0902C61.4367 29.6526 62.4898 28.2989 62.4898 26.7128C62.4898 24.7711 60.9033 23.1849 58.9612 23.1849C58.9338 23.1849 58.9064 23.1849 58.8791 23.1849C58.0995 23.1439 57.484 22.5012 57.484 21.7081C57.4704 20.8877 58.1405 20.2313 58.9612 20.2313Z" fill="#F04C41"/>
<path d="M45.4863 4.69734C43.5313 5.05281 42.5879 5.77742 42.5879 5.77742L43.9414 7.34969C43.9414 7.34969 45.3906 6.26961 48.6445 6.72078C49.082 6.77547 49.5195 6.55672 49.711 6.14656C49.9844 5.58601 49.6836 4.88875 49.082 4.72469C47.9473 4.41023 46.7305 4.47859 45.4863 4.69734ZM46.9629 11.3009C46.6895 10.8087 46.0606 10.6309 45.5684 10.918C44.3516 11.6016 43.0117 12.7227 42.0274 13.8438C41.3438 13.3106 40.5098 13.0098 39.6348 13.0098H39.2246C40.5508 10.3575 42.1504 8.42976 43.9277 7.36336C44.4199 7.07625 44.5703 6.44734 44.2832 5.95515C43.9961 5.46297 43.3672 5.31258 42.875 5.59969C40.5235 6.99422 38.5274 9.4825 36.9414 12.9962H35.5195C32.8535 7.0489 28.7793 3.84969 24.5137 4.4239C21.4375 4.83406 19.0039 7.25398 18.6074 10.3165C18.1973 13.42 19.8652 16.3731 23.1465 18.6563H27.3848C22.7637 16.6602 20.2344 13.6524 20.6445 10.5762C20.918 8.44344 22.627 6.74812 24.7871 6.44734C27.9043 6.02351 30.9942 8.45711 33.25 12.9825H32.7031C31.8418 12.9825 31.0215 13.2559 30.3379 13.7755C29.3672 12.7364 28.4238 11.9434 26.9883 10.9317C26.5234 10.6036 25.8945 10.713 25.5527 11.1778C25.2246 11.6427 25.334 12.2852 25.7988 12.6134C27.3711 13.7345 28.2188 14.5137 29.0664 15.4434C28.8887 15.8946 28.793 16.3731 28.793 16.879V18.67H30.8438V16.8927C30.8438 16.5372 30.9531 16.1817 31.1445 15.8809C31.1445 15.8673 31.1582 15.8673 31.1582 15.8536C31.2266 15.7579 31.2949 15.6759 31.377 15.5938C31.7188 15.252 32.1836 15.0606 32.6758 15.0606L39.5801 15.0743C39.8945 15.0743 40.1953 15.1563 40.4688 15.3067C40.6192 15.3887 40.7559 15.4981 40.8789 15.6212C41.2344 15.9766 41.4258 16.4278 41.4121 16.92V18.67H43.4629V16.92C43.4629 16.4415 43.3809 15.9903 43.2168 15.5528C44.0371 14.5274 45.4043 13.3516 46.5254 12.7091C47.0723 12.422 47.25 11.793 46.9629 11.3009Z" fill="#F04C41"/>
</g>
<defs>
<clipPath id="clip0_224_14">
<rect width="70" height="70" fill="white" transform="translate(0 0.5)"/>
</clipPath>
</defs>
</svg>
