<svg width="1324" height="564" viewBox="0 0 1324 564" fill="none" xmlns="http://www.w3.org/2000/svg">
<mask id="mask0_224_67" style="mask-type:alpha" maskUnits="userSpaceOnUse" x="0" y="0" width="1324" height="564">
<rect width="1324" height="564" rx="60" fill="#5ECBAD"/>
</mask>
<g mask="url(#mask0_224_67)">
<g opacity="0.3" filter="url(#filter0_f_224_67)">
<path d="M566.5 589.999C546 572.999 418 441.998 249.5 441.998C35.4673 441.998 -77.5 263.498 -49 208.998" stroke="#FFF7AD" stroke-width="8"/>
</g>
<g opacity="0.3" filter="url(#filter1_f_224_67)">
<path d="M1055.5 643.998C1024.5 496.999 645.5 225.775 502 247.999C276 282.999 92.9999 149.499 99.4998 -54.5013" stroke="#FFF7AD" stroke-width="8"/>
</g>
<g opacity="0.3" filter="url(#filter2_f_224_67)">
<path d="M1327.99 399.724C1314.79 258.393 1184.86 93.5175 999.568 193.397C794.862 303.74 611.544 137.961 570.277 -78.8171" stroke="#FFF7AD" stroke-width="10"/>
</g>
<path d="M640 676.498C641.811 665.252 457.5 434.999 255.5 443.999C104.506 450.726 -68.7831 344.22 -71.5 115.5" stroke="#FFF7AD" stroke-width="3"/>
<path d="M831 635C833.305 620.69 646.796 370.999 385.796 338.499C194.946 314.734 32.7959 243.498 -50.7041 -27.0014" stroke="#FFF7AD" stroke-width="20" stroke-dasharray="100 50"/>
<path d="M1052 640.499C1012 485.999 655.556 224.499 430.5 224.499C255.7 224.499 143 190.998 100.5 -2.50138" stroke="#FFF7AD" stroke-width="3"/>
<path d="M1331.4 443.51C1331.38 280.334 1197.56 86.4122 1000.09 194.388C867.481 266.903 669.187 216.765 593 1.08987" stroke="#FFF7AD" stroke-width="3"/>
</g>
<defs>
<filter id="filter0_f_224_67" x="-61.3495" y="203.145" width="634.403" height="393.933" filterUnits="userSpaceOnUse" color-interpolation-filters="sRGB">
<feFlood flood-opacity="0" result="BackgroundImageFix"/>
<feBlend mode="normal" in="SourceGraphic" in2="BackgroundImageFix" result="shape"/>
<feGaussianBlur stdDeviation="2" result="effect1_foregroundBlur_224_67"/>
</filter>
<filter id="filter1_f_224_67" x="91.3318" y="-58.6287" width="972.082" height="707.453" filterUnits="userSpaceOnUse" color-interpolation-filters="sRGB">
<feFlood flood-opacity="0" result="BackgroundImageFix"/>
<feBlend mode="normal" in="SourceGraphic" in2="BackgroundImageFix" result="shape"/>
<feGaussianBlur stdDeviation="2" result="effect1_foregroundBlur_224_67"/>
</filter>
<filter id="filter2_f_224_67" x="561.365" y="-83.7522" width="775.605" height="487.941" filterUnits="userSpaceOnUse" color-interpolation-filters="sRGB">
<feFlood flood-opacity="0" result="BackgroundImageFix"/>
<feBlend mode="normal" in="SourceGraphic" in2="BackgroundImageFix" result="shape"/>
<feGaussianBlur stdDeviation="2" result="effect1_foregroundBlur_224_67"/>
</filter>
</defs>
</svg>
