<svg width="71" height="70" viewBox="0 0 71 70" fill="none" xmlns="http://www.w3.org/2000/svg">
<g clip-path="url(#clip0_320_2915)">
<path d="M51.2683 50.6101C51.055 50.0312 50.9332 49.6961 50.9332 49.5132C50.9332 49.3304 51.055 48.9953 51.2683 48.4164C51.2683 48.4062 51.2785 48.3961 51.2785 48.3757C51.4511 47.8476 51.3902 47.2687 51.116 46.7914C50.8417 46.314 50.3644 45.9687 49.8261 45.857C49.816 45.857 49.8058 45.857 49.7957 45.8468C49.2167 45.7453 48.8308 45.6843 48.6785 45.5929C48.5261 45.5015 48.3027 45.2476 47.8964 44.75C47.8863 44.7398 47.8761 44.7296 47.8761 44.7195C47.5105 44.3031 46.9722 44.0695 46.4238 44.0695C45.8652 44.0695 45.3371 44.3031 44.9714 44.7195C44.9613 44.7296 44.9511 44.7398 44.9511 44.75C44.5753 45.1968 44.3316 45.5015 44.1691 45.5929C44.0167 45.6843 43.6816 45.7453 43.0519 45.8468C43.0417 45.8468 43.0316 45.8468 43.0113 45.857C42.4628 45.9687 41.9957 46.314 41.7214 46.7914C41.4472 47.2687 41.3863 47.8476 41.5589 48.3757L41.9347 49.5031C41.9042 49.6656 41.7824 49.9906 41.7214 50.1531C41.6503 50.3461 41.5894 50.5187 41.5386 50.6914C41.3863 51.2093 41.4472 51.7679 41.7113 52.225C41.9855 52.7023 42.4628 53.0476 43.0011 53.1593C43.0113 53.1593 43.0214 53.1593 43.0316 53.1695C43.6105 53.2711 43.9964 53.332 44.1488 53.4234C44.3011 53.5148 44.5246 53.7687 44.9308 54.2664C44.941 54.2765 44.9511 54.2867 44.9511 54.2968C45.3167 54.7132 45.855 54.9468 46.4035 54.9468C46.9621 54.9468 47.4902 54.7132 47.8558 54.2968C47.866 54.2867 47.8761 54.2765 47.8761 54.2664C48.2519 53.8195 48.4957 53.5148 48.6582 53.4234C48.8105 53.332 49.1457 53.2711 49.7753 53.1695C49.7855 53.1695 49.7957 53.1695 49.8058 53.1593C50.3542 53.0476 50.8214 52.7023 51.0957 52.225C51.3699 51.7476 51.4308 51.1687 51.2582 50.6406C51.2683 50.6304 51.2683 50.6203 51.2683 50.6101ZM46.4035 53.5047C45.1847 52.0523 44.8089 51.839 42.93 51.5039C42.9605 51.4125 43.0011 51.3007 43.0417 51.1992C43.316 50.4476 43.6613 49.5234 43.3363 48.7109L42.9402 47.5226C44.8089 47.1976 45.1847 46.9742 46.4035 45.5218C47.6222 46.9742 47.998 47.1875 49.8566 47.5125C49.2167 49.2695 49.2167 49.7468 49.8566 51.5039C47.998 51.839 47.6222 52.0523 46.4035 53.5047Z" fill="#46AD91"/>
<path d="M46.4034 51.768C47.6486 51.768 48.6581 50.7585 48.6581 49.5133C48.6581 48.2681 47.6486 47.2586 46.4034 47.2586C45.1581 47.2586 44.1487 48.2681 44.1487 49.5133C44.1487 50.7585 45.1581 51.768 46.4034 51.768Z" fill="#46AD91"/>
<path d="M54.7214 20.9336H48.0589C48.1198 20.7304 48.1604 20.507 48.1604 20.2836V16.3023C48.1604 15.7031 47.9776 15.1242 47.6222 14.6367L46.6776 13.3164C46.3323 12.8289 45.8042 12.514 45.2151 12.4226C44.6159 12.3414 44.037 12.4937 43.5597 12.8593L38.7862 16.6172H37.0394L32.2659 12.8593C31.7987 12.4937 31.2097 12.3312 30.6104 12.4226C30.0214 12.5039 29.4933 12.8187 29.1479 13.3164L28.2034 14.6367C27.8479 15.1242 27.6651 15.7031 27.6651 16.3023V20.2836C27.6651 20.507 27.7058 20.7304 27.7667 20.9336H21.1042C19.8854 20.9336 18.8901 21.9289 18.8901 23.1375V27.2812C18.8901 28.307 19.6011 29.1804 20.5558 29.4242L17.9659 33.5273L12.4409 24.7726C12.1362 24.2953 11.6487 23.9804 11.1003 23.8992C10.5417 23.8179 9.98311 23.9804 9.55654 24.3461L7.78936 25.8797C7.1292 26.4586 6.75342 27.2812 6.75342 28.1648V31.2117C6.75342 32.3593 7.17998 33.4054 7.89092 34.2078H7.26123C5.97139 34.2078 4.92529 35.2539 4.92529 36.5437V55.2719C4.92529 56.5617 5.97139 57.6078 7.26123 57.6078H52.6089C53.9698 57.6078 55.0769 56.5008 55.0769 55.15V29.4648C56.1229 29.2922 56.9354 28.3781 56.9354 27.2812V23.1375C56.9253 21.9289 55.9401 20.9336 54.7214 20.9336ZM44.5042 14.0578C44.6464 13.9461 44.819 13.8953 45.0019 13.9258C45.1847 13.9562 45.337 14.0476 45.4386 14.1898L46.3831 15.5101C46.5456 15.7437 46.637 16.0078 46.637 16.2922V20.2734C46.637 20.6289 46.3425 20.9234 45.987 20.9234H42.5948C42.6354 20.7812 42.6253 20.0601 42.6253 19.7961L44.4331 18.4656C44.7683 18.2117 44.8394 17.7343 44.5854 17.3992C44.3315 17.064 43.8542 16.9929 43.519 17.2468L42.2394 18.2015C41.9347 17.6429 41.4472 17.1961 40.8784 16.9218L44.5042 14.0578ZM36.2573 18.1406H39.5581C40.3097 18.1406 41.112 18.8109 41.1019 19.6843V20.4968C41.1019 21.35 40.4112 22.0406 39.5581 22.0406H36.2573C35.4042 22.0406 34.7136 21.35 34.7136 20.4968V19.6843C34.7034 18.9531 35.3737 18.1406 36.2573 18.1406ZM29.1886 16.3023C29.1886 16.0179 29.28 15.7437 29.4425 15.5203L30.387 14.2C30.4886 14.0578 30.6511 13.9562 30.8237 13.9359C31.0065 13.9054 31.1792 13.9562 31.3214 14.0679L34.9472 16.9218C34.3683 17.1961 33.8808 17.6531 33.5761 18.2117L32.1847 17.1859C31.8394 16.9422 31.3722 17.0133 31.1183 17.3484C30.8644 17.6937 30.9456 18.1609 31.2808 18.4148L33.1901 19.8164C33.2003 20.2734 33.1597 20.4156 33.2206 20.9336H29.8386C29.4831 20.9336 29.1886 20.639 29.1886 20.2836V16.3023ZM20.4136 27.2914V23.1476C20.4136 22.7718 20.7183 22.4672 21.1042 22.4672H33.9112C34.4698 23.1375 35.3229 23.564 36.2573 23.564H37.1511V27.982H29.1886C29.1378 27.1797 28.7722 26.4179 28.1526 25.8898L26.3855 24.3562C25.9589 23.9906 25.4003 23.8281 24.8417 23.9093C24.2831 23.9906 23.7956 24.3156 23.5011 24.7828L21.48 27.9718H21.1042C20.7284 27.9718 20.4136 27.6672 20.4136 27.2914ZM8.27686 28.1648C8.27686 27.7281 8.46982 27.3218 8.79482 27.0375L10.562 25.5039C10.7448 25.3718 10.9479 25.3414 11.1612 25.5953L15.8534 33.0398L12.4206 31.2929C12.0448 31.1 11.5878 31.2523 11.3948 31.6281C11.2019 32.0039 11.3542 32.4609 11.73 32.6539L14.787 34.2078H11.2729C9.61748 34.2078 8.27686 32.8672 8.27686 31.2117V28.1648ZM6.44873 36.5336C6.44873 36.0867 6.81436 35.7211 7.26123 35.7211H13.6698V42.5562H6.44873V36.5336ZM6.44873 44.0797H13.6698V48.3758H6.44873V44.0797ZM13.6698 56.0742H7.26123C6.81436 56.0742 6.44873 55.7086 6.44873 55.2617V49.889H13.6698V56.0742ZM20.7487 56.0742H15.1933V35.7211H20.7487V56.0742ZM24.537 31.6179C24.344 31.2422 23.887 31.0898 23.5112 31.2828L20.0886 33.0297L24.7808 25.5851C24.862 25.4531 24.994 25.4125 25.055 25.4023C25.1261 25.3922 25.2581 25.3922 25.38 25.4937L27.1472 27.0273C27.4722 27.3117 27.6651 27.7179 27.6651 28.1547V31.2015C27.6651 32.8468 26.3245 34.1976 24.669 34.1976H21.1448L24.2019 32.6437C24.5776 32.4508 24.73 31.9937 24.537 31.6179ZM29.4933 55.2617C29.4933 55.7086 29.1276 56.0742 28.6808 56.0742H22.2722V49.889H29.4933V55.2617ZM29.4933 48.3758H22.2722V44.0797H29.4933V48.3758ZM29.4933 42.5562H22.2722V35.7211H28.6808C29.1276 35.7211 29.4933 36.0867 29.4933 36.5336V42.5562ZM37.1511 56.0742H30.8745C30.9659 55.8203 31.0167 55.5461 31.0167 55.2617V42.4445H37.1511V56.0742ZM53.5433 55.1398C53.5433 55.6578 53.1269 56.0844 52.5987 56.0844H38.6745V42.4445H53.5534V55.1398H53.5433ZM53.5433 40.9211H38.6745V32.2984C38.6745 31.882 38.3292 31.5367 37.9128 31.5367C37.4862 31.5367 37.1511 31.882 37.1511 32.2984V40.9211H31.0167V36.5336C31.0167 35.2437 29.9706 34.1976 28.6808 34.1976H28.0511C28.762 33.4054 29.1886 32.3492 29.1886 31.2015V29.4953H53.5433V40.9211ZM55.4019 27.2914C55.4019 27.6672 55.0972 27.9718 54.7214 27.9718H38.6745V23.5539H39.5581C40.5026 23.5539 41.3456 23.1273 41.9042 22.457H54.7214C55.0972 22.457 55.4019 22.7617 55.4019 23.1375V27.2914Z" fill="#46AD91"/>
</g>
<defs>
<clipPath id="clip0_320_2915">
<rect width="52" height="52" fill="white" transform="translate(4.92529 9)"/>
</clipPath>
</defs>
</svg>
